<svg width="1920" height="980" viewBox="0 0 1920 980" fill="none" xmlns="http://www.w3.org/2000/svg">
<rect width="1920" height="980" fill="#F2F2F2"/>
<path d="M608.449 724.284L610.735 722.891L608.664 717.926L613.736 715.925L613.129 713.389L607.735 713.818L607.413 708.388L604.734 708.21L603.484 713.496L598.305 712.032L597.269 714.497L601.912 717.39L598.983 721.819L600.984 723.605L605.091 720.105L608.449 724.284ZM622.373 718.14C623.266 718.14 623.659 718.676 623.659 720.176V733H626.481V718.962C627.017 718.426 627.589 718.14 628.232 718.14C629.16 718.14 629.589 718.676 629.589 720.212V733H633.268V718.819C633.268 716.175 632.268 714.747 630.232 714.747C628.66 714.747 627.41 715.604 626.446 716.676C626.088 715.461 625.267 714.747 623.874 714.747C622.409 714.747 621.159 715.604 620.194 716.676L620.052 715.14L616.658 715.354C616.801 719.39 616.801 724.999 616.801 733H620.48C620.48 727.142 620.445 722.391 620.373 719.069C621.016 718.462 621.695 718.14 622.373 718.14ZM644.013 733.536C648.764 733.536 652.694 729.642 652.694 723.713C652.694 717.926 649.622 714.675 645.156 714.675C640.441 714.675 636.476 718.747 636.476 724.534C636.476 730.285 639.62 733.536 644.013 733.536ZM644.728 730.321C642.156 730.321 640.513 728.106 640.513 723.784C640.513 719.89 642.084 717.926 644.478 717.926C647.05 717.926 648.693 720.14 648.693 724.427C648.693 728.356 647.121 730.321 644.728 730.321ZM667.904 733.071L671.583 732.893C671.369 728.821 671.297 723.212 671.297 715.211H667.332C667.332 720.962 667.368 725.57 667.439 728.856C666.368 729.607 665.189 730.071 663.867 730.071C662.045 730.071 660.902 729.071 660.902 725.927V715.104L656.937 715.354V727.32C656.937 731.678 658.902 733.464 662.01 733.464C664.474 733.464 666.261 732.321 667.689 731.071L667.904 733.071ZM689.865 715.032C680.542 714.389 677.256 717.319 677.256 720.391C677.256 724.856 686.757 725.499 686.757 728.035C686.757 729.428 684.578 730.249 677.506 729.785L677.363 733.179C687.615 733.643 690.901 730.892 690.901 727.82C690.901 723.355 681.363 722.319 681.363 719.926C681.363 718.676 683.4 717.89 690.008 718.462L689.865 715.032ZM710.255 733.429L710.648 730.107C702.789 729.928 700.11 728.749 699.681 725.177L711.148 724.856C711.791 718.676 709.397 714.747 704.397 714.747C699.717 714.747 695.716 718.962 695.716 724.427C695.716 730.214 698.753 733.536 710.255 733.429ZM703.682 717.997C706.147 717.997 707.254 719.748 707.361 722.569C705.147 722.641 701.539 722.748 699.646 722.82C699.824 719.497 701.253 717.997 703.682 717.997ZM726.894 710.853C726.894 710.853 723.5 723.07 723.25 724.034H723.107C722.857 723.07 719.428 710.853 719.428 710.853H715.427V733H719.107L718.892 718.212H719.035L721.964 728.606H724.215L727.108 718.212H727.251L727.037 733H730.823V710.853H726.894ZM742.211 733.536C746.962 733.536 750.891 729.642 750.891 723.713C750.891 717.926 747.819 714.675 743.354 714.675C738.639 714.675 734.674 718.747 734.674 724.534C734.674 730.285 737.817 733.536 742.211 733.536ZM742.925 730.321C740.354 730.321 738.71 728.106 738.71 723.784C738.71 719.89 740.282 717.926 742.675 717.926C745.247 717.926 746.89 720.14 746.89 724.427C746.89 728.356 745.319 730.321 742.925 730.321ZM762.636 729.142H762.386C760.707 724.463 759.207 719.676 757.814 715.068L753.813 715.354C755.671 721.212 757.778 727.249 759.993 733.143H764.815C767.066 727.249 769.281 721.141 771.102 715.211H767.102C765.744 719.783 764.28 724.498 762.636 729.142ZM788.813 733.429L789.206 730.107C781.347 729.928 778.668 728.749 778.239 725.177L789.706 724.856C790.349 718.676 787.956 714.747 782.955 714.747C778.275 714.747 774.274 718.962 774.274 724.427C774.274 730.214 777.311 733.536 788.813 733.429ZM782.24 717.997C784.705 717.997 785.812 719.748 785.919 722.569C783.705 722.641 780.097 722.748 778.204 722.82C778.382 719.497 779.811 717.997 782.24 717.997ZM804.845 724.284L807.131 722.891L805.059 717.926L810.131 715.925L809.524 713.389L804.13 713.818L803.809 708.388L801.13 708.21L799.879 713.496L794.7 712.032L793.664 714.497L798.308 717.39L795.379 721.819L797.379 723.605L801.487 720.105L804.845 724.284Z" fill="black"/>
<path d="M712.579 642.421C711.707 641.549 710.293 641.549 709.421 642.421L695.213 656.629C694.342 657.501 694.342 658.915 695.213 659.787C696.085 660.658 697.499 660.658 698.371 659.787L711 647.157L723.629 659.787C724.501 660.658 725.915 660.658 726.787 659.787C727.658 658.915 727.658 657.501 726.787 656.629L712.579 642.421ZM713.233 684.186V644H708.767V684.186H713.233Z" fill="#C4002F"/>
<path d="M1132.58 643.886C1131.71 643.015 1130.29 643.015 1129.42 643.886L1115.21 658.094C1114.34 658.966 1114.34 660.38 1115.21 661.252C1116.09 662.124 1117.5 662.124 1118.37 661.252L1131 648.622L1143.63 661.252C1144.5 662.124 1145.91 662.124 1146.79 661.252C1147.66 660.38 1147.66 658.966 1146.79 658.094L1132.58 643.886ZM1133.23 685.651V645.465H1128.77V685.651H1133.23Z" fill="#C4002F"/>
<path d="M1550.58 642.886C1549.71 642.015 1548.29 642.015 1547.42 642.886L1533.21 657.094C1532.34 657.966 1532.34 659.38 1533.21 660.252C1534.09 661.124 1535.5 661.124 1536.37 660.252L1549 647.622L1561.63 660.252C1562.5 661.124 1563.91 661.124 1564.79 660.252C1565.66 659.38 1565.66 657.966 1564.79 657.094L1550.58 642.886ZM1551.23 684.651V644.465H1546.77V684.651H1551.23Z" fill="#C4002F"/>
<path d="M264.931 605.768V660.837C264.931 673.989 275.593 684.651 288.745 684.651H1872.37" stroke="#C4002F" stroke-width="4.46512"/>
<path d="M1178.02 643.421C1177.15 642.549 1175.73 642.549 1174.86 643.421L1160.65 657.629C1159.78 658.501 1159.78 659.915 1160.65 660.787C1161.53 661.658 1162.94 661.658 1163.81 660.787L1176.44 648.157L1189.07 660.787C1189.94 661.658 1191.36 661.658 1192.23 660.787C1193.1 659.915 1193.1 658.501 1192.23 657.629L1178.02 643.421ZM1178.67 766V645H1174.21V766H1178.67Z" fill="#C4002F"/>
<path d="M1595.95 642.421C1595.08 641.549 1593.67 641.549 1592.79 642.421L1578.59 656.629C1577.71 657.501 1577.71 658.915 1578.59 659.787C1579.46 660.658 1580.87 660.658 1581.74 659.787L1594.37 647.157L1607 659.787C1607.87 660.658 1609.29 660.658 1610.16 659.787C1611.03 658.915 1611.03 657.501 1610.16 656.629L1595.95 642.421ZM1596.61 765V644H1592.14V765H1596.61Z" fill="#C4002F"/>
<path d="M778 582V741.186C778 754.338 788.662 765 801.814 765H1872" stroke="#C4002F" stroke-width="4.46512"/>
<path d="M1638.95 642.421C1638.08 641.549 1636.67 641.549 1635.79 642.421L1621.59 656.629C1620.71 657.501 1620.71 658.915 1621.59 659.787C1622.46 660.658 1623.87 660.658 1624.74 659.787L1637.37 647.157L1650 659.787C1650.87 660.658 1652.29 660.658 1653.16 659.787C1654.03 658.915 1654.03 657.501 1653.16 656.629L1638.95 642.421ZM1639.61 841V644H1635.14V841H1639.61Z" fill="#C4002F"/>
<path d="M1235 568V817.186C1235 830.338 1245.66 841 1258.81 841H1872" stroke="#C4002F" stroke-width="4.46512"/>
<path d="M1693 568V890.186C1693 903.338 1703.66 914 1716.81 914H1872" stroke="#C4002F" stroke-width="4.46512"/>
<path d="M1836.79 287.391C1838.09 286.084 1838.09 283.963 1836.79 282.655L1815.47 261.344C1814.17 260.036 1812.05 260.036 1810.74 261.344C1809.43 262.651 1809.43 264.772 1810.74 266.08L1829.68 285.023L1810.74 303.967C1809.43 305.275 1809.43 307.395 1810.74 308.703C1812.05 310.011 1814.17 310.011 1815.47 308.703L1836.79 287.391ZM47.6279 288.372H54.2951V281.675H47.6279V288.372ZM67.6293 288.372H80.9636V281.675H67.6293V288.372ZM94.2978 288.372H107.632V281.675H94.2978V288.372ZM120.966 288.372H134.301V281.675H120.966V288.372ZM147.635 288.372H160.969V281.675H147.635V288.372ZM174.303 288.372H187.638V281.675H174.303V288.372ZM200.972 288.372H214.306V281.675H200.972V288.372ZM227.64 288.372H240.975V281.675H227.64V288.372ZM254.309 288.372H267.643V281.675H254.309V288.372ZM280.977 288.372H294.312V281.675H280.977V288.372ZM307.646 288.372H320.98V281.675H307.646V288.372ZM334.315 288.372H347.649V281.675H334.315V288.372ZM360.983 288.372H374.317V281.675H360.983V288.372ZM387.652 288.372H400.986V281.675H387.652V288.372ZM414.32 288.372H427.654V281.675H414.32V288.372ZM440.989 288.372H454.323V281.675H440.989V288.372ZM467.657 288.372H480.991V281.675H467.657V288.372ZM494.326 288.372H507.66V281.675H494.326V288.372ZM520.994 288.372H534.328V281.675H520.994V288.372ZM547.663 288.372H560.997V281.675H547.663V288.372ZM574.331 288.372H587.665V281.675H574.331V288.372ZM601 288.372H614.334V281.675H601V288.372ZM627.668 288.372H641.002V281.675H627.668V288.372ZM654.337 288.372H667.671V281.675H654.337V288.372ZM681.005 288.372H694.339V281.675H681.005V288.372ZM707.673 288.372H721.008V281.675H707.673V288.372ZM734.342 288.372H747.676V281.675H734.342V288.372ZM761.01 288.372H774.345V281.675H761.01V288.372ZM787.679 288.372H801.013V281.675H787.679V288.372ZM814.347 288.372H827.682V281.675H814.347V288.372ZM841.016 288.372H854.35V281.675H841.016V288.372ZM867.684 288.372H881.018V281.675H867.684V288.372ZM894.353 288.372H907.687V281.675H894.353V288.372ZM921.021 288.372H934.355V281.675H921.021V288.372ZM947.69 288.372H961.024V281.675H947.69V288.372ZM974.358 288.372H987.692V281.675H974.358V288.372ZM1001.03 288.372H1014.36V281.675H1001.03V288.372ZM1027.69 288.372H1041.03V281.675H1027.69V288.372ZM1054.36 288.372H1067.7V281.675H1054.36V288.372ZM1081.03 288.372H1094.37V281.675H1081.03V288.372ZM1107.7 288.372H1121.03V281.675H1107.7V288.372ZM1134.37 288.372H1147.7V281.675H1134.37V288.372ZM1161.04 288.372H1174.37V281.675H1161.04V288.372ZM1187.71 288.372H1201.04V281.675H1187.71V288.372ZM1214.37 288.372H1227.71V281.675H1214.37V288.372ZM1241.04 288.372H1254.38V281.675H1241.04V288.372ZM1267.71 288.372H1281.05V281.675H1267.71V288.372ZM1294.38 288.372H1307.71V281.675H1294.38V288.372ZM1321.05 288.372H1334.38V281.675H1321.05V288.372ZM1347.72 288.372H1361.05V281.675H1347.72V288.372ZM1374.38 288.372H1387.72V281.675H1374.38V288.372ZM1401.05 288.372H1414.39V281.675H1401.05V288.372ZM1427.72 288.372H1441.06V281.675H1427.72V288.372ZM1454.39 288.372H1467.72V281.675H1454.39V288.372ZM1481.06 288.372H1494.39V281.675H1481.06V288.372ZM1507.73 288.372H1521.06V281.675H1507.73V288.372ZM1534.4 288.372H1547.73V281.675H1534.4V288.372ZM1561.06 288.372H1574.4V281.675H1561.06V288.372ZM1587.73 288.372H1601.07V281.675H1587.73V288.372ZM1614.4 288.372H1627.74V281.675H1614.4V288.372ZM1641.07 288.372H1654.4V281.675H1641.07V288.372ZM1667.74 288.372H1681.07V281.675H1667.74V288.372ZM1694.41 288.372H1707.74V281.675H1694.41V288.372ZM1721.07 288.372H1734.41V281.675H1721.07V288.372ZM1747.74 288.372H1761.08V281.675H1747.74V288.372ZM1774.41 288.372H1787.75V281.675H1774.41V288.372ZM1801.08 288.372H1814.41V281.675H1801.08V288.372ZM1827.75 288.372H1834.42V281.675H1827.75V288.372Z" fill="black"/>
<path d="M122.047 93.8637L410.047 47.6279V436.741L122.047 482.977V93.8637Z" fill="#DDD2E6" fill-opacity="0.97"/>
<path d="M122.047 483.073L410.047 436.837V583.345L122.047 629.581V483.073Z" fill="#FEE198" fill-opacity="0.98"/>
<path d="M205.822 552.786L196.017 554.361L195.031 548.224L203.249 546.904L202.773 543.941L194.556 545.262L193.592 539.266L203.185 537.725L202.641 534.339L188.992 536.532L192.506 558.398L206.049 556.222L205.822 552.786ZM224.652 550.231L219.079 551.126L217.328 540.228L223.254 539.276L222.772 536.278L216.847 537.23L216.745 536.595C216.24 533.456 216.82 532.784 223.205 531.542L222.346 527.772C214.196 529.516 212.201 533.309 212.926 537.824L212.932 537.859L208.629 538.55L208.758 541.605L213.414 540.857L215.165 551.755L210.721 552.469L211.191 555.396L224.769 553.215L224.652 550.231ZM244.043 547.115L238.47 548.011L236.719 537.113L242.644 536.161L242.163 533.163L236.238 534.115L236.136 533.48C235.631 530.341 236.211 529.669 242.596 528.426L241.737 524.657C233.587 526.4 231.592 530.194 232.317 534.708L232.323 534.744L228.02 535.435L228.149 538.489L232.804 537.741L234.555 548.64L230.112 549.353L230.582 552.281L244.16 550.099L244.043 547.115ZM263.725 547.39L263.586 544.048C255.799 545.118 252.966 544.379 251.977 540.92L263.247 538.784C262.901 532.58 259.915 529.08 254.977 529.874C250.357 530.616 247.076 535.412 247.943 540.809C248.861 546.522 252.385 549.32 263.725 547.39ZM254.788 533.197C257.221 532.806 258.592 534.358 259.146 537.127C256.97 537.549 253.425 538.227 251.567 538.598C251.217 535.29 252.389 533.582 254.788 533.197ZM267.857 537.573C268.73 543.004 272.285 546.666 283.106 543.987L282.972 540.68C275.146 542.407 272.382 540.97 271.657 536.456C271.113 533.07 272.13 530.844 280.958 529.716L280.116 526.052C269.611 527.776 267.069 532.67 267.857 537.573ZM302.449 541.024L302.351 537.711C296.973 538.467 295.213 538.098 294.771 535.347L293.468 527.235L300.098 526.17L299.617 523.172L292.986 524.237L292.17 519.159L288.347 520.135L289.107 524.861L285.862 525.382L285.991 528.437L289.588 527.859L290.988 536.57C291.713 541.084 294.571 542.434 302.449 541.024ZM342.349 534.324L342.139 530.993L336.849 531.843L333.75 512.551L330.027 513.474L330.441 516.049L325.1 517.486L325.629 520.331L330.967 519.329L333.075 532.449L327.15 533.401L327.677 536.681L342.349 534.324Z" fill="black"/>
<path d="M242.984 268.075L246.131 267.396L238.53 259.81L243.483 250.202L240.413 250.688L236.55 258.496L230.276 252.22L227.164 252.893L234.836 260.467L229.848 270.081L232.882 269.601L236.787 261.822L242.984 268.075ZM257.817 253.756L257.234 249.617L253.036 250.282L253.654 254.415L257.817 253.756ZM259.372 265.409L258.865 261.294L254.667 261.958L255.173 266.073L259.372 265.409ZM296.048 260.038C300.952 259.262 303.32 254.114 302.208 247.093C301.114 240.177 297.85 236.463 292.946 237.239C288.042 238.015 285.703 243.122 286.82 250.179C287.909 257.059 291.179 260.809 296.048 260.038ZM289.494 249.249C288.612 243.675 289.792 240.161 293.108 239.636C295.613 239.24 297.489 241.04 298.631 244.368L289.827 250.896C289.708 250.373 289.583 249.814 289.494 249.249ZM295.92 257.635C293.451 258.026 291.586 256.296 290.42 253.045L299.224 246.516C299.337 247.004 299.416 247.498 299.499 248.028C300.382 253.602 299.272 257.105 295.92 257.635ZM238.516 318.682C244.261 317.049 245.662 315.164 247.025 308.692C248.379 302.619 249.398 297.177 250.169 292.679L247.417 293.115C246.885 295.694 245.649 303.882 244.902 307.617L244.549 307.673C241.911 303.57 239.142 298.873 236.715 294.736L233.815 295.376C236.214 299.336 240.798 306.82 243.507 310.912L243.835 310.932C243.083 313.945 242.154 314.707 237.85 316.075L238.516 318.682ZM264.539 296.228L263.956 292.089L259.757 292.753L260.375 296.887L264.539 296.228ZM266.093 307.88L265.587 303.765L261.388 304.429L261.895 308.545L266.093 307.88ZM302.769 302.51C307.673 301.734 310.041 296.585 308.93 289.564C307.836 282.649 304.571 278.934 299.667 279.71C294.763 280.486 292.425 285.594 293.542 292.65C294.631 299.53 297.9 303.28 302.769 302.51ZM296.216 291.721C295.333 286.146 296.513 282.632 299.83 282.107C302.335 281.711 304.211 283.512 305.352 286.839L296.549 293.368C296.429 292.844 296.305 292.285 296.216 291.721ZM302.642 300.107C300.172 300.498 298.307 298.768 297.142 295.516L305.945 288.987C306.059 289.476 306.137 289.97 306.221 290.499C307.103 296.074 305.994 299.576 302.642 300.107Z" fill="black"/>
<path d="M224.297 217.673L228.55 216.447L221.882 207.822C223.69 206.012 224.9 203.864 224.458 201.113C223.727 196.563 219.877 194.215 209.276 197.365L212.784 219.197L216.769 218.556L215.556 211.009L219.001 210.383L224.297 217.673ZM213.755 199.794C217.931 198.544 220.15 199.743 220.615 202.635C220.921 204.539 220.218 206.244 218.93 207.464L215.103 208.187L213.755 199.794ZM245.75 214.334L245.611 210.992C237.824 212.062 234.992 211.323 234.002 207.864L245.272 205.728C244.927 199.525 241.94 196.025 237.003 196.818C232.383 197.56 229.101 202.357 229.968 207.753C230.886 213.466 234.411 216.265 245.75 214.334ZM236.813 200.141C239.247 199.75 240.618 201.302 241.171 204.072C238.996 204.493 235.451 205.172 233.593 205.542C233.242 202.234 234.415 200.526 236.813 200.141ZM256.438 197.132C258.237 196.844 259.559 197.644 260.058 200.748L261.758 211.328L265.673 210.699L263.752 198.743C263.066 194.476 260.802 192.994 257.734 193.487C255.3 193.878 253.683 195.296 252.476 196.792L251.942 194.816L248.343 195.611C249.195 199.563 250.155 205.088 251.424 212.989L255.374 212.354C254.468 206.711 253.661 202.137 253.063 198.869C254.043 197.988 255.098 197.348 256.438 197.132ZM277.427 205.989C274.993 206.38 272.959 204.753 272.291 200.591C271.667 196.712 273.219 194.436 275.9 194.006C276.676 193.881 277.55 193.921 278.477 194.062C279.157 198.294 279.742 201.71 280.249 204.414C279.51 205.22 278.591 205.802 277.427 205.989ZM281.307 208.296L284.906 207.501C284.106 203.65 283.168 198.265 281.848 190.047L280.647 182.57L276.789 183.552L277.871 190.288C277.583 190.298 277.336 190.338 277.054 190.383C271.482 191.279 267.527 195.713 268.57 202.202C269.408 207.422 272.617 210.054 276.32 209.459C278.331 209.136 279.8 207.923 280.812 206.567L281.307 208.296ZM303.923 204.988L303.784 201.646C295.997 202.716 293.164 201.977 292.175 198.518L303.445 196.382C303.099 190.178 300.113 186.678 295.175 187.472C290.555 188.214 287.274 193.01 288.141 198.407C289.059 204.12 292.584 206.918 303.923 204.988ZM294.986 190.795C297.419 190.404 298.79 191.956 299.344 194.725C297.168 195.147 293.623 195.825 291.765 196.196C291.415 192.888 292.587 191.18 294.986 190.795ZM322.364 201.591L322.206 198.577L316.88 199.433C316.209 195.706 315.698 192.749 315.202 190.115C317.024 188.846 319.356 187.82 322.36 187.156L321.515 183.023C318.268 183.979 315.996 185.827 314.704 187.916C314.492 187.046 313.963 185.105 313.899 184.934L306.634 186.101L306.764 188.938L310.971 188.552C311.54 191.644 312.165 195.306 313 200.056L308.733 200.742L309.209 203.705L322.364 201.591Z" fill="black"/>
<path d="M1000.19 93.8637L1288.19 47.6279V436.741L1000.19 482.977V93.8637Z" fill="#DDD2E6" fill-opacity="0.97"/>
<path d="M1118.15 269.235L1121.3 268.556L1113.7 260.971L1118.65 251.363L1115.58 251.849L1111.72 259.657L1105.44 253.381L1102.33 254.054L1110 261.628L1105.02 271.242L1108.05 270.762L1111.96 262.983L1118.15 269.235ZM1132.99 254.917L1132.4 250.778L1128.2 251.442L1128.82 255.576L1132.99 254.917ZM1134.54 266.569L1134.03 262.454L1129.84 263.119L1130.34 267.234L1134.54 266.569ZM1178.66 259.586L1178.27 257.081L1167.37 258.807C1173.03 252.522 1176.17 248.408 1175.46 243.927C1174.89 240.293 1171.61 237.882 1161.75 239.551L1161.93 242.272C1169.87 241.051 1172.32 242.327 1172.75 245.044C1173.32 248.643 1170.09 252.733 1163.97 259.525L1164.62 261.809L1178.66 259.586ZM1196.56 249.304C1196.11 246.482 1193.33 244.427 1185.37 244.855L1184.8 238.76L1193.73 237.348L1193.58 234.804L1182 236.635L1182.96 247.225C1190.81 246.597 1193.58 247.859 1193.9 249.87C1194.31 252.481 1191.77 254.474 1183.92 256.477L1184.51 259.095C1193.61 256.932 1197.18 253.256 1196.56 249.304ZM1113.68 319.843C1119.43 318.21 1120.83 316.325 1122.19 309.852C1123.55 303.779 1124.57 298.338 1125.34 293.84L1122.59 294.275C1122.05 296.855 1120.82 305.043 1120.07 308.778L1119.72 308.834C1117.08 304.731 1114.31 300.033 1111.88 295.897L1108.98 296.537C1111.38 300.497 1115.97 307.981 1118.68 312.073L1119 312.093C1118.25 315.106 1117.32 315.867 1113.02 317.236L1113.68 319.843ZM1139.71 297.388L1139.12 293.249L1134.93 293.914L1135.54 298.047L1139.71 297.388ZM1141.26 309.041L1140.76 304.926L1136.56 305.59L1137.06 309.705L1141.26 309.041ZM1185.56 302.03L1185.42 299.556L1180.03 300.411L1176.83 280.194L1174.08 280.882L1174.47 283.387L1168.97 284.945L1169.34 287.021L1174.87 285.857L1177.24 300.852L1171.21 301.807L1171.59 304.241L1185.56 302.03ZM1204.96 298.96L1204.82 296.486L1199.42 297.341L1196.22 277.124L1193.48 277.812L1193.87 280.317L1188.37 281.875L1188.73 283.952L1194.26 282.787L1196.64 297.782L1190.6 298.737L1190.99 301.171L1204.96 298.96Z" fill="black"/>
<path d="M1073.65 218.175L1077.9 216.949L1071.24 208.324C1073.04 206.514 1074.26 204.366 1073.81 201.615C1073.08 197.065 1069.23 194.717 1058.63 197.868L1062.14 219.699L1066.12 219.059L1064.91 211.511L1068.36 210.885L1073.65 218.175ZM1063.11 200.296C1067.29 199.046 1069.5 200.245 1069.97 203.137C1070.28 205.042 1069.57 206.746 1068.29 207.966L1064.46 208.69L1063.11 200.296ZM1095.11 214.837L1094.97 211.494C1087.18 212.565 1084.35 211.826 1083.36 208.367L1094.63 206.23C1094.28 200.027 1091.3 196.527 1086.36 197.32C1081.74 198.063 1078.46 202.859 1079.32 208.255C1080.24 213.969 1083.77 216.767 1095.11 214.837ZM1086.17 200.643C1088.6 200.252 1089.97 201.805 1090.53 204.574C1088.35 204.996 1084.81 205.674 1082.95 206.045C1082.6 202.736 1083.77 201.028 1086.17 200.643ZM1111.56 199.278L1100.27 201.091L1100.81 204.441L1111.81 202.673L1111.56 199.278ZM1131.82 208.829L1136.08 207.603L1129.41 198.978C1131.22 197.168 1132.43 195.02 1131.99 192.269C1131.25 187.719 1127.4 185.371 1116.8 188.521L1120.31 210.353L1124.3 209.712L1123.08 202.165L1126.53 201.539L1131.82 208.829ZM1121.28 190.95C1125.46 189.7 1127.68 190.899 1128.14 193.791C1128.45 195.695 1127.74 197.4 1126.46 198.62L1122.63 199.343L1121.28 190.95ZM1153.28 205.49L1153.14 202.148C1145.35 203.218 1142.52 202.479 1141.53 199.021L1152.8 196.884C1152.45 190.681 1149.47 187.181 1144.53 187.974C1139.91 188.716 1136.63 193.513 1137.5 198.909C1138.41 204.622 1141.94 207.421 1153.28 205.49ZM1144.34 191.297C1146.77 190.906 1148.14 192.458 1148.7 195.228C1146.52 195.649 1142.98 196.328 1141.12 196.698C1140.77 193.39 1141.94 191.682 1144.34 191.297ZM1163.97 188.289C1165.76 188 1167.09 188.8 1167.59 191.904L1169.29 202.484L1173.2 201.855L1171.28 189.899C1170.59 185.632 1168.33 184.15 1165.26 184.643C1162.83 185.034 1161.21 186.452 1160 187.948L1159.47 185.972L1155.87 186.767C1156.72 190.719 1157.68 196.244 1158.95 204.145L1162.9 203.51C1162 197.867 1161.19 193.293 1160.59 190.025C1161.57 189.144 1162.63 188.504 1163.97 188.289ZM1184.95 197.145C1182.52 197.536 1180.49 195.909 1179.82 191.747C1179.19 187.868 1180.75 185.592 1183.43 185.162C1184.2 185.037 1185.08 185.077 1186 185.218C1186.68 189.45 1187.27 192.866 1187.78 195.57C1187.04 196.376 1186.12 196.958 1184.95 197.145ZM1188.83 199.452L1192.43 198.657C1191.63 194.806 1190.7 189.421 1189.38 181.203L1188.17 173.726L1184.32 174.708L1185.4 181.444C1185.11 181.454 1184.86 181.494 1184.58 181.539C1179.01 182.435 1175.05 186.869 1176.1 193.358C1176.94 198.578 1180.14 201.21 1183.85 200.615C1185.86 200.292 1187.33 199.079 1188.34 197.723L1188.83 199.452ZM1211.45 196.144L1211.31 192.802C1203.52 193.872 1200.69 193.133 1199.7 189.674L1210.97 187.538C1210.63 181.334 1207.64 177.835 1202.7 178.628C1198.08 179.37 1194.8 184.166 1195.67 189.563C1196.59 195.276 1200.11 198.074 1211.45 196.144ZM1202.51 181.951C1204.95 181.56 1206.32 183.112 1206.87 185.881C1204.7 186.303 1201.15 186.981 1199.29 187.352C1198.94 184.044 1200.11 182.336 1202.51 181.951ZM1229.89 192.747L1229.73 189.733L1224.41 190.589C1223.74 186.862 1223.22 183.905 1222.73 181.271C1224.55 180.002 1226.88 178.976 1229.89 178.312L1229.04 174.179C1225.8 175.135 1223.52 176.983 1222.23 179.072C1222.02 178.202 1221.49 176.261 1221.43 176.09L1214.16 177.257L1214.29 180.094L1218.5 179.708C1219.07 182.8 1219.69 186.462 1220.53 191.212L1216.26 191.898L1216.74 194.861L1229.89 192.747Z" fill="black"/>
<path d="M1001 482.236L1289 436V582.508L1001 628.744V482.236Z" fill="#FEE198" fill-opacity="0.98"/>
<path d="M1085.32 552.706L1075.51 554.282L1074.53 548.145L1082.74 546.825L1082.27 543.862L1074.05 545.182L1073.09 539.187L1082.68 537.645L1082.13 534.26L1068.49 536.452L1072 558.319L1085.54 556.143L1085.32 552.706ZM1104.15 550.151L1098.57 551.047L1096.82 540.149L1102.75 539.197L1102.27 536.199L1096.34 537.151L1096.24 536.516C1095.73 533.377 1096.31 532.705 1102.7 531.462L1101.84 527.693C1093.69 529.436 1091.69 533.23 1092.42 537.745L1092.43 537.78L1088.12 538.471L1088.25 541.526L1092.91 540.778L1094.66 551.676L1090.21 552.39L1090.68 555.317L1104.26 553.135L1104.15 550.151ZM1123.54 547.036L1117.96 547.931L1116.21 537.033L1122.14 536.081L1121.66 533.083L1115.73 534.035L1115.63 533.401C1115.13 530.262 1115.7 529.59 1122.09 528.347L1121.23 524.577C1113.08 526.321 1111.09 530.115 1111.81 534.629L1111.82 534.664L1107.51 535.356L1107.64 538.41L1112.3 537.662L1114.05 548.56L1109.61 549.274L1110.08 552.201L1123.65 550.02L1123.54 547.036ZM1143.22 547.311L1143.08 543.968C1135.29 545.039 1132.46 544.3 1131.47 540.841L1142.74 538.705C1142.39 532.501 1139.41 529.001 1134.47 529.794C1129.85 530.537 1126.57 535.333 1127.44 540.729C1128.35 546.443 1131.88 549.241 1143.22 547.311ZM1134.28 533.117C1136.71 532.726 1138.09 534.279 1138.64 537.048C1136.46 537.47 1132.92 538.148 1131.06 538.519C1130.71 535.211 1131.88 533.503 1134.28 533.117ZM1147.35 537.494C1148.22 542.925 1151.78 546.587 1162.6 543.907L1162.47 540.6C1154.64 542.328 1151.88 540.891 1151.15 536.376C1150.61 532.991 1151.62 530.765 1160.45 529.636L1159.61 525.973C1149.11 527.697 1146.56 532.591 1147.35 537.494ZM1181.94 540.944L1181.84 537.632C1176.47 538.387 1174.71 538.019 1174.26 535.268L1172.96 527.156L1179.59 526.091L1179.11 523.093L1172.48 524.158L1171.66 519.079L1167.84 520.055L1168.6 524.781L1165.36 525.303L1165.48 528.357L1169.08 527.779L1170.48 536.491C1171.21 541.005 1174.06 542.355 1181.94 540.944ZM1207.67 536.992C1217.18 534.957 1220.79 531.519 1220.18 527.746C1219.79 525.277 1217.32 523.43 1211.36 523.266L1217.78 515.939L1216.95 512.599L1204.12 514.661L1204.66 518.047L1213.83 516.574L1207.07 524.28L1207.36 526.044C1213.75 525.776 1216.2 527.047 1216.46 528.634C1216.73 530.362 1214.5 531.77 1206.81 533.475L1207.67 536.992Z" fill="black"/>
<path d="M1439.26 93.8637L1727.26 47.6279V436.741L1439.26 482.977V93.8637Z" fill="#DDD2E6" fill-opacity="0.97"/>
<path d="M1557.22 266.235L1560.37 265.556L1552.77 257.971L1557.72 248.363L1554.65 248.849L1550.79 256.657L1544.51 250.381L1541.4 251.054L1549.07 258.628L1544.08 268.242L1547.12 267.762L1551.02 259.983L1557.22 266.235ZM1572.05 251.917L1571.47 247.778L1567.27 248.442L1567.89 252.576L1572.05 251.917ZM1573.61 263.569L1573.1 259.454L1568.9 260.119L1569.41 264.234L1573.61 263.569ZM1617.79 251.947L1617.68 249.398L1615 249.822L1613.74 241.848L1611.1 242.59L1612.32 250.246L1604.8 251.436C1604.62 249.402 1605.36 239.413 1605.62 236.044L1602.52 236.318C1601.93 243.102 1602.17 250.116 1602.94 254.298L1612.71 252.751L1613.43 257.268L1616.11 256.843L1615.39 252.327L1617.79 251.947ZM1623.58 256.095C1633.03 254.129 1636.48 250.798 1635.9 247.129C1635.5 244.588 1632.92 242.682 1626.33 242.64L1633.39 234.218L1632.82 231.776L1620.12 233.786L1620.52 236.291L1630.47 234.716L1623.16 243.395L1623.38 244.771C1630.31 244.469 1632.88 245.871 1633.18 247.776C1633.52 249.928 1631 251.775 1622.98 253.477L1623.58 256.095ZM1552.75 316.843C1558.5 315.21 1559.9 313.325 1561.26 306.852C1562.61 300.779 1563.63 295.338 1564.4 290.84L1561.65 291.275C1561.12 293.855 1559.88 302.043 1559.14 305.778L1558.79 305.834C1556.15 301.731 1553.38 297.033 1550.95 292.897L1548.05 293.537C1550.45 297.497 1555.03 304.981 1557.74 309.073L1558.07 309.093C1557.32 312.106 1556.39 312.867 1552.09 314.236L1552.75 316.843ZM1578.77 294.388L1578.19 290.249L1573.99 290.914L1574.61 295.047L1578.77 294.388ZM1580.33 306.041L1579.82 301.926L1575.62 302.59L1576.13 306.705L1580.33 306.041ZM1624.63 299.03L1624.49 296.556L1619.09 297.411L1615.89 277.194L1613.15 277.882L1613.54 280.387L1608.04 281.945L1608.4 284.021L1613.93 282.857L1616.31 297.852L1610.27 298.807L1610.66 301.241L1624.63 299.03ZM1636.26 297.623C1640.88 296.891 1643.47 293.806 1642.95 290.525C1642.51 287.737 1639.78 286.47 1636.9 285.442C1639.61 283.568 1641.09 281.524 1640.67 278.843C1640.18 275.738 1637.04 274.209 1633.34 274.795C1628.75 275.521 1626.7 278.775 1627.14 281.563C1627.54 284.103 1629.88 285.432 1632.51 286.463C1629.78 288.45 1628.2 290.797 1628.62 293.444C1629.13 296.654 1632.31 298.248 1636.26 297.623ZM1629.83 280.774C1629.58 279.187 1630.72 277.487 1633.44 277.057C1636.09 276.638 1637.76 277.856 1638.07 279.796C1638.36 281.631 1637.25 283.325 1635.21 284.806C1632.53 283.891 1630.17 282.891 1629.83 280.774ZM1636.3 295.339C1633.41 295.797 1631.61 294.525 1631.27 292.373C1630.98 290.503 1632.02 288.673 1634.2 287.135C1637.12 288.193 1639.88 289.202 1640.22 291.354C1640.52 293.224 1639.02 294.909 1636.3 295.339Z" fill="black"/>
<path d="M1512.72 218.175L1516.97 216.949L1510.31 208.324C1512.11 206.514 1513.32 204.366 1512.88 201.615C1512.15 197.065 1508.3 194.717 1497.7 197.868L1501.21 219.699L1505.19 219.059L1503.98 211.511L1507.42 210.885L1512.72 218.175ZM1502.18 200.296C1506.35 199.046 1508.57 200.245 1509.04 203.137C1509.34 205.041 1508.64 206.746 1507.35 207.966L1503.53 208.69L1502.18 200.296ZM1534.17 214.836L1534.03 211.494C1526.25 212.564 1523.41 211.825 1522.42 208.367L1533.7 206.23C1533.35 200.027 1530.36 196.527 1525.43 197.32C1520.81 198.062 1517.52 202.859 1518.39 208.255C1519.31 213.968 1522.83 216.767 1534.17 214.836ZM1525.24 200.643C1527.67 200.252 1529.04 201.804 1529.59 204.574C1527.42 204.996 1523.87 205.674 1522.02 206.045C1521.67 202.736 1522.84 201.028 1525.24 200.643ZM1550.62 199.277L1539.34 201.091L1539.88 204.441L1550.88 202.673L1550.62 199.277ZM1570.89 208.828L1575.15 207.602L1568.48 198.978C1570.29 197.168 1571.5 195.02 1571.05 192.269C1570.32 187.719 1566.47 185.371 1555.87 188.521L1559.38 210.353L1563.36 209.712L1562.15 202.165L1565.6 201.539L1570.89 208.828ZM1560.35 190.949C1564.53 189.699 1566.75 190.899 1567.21 193.791C1567.52 195.695 1566.81 197.4 1565.53 198.62L1561.7 199.343L1560.35 190.949ZM1592.35 205.49L1592.21 202.148C1584.42 203.218 1581.59 202.479 1580.6 199.02L1591.87 196.884C1591.52 190.68 1588.54 187.181 1583.6 187.974C1578.98 188.716 1575.7 193.513 1576.56 198.909C1577.48 204.622 1581.01 207.42 1592.35 205.49ZM1583.41 191.297C1585.84 190.906 1587.21 192.458 1587.77 195.227C1585.59 195.649 1582.05 196.327 1580.19 196.698C1579.84 193.39 1581.01 191.682 1583.41 191.297ZM1603.03 188.288C1604.83 187.999 1606.16 188.8 1606.65 191.903L1608.35 202.484L1612.27 201.855L1610.35 189.899C1609.66 185.632 1607.4 184.15 1604.33 184.643C1601.9 185.034 1600.28 186.452 1599.07 187.948L1598.54 185.972L1594.94 186.767C1595.79 190.718 1596.75 196.244 1598.02 204.144L1601.97 203.51C1601.06 197.867 1600.26 193.293 1599.66 190.024C1600.64 189.143 1601.69 188.504 1603.03 188.288ZM1624.02 197.145C1621.59 197.536 1619.55 195.909 1618.89 191.747C1618.26 187.868 1619.81 185.592 1622.5 185.162C1623.27 185.037 1624.15 185.077 1625.07 185.218C1625.75 189.45 1626.34 192.865 1626.84 195.57C1626.11 196.376 1625.19 196.958 1624.02 197.145ZM1627.9 199.452L1631.5 198.657C1630.7 194.805 1629.76 189.421 1628.44 181.203L1627.24 173.726L1623.38 174.708L1624.47 181.444C1624.18 181.454 1623.93 181.494 1623.65 181.539C1618.08 182.434 1614.12 186.869 1615.17 193.358C1616 198.578 1619.21 201.21 1622.92 200.615C1624.93 200.292 1626.4 199.079 1627.41 197.722L1627.9 199.452ZM1650.52 196.144L1650.38 192.801C1642.59 193.872 1639.76 193.133 1638.77 189.674L1650.04 187.538C1649.69 181.334 1646.71 177.834 1641.77 178.628C1637.15 179.37 1633.87 184.166 1634.74 189.562C1635.65 195.276 1639.18 198.074 1650.52 196.144ZM1641.58 181.95C1644.01 181.559 1645.39 183.112 1645.94 185.881C1643.76 186.303 1640.22 186.981 1638.36 187.352C1638.01 184.044 1639.18 182.336 1641.58 181.95ZM1668.96 192.747L1668.8 189.733L1663.48 190.589C1662.8 186.862 1662.29 183.905 1661.8 181.271C1663.62 180.001 1665.95 178.976 1668.96 178.312L1668.11 174.179C1664.86 175.134 1662.59 176.983 1661.3 179.072C1661.09 178.201 1660.56 176.26 1660.49 176.09L1653.23 177.257L1653.36 180.094L1657.57 179.708C1658.14 182.8 1658.76 186.462 1659.6 191.212L1655.33 191.898L1655.8 194.86L1668.96 192.747Z" fill="black"/>
<path d="M1439 482.236L1727 436V582.508L1439 628.744V482.236Z" fill="#FEE198" fill-opacity="0.98"/>
<path d="M1523.31 552.706L1513.51 554.282L1512.52 548.145L1520.74 546.825L1520.27 543.862L1512.05 545.182L1511.08 539.187L1520.68 537.645L1520.13 534.26L1506.49 536.452L1510 558.319L1523.54 556.143L1523.31 552.706ZM1542.14 550.151L1536.57 551.047L1534.82 540.149L1540.75 539.197L1540.26 536.199L1534.34 537.151L1534.24 536.516C1533.73 533.377 1534.31 532.705 1540.7 531.462L1539.84 527.693C1531.69 529.436 1529.69 533.23 1530.42 537.745L1530.42 537.78L1526.12 538.471L1526.25 541.526L1530.91 540.778L1532.66 551.676L1528.21 552.39L1528.68 555.317L1542.26 553.135L1542.14 550.151ZM1561.54 547.036L1555.96 547.931L1554.21 537.033L1560.14 536.081L1559.66 533.083L1553.73 534.035L1553.63 533.401C1553.12 530.262 1553.7 529.59 1560.09 528.347L1559.23 524.577C1551.08 526.321 1549.08 530.115 1549.81 534.629L1549.82 534.664L1545.51 535.356L1545.64 538.41L1550.3 537.662L1552.05 548.56L1547.6 549.274L1548.07 552.201L1561.65 550.02L1561.54 547.036ZM1581.22 547.311L1581.08 543.968C1573.29 545.039 1570.46 544.3 1569.47 540.841L1580.74 538.705C1580.39 532.501 1577.41 529.001 1572.47 529.794C1567.85 530.537 1564.57 535.333 1565.44 540.729C1566.35 546.443 1569.88 549.241 1581.22 547.311ZM1572.28 533.117C1574.71 532.726 1576.08 534.279 1576.64 537.048C1574.46 537.47 1570.92 538.148 1569.06 538.519C1568.71 535.211 1569.88 533.503 1572.28 533.117ZM1585.35 537.494C1586.22 542.925 1589.78 546.587 1600.6 543.907L1600.47 540.6C1592.64 542.328 1589.88 540.891 1589.15 536.376C1588.61 532.991 1589.62 530.765 1598.45 529.636L1597.61 525.973C1587.1 527.697 1584.56 532.591 1585.35 537.494ZM1619.94 540.944L1619.84 537.632C1614.47 538.387 1612.71 538.019 1612.26 535.268L1610.96 527.156L1617.59 526.091L1617.11 523.093L1610.48 524.158L1609.66 519.079L1605.84 520.055L1606.6 524.781L1603.35 525.303L1603.48 528.357L1607.08 527.779L1608.48 536.491C1609.21 541.005 1612.06 542.355 1619.94 540.944ZM1659.5 530.067L1659.27 526.63L1656.77 527.033L1655.54 519.379L1652 520.345L1653.17 527.61L1646.78 528.636C1646.7 527.637 1647.71 515.499 1647.83 513.779L1643.59 514.171C1643.04 520.845 1643.39 527.988 1644.26 532.515L1653.71 530.996L1654.38 535.123L1657.97 534.545L1657.31 530.418L1659.5 530.067Z" fill="black"/>
<path d="M561.116 93.8637L849.116 47.6279V436.741L561.116 482.977V93.8637Z" fill="#DDD2E6" fill-opacity="0.97"/>
<path d="M674.968 267.78L678.115 267.102L670.514 259.516L675.467 249.908L672.397 250.394L668.533 258.202L662.26 251.926L659.148 252.599L666.82 260.173L661.832 269.787L664.866 269.307L668.77 261.528L674.968 267.78ZM689.801 253.462L689.218 249.323L685.02 249.987L685.638 254.121L689.801 253.462ZM691.356 265.115L690.849 261L686.651 261.664L687.157 265.779L691.356 265.115ZM735.656 258.104L735.518 255.63L730.12 256.484L726.92 236.268L724.172 236.956L724.568 239.461L719.065 241.019L719.429 243.095L724.959 241.931L727.332 256.925L721.299 257.88L721.684 260.315L735.656 258.104ZM754.878 255.062L754.481 252.557L743.579 254.282C749.239 247.998 752.385 243.883 751.676 239.402C751.101 235.768 747.826 233.357 737.964 235.026L738.141 237.747C746.085 236.526 748.53 237.803 748.96 240.519C749.529 244.118 746.307 248.208 740.185 255L740.836 257.284L754.878 255.062ZM670.5 318.388C676.245 316.755 677.646 314.87 679.009 308.398C680.362 302.325 681.382 296.883 682.153 292.385L679.401 292.821C678.869 295.4 677.633 303.588 676.886 307.323L676.533 307.379C673.895 303.276 671.126 298.579 668.699 294.442L665.799 295.082C668.198 299.042 672.782 306.526 675.491 310.618L675.819 310.638C675.066 313.651 674.138 314.412 669.834 315.781L670.5 318.388ZM696.523 295.934L695.94 291.794L691.741 292.459L692.359 296.592L696.523 295.934ZM698.077 307.586L697.571 303.471L693.372 304.135L693.879 308.25L698.077 307.586ZM733.444 302.17C734.622 295.22 736.601 288.072 739.336 281.129L738.951 278.695L724.838 280.928L725.034 283.537L736.43 281.734L736.558 281.858C733.725 288.635 731.672 295.543 730.465 302.316L733.444 302.17Z" fill="black"/>
<path d="M634.581 218.175L638.834 216.949L632.167 208.324C633.974 206.514 635.185 204.366 634.743 201.615C634.012 197.065 630.161 194.717 619.56 197.868L623.068 219.699L627.053 219.059L625.841 211.511L629.286 210.885L634.581 218.175ZM624.039 200.296C628.216 199.046 630.434 200.245 630.899 203.137C631.205 205.042 630.502 206.746 629.215 207.966L625.387 208.69L624.039 200.296ZM656.035 214.837L655.896 211.494C648.108 212.565 645.276 211.826 644.286 208.367L655.557 206.23C655.211 200.027 652.225 196.527 647.287 197.32C642.667 198.063 639.386 202.859 640.252 208.255C641.17 213.969 644.695 216.767 656.035 214.837ZM647.097 200.643C649.531 200.252 650.902 201.805 651.455 204.574C649.28 204.996 645.735 205.674 643.877 206.045C643.526 202.736 644.699 201.028 647.097 200.643ZM672.486 199.278L661.2 201.091L661.738 204.441L672.742 202.673L672.486 199.278ZM692.754 208.829L697.007 207.603L690.339 198.978C692.147 197.168 693.357 195.02 692.915 192.269C692.184 187.719 688.334 185.371 677.733 188.521L681.241 210.353L685.226 209.712L684.013 202.165L687.458 201.539L692.754 208.829ZM682.211 190.95C686.388 189.7 688.607 190.899 689.072 193.791C689.378 195.695 688.675 197.4 687.387 198.62L683.56 199.343L682.211 190.95ZM714.207 205.49L714.068 202.148C706.281 203.218 703.449 202.479 702.459 199.021L713.729 196.884C713.384 190.681 710.397 187.181 705.46 187.974C700.84 188.716 697.558 193.513 698.425 198.909C699.343 204.622 702.868 207.421 714.207 205.49ZM705.27 191.297C707.704 190.906 709.075 192.458 709.628 195.228C707.453 195.649 703.908 196.328 702.05 196.698C701.699 193.39 702.872 191.682 705.27 191.297ZM724.895 188.289C726.694 188 728.016 188.8 728.515 191.904L730.215 202.484L734.13 201.855L732.209 189.899C731.523 185.632 729.259 184.15 726.191 184.643C723.757 185.034 722.14 186.452 720.933 187.948L720.399 185.972L716.8 186.767C717.652 190.719 718.612 196.244 719.881 204.145L723.831 203.51C722.925 197.867 722.118 193.293 721.52 190.025C722.5 189.144 723.555 188.504 724.895 188.289ZM745.884 197.145C743.45 197.536 741.416 195.909 740.748 191.747C740.124 187.868 741.676 185.592 744.357 185.162C745.132 185.037 746.007 185.077 746.934 185.218C747.614 189.45 748.199 192.866 748.706 195.57C747.967 196.376 747.048 196.958 745.884 197.145ZM749.764 199.452L753.363 198.657C752.563 194.806 751.625 189.421 750.305 181.203L749.104 173.726L745.246 174.708L746.328 181.444C746.04 181.454 745.793 181.494 745.511 181.539C739.939 182.435 735.984 186.869 737.027 193.358C737.865 198.578 741.074 201.21 744.777 200.615C746.787 200.292 748.257 199.079 749.269 197.723L749.764 199.452ZM772.38 196.144L772.241 192.802C764.453 193.872 761.621 193.133 760.631 189.674L771.902 187.538C771.556 181.334 768.57 177.835 763.632 178.628C759.012 179.37 755.731 184.166 756.598 189.563C757.516 195.276 761.04 198.074 772.38 196.144ZM763.443 181.951C765.876 181.56 767.247 183.112 767.801 185.881C765.625 186.303 762.08 186.981 760.222 187.352C759.872 184.044 761.044 182.336 763.443 181.951ZM790.821 192.747L790.662 189.733L785.337 190.589C784.666 186.862 784.155 183.905 783.659 181.271C785.481 180.002 787.813 178.976 790.817 178.312L789.972 174.179C786.725 175.135 784.453 176.983 783.161 179.072C782.949 178.202 782.42 176.261 782.356 176.09L775.091 177.257L775.221 180.094L779.428 179.708C779.997 182.8 780.622 186.462 781.457 191.212L777.19 191.898L777.666 194.861L790.821 192.747Z" fill="black"/>
<path d="M561 482.236L849 436V582.508L561 628.744V482.236Z" fill="#FEE198" fill-opacity="0.98"/>
<path d="M644.822 552.786L635.017 554.361L634.031 548.224L642.249 546.904L641.773 543.941L633.556 545.262L632.592 539.266L642.185 537.725L641.641 534.339L627.992 536.532L631.506 558.398L645.049 556.222L644.822 552.786ZM663.652 550.231L658.079 551.126L656.328 540.228L662.254 539.276L661.772 536.278L655.847 537.23L655.745 536.595C655.24 533.456 655.82 532.784 662.205 531.542L661.346 527.772C653.196 529.516 651.201 533.309 651.926 537.824L651.932 537.859L647.629 538.55L647.758 541.605L652.414 540.857L654.165 551.755L649.721 552.469L650.191 555.396L663.769 553.215L663.652 550.231ZM683.043 547.115L677.47 548.011L675.719 537.113L681.644 536.161L681.163 533.163L675.238 534.115L675.136 533.48C674.631 530.341 675.211 529.669 681.596 528.426L680.737 524.657C672.587 526.4 670.592 530.194 671.317 534.708L671.323 534.744L667.02 535.435L667.149 538.489L671.804 537.741L673.555 548.64L669.112 549.353L669.582 552.281L683.16 550.099L683.043 547.115ZM702.725 547.39L702.586 544.048C694.799 545.118 691.966 544.379 690.977 540.92L702.247 538.784C701.901 532.58 698.915 529.08 693.977 529.874C689.357 530.616 686.076 535.412 686.943 540.809C687.861 546.522 691.385 549.32 702.725 547.39ZM693.788 533.197C696.221 532.806 697.592 534.358 698.146 537.127C695.97 537.549 692.425 538.227 690.567 538.598C690.217 535.29 691.389 533.582 693.788 533.197ZM706.857 537.573C707.73 543.004 711.285 546.666 722.106 543.987L721.972 540.68C714.146 542.407 711.382 540.97 710.657 536.456C710.113 533.07 711.13 530.844 719.958 529.716L719.116 526.052C708.611 527.776 706.069 532.67 706.857 537.573ZM741.449 541.024L741.351 537.711C735.973 538.467 734.213 538.098 733.771 535.347L732.468 527.235L739.098 526.17L738.617 523.172L731.986 524.237L731.17 519.159L727.347 520.135L728.107 524.861L724.862 525.382L724.991 528.437L728.588 527.859L729.988 536.57C730.713 541.084 733.571 542.434 741.449 541.024ZM780.891 534.397L780.347 531.012L770.436 532.604C775.584 527.037 778.524 523.273 777.81 518.829C777.227 515.196 773.788 512.71 763.718 514.436L763.985 518.12C771.373 517.041 773.698 518.006 774.095 520.475C774.616 523.72 771.564 527.466 765.791 533.64L766.677 536.681L780.891 534.397Z" fill="black"/>
<path d="M1058.45 724.284L1060.74 722.891L1058.66 717.926L1063.74 715.925L1063.13 713.389L1057.73 713.818L1057.41 708.388L1054.73 708.21L1053.48 713.496L1048.3 712.032L1047.27 714.497L1051.91 717.39L1048.98 721.819L1050.98 723.605L1055.09 720.105L1058.45 724.284ZM1072.37 718.14C1073.27 718.14 1073.66 718.676 1073.66 720.176V733H1076.48V718.962C1077.02 718.426 1077.59 718.14 1078.23 718.14C1079.16 718.14 1079.59 718.676 1079.59 720.212V733H1083.27V718.819C1083.27 716.175 1082.27 714.747 1080.23 714.747C1078.66 714.747 1077.41 715.604 1076.45 716.676C1076.09 715.461 1075.27 714.747 1073.87 714.747C1072.41 714.747 1071.16 715.604 1070.19 716.676L1070.05 715.14L1066.66 715.354C1066.8 719.39 1066.8 724.999 1066.8 733H1070.48C1070.48 727.142 1070.44 722.391 1070.37 719.069C1071.02 718.462 1071.69 718.14 1072.37 718.14ZM1094.01 733.536C1098.76 733.536 1102.69 729.642 1102.69 723.713C1102.69 717.926 1099.62 714.675 1095.16 714.675C1090.44 714.675 1086.48 718.747 1086.48 724.534C1086.48 730.285 1089.62 733.536 1094.01 733.536ZM1094.73 730.321C1092.16 730.321 1090.51 728.106 1090.51 723.784C1090.51 719.89 1092.08 717.926 1094.48 717.926C1097.05 717.926 1098.69 720.14 1098.69 724.427C1098.69 728.356 1097.12 730.321 1094.73 730.321ZM1117.9 733.071L1121.58 732.893C1121.37 728.821 1121.3 723.212 1121.3 715.211H1117.33C1117.33 720.962 1117.37 725.57 1117.44 728.856C1116.37 729.607 1115.19 730.071 1113.87 730.071C1112.05 730.071 1110.9 729.071 1110.9 725.927V715.104L1106.94 715.354V727.32C1106.94 731.678 1108.9 733.464 1112.01 733.464C1114.47 733.464 1116.26 732.321 1117.69 731.071L1117.9 733.071ZM1139.87 715.032C1130.54 714.389 1127.26 717.319 1127.26 720.391C1127.26 724.856 1136.76 725.499 1136.76 728.035C1136.76 729.428 1134.58 730.249 1127.51 729.785L1127.36 733.179C1137.61 733.643 1140.9 730.892 1140.9 727.82C1140.9 723.355 1131.36 722.319 1131.36 719.926C1131.36 718.676 1133.4 717.89 1140.01 718.462L1139.87 715.032ZM1160.25 733.429L1160.65 730.107C1152.79 729.928 1150.11 728.749 1149.68 725.177L1161.15 724.856C1161.79 718.676 1159.4 714.747 1154.4 714.747C1149.72 714.747 1145.72 718.962 1145.72 724.427C1145.72 730.214 1148.75 733.536 1160.25 733.429ZM1153.68 717.997C1156.15 717.997 1157.25 719.748 1157.36 722.569C1155.15 722.641 1151.54 722.748 1149.65 722.82C1149.82 719.497 1151.25 717.997 1153.68 717.997ZM1176.89 710.853C1176.89 710.853 1173.5 723.07 1173.25 724.034H1173.11C1172.86 723.07 1169.43 710.853 1169.43 710.853H1165.43V733H1169.11L1168.89 718.212H1169.04L1171.96 728.606H1174.21L1177.11 718.212H1177.25L1177.04 733H1180.82V710.853H1176.89ZM1192.21 733.536C1196.96 733.536 1200.89 729.642 1200.89 723.713C1200.89 717.926 1197.82 714.675 1193.35 714.675C1188.64 714.675 1184.67 718.747 1184.67 724.534C1184.67 730.285 1187.82 733.536 1192.21 733.536ZM1192.93 730.321C1190.35 730.321 1188.71 728.106 1188.71 723.784C1188.71 719.89 1190.28 717.926 1192.68 717.926C1195.25 717.926 1196.89 720.14 1196.89 724.427C1196.89 728.356 1195.32 730.321 1192.93 730.321ZM1212.64 729.142H1212.39C1210.71 724.463 1209.21 719.676 1207.81 715.068L1203.81 715.354C1205.67 721.212 1207.78 727.249 1209.99 733.143H1214.82C1217.07 727.249 1219.28 721.141 1221.1 715.211H1217.1C1215.74 719.783 1214.28 724.498 1212.64 729.142ZM1238.81 733.429L1239.21 730.107C1231.35 729.928 1228.67 728.749 1228.24 725.177L1239.71 724.856C1240.35 718.676 1237.96 714.747 1232.95 714.747C1228.28 714.747 1224.27 718.962 1224.27 724.427C1224.27 730.214 1227.31 733.536 1238.81 733.429ZM1232.24 717.997C1234.7 717.997 1235.81 719.748 1235.92 722.569C1233.7 722.641 1230.1 722.748 1228.2 722.82C1228.38 719.497 1229.81 717.997 1232.24 717.997ZM1254.84 724.284L1257.13 722.891L1255.06 717.926L1260.13 715.925L1259.52 713.389L1254.13 713.818L1253.81 708.388L1251.13 708.21L1249.88 713.496L1244.7 712.032L1243.66 714.497L1248.31 717.39L1245.38 721.819L1247.38 723.605L1251.49 720.105L1254.84 724.284Z" fill="black"/>
<path d="M1058.45 804.284L1060.74 802.891L1058.66 797.926L1063.74 795.925L1063.13 793.389L1057.73 793.818L1057.41 788.388L1054.73 788.21L1053.48 793.496L1048.3 792.032L1047.27 794.497L1051.91 797.39L1048.98 801.819L1050.98 803.605L1055.09 800.105L1058.45 804.284ZM1072.37 798.14C1073.27 798.14 1073.66 798.676 1073.66 800.176V813H1076.48V798.962C1077.02 798.426 1077.59 798.14 1078.23 798.14C1079.16 798.14 1079.59 798.676 1079.59 800.212V813H1083.27V798.819C1083.27 796.175 1082.27 794.747 1080.23 794.747C1078.66 794.747 1077.41 795.604 1076.45 796.676C1076.09 795.461 1075.27 794.747 1073.87 794.747C1072.41 794.747 1071.16 795.604 1070.19 796.676L1070.05 795.14L1066.66 795.354C1066.8 799.39 1066.8 804.999 1066.8 813H1070.48C1070.48 807.142 1070.44 802.391 1070.37 799.069C1071.02 798.462 1071.69 798.14 1072.37 798.14ZM1094.01 813.536C1098.76 813.536 1102.69 809.642 1102.69 803.713C1102.69 797.926 1099.62 794.675 1095.16 794.675C1090.44 794.675 1086.48 798.747 1086.48 804.534C1086.48 810.285 1089.62 813.536 1094.01 813.536ZM1094.73 810.321C1092.16 810.321 1090.51 808.106 1090.51 803.784C1090.51 799.89 1092.08 797.926 1094.48 797.926C1097.05 797.926 1098.69 800.14 1098.69 804.427C1098.69 808.356 1097.12 810.321 1094.73 810.321ZM1117.9 813.071L1121.58 812.893C1121.37 808.821 1121.3 803.212 1121.3 795.211H1117.33C1117.33 800.962 1117.37 805.57 1117.44 808.856C1116.37 809.607 1115.19 810.071 1113.87 810.071C1112.05 810.071 1110.9 809.071 1110.9 805.927V795.104L1106.94 795.354V807.32C1106.94 811.678 1108.9 813.464 1112.01 813.464C1114.47 813.464 1116.26 812.321 1117.69 811.071L1117.9 813.071ZM1139.87 795.032C1130.54 794.389 1127.26 797.319 1127.26 800.391C1127.26 804.856 1136.76 805.499 1136.76 808.035C1136.76 809.428 1134.58 810.249 1127.51 809.785L1127.36 813.179C1137.61 813.643 1140.9 810.892 1140.9 807.82C1140.9 803.355 1131.36 802.319 1131.36 799.926C1131.36 798.676 1133.4 797.89 1140.01 798.462L1139.87 795.032ZM1160.25 813.429L1160.65 810.107C1152.79 809.928 1150.11 808.749 1149.68 805.177L1161.15 804.856C1161.79 798.676 1159.4 794.747 1154.4 794.747C1149.72 794.747 1145.72 798.962 1145.72 804.427C1145.72 810.214 1148.75 813.536 1160.25 813.429ZM1153.68 797.997C1156.15 797.997 1157.25 799.748 1157.36 802.569C1155.15 802.641 1151.54 802.748 1149.65 802.82C1149.82 799.497 1151.25 797.997 1153.68 797.997ZM1176.89 790.853C1176.89 790.853 1173.5 803.07 1173.25 804.034H1173.11C1172.86 803.07 1169.43 790.853 1169.43 790.853H1165.43V813H1169.11L1168.89 798.212H1169.04L1171.96 808.606H1174.21L1177.11 798.212H1177.25L1177.04 813H1180.82V790.853H1176.89ZM1192.21 813.536C1196.96 813.536 1200.89 809.642 1200.89 803.713C1200.89 797.926 1197.82 794.675 1193.35 794.675C1188.64 794.675 1184.67 798.747 1184.67 804.534C1184.67 810.285 1187.82 813.536 1192.21 813.536ZM1192.93 810.321C1190.35 810.321 1188.71 808.106 1188.71 803.784C1188.71 799.89 1190.28 797.926 1192.68 797.926C1195.25 797.926 1196.89 800.14 1196.89 804.427C1196.89 808.356 1195.32 810.321 1192.93 810.321ZM1212.64 809.142H1212.39C1210.71 804.463 1209.21 799.676 1207.81 795.068L1203.81 795.354C1205.67 801.212 1207.78 807.249 1209.99 813.143H1214.82C1217.07 807.249 1219.28 801.141 1221.1 795.211H1217.1C1215.74 799.783 1214.28 804.498 1212.64 809.142ZM1238.81 813.429L1239.21 810.107C1231.35 809.928 1228.67 808.749 1228.24 805.177L1239.71 804.856C1240.35 798.676 1237.96 794.747 1232.95 794.747C1228.28 794.747 1224.27 798.962 1224.27 804.427C1224.27 810.214 1227.31 813.536 1238.81 813.429ZM1232.24 797.997C1234.7 797.997 1235.81 799.748 1235.92 802.569C1233.7 802.641 1230.1 802.748 1228.2 802.82C1228.38 799.497 1229.81 797.997 1232.24 797.997ZM1254.84 804.284L1257.13 802.891L1255.06 797.926L1260.13 795.925L1259.52 793.389L1254.13 793.818L1253.81 788.388L1251.13 788.21L1249.88 793.496L1244.7 792.032L1243.66 794.497L1248.31 797.39L1245.38 801.819L1247.38 803.605L1251.49 800.105L1254.84 804.284Z" fill="black"/>
<path d="M1494.45 724.284L1496.74 722.891L1494.66 717.926L1499.74 715.925L1499.13 713.389L1493.73 713.818L1493.41 708.388L1490.73 708.21L1489.48 713.496L1484.3 712.032L1483.27 714.497L1487.91 717.39L1484.98 721.819L1486.98 723.605L1491.09 720.105L1494.45 724.284ZM1508.37 718.14C1509.27 718.14 1509.66 718.676 1509.66 720.176V733H1512.48V718.962C1513.02 718.426 1513.59 718.14 1514.23 718.14C1515.16 718.14 1515.59 718.676 1515.59 720.212V733H1519.27V718.819C1519.27 716.175 1518.27 714.747 1516.23 714.747C1514.66 714.747 1513.41 715.604 1512.45 716.676C1512.09 715.461 1511.27 714.747 1509.87 714.747C1508.41 714.747 1507.16 715.604 1506.19 716.676L1506.05 715.14L1502.66 715.354C1502.8 719.39 1502.8 724.999 1502.8 733H1506.48C1506.48 727.142 1506.44 722.391 1506.37 719.069C1507.02 718.462 1507.69 718.14 1508.37 718.14ZM1530.01 733.536C1534.76 733.536 1538.69 729.642 1538.69 723.713C1538.69 717.926 1535.62 714.675 1531.16 714.675C1526.44 714.675 1522.48 718.747 1522.48 724.534C1522.48 730.285 1525.62 733.536 1530.01 733.536ZM1530.73 730.321C1528.16 730.321 1526.51 728.106 1526.51 723.784C1526.51 719.89 1528.08 717.926 1530.48 717.926C1533.05 717.926 1534.69 720.14 1534.69 724.427C1534.69 728.356 1533.12 730.321 1530.73 730.321ZM1553.9 733.071L1557.58 732.893C1557.37 728.821 1557.3 723.212 1557.3 715.211H1553.33C1553.33 720.962 1553.37 725.57 1553.44 728.856C1552.37 729.607 1551.19 730.071 1549.87 730.071C1548.05 730.071 1546.9 729.071 1546.9 725.927V715.104L1542.94 715.354V727.32C1542.94 731.678 1544.9 733.464 1548.01 733.464C1550.47 733.464 1552.26 732.321 1553.69 731.071L1553.9 733.071ZM1575.87 715.032C1566.54 714.389 1563.26 717.319 1563.26 720.391C1563.26 724.856 1572.76 725.499 1572.76 728.035C1572.76 729.428 1570.58 730.249 1563.51 729.785L1563.36 733.179C1573.61 733.643 1576.9 730.892 1576.9 727.82C1576.9 723.355 1567.36 722.319 1567.36 719.926C1567.36 718.676 1569.4 717.89 1576.01 718.462L1575.87 715.032ZM1596.25 733.429L1596.65 730.107C1588.79 729.928 1586.11 728.749 1585.68 725.177L1597.15 724.856C1597.79 718.676 1595.4 714.747 1590.4 714.747C1585.72 714.747 1581.72 718.962 1581.72 724.427C1581.72 730.214 1584.75 733.536 1596.25 733.429ZM1589.68 717.997C1592.15 717.997 1593.25 719.748 1593.36 722.569C1591.15 722.641 1587.54 722.748 1585.65 722.82C1585.82 719.497 1587.25 717.997 1589.68 717.997ZM1612.89 710.853C1612.89 710.853 1609.5 723.07 1609.25 724.034H1609.11C1608.86 723.07 1605.43 710.853 1605.43 710.853H1601.43V733H1605.11L1604.89 718.212H1605.04L1607.96 728.606H1610.21L1613.11 718.212H1613.25L1613.04 733H1616.82V710.853H1612.89ZM1628.21 733.536C1632.96 733.536 1636.89 729.642 1636.89 723.713C1636.89 717.926 1633.82 714.675 1629.35 714.675C1624.64 714.675 1620.67 718.747 1620.67 724.534C1620.67 730.285 1623.82 733.536 1628.21 733.536ZM1628.93 730.321C1626.35 730.321 1624.71 728.106 1624.71 723.784C1624.71 719.89 1626.28 717.926 1628.68 717.926C1631.25 717.926 1632.89 720.14 1632.89 724.427C1632.89 728.356 1631.32 730.321 1628.93 730.321ZM1648.64 729.142H1648.39C1646.71 724.463 1645.21 719.676 1643.81 715.068L1639.81 715.354C1641.67 721.212 1643.78 727.249 1645.99 733.143H1650.82C1653.07 727.249 1655.28 721.141 1657.1 715.211H1653.1C1651.74 719.783 1650.28 724.498 1648.64 729.142ZM1674.81 733.429L1675.21 730.107C1667.35 729.928 1664.67 728.749 1664.24 725.177L1675.71 724.856C1676.35 718.676 1673.96 714.747 1668.95 714.747C1664.28 714.747 1660.27 718.962 1660.27 724.427C1660.27 730.214 1663.31 733.536 1674.81 733.429ZM1668.24 717.997C1670.7 717.997 1671.81 719.748 1671.92 722.569C1669.7 722.641 1666.1 722.748 1664.2 722.82C1664.38 719.497 1665.81 717.997 1668.24 717.997ZM1690.84 724.284L1693.13 722.891L1691.06 717.926L1696.13 715.925L1695.52 713.389L1690.13 713.818L1689.81 708.388L1687.13 708.21L1685.88 713.496L1680.7 712.032L1679.66 714.497L1684.31 717.39L1681.38 721.819L1683.38 723.605L1687.49 720.105L1690.84 724.284Z" fill="black"/>
<path d="M1492.45 804.284L1494.74 802.891L1492.66 797.926L1497.74 795.925L1497.13 793.389L1491.73 793.818L1491.41 788.388L1488.73 788.21L1487.48 793.496L1482.3 792.032L1481.27 794.497L1485.91 797.39L1482.98 801.819L1484.98 803.605L1489.09 800.105L1492.45 804.284ZM1506.37 798.14C1507.27 798.14 1507.66 798.676 1507.66 800.176V813H1510.48V798.962C1511.02 798.426 1511.59 798.14 1512.23 798.14C1513.16 798.14 1513.59 798.676 1513.59 800.212V813H1517.27V798.819C1517.27 796.175 1516.27 794.747 1514.23 794.747C1512.66 794.747 1511.41 795.604 1510.45 796.676C1510.09 795.461 1509.27 794.747 1507.87 794.747C1506.41 794.747 1505.16 795.604 1504.19 796.676L1504.05 795.14L1500.66 795.354C1500.8 799.39 1500.8 804.999 1500.8 813H1504.48C1504.48 807.142 1504.44 802.391 1504.37 799.069C1505.02 798.462 1505.69 798.14 1506.37 798.14ZM1528.01 813.536C1532.76 813.536 1536.69 809.642 1536.69 803.713C1536.69 797.926 1533.62 794.675 1529.16 794.675C1524.44 794.675 1520.48 798.747 1520.48 804.534C1520.48 810.285 1523.62 813.536 1528.01 813.536ZM1528.73 810.321C1526.16 810.321 1524.51 808.106 1524.51 803.784C1524.51 799.89 1526.08 797.926 1528.48 797.926C1531.05 797.926 1532.69 800.14 1532.69 804.427C1532.69 808.356 1531.12 810.321 1528.73 810.321ZM1551.9 813.071L1555.58 812.893C1555.37 808.821 1555.3 803.212 1555.3 795.211H1551.33C1551.33 800.962 1551.37 805.57 1551.44 808.856C1550.37 809.607 1549.19 810.071 1547.87 810.071C1546.05 810.071 1544.9 809.071 1544.9 805.927V795.104L1540.94 795.354V807.32C1540.94 811.678 1542.9 813.464 1546.01 813.464C1548.47 813.464 1550.26 812.321 1551.69 811.071L1551.9 813.071ZM1573.87 795.032C1564.54 794.389 1561.26 797.319 1561.26 800.391C1561.26 804.856 1570.76 805.499 1570.76 808.035C1570.76 809.428 1568.58 810.249 1561.51 809.785L1561.36 813.179C1571.61 813.643 1574.9 810.892 1574.9 807.82C1574.9 803.355 1565.36 802.319 1565.36 799.926C1565.36 798.676 1567.4 797.89 1574.01 798.462L1573.87 795.032ZM1594.25 813.429L1594.65 810.107C1586.79 809.928 1584.11 808.749 1583.68 805.177L1595.15 804.856C1595.79 798.676 1593.4 794.747 1588.4 794.747C1583.72 794.747 1579.72 798.962 1579.72 804.427C1579.72 810.214 1582.75 813.536 1594.25 813.429ZM1587.68 797.997C1590.15 797.997 1591.25 799.748 1591.36 802.569C1589.15 802.641 1585.54 802.748 1583.65 802.82C1583.82 799.497 1585.25 797.997 1587.68 797.997ZM1610.89 790.853C1610.89 790.853 1607.5 803.07 1607.25 804.034H1607.11C1606.86 803.07 1603.43 790.853 1603.43 790.853H1599.43V813H1603.11L1602.89 798.212H1603.04L1605.96 808.606H1608.21L1611.11 798.212H1611.25L1611.04 813H1614.82V790.853H1610.89ZM1626.21 813.536C1630.96 813.536 1634.89 809.642 1634.89 803.713C1634.89 797.926 1631.82 794.675 1627.35 794.675C1622.64 794.675 1618.67 798.747 1618.67 804.534C1618.67 810.285 1621.82 813.536 1626.21 813.536ZM1626.93 810.321C1624.35 810.321 1622.71 808.106 1622.71 803.784C1622.71 799.89 1624.28 797.926 1626.68 797.926C1629.25 797.926 1630.89 800.14 1630.89 804.427C1630.89 808.356 1629.32 810.321 1626.93 810.321ZM1646.64 809.142H1646.39C1644.71 804.463 1643.21 799.676 1641.81 795.068L1637.81 795.354C1639.67 801.212 1641.78 807.249 1643.99 813.143H1648.82C1651.07 807.249 1653.28 801.141 1655.1 795.211H1651.1C1649.74 799.783 1648.28 804.498 1646.64 809.142ZM1672.81 813.429L1673.21 810.107C1665.35 809.928 1662.67 808.749 1662.24 805.177L1673.71 804.856C1674.35 798.676 1671.96 794.747 1666.95 794.747C1662.28 794.747 1658.27 798.962 1658.27 804.427C1658.27 810.214 1661.31 813.536 1672.81 813.429ZM1666.24 797.997C1668.7 797.997 1669.81 799.748 1669.92 802.569C1667.7 802.641 1664.1 802.748 1662.2 802.82C1662.38 799.497 1663.81 797.997 1666.24 797.997ZM1688.84 804.284L1691.13 802.891L1689.06 797.926L1694.13 795.925L1693.52 793.389L1688.13 793.818L1687.81 788.388L1685.13 788.21L1683.88 793.496L1678.7 792.032L1677.66 794.497L1682.31 797.39L1679.38 801.819L1681.38 803.605L1685.49 800.105L1688.84 804.284Z" fill="black"/>
<path d="M1502.45 880.284L1504.74 878.891L1502.66 873.926L1507.74 871.925L1507.13 869.389L1501.73 869.818L1501.41 864.388L1498.73 864.21L1497.48 869.496L1492.3 868.032L1491.27 870.497L1495.91 873.39L1492.98 877.819L1494.98 879.605L1499.09 876.105L1502.45 880.284ZM1516.37 874.14C1517.27 874.14 1517.66 874.676 1517.66 876.176V889H1520.48V874.962C1521.02 874.426 1521.59 874.14 1522.23 874.14C1523.16 874.14 1523.59 874.676 1523.59 876.212V889H1527.27V874.819C1527.27 872.175 1526.27 870.747 1524.23 870.747C1522.66 870.747 1521.41 871.604 1520.45 872.676C1520.09 871.461 1519.27 870.747 1517.87 870.747C1516.41 870.747 1515.16 871.604 1514.19 872.676L1514.05 871.14L1510.66 871.354C1510.8 875.39 1510.8 880.999 1510.8 889H1514.48C1514.48 883.142 1514.44 878.391 1514.37 875.069C1515.02 874.462 1515.69 874.14 1516.37 874.14ZM1538.01 889.536C1542.76 889.536 1546.69 885.642 1546.69 879.713C1546.69 873.926 1543.62 870.675 1539.16 870.675C1534.44 870.675 1530.48 874.747 1530.48 880.534C1530.48 886.285 1533.62 889.536 1538.01 889.536ZM1538.73 886.321C1536.16 886.321 1534.51 884.106 1534.51 879.784C1534.51 875.89 1536.08 873.926 1538.48 873.926C1541.05 873.926 1542.69 876.14 1542.69 880.427C1542.69 884.356 1541.12 886.321 1538.73 886.321ZM1561.9 889.071L1565.58 888.893C1565.37 884.821 1565.3 879.212 1565.3 871.211H1561.33C1561.33 876.962 1561.37 881.57 1561.44 884.856C1560.37 885.607 1559.19 886.071 1557.87 886.071C1556.05 886.071 1554.9 885.071 1554.9 881.927V871.104L1550.94 871.354V883.32C1550.94 887.678 1552.9 889.464 1556.01 889.464C1558.47 889.464 1560.26 888.321 1561.69 887.071L1561.9 889.071ZM1583.87 871.032C1574.54 870.389 1571.26 873.319 1571.26 876.391C1571.26 880.856 1580.76 881.499 1580.76 884.035C1580.76 885.428 1578.58 886.249 1571.51 885.785L1571.36 889.179C1581.61 889.643 1584.9 886.892 1584.9 883.82C1584.9 879.355 1575.36 878.319 1575.36 875.926C1575.36 874.676 1577.4 873.89 1584.01 874.462L1583.87 871.032ZM1604.25 889.429L1604.65 886.107C1596.79 885.928 1594.11 884.749 1593.68 881.177L1605.15 880.856C1605.79 874.676 1603.4 870.747 1598.4 870.747C1593.72 870.747 1589.72 874.962 1589.72 880.427C1589.72 886.214 1592.75 889.536 1604.25 889.429ZM1597.68 873.997C1600.15 873.997 1601.25 875.748 1601.36 878.569C1599.15 878.641 1595.54 878.748 1593.65 878.82C1593.82 875.497 1595.25 873.997 1597.68 873.997ZM1620.89 866.853C1620.89 866.853 1617.5 879.07 1617.25 880.034H1617.11C1616.86 879.07 1613.43 866.853 1613.43 866.853H1609.43V889H1613.11L1612.89 874.212H1613.04L1615.96 884.606H1618.21L1621.11 874.212H1621.25L1621.04 889H1624.82V866.853H1620.89ZM1636.21 889.536C1640.96 889.536 1644.89 885.642 1644.89 879.713C1644.89 873.926 1641.82 870.675 1637.35 870.675C1632.64 870.675 1628.67 874.747 1628.67 880.534C1628.67 886.285 1631.82 889.536 1636.21 889.536ZM1636.93 886.321C1634.35 886.321 1632.71 884.106 1632.71 879.784C1632.71 875.89 1634.28 873.926 1636.68 873.926C1639.25 873.926 1640.89 876.14 1640.89 880.427C1640.89 884.356 1639.32 886.321 1636.93 886.321ZM1656.64 885.142H1656.39C1654.71 880.463 1653.21 875.676 1651.81 871.068L1647.81 871.354C1649.67 877.212 1651.78 883.249 1653.99 889.143H1658.82C1661.07 883.249 1663.28 877.141 1665.1 871.211H1661.1C1659.74 875.783 1658.28 880.498 1656.64 885.142ZM1682.81 889.429L1683.21 886.107C1675.35 885.928 1672.67 884.749 1672.24 881.177L1683.71 880.856C1684.35 874.676 1681.96 870.747 1676.95 870.747C1672.28 870.747 1668.27 874.962 1668.27 880.427C1668.27 886.214 1671.31 889.536 1682.81 889.429ZM1676.24 873.997C1678.7 873.997 1679.81 875.748 1679.92 878.569C1677.7 878.641 1674.1 878.748 1672.2 878.82C1672.38 875.497 1673.81 873.997 1676.24 873.997ZM1698.84 880.284L1701.13 878.891L1699.06 873.926L1704.13 871.925L1703.52 869.389L1698.13 869.818L1697.81 864.388L1695.13 864.21L1693.88 869.496L1688.7 868.032L1687.66 870.497L1692.31 873.39L1689.38 877.819L1691.38 879.605L1695.49 876.105L1698.84 880.284Z" fill="black"/>
</svg>
