<svg width="1920" height="820" viewBox="0 0 1920 820" fill="none" xmlns="http://www.w3.org/2000/svg">
<path d="M0 0H1920V820H0V0Z" fill="#F2F2F2"/>
<path d="M648.026 724.075L650.312 722.682L648.241 717.717L653.313 715.716L652.706 713.18L647.312 713.609L646.99 708.179L644.311 708L643.061 713.287L637.881 711.823L636.846 714.287L641.489 717.181L638.56 721.61L640.561 723.396L644.668 719.896L648.026 724.075ZM657.557 729.362V733.041C668.237 733.469 672.059 729.79 672.059 726.29C672.059 721.003 661.736 719.538 661.736 716.216C661.736 714.609 663.522 713.644 670.702 714.144L670.488 710.465C661.272 709.965 657.485 713.466 657.485 716.788C657.485 721.896 667.809 723.182 667.809 726.79C667.809 728.647 665.094 729.933 657.557 729.362ZM683.483 729.826C682.626 729.826 681.947 729.683 681.161 729.397C681.126 724.754 681.054 721.467 681.018 718.931C681.983 718.217 683.09 717.788 684.162 717.788C686.555 717.788 688.305 719.86 688.305 723.968C688.305 727.897 686.198 729.826 683.483 729.826ZM681.161 738.649V733.219C681.483 733.255 681.768 733.255 682.09 733.255C687.662 733.255 692.235 729.504 692.235 723.003C692.235 717.824 689.484 714.537 685.769 714.537C683.697 714.537 682.054 715.538 680.804 716.752L680.625 714.93L676.982 715.145C677.161 718.681 677.196 723.718 677.196 732.898V739.006L681.161 738.649ZM703.015 730.183C701.194 730.183 700.015 729.254 700.015 727.683C700.015 725.718 701.479 724.539 706.981 725.111C707.016 726.575 707.016 727.754 707.088 728.79C705.837 729.647 704.373 730.183 703.015 730.183ZM707.588 732.898L711.231 732.719C711.053 730.255 710.91 727.433 710.91 723.968C710.91 717.038 708.231 714.823 697.514 714.645L697.122 718.002C704.766 718.252 706.73 719.074 706.945 722.503C699.443 722.182 696.086 725.039 696.086 728.611C696.086 731.505 698.265 733.255 701.444 733.255C704.016 733.255 705.909 732.076 707.266 730.755C707.373 731.612 707.552 732.755 707.588 732.898ZM716.19 724.182C716.19 729.683 719.119 733.862 730.228 732.934L730.621 729.647C722.619 730.112 720.119 728.254 720.119 723.682C720.119 720.253 721.476 718.217 730.371 718.502L730.121 714.752C719.476 714.787 716.19 719.217 716.19 724.182ZM749.832 733.219L750.225 729.897C742.366 729.719 739.687 728.54 739.258 724.968L750.725 724.646C751.368 718.467 748.974 714.537 743.973 714.537C739.294 714.537 735.293 718.752 735.293 724.218C735.293 730.005 738.33 733.327 749.832 733.219ZM743.259 717.788C745.724 717.788 746.831 719.538 746.938 722.36C744.724 722.432 741.116 722.539 739.223 722.61C739.401 719.288 740.83 717.788 743.259 717.788ZM765.863 724.075L768.15 722.682L766.078 717.717L771.15 715.716L770.543 713.18L765.149 713.609L764.827 708.179L762.148 708L760.898 713.287L755.719 711.823L754.683 714.287L759.326 717.181L756.397 721.61L758.398 723.396L762.506 719.896L765.863 724.075ZM538.75 751.556C532.052 751.047 529.801 753.19 529.801 755.28C529.801 758.575 537.142 758.95 537.142 761.281C537.142 762.46 535.508 763.424 529.775 762.969L529.694 764.898C537.062 765.3 539.393 763.237 539.393 761.094C539.393 757.745 531.998 757.155 531.998 754.985C531.998 753.914 533.445 753.003 538.83 753.485L538.75 751.556ZM553.988 765.085L554.203 763.237C547.853 763.076 545.897 761.897 545.683 758.79L554.658 758.575C555.14 754.235 553.318 751.342 549.729 751.342C546.326 751.342 543.54 754.423 543.54 758.415C543.54 762.674 545.764 765.059 553.988 765.085ZM549.353 753.137C551.55 753.137 552.595 754.717 552.622 757.236C550.773 757.289 547.183 757.397 545.683 757.45C545.844 754.637 547.183 753.137 549.353 753.137ZM568.825 765.005L569.066 763.183C564.673 763.103 563.413 762.514 563.413 760.236V753.351H568.771V751.663H563.413V747.832L561.243 748.02V751.663H558.752L558.537 753.351H561.243V760.585C561.243 763.826 563.145 765.085 568.825 765.005ZM579.697 749.949H583.823V748.181H573.374V749.949H577.473V763.023H573.374V764.791H583.769L583.93 763.023H579.697V749.949ZM597.668 751.556C590.971 751.047 588.72 753.19 588.72 755.28C588.72 758.575 596.061 758.95 596.061 761.281C596.061 762.46 594.427 763.424 588.693 762.969L588.613 764.898C595.98 765.3 598.311 763.237 598.311 761.094C598.311 757.745 590.917 757.155 590.917 754.985C590.917 753.914 592.364 753.003 597.749 753.485L597.668 751.556ZM605.539 764.791V759.433C610.683 759.058 614.112 757.236 614.112 753.271C614.112 749.199 610.496 747.136 603.316 748.207V764.791H605.539ZM611.916 753.699C611.916 756.7 609.638 757.745 605.539 757.45V749.949C609.853 749.386 611.916 750.86 611.916 753.699ZM628.065 764.791L628.253 763.13H623.966V746.091H617.911L617.724 747.645L621.769 747.832V763.13H617.51V764.791H628.065ZM636.794 763.398C635.159 763.398 634.088 762.594 634.088 761.201C634.088 759.406 635.668 758.361 640.464 758.87C640.464 760.156 640.491 761.12 640.518 761.978C639.5 762.781 638.106 763.398 636.794 763.398ZM640.812 764.871L642.795 764.737C642.688 762.862 642.58 761.013 642.58 758.281C642.58 753.217 640.544 751.637 632.963 751.422L632.722 753.298C638.589 753.512 640.25 754.289 640.437 757.316C634.624 756.968 631.945 759.004 631.945 761.71C631.945 763.826 633.579 765.112 635.963 765.112C638.026 765.112 639.553 764.175 640.625 763.183C640.678 763.773 640.786 764.603 640.812 764.871ZM646.755 769.56C651.202 769.024 652.461 767.791 654.229 763.157C655.944 758.816 657.337 754.905 658.435 751.663H656.346C655.649 753.512 653.774 759.433 652.783 762.112H652.515C651.041 758.763 649.541 754.959 648.228 751.61L646.004 751.744C647.317 754.959 649.836 761.04 651.363 764.389L651.604 764.442C650.693 766.586 649.916 767.041 646.567 767.55L646.755 769.56ZM668.503 749.547L668.745 745.903H666.441L666.28 749.547H668.503ZM673.379 764.791L673.54 763.13H668.611V751.663H661.699L661.538 753.19L666.441 753.405V763.13H661.511V764.791H673.379ZM682.135 753.217C683.796 753.217 684.787 754.101 684.787 756.62V764.791H686.957V755.896C686.957 752.681 685.403 751.369 683.046 751.369C681.17 751.369 679.75 752.199 678.652 753.11L678.518 751.61L676.509 751.744C676.643 754.771 676.696 759.058 676.696 764.791H678.866C678.866 760.21 678.813 756.754 678.759 754.369C679.777 753.673 680.875 753.217 682.135 753.217ZM692.444 769.426C699.677 769.05 701.472 766.264 701.472 761.737C701.472 760.21 701.472 753.03 701.445 751.985C700.133 751.583 698.9 751.369 697.614 751.369C693.864 751.369 690.622 753.994 690.622 758.227C690.622 761.683 692.739 763.773 695.578 763.773C697.132 763.773 698.391 763.21 699.329 762.487C699.275 766.211 698.445 766.961 692.229 767.443L692.444 769.426ZM696.382 762.031C694.319 762.031 692.765 760.611 692.765 757.718C692.765 754.798 694.533 753.217 696.837 753.217C697.668 753.217 698.472 753.378 699.329 753.619C699.302 755.655 699.329 759.325 699.329 761.12C698.472 761.656 697.427 762.031 696.382 762.031ZM714.889 745.368C709.102 750.109 706.772 754.048 706.772 757.932C706.772 761.737 709.049 765.594 714.782 770.31L716.282 768.943C710.897 764.684 708.915 761.254 708.915 757.852C708.915 754.45 710.871 751.02 716.363 746.734L714.889 745.368ZM726.699 758.522C726.752 756.191 727.422 749.118 727.529 746.68H724.77C724.823 749.118 725.279 756.191 725.279 758.522H726.699ZM727.315 764.791L727.395 761.844H724.341L724.287 764.791H727.315ZM742.152 749.547L742.393 745.903H740.089L739.928 749.547H742.152ZM747.028 764.791L747.188 763.13H742.259V751.663H735.347L735.186 753.19L740.089 753.405V763.13H735.159V764.791H747.028ZM759.694 751.556C752.997 751.047 750.746 753.19 750.746 755.28C750.746 758.575 758.087 758.95 758.087 761.281C758.087 762.46 756.453 763.424 750.719 762.969L750.639 764.898C758.007 765.3 760.337 763.237 760.337 761.094C760.337 757.745 752.943 757.155 752.943 754.985C752.943 753.914 754.39 753.003 759.775 753.485L759.694 751.556ZM767.566 764.791V759.433C772.709 759.058 776.139 757.236 776.139 753.271C776.139 749.199 772.522 747.136 765.342 748.207V764.791H767.566ZM773.942 753.699C773.942 756.7 771.665 757.745 767.566 757.45V749.949C771.879 749.386 773.942 750.86 773.942 753.699ZM790.091 764.791L790.279 763.13H785.992V746.091H779.938L779.75 747.645L783.795 747.832V763.13H779.536V764.791H790.091ZM798.82 763.398C797.186 763.398 796.114 762.594 796.114 761.201C796.114 759.406 797.695 758.361 802.49 758.87C802.49 760.156 802.517 761.12 802.544 761.978C801.526 762.781 800.133 763.398 798.82 763.398ZM802.838 764.871L804.821 764.737C804.714 762.862 804.607 761.013 804.607 758.281C804.607 753.217 802.571 751.637 794.989 751.422L794.748 753.298C800.615 753.512 802.276 754.289 802.463 757.316C796.65 756.968 793.971 759.004 793.971 761.71C793.971 763.826 795.605 765.112 797.989 765.112C800.052 765.112 801.579 764.175 802.651 763.183C802.704 763.773 802.812 764.603 802.838 764.871ZM808.781 769.56C813.228 769.024 814.487 767.791 816.255 763.157C817.97 758.816 819.363 754.905 820.461 751.663H818.372C817.675 753.512 815.8 759.433 814.809 762.112H814.541C813.067 758.763 811.567 754.959 810.254 751.61L808.031 751.744C809.343 754.959 811.862 761.04 813.389 764.389L813.63 764.442C812.719 766.586 811.942 767.041 808.593 767.55L808.781 769.56ZM830.53 749.547L830.771 745.903H828.467L828.306 749.547H830.53ZM835.405 764.791L835.566 763.13H830.637V751.663H823.725L823.564 753.19L828.467 753.405V763.13H823.537V764.791H835.405ZM844.161 753.217C845.822 753.217 846.813 754.101 846.813 756.62V764.791H848.983V755.896C848.983 752.681 847.429 751.369 845.072 751.369C843.196 751.369 841.776 752.199 840.678 753.11L840.544 751.61L838.535 751.744C838.669 754.771 838.722 759.058 838.722 764.791H840.892C840.892 760.21 840.839 756.754 840.785 754.369C841.803 753.673 842.902 753.217 844.161 753.217ZM854.47 769.426C861.703 769.05 863.498 766.264 863.498 761.737C863.498 760.21 863.498 753.03 863.472 751.985C862.159 751.583 860.927 751.369 859.641 751.369C855.89 751.369 852.648 753.994 852.648 758.227C852.648 761.683 854.765 763.773 857.604 763.773C859.158 763.773 860.417 763.21 861.355 762.487C861.302 766.211 860.471 766.961 854.256 767.443L854.47 769.426ZM858.408 762.031C856.345 762.031 854.791 760.611 854.791 757.718C854.791 754.798 856.56 753.217 858.864 753.217C859.694 753.217 860.498 753.378 861.355 753.619C861.328 755.655 861.355 759.325 861.355 761.12C860.498 761.656 859.453 762.031 858.408 762.031ZM869.468 770.31C875.281 765.541 877.585 761.603 877.585 757.718C877.585 753.941 875.308 750.083 869.575 745.341L868.101 746.761C873.459 750.994 875.442 754.423 875.442 757.798C875.442 761.228 873.486 764.63 867.994 768.943L869.468 770.31Z" fill="black"/>
<path d="M1087.1 724.075L1089.38 722.682L1087.31 717.717L1092.38 715.716L1091.78 713.18L1086.38 713.609L1086.06 708.179L1083.38 708L1082.13 713.287L1076.95 711.823L1075.92 714.287L1080.56 717.181L1077.63 721.61L1079.63 723.396L1083.74 719.896L1087.1 724.075ZM1096.63 729.362V733.041C1107.31 733.469 1111.13 729.79 1111.13 726.29C1111.13 721.003 1100.81 719.538 1100.81 716.216C1100.81 714.609 1102.59 713.644 1109.77 714.144L1109.56 710.465C1100.34 709.965 1096.56 713.466 1096.56 716.788C1096.56 721.896 1106.88 723.182 1106.88 726.79C1106.88 728.647 1104.17 729.933 1096.63 729.362ZM1122.55 729.826C1121.7 729.826 1121.02 729.683 1120.23 729.397C1120.2 724.754 1120.13 721.467 1120.09 718.931C1121.05 718.217 1122.16 717.788 1123.23 717.788C1125.63 717.788 1127.38 719.86 1127.38 723.968C1127.38 727.897 1125.27 729.826 1122.55 729.826ZM1120.23 738.649V733.219C1120.55 733.255 1120.84 733.255 1121.16 733.255C1126.73 733.255 1131.31 729.504 1131.31 723.003C1131.31 717.824 1128.56 714.537 1124.84 714.537C1122.77 714.537 1121.13 715.538 1119.88 716.752L1119.7 714.93L1116.05 715.145C1116.23 718.681 1116.27 723.718 1116.27 732.898V739.006L1120.23 738.649ZM1142.09 730.183C1140.27 730.183 1139.09 729.254 1139.09 727.683C1139.09 725.718 1140.55 724.539 1146.05 725.111C1146.09 726.575 1146.09 727.754 1146.16 728.79C1144.91 729.647 1143.44 730.183 1142.09 730.183ZM1146.66 732.898L1150.3 732.719C1150.12 730.255 1149.98 727.433 1149.98 723.968C1149.98 717.038 1147.3 714.823 1136.59 714.645L1136.19 718.002C1143.84 718.252 1145.8 719.074 1146.02 722.503C1138.51 722.182 1135.16 725.039 1135.16 728.611C1135.16 731.505 1137.34 733.255 1140.52 733.255C1143.09 733.255 1144.98 732.076 1146.34 730.755C1146.44 731.612 1146.62 732.755 1146.66 732.898ZM1155.26 724.182C1155.26 729.683 1158.19 733.862 1169.3 732.934L1169.69 729.647C1161.69 730.112 1159.19 728.254 1159.19 723.682C1159.19 720.253 1160.55 718.217 1169.44 718.502L1169.19 714.752C1158.55 714.787 1155.26 719.217 1155.26 724.182ZM1188.9 733.219L1189.3 729.897C1181.44 729.719 1178.76 728.54 1178.33 724.968L1189.8 724.646C1190.44 718.467 1188.05 714.537 1183.04 714.537C1178.37 714.537 1174.36 718.752 1174.36 724.218C1174.36 730.005 1177.4 733.327 1188.9 733.219ZM1182.33 717.788C1184.8 717.788 1185.9 719.538 1186.01 722.36C1183.79 722.432 1180.19 722.539 1178.29 722.61C1178.47 719.288 1179.9 717.788 1182.33 717.788ZM1204.93 724.075L1207.22 722.682L1205.15 717.717L1210.22 715.716L1209.61 713.18L1204.22 713.609L1203.9 708.179L1201.22 708L1199.97 713.287L1194.79 711.823L1193.75 714.287L1198.4 717.181L1195.47 721.61L1197.47 723.396L1201.58 719.896L1204.93 724.075ZM977.821 751.556C971.123 751.047 968.873 753.19 968.873 755.28C968.873 758.575 976.213 758.95 976.213 761.281C976.213 762.46 974.579 763.424 968.846 762.969L968.766 764.898C976.133 765.3 978.464 763.237 978.464 761.094C978.464 757.745 971.07 757.155 971.07 754.985C971.07 753.914 972.516 753.003 977.901 753.485L977.821 751.556ZM993.06 765.085L993.274 763.237C986.924 763.076 984.969 761.897 984.754 758.79L993.729 758.575C994.212 754.235 992.39 751.342 988.8 751.342C985.397 751.342 982.611 754.423 982.611 758.415C982.611 762.674 984.835 765.059 993.06 765.085ZM988.425 753.137C990.622 753.137 991.666 754.717 991.693 757.236C989.845 757.289 986.255 757.397 984.754 757.45C984.915 754.637 986.255 753.137 988.425 753.137ZM1007.9 765.005L1008.14 763.183C1003.74 763.103 1002.48 762.514 1002.48 760.236V753.351H1007.84V751.663H1002.48V747.832L1000.31 748.02V751.663H997.823L997.609 753.351H1000.31V760.585C1000.31 763.826 1002.22 765.085 1007.9 765.005ZM1018.77 749.949H1022.89V748.181H1012.45V749.949H1016.54V763.023H1012.45V764.791H1022.84L1023 763.023H1018.77V749.949ZM1036.74 751.556C1030.04 751.047 1027.79 753.19 1027.79 755.28C1027.79 758.575 1035.13 758.95 1035.13 761.281C1035.13 762.46 1033.5 763.424 1027.76 762.969L1027.68 764.898C1035.05 765.3 1037.38 763.237 1037.38 761.094C1037.38 757.745 1029.99 757.155 1029.99 754.985C1029.99 753.914 1031.43 753.003 1036.82 753.485L1036.74 751.556ZM1044.61 764.791V759.433C1049.75 759.058 1053.18 757.236 1053.18 753.271C1053.18 749.199 1049.57 747.136 1042.39 748.207V764.791H1044.61ZM1050.99 753.699C1050.99 756.7 1048.71 757.745 1044.61 757.45V749.949C1048.92 749.386 1050.99 750.86 1050.99 753.699ZM1067.14 764.791L1067.32 763.13H1063.04V746.091H1056.98L1056.8 747.645L1060.84 747.832V763.13H1056.58V764.791H1067.14ZM1075.86 763.398C1074.23 763.398 1073.16 762.594 1073.16 761.201C1073.16 759.406 1074.74 758.361 1079.54 758.87C1079.54 760.156 1079.56 761.12 1079.59 761.978C1078.57 762.781 1077.18 763.398 1075.86 763.398ZM1079.88 764.871L1081.87 764.737C1081.76 762.862 1081.65 761.013 1081.65 758.281C1081.65 753.217 1079.62 751.637 1072.03 751.422L1071.79 753.298C1077.66 753.512 1079.32 754.289 1079.51 757.316C1073.69 756.968 1071.02 759.004 1071.02 761.71C1071.02 763.826 1072.65 765.112 1075.03 765.112C1077.1 765.112 1078.62 764.175 1079.7 763.183C1079.75 763.773 1079.86 764.603 1079.88 764.871ZM1085.83 769.56C1090.27 769.024 1091.53 767.791 1093.3 763.157C1095.02 758.816 1096.41 754.905 1097.51 751.663H1095.42C1094.72 753.512 1092.85 759.433 1091.85 762.112H1091.59C1090.11 758.763 1088.61 754.959 1087.3 751.61L1085.08 751.744C1086.39 754.959 1088.91 761.04 1090.43 764.389L1090.68 764.442C1089.76 766.586 1088.99 767.041 1085.64 767.55L1085.83 769.56ZM1107.57 749.547L1107.82 745.903H1105.51L1105.35 749.547H1107.57ZM1112.45 764.791L1112.61 763.13H1107.68V751.663H1100.77L1100.61 753.19L1105.51 753.405V763.13H1100.58V764.791H1112.45ZM1121.21 753.217C1122.87 753.217 1123.86 754.101 1123.86 756.62V764.791H1126.03V755.896C1126.03 752.681 1124.47 751.369 1122.12 751.369C1120.24 751.369 1118.82 752.199 1117.72 753.11L1117.59 751.61L1115.58 751.744C1115.71 754.771 1115.77 759.058 1115.77 764.791H1117.94C1117.94 760.21 1117.88 756.754 1117.83 754.369C1118.85 753.673 1119.95 753.217 1121.21 753.217ZM1131.52 769.426C1138.75 769.05 1140.54 766.264 1140.54 761.737C1140.54 760.21 1140.54 753.03 1140.52 751.985C1139.2 751.583 1137.97 751.369 1136.69 751.369C1132.94 751.369 1129.69 753.994 1129.69 758.227C1129.69 761.683 1131.81 763.773 1134.65 763.773C1136.2 763.773 1137.46 763.21 1138.4 762.487C1138.35 766.211 1137.52 766.961 1131.3 767.443L1131.52 769.426ZM1135.45 762.031C1133.39 762.031 1131.84 760.611 1131.84 757.718C1131.84 754.798 1133.6 753.217 1135.91 753.217C1136.74 753.217 1137.54 753.378 1138.4 753.619C1138.37 755.655 1138.4 759.325 1138.4 761.12C1137.54 761.656 1136.5 762.031 1135.45 762.031ZM1153.96 745.368C1148.17 750.109 1145.84 754.048 1145.84 757.932C1145.84 761.737 1148.12 765.594 1153.85 770.31L1155.35 768.943C1149.97 764.684 1147.99 761.254 1147.99 757.852C1147.99 754.45 1149.94 751.02 1155.43 746.734L1153.96 745.368ZM1165.77 758.522C1165.82 756.191 1166.49 749.118 1166.6 746.68H1163.84C1163.89 749.118 1164.35 756.191 1164.35 758.522H1165.77ZM1166.39 764.791L1166.47 761.844H1163.41L1163.36 764.791H1166.39ZM1181.22 749.547L1181.46 745.903H1179.16L1179 749.547H1181.22ZM1186.1 764.791L1186.26 763.13H1181.33V751.663H1174.42L1174.26 753.19L1179.16 753.405V763.13H1174.23V764.791H1186.1ZM1198.77 751.556C1192.07 751.047 1189.82 753.19 1189.82 755.28C1189.82 758.575 1197.16 758.95 1197.16 761.281C1197.16 762.46 1195.52 763.424 1189.79 762.969L1189.71 764.898C1197.08 765.3 1199.41 763.237 1199.41 761.094C1199.41 757.745 1192.01 757.155 1192.01 754.985C1192.01 753.914 1193.46 753.003 1198.85 753.485L1198.77 751.556ZM1206.64 764.791V759.433C1211.78 759.058 1215.21 757.236 1215.21 753.271C1215.21 749.199 1211.59 747.136 1204.41 748.207V764.791H1206.64ZM1213.01 753.699C1213.01 756.7 1210.74 757.745 1206.64 757.45V749.949C1210.95 749.386 1213.01 750.86 1213.01 753.699ZM1229.16 764.791L1229.35 763.13H1225.06V746.091H1219.01L1218.82 747.645L1222.87 747.832V763.13H1218.61V764.791H1229.16ZM1237.89 763.398C1236.26 763.398 1235.19 762.594 1235.19 761.201C1235.19 759.406 1236.77 758.361 1241.56 758.87C1241.56 760.156 1241.59 761.12 1241.62 761.978C1240.6 762.781 1239.2 763.398 1237.89 763.398ZM1241.91 764.871L1243.89 764.737C1243.79 762.862 1243.68 761.013 1243.68 758.281C1243.68 753.217 1241.64 751.637 1234.06 751.422L1233.82 753.298C1239.69 753.512 1241.35 754.289 1241.53 757.316C1235.72 756.968 1233.04 759.004 1233.04 761.71C1233.04 763.826 1234.68 765.112 1237.06 765.112C1239.12 765.112 1240.65 764.175 1241.72 763.183C1241.78 763.773 1241.88 764.603 1241.91 764.871ZM1247.85 769.56C1252.3 769.024 1253.56 767.791 1255.33 763.157C1257.04 758.816 1258.43 754.905 1259.53 751.663H1257.44C1256.75 753.512 1254.87 759.433 1253.88 762.112H1253.61C1252.14 758.763 1250.64 754.959 1249.33 751.61L1247.1 751.744C1248.41 754.959 1250.93 761.04 1252.46 764.389L1252.7 764.442C1251.79 766.586 1251.01 767.041 1247.66 767.55L1247.85 769.56ZM1269.6 749.547L1269.84 745.903H1267.54L1267.38 749.547H1269.6ZM1274.48 764.791L1274.64 763.13H1269.71V751.663H1262.8L1262.64 753.19L1267.54 753.405V763.13H1262.61V764.791H1274.48ZM1283.23 753.217C1284.89 753.217 1285.88 754.101 1285.88 756.62V764.791H1288.05V755.896C1288.05 752.681 1286.5 751.369 1284.14 751.369C1282.27 751.369 1280.85 752.199 1279.75 753.11L1279.62 751.61L1277.61 751.744C1277.74 754.771 1277.79 759.058 1277.79 764.791H1279.96C1279.96 760.21 1279.91 756.754 1279.86 754.369C1280.87 753.673 1281.97 753.217 1283.23 753.217ZM1293.54 769.426C1300.77 769.05 1302.57 766.264 1302.57 761.737C1302.57 760.21 1302.57 753.03 1302.54 751.985C1301.23 751.583 1300 751.369 1298.71 751.369C1294.96 751.369 1291.72 753.994 1291.72 758.227C1291.72 761.683 1293.84 763.773 1296.68 763.773C1298.23 763.773 1299.49 763.21 1300.43 762.487C1300.37 766.211 1299.54 766.961 1293.33 767.443L1293.54 769.426ZM1297.48 762.031C1295.42 762.031 1293.86 760.611 1293.86 757.718C1293.86 754.798 1295.63 753.217 1297.93 753.217C1298.77 753.217 1299.57 753.378 1300.43 753.619C1300.4 755.655 1300.43 759.325 1300.43 761.12C1299.57 761.656 1298.52 762.031 1297.48 762.031ZM1308.54 770.31C1314.35 765.541 1316.66 761.603 1316.66 757.718C1316.66 753.941 1314.38 750.083 1308.65 745.341L1307.17 746.761C1312.53 750.994 1314.51 754.423 1314.51 757.798C1314.51 761.228 1312.56 764.63 1307.07 768.943L1308.54 770.31Z" fill="black"/>
<path d="M707.067 642.886C706.195 642.015 704.781 642.015 703.91 642.886L689.702 657.094C688.83 657.966 688.83 659.38 689.702 660.252C690.574 661.124 691.987 661.124 692.859 660.252L705.488 647.622L718.118 660.252C718.989 661.124 720.403 661.124 721.275 660.252C722.147 659.38 722.147 657.966 721.275 657.094L707.067 642.886ZM707.721 684.651V644.465H703.256V684.651H707.721Z" fill="#C4002F"/>
<path d="M1146.14 642.886C1145.27 642.015 1143.85 642.015 1142.98 642.886L1128.77 657.094C1127.9 657.966 1127.9 659.38 1128.77 660.252C1129.64 661.124 1131.06 661.124 1131.93 660.252L1144.56 647.622L1157.19 660.252C1158.06 661.124 1159.47 661.124 1160.35 660.252C1161.22 659.38 1161.22 657.966 1160.35 657.094L1146.14 642.886ZM1146.79 684.651V644.465H1142.33V684.651H1146.79Z" fill="#C4002F"/>
<path d="M265 606V661.186C265 674.338 275.662 685 288.814 685H1559.69C1572.84 685 1583.5 674.338 1583.5 661.186V346.5" stroke="#C4002F" stroke-width="4.46512"/>
<path d="M1874.37 287.391C1875.68 286.083 1875.68 283.963 1874.37 282.655L1853.06 261.343C1851.75 260.036 1849.63 260.036 1848.32 261.343C1847.01 262.651 1847.01 264.772 1848.32 266.079L1867.26 285.023L1848.32 303.967C1847.01 305.275 1847.01 307.395 1848.32 308.703C1849.63 310.011 1851.75 310.011 1853.06 308.703L1874.37 287.391ZM47.6279 288.372H54.3352V281.674H47.6279V288.372ZM67.7497 288.372H81.1642V281.674H67.7497V288.372ZM94.5787 288.372H107.993V281.674H94.5787V288.372ZM121.408 288.372H134.822V281.674H121.408V288.372ZM148.237 288.372H161.651V281.674H148.237V288.372ZM175.066 288.372H188.48V281.674H175.066V288.372ZM201.895 288.372H215.309V281.674H201.895V288.372ZM228.724 288.372H242.138V281.674H228.724V288.372ZM255.553 288.372H268.967V281.674H255.553V288.372ZM282.382 288.372H295.796V281.674H282.382V288.372ZM309.211 288.372H322.625V281.674H309.211V288.372ZM336.04 288.372H349.454V281.674H336.04V288.372ZM362.869 288.372H376.283V281.674H362.869V288.372ZM389.698 288.372H403.112V281.674H389.698V288.372ZM416.527 288.372H429.941V281.674H416.527V288.372ZM443.356 288.372H456.77V281.674H443.356V288.372ZM470.185 288.372H483.599V281.674H470.185V288.372ZM497.014 288.372H510.428V281.674H497.014V288.372ZM523.843 288.372H537.257V281.674H523.843V288.372ZM550.672 288.372H564.086V281.674H550.672V288.372ZM577.501 288.372H590.915V281.674H577.501V288.372ZM604.33 288.372H617.744V281.674H604.33V288.372ZM631.159 288.372H644.573V281.674H631.159V288.372ZM657.987 288.372H671.402V281.674H657.987V288.372ZM684.816 288.372H698.231V281.674H684.816V288.372ZM711.645 288.372H725.06V281.674H711.645V288.372ZM738.474 288.372H751.889V281.674H738.474V288.372ZM765.303 288.372H778.718V281.674H765.303V288.372ZM792.132 288.372H805.547V281.674H792.132V288.372ZM818.961 288.372H832.376V281.674H818.961V288.372ZM845.79 288.372H859.205V281.674H845.79V288.372ZM872.619 288.372H886.034V281.674H872.619V288.372ZM899.448 288.372H912.863V281.674H899.448V288.372ZM926.277 288.372H939.692V281.674H926.277V288.372ZM953.106 288.372H966.521V281.674H953.106V288.372ZM979.935 288.372H993.35V281.674H979.935V288.372ZM1006.76 288.372H1020.18V281.674H1006.76V288.372ZM1033.59 288.372H1047.01V281.674H1033.59V288.372ZM1060.42 288.372H1073.84V281.674H1060.42V288.372ZM1087.25 288.372H1100.67V281.674H1087.25V288.372ZM1114.08 288.372H1127.49V281.674H1114.08V288.372ZM1140.91 288.372H1154.32V281.674H1140.91V288.372ZM1167.74 288.372H1181.15V281.674H1167.74V288.372ZM1194.57 288.372H1207.98V281.674H1194.57V288.372ZM1221.4 288.372H1234.81V281.674H1221.4V288.372ZM1248.23 288.372H1261.64V281.674H1248.23V288.372ZM1275.05 288.372H1288.47V281.674H1275.05V288.372ZM1301.88 288.372H1315.3V281.674H1301.88V288.372ZM1328.71 288.372H1342.13V281.674H1328.71V288.372ZM1355.54 288.372H1368.96V281.674H1355.54V288.372ZM1382.37 288.372H1395.79V281.674H1382.37V288.372ZM1409.2 288.372H1422.61V281.674H1409.2V288.372ZM1436.03 288.372H1449.44V281.674H1436.03V288.372ZM1462.86 288.372H1476.27V281.674H1462.86V288.372ZM1489.69 288.372H1503.1V281.674H1489.69V288.372ZM1516.52 288.372H1529.93V281.674H1516.52V288.372ZM1543.35 288.372H1556.76V281.674H1543.35V288.372ZM1570.18 288.372H1583.59V281.674H1570.18V288.372ZM1597 288.372H1610.42V281.674H1597V288.372ZM1623.83 288.372H1637.25V281.674H1623.83V288.372ZM1650.66 288.372H1664.08V281.674H1650.66V288.372ZM1677.49 288.372H1690.91V281.674H1677.49V288.372ZM1704.32 288.372H1717.74V281.674H1704.32V288.372ZM1731.15 288.372H1744.56V281.674H1731.15V288.372ZM1757.98 288.372H1771.39V281.674H1757.98V288.372ZM1784.81 288.372H1798.22V281.674H1784.81V288.372ZM1811.64 288.372H1825.05V281.674H1811.64V288.372ZM1838.47 288.372H1851.88V281.674H1838.47V288.372ZM1865.3 288.372H1872V281.674H1865.3V288.372Z" fill="black"/>
<path d="M122.047 93.8637L410.047 47.6279V436.741L122.047 482.977V93.8637Z" fill="#DDD2E6" fill-opacity="0.97"/>
<path d="M122.047 483.073L410.047 436.837V583.345L122.047 629.581V483.073Z" fill="#FEE198" fill-opacity="0.98"/>
<path d="M205.822 552.786L196.017 554.361L195.031 548.224L203.249 546.904L202.773 543.941L194.556 545.262L193.592 539.266L203.185 537.725L202.641 534.339L188.992 536.532L192.506 558.398L206.049 556.222L205.822 552.786ZM224.652 550.231L219.079 551.126L217.328 540.228L223.254 539.276L222.772 536.278L216.847 537.23L216.745 536.595C216.24 533.456 216.82 532.784 223.205 531.542L222.346 527.772C214.196 529.516 212.201 533.309 212.926 537.824L212.932 537.859L208.629 538.55L208.758 541.605L213.414 540.857L215.165 551.755L210.721 552.469L211.191 555.396L224.769 553.215L224.652 550.231ZM244.043 547.115L238.47 548.011L236.719 537.113L242.644 536.161L242.163 533.163L236.238 534.115L236.136 533.48C235.631 530.341 236.211 529.669 242.596 528.426L241.737 524.657C233.587 526.4 231.592 530.194 232.317 534.708L232.323 534.744L228.02 535.435L228.149 538.489L232.804 537.741L234.555 548.64L230.112 549.353L230.582 552.281L244.16 550.099L244.043 547.115ZM263.725 547.39L263.586 544.048C255.799 545.118 252.966 544.379 251.977 540.92L263.247 538.784C262.901 532.58 259.915 529.08 254.977 529.874C250.357 530.616 247.076 535.412 247.943 540.809C248.861 546.522 252.385 549.32 263.725 547.39ZM254.788 533.197C257.221 532.806 258.592 534.358 259.146 537.127C256.97 537.549 253.425 538.227 251.567 538.598C251.217 535.29 252.389 533.582 254.788 533.197ZM267.857 537.573C268.73 543.004 272.285 546.666 283.106 543.987L282.972 540.68C275.146 542.407 272.382 540.97 271.657 536.456C271.113 533.07 272.13 530.844 280.958 529.716L280.116 526.052C269.611 527.776 267.069 532.67 267.857 537.573ZM302.449 541.024L302.351 537.711C296.973 538.467 295.213 538.098 294.771 535.347L293.468 527.235L300.098 526.17L299.617 523.172L292.986 524.237L292.17 519.159L288.347 520.135L289.107 524.861L285.862 525.382L285.991 528.437L289.588 527.859L290.988 536.57C291.713 541.084 294.571 542.434 302.449 541.024ZM342.349 534.324L342.139 530.993L336.849 531.843L333.75 512.551L330.027 513.474L330.441 516.049L325.1 517.486L325.629 520.331L330.967 519.329L333.075 532.449L327.15 533.401L327.677 536.681L342.349 534.324Z" fill="black"/>
<path d="M151.081 259.329L150.735 255.529L148.357 255.905L148.786 259.692L151.081 259.329ZM158.605 274.269L158.5 272.528L153.411 273.333L151.538 261.496L144.403 262.626L144.486 264.228L149.582 263.649L151.171 273.688L146.082 274.493L146.354 276.208L158.605 274.269ZM169.519 258.537C162.522 259.106 160.549 261.686 160.89 263.843C161.429 267.245 169.067 266.433 169.448 268.839C169.641 270.056 168.111 271.318 162.119 271.785L162.351 273.789C170.022 273.001 172.091 270.49 171.741 268.278C171.194 264.821 163.464 265.42 163.11 263.18C162.935 262.074 164.279 260.897 169.917 260.515L169.519 258.537ZM179.806 270.913L178.931 265.382C184.18 264.155 187.422 261.714 186.774 257.621C186.109 253.417 182.038 251.878 174.802 254.158L177.511 271.277L179.806 270.913ZM184.576 258.422C185.067 261.52 182.887 262.97 178.607 263.336L177.382 255.592C181.742 254.307 184.113 255.491 184.576 258.422ZM203.06 267.233L202.982 265.488L198.557 266.188L195.773 248.599L189.523 249.588L189.583 251.223L193.79 250.756L196.289 266.547L191.892 267.243L192.163 268.958L203.06 267.233ZM211.842 264.369C210.155 264.636 208.918 263.982 208.69 262.544C208.397 260.691 209.858 259.354 214.891 259.096C215.102 260.423 215.287 261.415 215.454 262.295C214.535 263.291 213.197 264.155 211.842 264.369ZM216.231 265.234L218.256 264.772C217.839 262.853 217.426 260.962 216.98 258.142C216.153 252.915 213.793 251.616 205.931 252.633L205.989 254.608C212.08 253.871 213.922 254.402 214.61 257.496C208.552 258.086 206.119 260.626 206.561 263.419C206.907 265.604 208.804 266.664 211.265 266.275C213.395 265.938 214.818 264.72 215.762 263.522C215.914 264.122 216.16 264.962 216.231 265.234ZM223.132 269.103C227.635 267.823 228.733 266.345 229.801 261.272C230.862 256.512 231.661 252.246 232.266 248.72L230.109 249.062C229.692 251.084 228.723 257.502 228.137 260.43L227.861 260.473C225.793 257.257 223.622 253.575 221.72 250.333L219.447 250.834C221.327 253.938 224.92 259.805 227.044 263.012L227.301 263.028C226.711 265.39 225.983 265.987 222.61 267.059L223.132 269.103ZM242.313 244.891L241.967 241.09L239.588 241.467L240.018 245.254L242.313 244.891ZM249.837 259.83L249.732 258.089L244.643 258.895L242.77 247.058L235.634 248.187L235.718 249.79L240.814 249.21L242.403 259.249L237.314 260.055L237.585 261.769L249.837 259.83ZM256.984 246.453C258.699 246.181 259.867 246.932 260.278 249.532L261.613 257.967L263.853 257.612L262.4 248.43C261.875 245.112 260.056 244.01 257.622 244.396C255.687 244.702 254.357 245.791 253.371 246.911L252.988 245.384L250.936 245.851C251.569 248.954 252.324 253.37 253.261 259.288L255.501 258.934C254.753 254.205 254.133 250.646 253.688 248.193C254.625 247.308 255.684 246.658 256.984 246.453ZM270.274 261.5C277.68 259.931 279.078 256.762 278.338 252.088C278.089 250.512 276.916 243.1 276.717 242.026C275.297 241.825 273.989 241.805 272.662 242.015C268.79 242.628 265.873 245.868 266.564 250.238C267.129 253.805 269.655 255.617 272.586 255.153C274.191 254.899 275.398 254.112 276.248 253.213C276.801 257.065 276.066 257.975 269.729 259.489L270.274 261.5ZM273.132 253.224C271.002 253.561 269.166 252.349 268.693 249.362C268.216 246.348 269.783 244.427 272.162 244.051C273.019 243.915 273.875 243.95 274.799 244.058C275.104 246.165 275.732 249.949 276.025 251.802C275.228 252.495 274.21 253.053 273.132 253.224ZM289.145 244.283L288.689 241.038L285.398 241.559L285.882 244.799L289.145 244.283ZM290.364 253.417L289.967 250.191L286.676 250.712L287.073 253.937L290.364 253.417ZM324.435 246.295L319.567 247.066L318.014 237.248L323.158 236.434L322.886 234.719L317.742 235.533L317.69 235.201C317.235 232.325 317.812 231.497 323.11 230.403L322.599 228.244C316.429 229.561 314.938 232.32 315.502 235.888L311.824 236.47L311.902 238.215L315.774 237.602L317.327 247.42L313.621 248.007L313.888 249.694L324.508 248.013L324.435 246.295ZM333.485 245.118C331.798 245.385 330.56 244.731 330.333 243.292C330.039 241.439 331.5 240.103 336.534 239.845C336.744 241.172 336.929 242.163 337.097 243.044C336.177 244.04 334.84 244.904 333.485 245.118ZM337.874 245.983L339.898 245.521C339.481 243.602 339.069 241.711 338.622 238.89C337.795 233.664 335.435 232.364 327.573 233.382L327.631 235.357C333.723 234.62 335.564 235.151 336.252 238.245C330.194 238.835 327.761 241.375 328.203 244.168C328.549 246.353 330.446 247.413 332.907 247.024C335.037 246.687 336.46 245.469 337.404 244.271C337.556 244.871 337.802 245.711 337.874 245.983ZM355.112 243.169L355.035 241.424L350.61 242.124L347.826 224.535L341.576 225.525L341.636 227.159L345.843 226.692L348.342 242.483L343.945 243.179L344.216 244.894L355.112 243.169ZM367.188 227.254C360.191 227.823 358.218 230.403 358.559 232.56C359.097 235.962 366.736 235.15 367.117 237.556C367.31 238.773 365.78 240.035 359.787 240.502L360.02 242.506C367.691 241.717 369.76 239.207 369.41 236.995C368.862 233.538 361.133 234.137 360.779 231.897C360.604 230.791 361.948 229.614 367.586 229.232L367.188 227.254ZM385.129 238.731L385.048 236.788C378.467 237.659 376.256 236.762 375.527 233.589L384.757 231.901C384.545 227.342 382.192 224.653 378.486 225.239C374.974 225.795 372.601 229.431 373.253 233.552C373.949 237.949 376.634 240.047 385.129 238.731ZM378.392 227.154C380.66 226.795 381.997 228.256 382.436 230.851C380.536 231.208 376.848 231.905 375.308 232.206C375.014 229.276 376.152 227.508 378.392 227.154Z" fill="black"/>
<path d="M224.297 217.673L228.55 216.447L221.882 207.822C223.69 206.012 224.9 203.864 224.458 201.113C223.727 196.563 219.877 194.215 209.276 197.365L212.784 219.197L216.769 218.556L215.556 211.009L219.001 210.383L224.297 217.673ZM213.755 199.794C217.931 198.544 220.15 199.743 220.615 202.635C220.921 204.539 220.218 206.244 218.93 207.464L215.103 208.187L213.755 199.794ZM245.75 214.334L245.611 210.992C237.824 212.062 234.992 211.323 234.002 207.864L245.272 205.728C244.927 199.525 241.94 196.025 237.003 196.818C232.383 197.56 229.101 202.357 229.968 207.753C230.886 213.466 234.411 216.265 245.75 214.334ZM236.813 200.141C239.247 199.75 240.618 201.302 241.171 204.072C238.996 204.493 235.451 205.172 233.593 205.542C233.242 202.234 234.415 200.526 236.813 200.141ZM256.438 197.132C258.237 196.844 259.559 197.644 260.058 200.748L261.758 211.328L265.673 210.699L263.752 198.743C263.066 194.476 260.802 192.994 257.734 193.487C255.3 193.878 253.683 195.296 252.476 196.792L251.942 194.816L248.343 195.611C249.195 199.563 250.155 205.088 251.424 212.989L255.374 212.354C254.468 206.711 253.661 202.137 253.063 198.869C254.043 197.988 255.098 197.348 256.438 197.132ZM277.427 205.989C274.993 206.38 272.959 204.753 272.291 200.591C271.667 196.712 273.219 194.436 275.9 194.006C276.676 193.881 277.55 193.921 278.477 194.062C279.157 198.294 279.742 201.71 280.249 204.414C279.51 205.22 278.591 205.802 277.427 205.989ZM281.307 208.296L284.906 207.501C284.106 203.65 283.168 198.265 281.848 190.047L280.647 182.57L276.789 183.552L277.871 190.288C277.583 190.298 277.336 190.338 277.054 190.383C271.482 191.279 267.527 195.713 268.57 202.202C269.408 207.422 272.617 210.054 276.32 209.459C278.331 209.136 279.8 207.923 280.812 206.567L281.307 208.296ZM303.923 204.988L303.784 201.646C295.997 202.716 293.164 201.977 292.175 198.518L303.445 196.382C303.099 190.178 300.113 186.678 295.175 187.472C290.555 188.214 287.274 193.01 288.141 198.407C289.059 204.12 292.584 206.918 303.923 204.988ZM294.986 190.795C297.419 190.404 298.79 191.956 299.344 194.725C297.168 195.147 293.623 195.825 291.765 196.196C291.415 192.888 292.587 191.18 294.986 190.795ZM322.364 201.591L322.206 198.577L316.88 199.433C316.209 195.706 315.698 192.749 315.202 190.115C317.024 188.846 319.356 187.82 322.36 187.156L321.515 183.023C318.268 183.979 315.996 185.827 314.704 187.916C314.492 187.046 313.963 185.105 313.899 184.934L306.634 186.101L306.764 188.938L310.971 188.552C311.54 191.644 312.165 195.306 313 200.056L308.733 200.742L309.209 203.705L322.364 201.591Z" fill="black"/>
<path d="M561.116 93.8637L849.116 47.6279V436.741L561.116 482.977V93.8637Z" fill="#DDD2E6" fill-opacity="0.97"/>
<path d="M629.609 267.731C630.446 273.023 633.994 276.476 644.361 274.112L644.299 271.662C635.893 273.391 633.09 271.447 632.37 266.896C631.789 263.227 633.133 260.519 642.065 259.141L641.423 256.458C631.401 258.261 628.855 262.968 629.609 267.731ZM656.9 272.489C661.346 271.786 664.458 267.459 663.554 261.744C662.677 256.204 659.129 253.439 654.825 254.12C650.379 254.824 647.243 259.226 648.13 264.836C649.013 270.41 652.631 273.165 656.9 272.489ZM656.985 270.053C654.056 270.516 651.654 268.365 650.94 263.849C650.27 259.615 651.877 256.973 654.699 256.527C657.663 256.058 660.071 258.244 660.78 262.725C661.455 266.994 659.843 269.6 656.985 270.053ZM680.818 268.27L683.436 267.675C682.629 263.716 681.665 258.082 680.47 250.532L677.612 250.984C678.573 257.052 679.358 261.557 679.92 264.651C678.765 265.81 677.419 266.674 675.761 266.936C673.609 267.277 672.16 266.349 671.624 262.962L669.904 252.095L667.08 252.759L668.917 264.367C669.592 268.636 671.877 270.047 674.946 269.561C677.416 269.17 679.072 267.751 680.329 266.322L680.818 268.27ZM694.159 250.463C696.346 250.117 697.836 251.074 698.361 254.391L700.064 265.152L702.922 264.699L701.068 252.986C700.398 248.752 698.078 247.347 694.973 247.838C692.503 248.229 690.806 249.619 689.55 251.048L689.061 249.1L686.442 249.695C687.25 253.654 688.214 259.288 689.409 266.838L692.266 266.386C691.312 260.353 690.521 255.812 689.953 252.683C691.149 251.554 692.5 250.725 694.159 250.463ZM721.976 261.973L721.914 259.524C716.111 260.334 714.33 259.82 713.855 256.821L712.42 247.753L719.477 246.637L719.125 244.414L712.069 245.531L711.27 240.485L708.451 241.185L709.211 245.983L705.93 246.502L705.999 248.77L709.563 248.206L711.07 257.732C711.746 262.001 714.513 263.263 721.976 261.973ZM735.188 247.694L734.606 243.555L730.407 244.22L731.025 248.353L735.188 247.694ZM736.743 259.347L736.237 255.232L732.038 255.896L732.545 260.011L736.743 259.347ZM781.043 252.336L780.905 249.862L775.507 250.717L772.307 230.5L769.559 231.188L769.956 233.693L764.452 235.251L764.817 237.327L770.347 236.163L772.72 251.158L766.686 252.113L767.072 254.547L781.043 252.336Z" fill="black"/>
<path d="M634.581 218.175L638.834 216.949L632.167 208.324C633.974 206.514 635.185 204.366 634.743 201.615C634.012 197.065 630.161 194.717 619.56 197.868L623.068 219.699L627.053 219.059L625.841 211.511L629.286 210.885L634.581 218.175ZM624.039 200.296C628.216 199.046 630.434 200.245 630.899 203.137C631.205 205.042 630.502 206.746 629.215 207.966L625.387 208.69L624.039 200.296ZM656.035 214.837L655.896 211.494C648.108 212.565 645.276 211.826 644.286 208.367L655.557 206.23C655.211 200.027 652.225 196.527 647.287 197.32C642.667 198.063 639.386 202.859 640.252 208.255C641.17 213.969 644.695 216.767 656.035 214.837ZM647.097 200.643C649.531 200.252 650.902 201.805 651.455 204.574C649.28 204.996 645.735 205.674 643.877 206.045C643.526 202.736 644.699 201.028 647.097 200.643ZM672.486 199.278L661.2 201.091L661.738 204.441L672.742 202.673L672.486 199.278ZM692.754 208.829L697.007 207.603L690.339 198.978C692.147 197.168 693.357 195.02 692.915 192.269C692.184 187.719 688.334 185.371 677.733 188.521L681.241 210.353L685.226 209.712L684.013 202.165L687.458 201.539L692.754 208.829ZM682.211 190.949C686.388 189.7 688.607 190.899 689.072 193.791C689.378 195.695 688.675 197.4 687.387 198.62L683.56 199.343L682.211 190.949ZM714.207 205.49L714.068 202.148C706.281 203.218 703.449 202.479 702.459 199.02L713.729 196.884C713.384 190.681 710.397 187.181 705.46 187.974C700.84 188.716 697.558 193.513 698.425 198.909C699.343 204.622 702.868 207.421 714.207 205.49ZM705.27 191.297C707.704 190.906 709.075 192.458 709.628 195.228C707.453 195.649 703.908 196.328 702.05 196.698C701.699 193.39 702.872 191.682 705.27 191.297ZM724.895 188.288C726.694 188 728.016 188.8 728.515 191.904L730.215 202.484L734.13 201.855L732.209 189.899C731.523 185.632 729.259 184.15 726.191 184.643C723.757 185.034 722.14 186.452 720.933 187.948L720.399 185.972L716.8 186.767C717.652 190.719 718.612 196.244 719.881 204.145L723.831 203.51C722.925 197.867 722.118 193.293 721.52 190.025C722.5 189.144 723.555 188.504 724.895 188.288ZM745.884 197.145C743.45 197.536 741.416 195.909 740.748 191.747C740.124 187.868 741.676 185.592 744.357 185.162C745.132 185.037 746.007 185.077 746.934 185.218C747.614 189.45 748.199 192.866 748.706 195.57C747.967 196.376 747.048 196.958 745.884 197.145ZM749.764 199.452L753.363 198.657C752.563 194.806 751.625 189.421 750.305 181.203L749.104 173.726L745.246 174.708L746.328 181.444C746.04 181.454 745.793 181.494 745.511 181.539C739.939 182.435 735.984 186.869 737.027 193.358C737.865 198.578 741.074 201.21 744.777 200.615C746.787 200.292 748.257 199.079 749.269 197.723L749.764 199.452ZM772.38 196.144L772.241 192.802C764.453 193.872 761.621 193.133 760.631 189.674L771.902 187.538C771.556 181.334 768.57 177.834 763.632 178.628C759.012 179.37 755.731 184.166 756.598 189.563C757.516 195.276 761.04 198.074 772.38 196.144ZM763.443 181.951C765.876 181.56 767.247 183.112 767.801 185.881C765.625 186.303 762.08 186.981 760.222 187.352C759.872 184.044 761.044 182.336 763.443 181.951ZM790.821 192.747L790.662 189.733L785.337 190.589C784.666 186.862 784.155 183.905 783.659 181.271C785.481 180.002 787.813 178.976 790.817 178.312L789.972 174.179C786.725 175.135 784.453 176.983 783.161 179.072C782.949 178.202 782.42 176.261 782.356 176.09L775.091 177.257L775.221 180.094L779.428 179.708C779.997 182.8 780.622 186.462 781.457 191.212L777.19 191.898L777.666 194.861L790.821 192.747Z" fill="black"/>
<path d="M561.116 93.8637L849.116 47.6279V436.741L561.116 482.977V93.8637Z" fill="#DDD2E6" fill-opacity="0.97"/>
<path d="M597.753 258.126L597.407 254.325L595.028 254.702L595.458 258.489L597.753 258.126ZM605.277 273.065L605.171 271.325L600.083 272.13L598.21 260.293L591.074 261.422L591.158 263.025L596.254 262.445L597.843 272.484L592.754 273.29L593.025 275.004L605.277 273.065ZM616.191 257.334C609.193 257.903 607.22 260.483 607.562 262.64C608.1 266.042 615.739 265.23 616.12 267.636C616.313 268.853 614.783 270.115 608.79 270.582L609.023 272.586C616.694 271.797 618.763 269.287 618.412 267.075C617.865 263.618 610.136 264.217 609.781 261.977C609.606 260.871 610.951 259.694 616.589 259.312L616.191 257.334ZM626.478 269.71L625.603 264.179C630.851 262.951 634.094 260.511 633.446 256.418C632.781 252.214 628.71 250.675 621.473 252.955L624.183 270.073L626.478 269.71ZM631.248 257.219C631.738 260.316 629.558 261.767 625.279 262.132L624.053 254.389C628.414 253.103 630.784 254.287 631.248 257.219ZM649.731 266.03L649.653 264.285L645.229 264.985L642.445 247.396L636.195 248.385L636.255 250.02L640.462 249.553L642.961 265.344L638.563 266.04L638.835 267.755L649.731 266.03ZM658.514 263.166C656.827 263.433 655.589 262.778 655.362 261.34C655.069 259.487 656.53 258.151 661.563 257.893C661.773 259.22 661.958 260.211 662.126 261.092C661.207 262.088 659.869 262.952 658.514 263.166ZM662.903 264.031L664.928 263.568C664.511 261.65 664.098 259.759 663.652 256.938C662.824 251.711 660.464 250.412 652.603 251.43L652.66 253.405C658.752 252.668 660.593 253.198 661.282 256.293C655.223 256.883 652.791 259.423 653.233 262.216C653.578 264.401 655.475 265.461 657.937 265.072C660.066 264.735 661.489 263.517 662.434 262.319C662.585 262.919 662.832 263.758 662.903 264.031ZM669.803 267.9C674.307 266.62 675.405 265.142 676.473 260.069C677.534 255.308 678.333 251.043 678.937 247.517L676.78 247.859C676.363 249.881 675.395 256.299 674.809 259.226L674.532 259.27C672.464 256.054 670.294 252.372 668.392 249.129L666.118 249.631C667.999 252.735 671.592 258.602 673.715 261.809L673.973 261.825C673.383 264.186 672.655 264.783 669.281 265.856L669.803 267.9ZM688.985 243.688L688.639 239.887L686.26 240.263L686.689 244.051L688.985 243.688ZM696.509 258.627L696.403 256.886L691.315 257.692L689.441 245.855L682.306 246.984L682.39 248.587L687.486 248.007L689.074 258.046L683.986 258.851L684.257 260.566L696.509 258.627ZM703.656 245.249C705.371 244.978 706.538 245.729 706.95 248.328L708.285 256.763L710.525 256.409L709.072 247.227C708.546 243.909 706.728 242.807 704.294 243.192C702.358 243.499 701.028 244.588 700.043 245.708L699.66 244.181L697.607 244.648C698.24 247.751 698.996 252.167 699.933 258.085L702.173 257.731C701.424 253.002 700.804 249.443 700.359 246.99C701.297 246.105 702.356 245.455 703.656 245.249ZM716.946 260.297C724.352 258.728 725.749 255.559 725.01 250.885C724.76 249.308 723.587 241.897 723.389 240.822C721.968 240.622 720.661 240.602 719.334 240.812C715.462 241.425 712.544 244.665 713.236 249.035C713.8 252.602 716.327 254.414 719.258 253.95C720.862 253.696 722.07 252.909 722.92 252.009C723.473 255.862 722.738 256.772 716.401 258.286L716.946 260.297ZM719.803 252.021C717.674 252.358 715.838 251.146 715.365 248.159C714.888 245.144 716.455 243.224 718.834 242.847C719.691 242.712 720.547 242.746 721.471 242.855C721.776 244.961 722.403 248.746 722.697 250.599C721.899 251.292 720.882 251.85 719.803 252.021ZM735.817 243.08L735.36 239.835L732.069 240.356L732.554 243.596L735.817 243.08ZM737.036 252.213L736.639 248.988L733.348 249.509L733.745 252.734L737.036 252.213ZM771.077 247.053L771.028 245.133C766.479 245.768 765.083 245.365 764.711 243.014L763.586 235.907L769.117 235.031L768.842 233.289L763.311 234.164L762.685 230.21L760.475 230.758L761.07 234.519L758.498 234.926L758.553 236.703L761.346 236.261L762.528 243.728C763.058 247.075 765.227 248.064 771.077 247.053ZM785.556 244.535L785.478 242.789L780.887 243.516C780.36 240.367 779.885 237.721 779.485 235.375C780.825 234.171 782.693 233.251 785.423 232.592L784.936 230.232C782.195 231.006 780.296 232.44 779.188 234.033C779.059 233.401 778.726 232.008 778.654 231.736L773.4 232.568L773.487 234.198L776.947 233.849C777.459 236.546 777.99 239.722 778.702 243.862L775.107 244.431L775.378 246.145L785.556 244.535ZM799.636 242.363L801.688 241.896C801.055 238.793 800.3 234.377 799.363 228.459L797.123 228.813C797.876 233.57 798.491 237.101 798.932 239.526C798.027 240.435 796.971 241.112 795.672 241.318C793.985 241.585 792.849 240.857 792.429 238.202L791.081 229.684L788.867 230.205L790.307 239.304C790.836 242.65 792.627 243.756 795.033 243.375C796.969 243.068 798.267 241.956 799.252 240.836L799.636 242.363ZM816.595 239.934L816.514 237.991C809.934 238.862 807.722 237.965 806.993 234.792L816.223 233.104C816.012 228.545 813.658 225.856 809.952 226.443C806.44 226.998 804.067 230.634 804.719 234.755C805.415 239.152 808.1 241.25 816.595 239.934ZM809.859 228.357C812.126 227.998 813.463 229.459 813.902 232.054C812.003 232.411 808.314 233.109 806.774 233.409C806.481 230.479 807.618 228.711 809.859 228.357Z" fill="black"/>
<path d="M634.581 218.175L638.834 216.949L632.167 208.324C633.974 206.514 635.185 204.366 634.743 201.615C634.012 197.065 630.161 194.717 619.56 197.868L623.068 219.699L627.053 219.059L625.841 211.511L629.286 210.885L634.581 218.175ZM624.039 200.296C628.216 199.046 630.434 200.245 630.899 203.137C631.205 205.042 630.502 206.746 629.215 207.966L625.387 208.69L624.039 200.296ZM656.035 214.837L655.896 211.494C648.108 212.565 645.276 211.826 644.286 208.367L655.557 206.23C655.211 200.027 652.225 196.527 647.287 197.32C642.667 198.063 639.386 202.859 640.252 208.255C641.17 213.969 644.695 216.767 656.035 214.837ZM647.097 200.643C649.531 200.252 650.902 201.805 651.455 204.574C649.28 204.996 645.735 205.674 643.877 206.045C643.526 202.736 644.699 201.028 647.097 200.643ZM672.486 199.278L661.2 201.091L661.738 204.441L672.742 202.673L672.486 199.278ZM692.754 208.829L697.007 207.603L690.339 198.978C692.147 197.168 693.357 195.02 692.915 192.269C692.184 187.719 688.334 185.371 677.733 188.521L681.241 210.353L685.226 209.712L684.013 202.165L687.458 201.539L692.754 208.829ZM682.211 190.949C686.388 189.7 688.607 190.899 689.072 193.791C689.378 195.695 688.675 197.4 687.387 198.62L683.56 199.343L682.211 190.949ZM714.207 205.49L714.068 202.148C706.281 203.218 703.449 202.479 702.459 199.02L713.729 196.884C713.384 190.681 710.397 187.181 705.46 187.974C700.84 188.716 697.558 193.513 698.425 198.909C699.343 204.622 702.868 207.421 714.207 205.49ZM705.27 191.297C707.704 190.906 709.075 192.458 709.628 195.228C707.453 195.649 703.908 196.328 702.05 196.698C701.699 193.39 702.872 191.682 705.27 191.297ZM724.895 188.288C726.694 188 728.016 188.8 728.515 191.904L730.215 202.484L734.13 201.855L732.209 189.899C731.523 185.632 729.259 184.15 726.191 184.643C723.757 185.034 722.14 186.452 720.933 187.948L720.399 185.972L716.8 186.767C717.652 190.719 718.612 196.244 719.881 204.145L723.831 203.51C722.925 197.867 722.118 193.293 721.52 190.025C722.5 189.144 723.555 188.504 724.895 188.288ZM745.884 197.145C743.45 197.536 741.416 195.909 740.748 191.747C740.124 187.868 741.676 185.592 744.357 185.162C745.132 185.037 746.007 185.077 746.934 185.218C747.614 189.45 748.199 192.866 748.706 195.57C747.967 196.376 747.048 196.958 745.884 197.145ZM749.764 199.452L753.363 198.657C752.563 194.806 751.625 189.421 750.305 181.203L749.104 173.726L745.246 174.708L746.328 181.444C746.04 181.454 745.793 181.494 745.511 181.539C739.939 182.435 735.984 186.869 737.027 193.358C737.865 198.578 741.074 201.21 744.777 200.615C746.787 200.292 748.257 199.079 749.269 197.723L749.764 199.452ZM772.38 196.144L772.241 192.802C764.453 193.872 761.621 193.133 760.631 189.674L771.902 187.538C771.556 181.334 768.57 177.834 763.632 178.628C759.012 179.37 755.731 184.166 756.598 189.563C757.516 195.276 761.04 198.074 772.38 196.144ZM763.443 181.951C765.876 181.56 767.247 183.112 767.801 185.881C765.625 186.303 762.08 186.981 760.222 187.352C759.872 184.044 761.044 182.336 763.443 181.951ZM790.821 192.747L790.662 189.733L785.337 190.589C784.666 186.862 784.155 183.905 783.659 181.271C785.481 180.002 787.813 178.976 790.817 178.312L789.972 174.179C786.725 175.135 784.453 176.983 783.161 179.072C782.949 178.202 782.42 176.261 782.356 176.09L775.091 177.257L775.221 180.094L779.428 179.708C779.997 182.8 780.622 186.462 781.457 191.212L777.19 191.898L777.666 194.861L790.821 192.747Z" fill="black"/>
<path d="M1000.19 93.8637L1288.19 47.6279V436.741L1000.19 482.977V93.8637Z" fill="#DDD2E6" fill-opacity="0.97"/>
<path d="M1036.83 258.126L1036.48 254.325L1034.1 254.702L1034.53 258.489L1036.83 258.126ZM1044.35 273.065L1044.24 271.325L1039.16 272.13L1037.28 260.293L1030.15 261.422L1030.23 263.025L1035.33 262.445L1036.91 272.484L1031.83 273.29L1032.1 275.004L1044.35 273.065ZM1055.26 257.334C1048.27 257.903 1046.29 260.483 1046.63 262.64C1047.17 266.042 1054.81 265.23 1055.19 267.636C1055.38 268.853 1053.86 270.115 1047.86 270.582L1048.09 272.586C1055.77 271.797 1057.83 269.287 1057.48 267.075C1056.94 263.618 1049.21 264.217 1048.85 261.977C1048.68 260.871 1050.02 259.694 1055.66 259.312L1055.26 257.334ZM1065.55 269.71L1064.67 264.179C1069.92 262.951 1073.17 260.511 1072.52 256.418C1071.85 252.214 1067.78 250.675 1060.55 252.955L1063.25 270.073L1065.55 269.71ZM1070.32 257.219C1070.81 260.316 1068.63 261.767 1064.35 262.132L1063.13 254.389C1067.49 253.103 1069.86 254.287 1070.32 257.219ZM1088.8 266.03L1088.73 264.285L1084.3 264.985L1081.52 247.396L1075.27 248.385L1075.33 250.02L1079.53 249.553L1082.03 265.344L1077.64 266.04L1077.91 267.755L1088.8 266.03ZM1097.59 263.166C1095.9 263.433 1094.66 262.778 1094.43 261.34C1094.14 259.487 1095.6 258.151 1100.64 257.893C1100.85 259.22 1101.03 260.211 1101.2 261.092C1100.28 262.088 1098.94 262.952 1097.59 263.166ZM1101.98 264.031L1104 263.568C1103.58 261.65 1103.17 259.759 1102.72 256.938C1101.9 251.711 1099.54 250.412 1091.68 251.43L1091.73 253.405C1097.82 252.668 1099.67 253.198 1100.35 256.293C1094.3 256.883 1091.86 259.423 1092.3 262.216C1092.65 264.401 1094.55 265.461 1097.01 265.072C1099.14 264.735 1100.56 263.517 1101.51 262.319C1101.66 262.919 1101.9 263.758 1101.98 264.031ZM1108.88 267.9C1113.38 266.62 1114.48 265.142 1115.55 260.069C1116.61 255.308 1117.41 251.043 1118.01 247.517L1115.85 247.859C1115.44 249.881 1114.47 256.299 1113.88 259.226L1113.6 259.27C1111.54 256.054 1109.37 252.372 1107.46 249.129L1105.19 249.631C1107.07 252.735 1110.66 258.602 1112.79 261.809L1113.05 261.825C1112.46 264.186 1111.73 264.783 1108.35 265.856L1108.88 267.9ZM1128.06 243.688L1127.71 239.887L1125.33 240.263L1125.76 244.051L1128.06 243.688ZM1135.58 258.627L1135.48 256.886L1130.39 257.692L1128.51 245.855L1121.38 246.984L1121.46 248.587L1126.56 248.007L1128.15 258.046L1123.06 258.851L1123.33 260.566L1135.58 258.627ZM1142.73 245.249C1144.44 244.978 1145.61 245.729 1146.02 248.328L1147.36 256.763L1149.6 256.409L1148.14 247.227C1147.62 243.909 1145.8 242.807 1143.37 243.192C1141.43 243.499 1140.1 244.588 1139.12 245.708L1138.73 244.181L1136.68 244.648C1137.31 247.751 1138.07 252.167 1139 258.085L1141.24 257.731C1140.5 253.002 1139.88 249.443 1139.43 246.99C1140.37 246.105 1141.43 245.455 1142.73 245.249ZM1156.02 260.297C1163.42 258.728 1164.82 255.559 1164.08 250.885C1163.83 249.308 1162.66 241.897 1162.46 240.822C1161.04 240.622 1159.73 240.602 1158.41 240.812C1154.53 241.425 1151.62 244.665 1152.31 249.035C1152.87 252.602 1155.4 254.414 1158.33 253.95C1159.93 253.696 1161.14 252.909 1161.99 252.009C1162.55 255.862 1161.81 256.772 1155.47 258.286L1156.02 260.297ZM1158.88 252.021C1156.75 252.358 1154.91 251.146 1154.44 248.159C1153.96 245.144 1155.53 243.224 1157.91 242.847C1158.76 242.712 1159.62 242.746 1160.54 242.855C1160.85 244.961 1161.48 248.746 1161.77 250.599C1160.97 251.292 1159.95 251.85 1158.88 252.021ZM1174.89 243.08L1174.43 239.835L1171.14 240.356L1171.63 243.596L1174.89 243.08ZM1176.11 252.213L1175.71 248.988L1172.42 249.509L1172.82 252.734L1176.11 252.213ZM1210.15 247.053L1210.1 245.133C1205.55 245.768 1204.16 245.365 1203.78 243.014L1202.66 235.907L1208.19 235.031L1207.91 233.289L1202.38 234.164L1201.76 230.21L1199.55 230.758L1200.14 234.519L1197.57 234.926L1197.63 236.703L1200.42 236.261L1201.6 243.728C1202.13 247.075 1204.3 248.064 1210.15 247.053ZM1224.63 244.535L1224.55 242.789L1219.96 243.516C1219.43 240.367 1218.96 237.721 1218.56 235.375C1219.9 234.171 1221.76 233.251 1224.5 232.592L1224.01 230.232C1221.27 231.006 1219.37 232.44 1218.26 234.033C1218.13 233.401 1217.8 232.008 1217.73 231.736L1212.47 232.568L1212.56 234.198L1216.02 233.849C1216.53 236.546 1217.06 239.722 1217.77 243.862L1214.18 244.431L1214.45 246.145L1224.63 244.535ZM1238.71 242.363L1240.76 241.896C1240.13 238.793 1239.37 234.377 1238.44 228.459L1236.2 228.813C1236.95 233.57 1237.56 237.101 1238 239.526C1237.1 240.435 1236.04 241.112 1234.74 241.318C1233.06 241.585 1231.92 240.857 1231.5 238.202L1230.15 229.684L1227.94 230.205L1229.38 239.304C1229.91 242.65 1231.7 243.756 1234.11 243.375C1236.04 243.068 1237.34 241.956 1238.32 240.836L1238.71 242.363ZM1255.67 239.934L1255.59 237.991C1249.01 238.862 1246.79 237.965 1246.07 234.792L1255.3 233.104C1255.08 228.545 1252.73 225.856 1249.02 226.443C1245.51 226.998 1243.14 230.634 1243.79 234.755C1244.49 239.152 1247.17 241.25 1255.67 239.934ZM1248.93 228.357C1251.2 227.998 1252.54 229.459 1252.97 232.054C1251.07 232.411 1247.39 233.109 1245.85 233.409C1245.55 230.479 1246.69 228.711 1248.93 228.357Z" fill="black"/>
<path d="M1073.65 218.175L1077.9 216.949L1071.24 208.324C1073.04 206.514 1074.26 204.366 1073.81 201.615C1073.08 197.065 1069.23 194.717 1058.63 197.868L1062.14 219.699L1066.12 219.059L1064.91 211.511L1068.36 210.885L1073.65 218.175ZM1063.11 200.296C1067.29 199.046 1069.5 200.245 1069.97 203.137C1070.28 205.042 1069.57 206.746 1068.29 207.966L1064.46 208.69L1063.11 200.296ZM1095.11 214.837L1094.97 211.494C1087.18 212.565 1084.35 211.826 1083.36 208.367L1094.63 206.23C1094.28 200.027 1091.3 196.527 1086.36 197.32C1081.74 198.063 1078.46 202.859 1079.32 208.255C1080.24 213.969 1083.77 216.767 1095.11 214.837ZM1086.17 200.643C1088.6 200.252 1089.97 201.805 1090.53 204.574C1088.35 204.996 1084.81 205.674 1082.95 206.045C1082.6 202.736 1083.77 201.028 1086.17 200.643ZM1111.56 199.278L1100.27 201.091L1100.81 204.441L1111.81 202.673L1111.56 199.278ZM1131.82 208.829L1136.08 207.603L1129.41 198.978C1131.22 197.168 1132.43 195.02 1131.99 192.269C1131.25 187.719 1127.4 185.371 1116.8 188.521L1120.31 210.353L1124.3 209.712L1123.08 202.165L1126.53 201.539L1131.82 208.829ZM1121.28 190.949C1125.46 189.7 1127.68 190.899 1128.14 193.791C1128.45 195.695 1127.74 197.4 1126.46 198.62L1122.63 199.343L1121.28 190.949ZM1153.28 205.49L1153.14 202.148C1145.35 203.218 1142.52 202.479 1141.53 199.02L1152.8 196.884C1152.45 190.681 1149.47 187.181 1144.53 187.974C1139.91 188.716 1136.63 193.513 1137.5 198.909C1138.41 204.622 1141.94 207.421 1153.28 205.49ZM1144.34 191.297C1146.77 190.906 1148.14 192.458 1148.7 195.228C1146.52 195.649 1142.98 196.328 1141.12 196.698C1140.77 193.39 1141.94 191.682 1144.34 191.297ZM1163.97 188.288C1165.76 188 1167.09 188.8 1167.59 191.904L1169.29 202.484L1173.2 201.855L1171.28 189.899C1170.59 185.632 1168.33 184.15 1165.26 184.643C1162.83 185.034 1161.21 186.452 1160 187.948L1159.47 185.972L1155.87 186.767C1156.72 190.719 1157.68 196.244 1158.95 204.145L1162.9 203.51C1162 197.867 1161.19 193.293 1160.59 190.025C1161.57 189.144 1162.63 188.504 1163.97 188.288ZM1184.95 197.145C1182.52 197.536 1180.49 195.909 1179.82 191.747C1179.19 187.868 1180.75 185.592 1183.43 185.162C1184.2 185.037 1185.08 185.077 1186 185.218C1186.68 189.45 1187.27 192.866 1187.78 195.57C1187.04 196.376 1186.12 196.958 1184.95 197.145ZM1188.83 199.452L1192.43 198.657C1191.63 194.806 1190.7 189.421 1189.38 181.203L1188.17 173.726L1184.32 174.708L1185.4 181.444C1185.11 181.454 1184.86 181.494 1184.58 181.539C1179.01 182.435 1175.05 186.869 1176.1 193.358C1176.94 198.578 1180.14 201.21 1183.85 200.615C1185.86 200.292 1187.33 199.079 1188.34 197.723L1188.83 199.452ZM1211.45 196.144L1211.31 192.802C1203.52 193.872 1200.69 193.133 1199.7 189.674L1210.97 187.538C1210.63 181.334 1207.64 177.834 1202.7 178.628C1198.08 179.37 1194.8 184.166 1195.67 189.563C1196.59 195.276 1200.11 198.074 1211.45 196.144ZM1202.51 181.951C1204.95 181.56 1206.32 183.112 1206.87 185.881C1204.7 186.303 1201.15 186.981 1199.29 187.352C1198.94 184.044 1200.11 182.336 1202.51 181.951ZM1229.89 192.747L1229.73 189.733L1224.41 190.589C1223.74 186.862 1223.22 183.905 1222.73 181.271C1224.55 180.002 1226.88 178.976 1229.89 178.312L1229.04 174.179C1225.8 175.135 1223.52 176.983 1222.23 179.072C1222.02 178.202 1221.49 176.261 1221.43 176.09L1214.16 177.257L1214.29 180.094L1218.5 179.708C1219.07 182.8 1219.69 186.462 1220.53 191.212L1216.26 191.898L1216.74 194.861L1229.89 192.747Z" fill="black"/>
<path d="M1439 232.236L1727 186V332.508L1439 378.744V232.236Z" fill="#A8F4C6" fill-opacity="0.97"/>
<path d="M1515.05 303.57C1506.76 305.336 1504 303.212 1503.07 297.463C1502.31 292.702 1503.41 289.883 1512.43 288.615L1511.6 284.769C1500.77 286.726 1497.98 292.565 1498.96 298.666C1500.03 305.297 1504.12 309.813 1515.25 307.083L1515.05 303.57ZM1534.83 303.792L1534.68 300.779L1529.24 301.651L1525.76 279.961L1516.91 281.384L1517 284.226L1522.3 283.664L1525.29 302.286L1519.86 303.159L1520.34 306.121L1534.83 303.792ZM1553.73 301.191L1553.59 297.849C1545.8 298.919 1542.97 298.18 1541.98 294.721L1553.25 292.585C1552.9 286.381 1549.92 282.881 1544.98 283.675C1540.36 284.417 1537.08 289.213 1537.95 294.609C1538.86 300.323 1542.39 303.121 1553.73 301.191ZM1544.79 286.997C1547.22 286.606 1548.6 288.159 1549.15 290.928C1546.97 291.35 1543.43 292.028 1541.57 292.399C1541.22 289.091 1542.39 287.383 1544.79 286.997ZM1565.2 296.273C1563.4 296.562 1562.09 295.832 1561.84 294.28C1561.53 292.341 1562.78 290.944 1568.31 290.636C1568.57 292.076 1568.76 293.24 1569 294.252C1567.9 295.297 1566.54 296.058 1565.2 296.273ZM1570.14 298.228L1573.71 297.474C1573.14 295.069 1572.55 292.305 1572 288.884C1570.91 282.042 1567.91 280.28 1557.3 281.804L1557.44 285.182C1565.03 284.216 1567.1 284.715 1567.86 288.067C1560.4 288.94 1557.54 292.294 1558.1 295.821C1558.56 298.677 1560.99 300.06 1564.13 299.556C1566.67 299.148 1568.35 297.683 1569.48 296.163C1569.73 296.993 1570.08 298.093 1570.14 298.228ZM1583.81 280.874C1585.61 280.585 1586.93 281.385 1587.43 284.489L1589.13 295.069L1593.04 294.44L1591.12 282.484C1590.44 278.217 1588.17 276.735 1585.1 277.228C1582.67 277.619 1581.05 279.037 1579.85 280.533L1579.31 278.557L1575.71 279.352C1576.56 283.304 1577.52 288.83 1578.79 296.73L1582.74 296.095C1581.84 290.452 1581.03 285.878 1580.43 282.61C1581.41 281.729 1582.47 281.089 1583.81 280.874ZM1608.81 291.979L1612.42 291.219C1611.56 287.233 1610.6 281.707 1609.33 273.807L1605.41 274.436C1606.33 280.114 1607.09 284.658 1607.68 287.891C1606.74 288.802 1605.65 289.447 1604.35 289.657C1602.55 289.946 1601.26 289.14 1600.77 286.036L1599.05 275.35L1595.17 276.226L1597.07 288.041C1597.76 292.343 1599.99 293.795 1603.05 293.302C1605.49 292.911 1607.07 291.499 1608.28 290.038L1608.81 291.979ZM1623.42 286.557C1622.57 286.693 1621.88 286.66 1621.06 286.502C1620.29 281.923 1619.69 278.69 1619.26 276.191C1620.09 275.333 1621.12 274.734 1622.18 274.564C1624.54 274.184 1626.6 275.952 1627.25 280.008C1627.87 283.888 1626.1 286.127 1623.42 286.557ZM1622.52 295.637L1621.66 290.276C1621.99 290.26 1622.27 290.215 1622.59 290.164C1628.09 289.28 1632.01 284.852 1630.98 278.433C1630.15 273.319 1626.92 270.51 1623.25 271.1C1621.2 271.428 1619.74 272.676 1618.7 274.074L1618.23 272.304L1614.67 273.093C1615.41 276.556 1616.24 281.524 1617.7 290.588L1618.67 296.619L1622.52 295.637ZM1671.13 281.894L1670.92 278.563L1665.63 279.413L1662.53 260.121L1658.81 261.044L1659.23 263.619L1653.88 265.056L1654.41 267.901L1659.75 266.899L1661.86 280.019L1655.94 280.971L1656.46 284.251L1671.13 281.894Z" fill="black"/>
</svg>
