<svg width="1920" height="633" viewBox="0 0 1920 633" fill="none" xmlns="http://www.w3.org/2000/svg">
<rect width="1920" height="632.713" fill="#F2F2F2"/>
<rect x="667.436" y="41.152" width="257.2" height="128.6" rx="20.576" fill="#DDD2E6"/>
<path d="M743.709 115.887L748.771 115.27L742.762 104.241C745.149 102.513 746.919 100.291 746.919 97.081C746.919 91.7724 742.968 88.3979 730.334 90.044V115.517H734.985V106.711L739.018 106.628L743.709 115.887ZM734.985 93.6242C739.964 92.9658 742.269 94.7353 742.269 98.1098C742.269 100.332 741.157 102.143 739.47 103.295L734.985 103.418V93.6242ZM768.721 116.011L769.174 112.184C760.121 111.978 757.034 110.62 756.54 106.505L769.75 106.134C770.491 99.0151 767.734 94.4884 761.972 94.4884C756.581 94.4884 751.972 99.3443 751.972 105.641C751.972 112.307 755.47 116.134 768.721 116.011ZM761.149 98.2332C763.989 98.2332 765.265 100.25 765.388 103.501C762.837 103.583 758.68 103.706 756.499 103.789C756.705 99.9616 758.351 98.2332 761.149 98.2332ZM784.022 98.3978C786.121 98.3978 787.479 99.5501 787.479 103.171V115.517H792.046V101.567C792.046 96.5871 789.742 94.4884 786.162 94.4884C783.322 94.4884 781.223 95.8053 779.577 97.2867L779.33 94.9411L775.092 95.188C775.339 99.8382 775.421 106.299 775.421 115.517H780.03C780.03 108.933 779.948 103.583 779.865 99.7559C781.141 98.9328 782.458 98.3978 784.022 98.3978ZM806.277 112.307C803.438 112.307 801.421 110.085 801.421 105.229C801.421 100.702 803.602 98.3978 806.73 98.3978C807.635 98.3978 808.623 98.6036 809.652 98.9328C809.652 103.871 809.693 107.863 809.775 111.032C808.787 111.813 807.635 112.307 806.277 112.307ZM810.269 115.641L814.507 115.394C814.302 110.867 814.219 104.571 814.219 94.9822V86.258L809.652 86.6695V94.5295C809.322 94.4884 809.034 94.4884 808.705 94.4884C802.203 94.4884 796.894 98.8094 796.894 106.381C796.894 112.472 800.063 116.052 804.384 116.052C806.73 116.052 808.623 114.941 810.022 113.583L810.269 115.641ZM836.598 116.011L837.051 112.184C827.997 111.978 824.911 110.62 824.417 106.505L837.627 106.134C838.368 99.0151 835.61 94.4884 829.849 94.4884C824.458 94.4884 819.849 99.3443 819.849 105.641C819.849 112.307 823.347 116.134 836.598 116.011ZM829.026 98.2332C831.866 98.2332 833.141 100.25 833.265 103.501C830.713 103.583 826.557 103.706 824.376 103.789C824.582 99.9616 826.228 98.2332 829.026 98.2332ZM858.195 115.517L858.565 112.06H852.351C852.269 107.698 852.228 104.241 852.146 101.155C854.45 100.044 857.29 99.3032 860.829 99.0974L860.623 94.2415C856.755 94.7353 853.833 96.4225 851.981 98.5624C851.899 97.5336 851.652 95.2291 851.611 95.0234H843.133L842.763 98.2744L847.619 98.6036C847.701 102.225 847.742 106.505 847.825 112.06H842.845V115.517H858.195Z" fill="black"/>
<rect x="1103.39" y="41.152" width="257.2" height="128.6" rx="20.576" fill="#FEE198"/>
<path d="M1183.08 111.566H1171.64V104.406H1181.23V100.949H1171.64V93.9534H1182.83V90.0028H1166.91V115.517H1182.71L1183.08 111.566ZM1204.96 112.101H1198.46V99.3855H1205.37V95.8876H1198.46V95.1468C1198.46 91.4843 1199.24 90.8259 1206.73 90.5789L1206.44 86.1345C1196.86 86.6284 1193.89 90.5789 1193.89 95.8464V95.8876H1188.87L1188.46 99.3855H1193.89V112.101H1188.71V115.517H1204.55L1204.96 112.101ZM1227.59 112.101H1221.09V99.3855H1228V95.8876H1221.09V95.1468C1221.09 91.4843 1221.87 90.8259 1229.36 90.5789L1229.07 86.1345C1219.48 86.6284 1216.52 90.5789 1216.52 95.8464V95.8876H1211.5L1211.09 99.3855H1216.52V112.101H1211.33V115.517H1227.18L1227.59 112.101ZM1249.93 116.011L1250.38 112.184C1241.33 111.978 1238.24 110.62 1237.75 106.505L1250.96 106.134C1251.7 99.0151 1248.94 94.4884 1243.18 94.4884C1237.79 94.4884 1233.18 99.3443 1233.18 105.641C1233.18 112.307 1236.68 116.134 1249.93 116.011ZM1242.35 98.2332C1245.19 98.2332 1246.47 100.25 1246.59 103.501C1244.04 103.583 1239.89 103.706 1237.7 103.789C1237.91 99.9616 1239.56 98.2332 1242.35 98.2332ZM1256.42 105.599C1256.42 111.937 1259.8 116.752 1272.59 115.682L1273.05 111.896C1263.83 112.431 1260.95 110.291 1260.95 105.023C1260.95 101.073 1262.51 98.7271 1272.76 99.0563L1272.47 94.7353C1260.21 94.7765 1256.42 99.8793 1256.42 105.599ZM1295.14 115.846L1295.63 112.06C1289.38 111.937 1287.44 111.196 1287.44 107.986V98.5213H1295.18V95.0234H1287.44V89.0975L1282.91 89.509V95.0234H1279.13L1278.72 98.5213H1282.91V108.686C1282.91 113.953 1285.92 116.011 1295.14 115.846Z" fill="black"/>
<path d="M137.704 94.1483H143.588V90.4857H127.086V94.1483H132.971V112.337H127.086V116H143.465L143.794 112.337H137.704V94.1483ZM158.395 98.8807C160.494 98.8807 161.852 100.033 161.852 103.654V116H166.42V102.049C166.42 97.0701 164.115 94.9713 160.535 94.9713C157.695 94.9713 155.597 96.2882 153.951 97.7696L153.704 95.424L149.465 95.6709C149.712 100.321 149.794 106.782 149.794 116H154.403C154.403 109.416 154.321 104.066 154.239 100.239C155.514 99.4157 156.831 98.8807 158.395 98.8807ZM183.654 92.4199L184.025 86.6586H179.21L178.922 92.4199H183.654ZM190.527 116L190.897 112.543H183.778V95.5063H172.338L171.967 98.7573L179.169 99.0865V112.543H172.05V116H190.527ZM210.93 116.329L211.424 112.543C205.169 112.42 203.235 111.679 203.235 108.469V99.0042H210.971V95.5063H203.235V89.5804L198.708 89.9919V95.5063H194.922L194.51 99.0042H198.708V109.169C198.708 114.436 201.712 116.494 210.93 116.329ZM228.906 92.4199L229.276 86.6586H224.461L224.173 92.4199H228.906ZM235.778 116L236.148 112.543H229.029V95.5063H217.589L217.218 98.7573L224.42 99.0865V112.543H217.301V116H235.778ZM247.539 112.996C245.441 112.996 244.083 111.926 244.083 110.115C244.083 107.852 245.77 106.494 252.107 107.152C252.148 108.84 252.148 110.198 252.231 111.391C250.79 112.379 249.103 112.996 247.539 112.996ZM252.807 116.123L257.004 115.918C256.799 113.078 256.634 109.827 256.634 105.835C256.634 97.8519 253.548 95.3005 241.202 95.0948L240.749 98.9631C249.556 99.2511 251.819 100.198 252.066 104.148C243.424 103.778 239.556 107.07 239.556 111.185C239.556 114.519 242.066 116.535 245.729 116.535C248.692 116.535 250.873 115.177 252.436 113.654C252.56 114.642 252.766 115.959 252.807 116.123ZM279.507 116L279.877 112.543H273.539V87.2347H263.21L262.799 90.4857L268.93 90.8149V112.543H262.593V116H279.507ZM323.07 116L323.441 112.543H317.227C317.145 108.181 317.103 104.724 317.021 101.638C319.326 100.527 322.165 99.7861 325.704 99.5803L325.498 94.7244C321.63 95.2182 318.708 96.9054 316.856 99.0454C316.774 98.0166 316.527 95.712 316.486 95.5063H308.009L307.638 98.7573L312.494 99.0865C312.577 102.708 312.618 106.988 312.7 112.543H307.721V116H323.07ZM346.725 116.494L347.178 112.667C338.124 112.461 335.038 111.103 334.544 106.988L347.754 106.617C348.494 99.498 345.737 94.9713 339.976 94.9713C334.585 94.9713 329.976 99.8272 329.976 106.124C329.976 112.79 333.474 116.617 346.725 116.494ZM339.153 98.7161C341.992 98.7161 343.268 100.733 343.392 103.984C340.84 104.066 336.684 104.189 334.503 104.272C334.708 100.445 336.355 98.7161 339.153 98.7161ZM362.025 98.8807C364.124 98.8807 365.482 100.033 365.482 103.654V116H370.05V102.049C370.05 97.0701 367.745 94.9713 364.165 94.9713C361.326 94.9713 359.227 96.2882 357.581 97.7696L357.334 95.424L353.095 95.6709C353.342 100.321 353.425 106.782 353.425 116H358.034C358.034 109.416 357.951 104.066 357.869 100.239C359.145 99.4157 360.462 98.8807 362.025 98.8807ZM384.281 112.79C381.441 112.79 379.425 110.568 379.425 105.712C379.425 101.185 381.606 98.8807 384.733 98.8807C385.639 98.8807 386.626 99.0865 387.655 99.4157C387.655 104.354 387.696 108.346 387.779 111.514C386.791 112.296 385.639 112.79 384.281 112.79ZM388.272 116.123L392.511 115.877C392.305 111.35 392.223 105.054 392.223 95.4651V86.7409L387.655 87.1524V95.0125C387.326 94.9713 387.038 94.9713 386.709 94.9713C380.207 94.9713 374.898 99.2923 374.898 106.864C374.898 112.955 378.067 116.535 382.388 116.535C384.733 116.535 386.626 115.424 388.025 114.066L388.272 116.123ZM414.602 116.494L415.054 112.667C406.001 112.461 402.914 111.103 402.421 106.988L415.63 106.617C416.371 99.498 413.614 94.9713 407.853 94.9713C402.462 94.9713 397.853 99.8272 397.853 106.124C397.853 112.79 401.351 116.617 414.602 116.494ZM407.03 98.7161C409.869 98.7161 411.145 100.733 411.268 103.984C408.717 104.066 404.561 104.189 402.379 104.272C402.585 100.445 404.231 98.7161 407.03 98.7161ZM436.198 116L436.569 112.543H430.355C430.272 108.181 430.231 104.724 430.149 101.638C432.454 100.527 435.293 99.7861 438.832 99.5803L438.626 94.7244C434.758 95.2182 431.836 96.9054 429.984 99.0454C429.902 98.0166 429.655 95.712 429.614 95.5063H421.137L420.766 98.7573L425.622 99.0865C425.705 102.708 425.746 106.988 425.828 112.543H420.849V116H436.198Z" fill="black"/>
<path d="M965.787 95.8071C964.722 95.8071 963.858 96.6707 963.858 97.7361C963.858 98.8014 964.722 99.6651 965.787 99.6651V95.8071ZM1063.6 99.1001C1064.35 98.3468 1064.35 97.1254 1063.6 96.3721L1051.33 84.096C1050.57 83.3427 1049.35 83.3427 1048.6 84.096C1047.84 84.8493 1047.84 86.0707 1048.6 86.824L1059.51 97.7361L1048.6 108.648C1047.84 109.401 1047.84 110.623 1048.6 111.376C1049.35 112.13 1050.57 112.13 1051.33 111.376L1063.6 99.1001ZM965.787 99.6651H1062.24V95.8071H965.787V99.6651Z" fill="black"/>
<path d="M127.391 322.471V326.709C139.696 327.203 144.099 322.965 144.099 318.932C144.099 312.841 132.206 311.154 132.206 307.327C132.206 305.475 134.264 304.364 142.535 304.94L142.288 300.701C131.671 300.125 127.309 304.158 127.309 307.985C127.309 313.87 139.202 315.351 139.202 319.508C139.202 321.648 136.074 323.129 127.391 322.471ZM162.28 326.504L166.519 326.298C166.272 321.607 166.19 315.146 166.19 305.928H161.622C161.622 312.553 161.663 317.862 161.745 321.648C160.511 322.512 159.153 323.047 157.63 323.047C155.531 323.047 154.214 321.895 154.214 318.273V305.804L149.647 306.092V319.878C149.647 324.899 151.91 326.956 155.49 326.956C158.33 326.956 160.387 325.639 162.033 324.199L162.28 326.504ZM178.733 326.956C184.659 326.956 189.967 322.512 189.967 315.146C189.967 309.179 186.84 305.393 182.519 305.393C180.297 305.393 178.486 306.38 177.128 307.615V297.162L172.56 297.574V325.845C174.453 326.586 176.47 326.956 178.733 326.956ZM180.379 323.006C179.227 323.006 178.198 322.8 177.128 322.43V310.372C178.239 309.59 179.474 309.137 180.667 309.137C183.465 309.137 185.441 311.524 185.441 316.257C185.441 320.907 183.507 323.006 180.379 323.006ZM210.206 305.722C199.466 304.981 195.68 308.356 195.68 311.895C195.68 317.039 206.626 317.779 206.626 320.701C206.626 322.306 204.116 323.253 195.968 322.718L195.803 326.627C207.614 327.162 211.4 323.993 211.4 320.454C211.4 315.31 200.412 314.117 200.412 311.36C200.412 309.919 202.758 309.014 210.371 309.672L210.206 305.722ZM233.696 326.915L234.149 323.088C225.095 322.882 222.009 321.524 221.515 317.409L234.725 317.039C235.466 309.919 232.708 305.393 226.947 305.393C221.556 305.393 216.947 310.249 216.947 316.545C216.947 323.211 220.445 327.039 233.696 326.915ZM226.124 309.137C228.964 309.137 230.239 311.154 230.363 314.405C227.811 314.487 223.655 314.611 221.474 314.693C221.68 310.866 223.326 309.137 226.124 309.137ZM252.083 333.541L256.651 333.17V306.504C254.758 305.763 252.906 305.393 250.684 305.393C244.676 305.393 239.244 309.837 239.244 317.286C239.244 323.253 242.371 326.997 246.733 326.997C248.955 326.997 250.725 326.01 252.083 324.775V333.541ZM248.585 323.211C245.704 323.211 243.77 320.907 243.77 316.174C243.77 311.607 245.91 309.343 248.955 309.343C250.025 309.343 251.013 309.549 252.083 309.919V321.977C251.054 322.718 249.861 323.211 248.585 323.211ZM275.408 326.504L279.647 326.298C279.4 321.607 279.318 315.146 279.318 305.928H274.75C274.75 312.553 274.791 317.862 274.873 321.648C273.639 322.512 272.281 323.047 270.758 323.047C268.659 323.047 267.342 321.895 267.342 318.273V305.804L262.774 306.092V319.878C262.774 324.899 265.038 326.956 268.618 326.956C271.458 326.956 273.515 325.639 275.161 324.199L275.408 326.504ZM301.573 326.915L302.025 323.088C292.972 322.882 289.886 321.524 289.392 317.409L302.602 317.039C303.342 309.919 300.585 305.393 294.824 305.393C289.433 305.393 284.824 310.249 284.824 316.545C284.824 323.211 288.322 327.039 301.573 326.915ZM294.001 309.137C296.84 309.137 298.116 311.154 298.239 314.405C295.688 314.487 291.532 314.611 289.351 314.693C289.556 310.866 291.202 309.137 294.001 309.137ZM316.873 309.302C318.972 309.302 320.33 310.454 320.33 314.076V326.421H324.898V312.471C324.898 307.491 322.593 305.393 319.013 305.393C316.174 305.393 314.075 306.709 312.429 308.191L312.182 305.845L307.943 306.092C308.19 310.742 308.273 317.203 308.273 326.421H312.882C312.882 319.837 312.799 314.487 312.717 310.66C313.993 309.837 315.31 309.302 316.873 309.302ZM346.783 326.751L347.277 322.965C341.022 322.841 339.087 322.1 339.087 318.891V309.426H346.824V305.928H339.087V300.002L334.561 300.413V305.928H330.775L330.363 309.426H334.561V319.59C334.561 324.858 337.565 326.915 346.783 326.751ZM391.046 326.421L391.417 322.965H385.203C385.12 318.602 385.079 315.146 384.997 312.059C387.302 310.948 390.141 310.207 393.68 310.002L393.474 305.146C389.606 305.64 386.684 307.327 384.832 309.467C384.75 308.438 384.503 306.133 384.462 305.928H375.985L375.614 309.179L380.47 309.508C380.553 313.129 380.594 317.409 380.676 322.965H375.697V326.421H391.046ZM414.701 326.915L415.153 323.088C406.1 322.882 403.014 321.524 402.52 317.409L415.73 317.039C416.47 309.919 413.713 305.393 407.952 305.393C402.561 305.393 397.952 310.249 397.952 316.545C397.952 323.211 401.45 327.039 414.701 326.915ZM407.129 309.137C409.968 309.137 411.244 311.154 411.367 314.405C408.816 314.487 404.66 314.611 402.479 314.693C402.684 310.866 404.33 309.137 407.129 309.137ZM430.001 309.302C432.1 309.302 433.458 310.454 433.458 314.076V326.421H438.026V312.471C438.026 307.491 435.721 305.393 432.141 305.393C429.302 305.393 427.203 306.709 425.557 308.191L425.31 305.845L421.071 306.092C421.318 310.742 421.4 317.203 421.4 326.421H426.009C426.009 319.837 425.927 314.487 425.845 310.66C427.121 309.837 428.437 309.302 430.001 309.302ZM452.256 323.211C449.417 323.211 447.401 320.989 447.401 316.133C447.401 311.607 449.582 309.302 452.709 309.302C453.614 309.302 454.602 309.508 455.631 309.837C455.631 314.775 455.672 318.767 455.754 321.936C454.767 322.718 453.614 323.211 452.256 323.211ZM456.248 326.545L460.487 326.298C460.281 321.771 460.199 315.475 460.199 305.886V297.162L455.631 297.574V305.434C455.302 305.393 455.014 305.393 454.684 305.393C448.182 305.393 442.874 309.714 442.874 317.286C442.874 323.376 446.043 326.956 450.363 326.956C452.709 326.956 454.602 325.845 456.001 324.487L456.248 326.545ZM482.577 326.915L483.03 323.088C473.977 322.882 470.89 321.524 470.396 317.409L483.606 317.039C484.347 309.919 481.59 305.393 475.829 305.393C470.438 305.393 465.829 310.249 465.829 316.545C465.829 323.211 469.327 327.039 482.577 326.915ZM475.006 309.137C477.845 309.137 479.121 311.154 479.244 314.405C476.693 314.487 472.536 314.611 470.355 314.693C470.561 310.866 472.207 309.137 475.006 309.137ZM504.174 326.421L504.545 322.965H498.331C498.248 318.602 498.207 315.146 498.125 312.059C500.429 310.948 503.269 310.207 506.808 310.002L506.602 305.146C502.734 305.64 499.812 307.327 497.96 309.467C497.878 308.438 497.631 306.133 497.59 305.928H489.113L488.742 309.179L493.598 309.508C493.68 313.129 493.722 317.409 493.804 322.965H488.825V326.421H504.174ZM525.154 296.38C516.388 303.829 512.932 309.837 512.932 315.845C512.932 321.689 516.306 327.574 524.948 334.981L528.117 332.141C520.216 325.722 517.458 320.701 517.458 315.639C517.458 310.619 520.092 305.722 528.24 299.138L525.154 296.38ZM549.59 305.722C538.849 304.981 535.063 308.356 535.063 311.895C535.063 317.039 546.01 317.779 546.01 320.701C546.01 322.306 543.5 323.253 535.351 322.718L535.187 326.627C546.997 327.162 550.783 323.993 550.783 320.454C550.783 315.31 539.796 314.117 539.796 311.36C539.796 309.919 542.142 309.014 549.755 309.672L549.59 305.722ZM560.24 334.981C569.006 327.532 572.463 321.483 572.463 315.516C572.463 309.672 569.047 303.788 560.405 296.38L557.236 299.22C565.179 305.64 567.895 310.701 567.895 315.722C567.895 320.701 565.261 325.639 557.113 332.183L560.24 334.981Z" fill="black"/>
<rect x="667.436" y="252.056" width="257.2" height="128.6" rx="20.576" fill="#DDD2E6"/>
<path d="M743.709 326.792L748.771 326.174L742.762 315.146C745.149 313.417 746.919 311.195 746.919 307.985C746.919 302.677 742.968 299.302 730.334 300.948V326.421H734.985V317.615L739.018 317.532L743.709 326.792ZM734.985 304.528C739.964 303.87 742.269 305.64 742.269 309.014C742.269 311.236 741.157 313.047 739.47 314.199L734.985 314.323V304.528ZM768.721 326.915L769.174 323.088C760.121 322.882 757.034 321.524 756.54 317.409L769.75 317.039C770.491 309.919 767.734 305.393 761.972 305.393C756.581 305.393 751.972 310.249 751.972 316.545C751.972 323.211 755.47 327.039 768.721 326.915ZM761.149 309.137C763.989 309.137 765.265 311.154 765.388 314.405C762.837 314.487 758.68 314.611 756.499 314.693C756.705 310.866 758.351 309.137 761.149 309.137ZM784.022 309.302C786.121 309.302 787.479 310.454 787.479 314.076V326.421H792.046V312.471C792.046 307.491 789.742 305.393 786.162 305.393C783.322 305.393 781.223 306.709 779.577 308.191L779.33 305.845L775.092 306.092C775.339 310.742 775.421 317.203 775.421 326.421H780.03C780.03 319.837 779.948 314.487 779.865 310.66C781.141 309.837 782.458 309.302 784.022 309.302ZM806.277 323.211C803.438 323.211 801.421 320.989 801.421 316.133C801.421 311.607 803.602 309.302 806.73 309.302C807.635 309.302 808.623 309.508 809.652 309.837C809.652 314.775 809.693 318.767 809.775 321.936C808.787 322.718 807.635 323.211 806.277 323.211ZM810.269 326.545L814.507 326.298C814.302 321.771 814.219 315.475 814.219 305.886V297.162L809.652 297.574V305.434C809.322 305.393 809.034 305.393 808.705 305.393C802.203 305.393 796.894 309.714 796.894 317.286C796.894 323.376 800.063 326.956 804.384 326.956C806.73 326.956 808.623 325.845 810.022 324.487L810.269 326.545ZM836.598 326.915L837.051 323.088C827.997 322.882 824.911 321.524 824.417 317.409L837.627 317.039C838.368 309.919 835.61 305.393 829.849 305.393C824.458 305.393 819.849 310.249 819.849 316.545C819.849 323.211 823.347 327.039 836.598 326.915ZM829.026 309.137C831.866 309.137 833.141 311.154 833.265 314.405C830.713 314.487 826.557 314.611 824.376 314.693C824.582 310.866 826.228 309.137 829.026 309.137ZM858.195 326.421L858.565 322.965H852.351C852.269 318.602 852.228 315.146 852.146 312.059C854.45 310.948 857.29 310.207 860.829 310.002L860.623 305.146C856.755 305.64 853.833 307.327 851.981 309.467C851.899 308.438 851.652 306.133 851.611 305.928H843.133L842.763 309.179L847.619 309.508C847.701 313.129 847.742 317.409 847.825 322.965H842.845V326.421H858.195Z" fill="black"/>
<rect x="1103.39" y="252.056" width="257.2" height="128.6" rx="20.576" fill="#A8F4C6"/>
<path d="M1172.25 322.553C1162.49 323.047 1159.74 320.125 1159.74 313.417C1159.74 307.862 1161.5 304.858 1172 305.063L1171.75 300.537C1159.08 300.784 1154.84 306.915 1154.84 314.035C1154.84 321.771 1158.67 327.656 1171.83 326.586L1172.25 322.553ZM1194.71 326.421L1195.08 322.965H1188.74V297.656H1178.41L1178 300.907L1184.13 301.236V322.965H1177.79V326.421H1194.71ZM1216.67 326.915L1217.13 323.088C1208.07 322.882 1204.99 321.524 1204.49 317.409L1217.7 317.039C1218.44 309.919 1215.69 305.393 1209.92 305.393C1204.53 305.393 1199.92 310.249 1199.92 316.545C1199.92 323.211 1203.42 327.039 1216.67 326.915ZM1209.1 309.137C1211.94 309.137 1213.22 311.154 1213.34 314.405C1210.79 314.487 1206.63 314.611 1204.45 314.693C1204.66 310.866 1206.3 309.137 1209.1 309.137ZM1230.62 323.417C1228.52 323.417 1227.16 322.347 1227.16 320.537C1227.16 318.273 1228.85 316.915 1235.18 317.574C1235.23 319.261 1235.23 320.619 1235.31 321.812C1233.87 322.8 1232.18 323.417 1230.62 323.417ZM1235.88 326.545L1240.08 326.339C1239.88 323.5 1239.71 320.249 1239.71 316.257C1239.71 308.273 1236.62 305.722 1224.28 305.516L1223.83 309.384C1232.63 309.672 1234.9 310.619 1235.14 314.57C1226.5 314.199 1222.63 317.491 1222.63 321.607C1222.63 324.94 1225.14 326.956 1228.81 326.956C1231.77 326.956 1233.95 325.598 1235.51 324.076C1235.64 325.063 1235.84 326.38 1235.88 326.545ZM1254.6 309.302C1256.7 309.302 1258.06 310.454 1258.06 314.076V326.421H1262.62V312.471C1262.62 307.491 1260.32 305.393 1256.74 305.393C1253.9 305.393 1251.8 306.709 1250.16 308.191L1249.91 305.845L1245.67 306.092C1245.92 310.742 1246 317.203 1246 326.421H1250.61C1250.61 319.837 1250.53 314.487 1250.44 310.66C1251.72 309.837 1253.04 309.302 1254.6 309.302ZM1281.01 326.504L1285.25 326.298C1285 321.607 1284.92 315.146 1284.92 305.928H1280.35C1280.35 312.553 1280.39 317.862 1280.48 321.648C1279.24 322.512 1277.88 323.047 1276.36 323.047C1274.26 323.047 1272.95 321.895 1272.95 318.273V305.804L1268.38 306.092V319.878C1268.38 324.899 1270.64 326.956 1274.22 326.956C1277.06 326.956 1279.12 325.639 1280.76 324.199L1281.01 326.504ZM1298.62 323.006C1297.63 323.006 1296.85 322.841 1295.94 322.512C1295.9 317.162 1295.82 313.376 1295.78 310.454C1296.89 309.631 1298.16 309.137 1299.4 309.137C1302.16 309.137 1304.17 311.524 1304.17 316.257C1304.17 320.783 1301.74 323.006 1298.62 323.006ZM1295.94 333.17V326.915C1296.31 326.956 1296.64 326.956 1297.01 326.956C1303.43 326.956 1308.7 322.635 1308.7 315.146C1308.7 309.179 1305.53 305.393 1301.25 305.393C1298.86 305.393 1296.97 306.545 1295.53 307.944L1295.32 305.845L1291.13 306.092C1291.33 310.166 1291.37 315.969 1291.37 326.545V333.582L1295.94 333.17Z" fill="black"/>
<path d="M965.787 306.711C964.722 306.711 963.858 307.575 963.858 308.64C963.858 309.706 964.722 310.569 965.787 310.569V306.711ZM1063.6 310.004C1064.35 309.251 1064.35 308.03 1063.6 307.276L1051.33 295C1050.57 294.247 1049.35 294.247 1048.6 295C1047.84 295.754 1047.84 296.975 1048.6 297.728L1059.51 308.64L1048.6 319.552C1047.84 320.306 1047.84 321.527 1048.6 322.28C1049.35 323.034 1050.57 323.034 1051.33 322.28L1063.6 310.004ZM965.787 310.569H1062.24V306.711H965.787V310.569Z" fill="black"/>
<rect x="1539.34" y="252.056" width="257.2" height="128.6" rx="20.576" fill="#FEE198"/>
<path d="M1619.03 322.471H1607.59V315.31H1617.18V311.854H1607.59V304.858H1618.79V300.907H1602.86V326.421H1618.66L1619.03 322.471ZM1640.92 323.006H1634.42V310.29H1641.33V306.792H1634.42V306.051C1634.42 302.389 1635.2 301.73 1642.69 301.483L1642.4 297.039C1632.81 297.533 1629.85 301.483 1629.85 306.751V306.792H1624.83L1624.42 310.29H1629.85V323.006H1624.66V326.421H1640.51L1640.92 323.006ZM1663.54 323.006H1657.04V310.29H1663.95V306.792H1657.04V306.051C1657.04 302.389 1657.82 301.73 1665.31 301.483L1665.02 297.039C1655.44 297.533 1652.47 301.483 1652.47 306.751V306.792H1647.45L1647.04 310.29H1652.47V323.006H1647.29V326.421H1663.13L1663.54 323.006ZM1685.88 326.915L1686.33 323.088C1677.28 322.882 1674.19 321.524 1673.7 317.409L1686.91 317.039C1687.65 309.919 1684.89 305.393 1679.13 305.393C1673.74 305.393 1669.13 310.249 1669.13 316.545C1669.13 323.211 1672.63 327.039 1685.88 326.915ZM1678.31 309.137C1681.15 309.137 1682.42 311.154 1682.55 314.405C1680 314.487 1675.84 314.611 1673.66 314.693C1673.86 310.866 1675.51 309.137 1678.31 309.137ZM1692.37 316.504C1692.37 322.841 1695.75 327.656 1708.55 326.586L1709 322.8C1699.78 323.335 1696.9 321.195 1696.9 315.928C1696.9 311.977 1698.47 309.631 1708.71 309.961L1708.42 305.64C1696.16 305.681 1692.37 310.784 1692.37 316.504ZM1731.09 326.751L1731.58 322.965C1725.33 322.841 1723.4 322.1 1723.4 318.891V309.426H1731.13V305.928H1723.4V300.002L1718.87 300.413V305.928H1715.08L1714.67 309.426H1718.87V319.59C1718.87 324.858 1721.87 326.915 1731.09 326.751Z" fill="black"/>
<path d="M1401.74 306.711C1400.68 306.711 1399.81 307.575 1399.81 308.64C1399.81 309.706 1400.68 310.569 1401.74 310.569V306.711ZM1499.56 310.004C1500.31 309.251 1500.31 308.03 1499.56 307.276L1487.28 295C1486.53 294.247 1485.3 294.247 1484.55 295C1483.8 295.754 1483.8 296.975 1484.55 297.728L1495.46 308.64L1484.55 319.552C1483.8 320.306 1483.8 321.527 1484.55 322.28C1485.3 323.034 1486.53 323.034 1487.28 322.28L1499.56 310.004ZM1401.74 310.569H1498.19V306.711H1401.74V310.569Z" fill="black"/>
<line x1="42.1164" y1="209.94" x2="1877.88" y2="209.94" stroke="black" stroke-width="1.929" stroke-linecap="round" stroke-dasharray="6.43 12.86"/>
<path d="M134.567 537.984C140.04 537.984 143.415 534.404 143.415 528.478V511.811H138.682V529.301C138.682 532.593 137.489 533.91 134.896 533.91C132.427 533.91 130.905 532.305 130.905 528.642V511.811H126.172V528.848C126.172 534.692 129.3 537.984 134.567 537.984ZM157.851 520.206C159.95 520.206 161.308 521.358 161.308 524.98V537.325H165.876V523.375C165.876 518.395 163.571 516.297 159.991 516.297C157.152 516.297 155.053 517.614 153.407 519.095L153.16 516.749L148.921 516.996C149.168 521.647 149.25 528.107 149.25 537.325H153.859C153.859 530.741 153.777 525.391 153.695 521.564C154.97 520.741 156.287 520.206 157.851 520.206ZM177.061 520.206C178.09 520.206 178.543 520.823 178.543 522.552V537.325H181.794V521.153C182.411 520.535 183.069 520.206 183.81 520.206C184.88 520.206 185.374 520.823 185.374 522.593V537.325H189.612V520.988C189.612 517.943 188.46 516.297 186.115 516.297C184.304 516.297 182.864 517.284 181.752 518.519C181.341 517.12 180.394 516.297 178.789 516.297C177.102 516.297 175.662 517.284 174.551 518.519L174.386 516.749L170.477 516.996C170.641 521.647 170.641 528.107 170.641 537.325H174.88C174.88 530.577 174.839 525.103 174.757 521.276C175.497 520.577 176.279 520.206 177.061 520.206ZM201.991 537.943C207.464 537.943 211.991 533.457 211.991 526.626C211.991 519.959 208.452 516.214 203.308 516.214C197.876 516.214 193.308 520.906 193.308 527.572C193.308 534.198 196.929 537.943 201.991 537.943ZM202.814 534.239C199.851 534.239 197.958 531.688 197.958 526.708C197.958 522.223 199.769 519.959 202.526 519.959C205.489 519.959 207.382 522.511 207.382 527.449C207.382 531.976 205.571 534.239 202.814 534.239ZM229.514 537.408L233.753 537.202C233.506 532.511 233.423 526.05 233.423 516.832H228.855C228.855 523.457 228.897 528.766 228.979 532.552C227.744 533.416 226.386 533.951 224.864 533.951C222.765 533.951 221.448 532.799 221.448 529.177V516.708L216.88 516.996V530.782C216.88 535.803 219.144 537.86 222.724 537.86C225.563 537.86 227.621 536.544 229.267 535.103L229.514 537.408ZM248.353 520.206C250.452 520.206 251.81 521.358 251.81 524.98V537.325H256.378V523.375C256.378 518.395 254.074 516.297 250.493 516.297C247.654 516.297 245.555 517.614 243.909 519.095L243.662 516.749L239.423 516.996C239.67 521.647 239.753 528.107 239.753 537.325H244.362C244.362 530.741 244.279 525.391 244.197 521.564C245.473 520.741 246.79 520.206 248.353 520.206ZM278.263 537.655L278.757 533.869C272.502 533.745 270.568 533.004 270.568 529.795V520.33H278.304V516.832H270.568V510.906L266.041 511.317V516.832H262.255L261.843 520.33H266.041V530.494C266.041 535.762 269.045 537.819 278.263 537.655Z" fill="black"/>
<rect x="667.436" y="462.96" width="257.2" height="128.6" rx="20.576" fill="#A8F4C6"/>
<path d="M736.292 533.457C726.538 533.951 723.781 531.029 723.781 524.321C723.781 518.766 725.551 515.762 736.045 515.968L735.798 511.441C723.123 511.688 718.884 517.819 718.884 524.939C718.884 532.675 722.711 538.56 735.88 537.49L736.292 533.457ZM758.752 537.325L759.123 533.869H752.785V508.56H742.456L742.045 511.811L748.176 512.14V533.869H741.839V537.325H758.752ZM780.72 537.819L781.172 533.992C772.119 533.786 769.032 532.428 768.539 528.313L781.748 527.943C782.489 520.823 779.732 516.297 773.971 516.297C768.58 516.297 763.971 521.153 763.971 527.449C763.971 534.116 767.469 537.943 780.72 537.819ZM773.148 520.042C775.987 520.042 777.263 522.058 777.386 525.309C774.835 525.391 770.679 525.515 768.497 525.597C768.703 521.77 770.349 520.042 773.148 520.042ZM794.662 534.321C792.563 534.321 791.205 533.251 791.205 531.441C791.205 529.177 792.893 527.819 799.23 528.478C799.271 530.165 799.271 531.523 799.353 532.716C797.913 533.704 796.226 534.321 794.662 534.321ZM799.93 537.449L804.127 537.243C803.921 534.404 803.757 531.153 803.757 527.161C803.757 519.177 800.67 516.626 788.325 516.42L787.872 520.288C796.679 520.577 798.942 521.523 799.189 525.474C790.547 525.103 786.679 528.395 786.679 532.511C786.679 535.844 789.189 537.86 792.851 537.86C795.814 537.86 797.995 536.502 799.559 534.98C799.683 535.967 799.888 537.284 799.93 537.449ZM818.646 520.206C820.745 520.206 822.103 521.358 822.103 524.98V537.325H826.67V523.375C826.67 518.395 824.366 516.297 820.786 516.297C817.946 516.297 815.847 517.614 814.201 519.095L813.954 516.749L809.716 516.996C809.963 521.647 810.045 528.107 810.045 537.325H814.654C814.654 530.741 814.572 525.391 814.489 521.564C815.765 520.741 817.082 520.206 818.646 520.206ZM845.057 537.408L849.296 537.202C849.049 532.511 848.967 526.05 848.967 516.832H844.399C844.399 523.457 844.44 528.766 844.522 532.552C843.288 533.416 841.93 533.951 840.407 533.951C838.308 533.951 836.992 532.799 836.992 529.177V516.708L832.424 516.996V530.782C832.424 535.803 834.687 537.86 838.267 537.86C841.107 537.86 843.164 536.544 844.81 535.103L845.057 537.408ZM862.662 533.91C861.675 533.91 860.893 533.745 859.987 533.416C859.946 528.066 859.864 524.28 859.823 521.358C860.934 520.535 862.21 520.042 863.444 520.042C866.201 520.042 868.218 522.428 868.218 527.161C868.218 531.688 865.79 533.91 862.662 533.91ZM859.987 544.074V537.819C860.358 537.86 860.687 537.86 861.057 537.86C867.477 537.86 872.745 533.539 872.745 526.05C872.745 520.083 869.576 516.297 865.296 516.297C862.909 516.297 861.016 517.449 859.576 518.848L859.37 516.749L855.173 516.996C855.378 521.07 855.42 526.873 855.42 537.449V544.486L859.987 544.074Z" fill="black"/>
<line x1="42.1164" y1="420.844" x2="1877.88" y2="420.844" stroke="black" stroke-width="1.929" stroke-linecap="round" stroke-dasharray="6.43 12.86"/>
</svg>
