<svg width="1920" height="1066" viewBox="0 0 1920 1066" fill="none" xmlns="http://www.w3.org/2000/svg">
<rect width="1920" height="1066" fill="#F2F2F2"/>
<path d="M338.228 966.284L340.514 964.891L338.443 959.926L343.515 957.925L342.908 955.389L337.514 955.818L337.192 950.388L334.513 950.21L333.263 955.496L328.084 954.032L327.048 956.497L331.691 959.39L328.762 963.819L330.763 965.605L334.871 962.105L338.228 966.284ZM347.759 971.571V975.25C358.439 975.679 362.262 971.999 362.262 968.499C362.262 963.212 351.938 961.748 351.938 958.425C351.938 956.818 353.724 955.854 360.904 956.354L360.69 952.674C351.474 952.174 347.687 955.675 347.687 958.997C347.687 964.105 358.011 965.391 358.011 968.999C358.011 970.856 355.296 972.142 347.759 971.571ZM373.685 972.035C372.828 972.035 372.149 971.892 371.363 971.607C371.328 966.963 371.256 963.676 371.221 961.14C372.185 960.426 373.292 959.997 374.364 959.997C376.757 959.997 378.508 962.069 378.508 966.177C378.508 970.106 376.4 972.035 373.685 972.035ZM371.363 980.858V975.429C371.685 975.464 371.971 975.464 372.292 975.464C377.865 975.464 382.437 971.714 382.437 965.212C382.437 960.033 379.686 956.747 375.971 956.747C373.9 956.747 372.256 957.747 371.006 958.961L370.828 957.14L367.184 957.354C367.363 960.89 367.398 965.927 367.398 975.107V981.215L371.363 980.858ZM393.218 972.392C391.396 972.392 390.217 971.464 390.217 969.892C390.217 967.927 391.682 966.748 397.183 967.32C397.218 968.785 397.218 969.963 397.29 970.999C396.04 971.857 394.575 972.392 393.218 972.392ZM397.79 975.107L401.433 974.929C401.255 972.464 401.112 969.642 401.112 966.177C401.112 959.247 398.433 957.032 387.717 956.854L387.324 960.212C394.968 960.462 396.933 961.283 397.147 964.712C389.646 964.391 386.288 967.249 386.288 970.821C386.288 973.714 388.467 975.464 391.646 975.464C394.218 975.464 396.111 974.286 397.468 972.964C397.576 973.821 397.754 974.964 397.79 975.107ZM406.392 966.391C406.392 971.892 409.321 976.072 420.43 975.143L420.823 971.857C412.821 972.321 410.321 970.463 410.321 965.891C410.321 962.462 411.678 960.426 420.573 960.712L420.323 956.961C409.678 956.997 406.392 961.426 406.392 966.391ZM440.034 975.429L440.427 972.107C432.568 971.928 429.889 970.749 429.46 967.177L440.927 966.856C441.57 960.676 439.176 956.747 434.176 956.747C429.496 956.747 425.495 960.962 425.495 966.427C425.495 972.214 428.532 975.536 440.034 975.429ZM433.461 959.997C435.926 959.997 437.033 961.748 437.14 964.569C434.926 964.641 431.318 964.748 429.425 964.82C429.603 961.497 431.032 959.997 433.461 959.997ZM456.066 966.284L458.352 964.891L456.28 959.926L461.352 957.925L460.745 955.389L455.351 955.818L455.03 950.388L452.351 950.21L451.1 955.496L445.921 954.032L444.885 956.497L449.529 959.39L446.599 963.819L448.6 965.605L452.708 962.105L456.066 966.284ZM228.952 993.765C222.254 993.256 220.004 995.4 220.004 997.489C220.004 1000.78 227.344 1001.16 227.344 1003.49C227.344 1004.67 225.71 1005.63 219.977 1005.18L219.896 1007.11C227.264 1007.51 229.595 1005.45 229.595 1003.3C229.595 999.954 222.2 999.365 222.2 997.195C222.2 996.123 223.647 995.212 229.032 995.694L228.952 993.765ZM244.19 1007.29L244.405 1005.45C238.055 1005.29 236.1 1004.11 235.885 1001L244.86 1000.78C245.342 996.444 243.521 993.551 239.931 993.551C236.528 993.551 233.742 996.632 233.742 1000.62C233.742 1004.88 235.966 1007.27 244.19 1007.29ZM239.556 995.346C241.752 995.346 242.797 996.927 242.824 999.445C240.976 999.499 237.386 999.606 235.885 999.659C236.046 996.846 237.386 995.346 239.556 995.346ZM259.027 1007.21L259.268 1005.39C254.875 1005.31 253.616 1004.72 253.616 1002.45V995.56H258.974V993.873H253.616V990.041L251.445 990.229V993.873H248.954L248.74 995.56H251.445V1002.79C251.445 1006.04 253.348 1007.29 259.027 1007.21ZM269.899 992.158H274.025V990.39H263.576V992.158H267.675V1005.23H263.576V1007H273.971L274.132 1005.23H269.899V992.158ZM287.87 993.765C281.173 993.256 278.922 995.4 278.922 997.489C278.922 1000.78 286.263 1001.16 286.263 1003.49C286.263 1004.67 284.629 1005.63 278.895 1005.18L278.815 1007.11C286.183 1007.51 288.513 1005.45 288.513 1003.3C288.513 999.954 281.119 999.365 281.119 997.195C281.119 996.123 282.566 995.212 287.951 995.694L287.87 993.765ZM295.742 1007V1001.64C300.885 1001.27 304.315 999.445 304.315 995.48C304.315 991.408 300.698 989.345 293.518 990.417V1007H295.742ZM302.118 995.909C302.118 998.909 299.841 999.954 295.742 999.659V992.158C300.055 991.595 302.118 993.069 302.118 995.909ZM318.267 1007L318.455 1005.34H314.168V988.3H308.114L307.926 989.854L311.971 990.041V1005.34H307.712V1007H318.267ZM326.996 1005.61C325.362 1005.61 324.29 1004.8 324.29 1003.41C324.29 1001.62 325.871 1000.57 330.666 1001.08C330.666 1002.37 330.693 1003.33 330.72 1004.19C329.702 1004.99 328.309 1005.61 326.996 1005.61ZM331.014 1007.08L332.997 1006.95C332.89 1005.07 332.783 1003.22 332.783 1000.49C332.783 995.426 330.747 993.846 323.165 993.631L322.924 995.507C328.791 995.721 330.452 996.498 330.639 999.525C324.826 999.177 322.147 1001.21 322.147 1003.92C322.147 1006.04 323.781 1007.32 326.165 1007.32C328.228 1007.32 329.755 1006.38 330.827 1005.39C330.88 1005.98 330.988 1006.81 331.014 1007.08ZM336.957 1011.77C341.404 1011.23 342.663 1010 344.431 1005.37C346.146 1001.03 347.539 997.114 348.637 993.873H346.548C345.851 995.721 343.976 1001.64 342.985 1004.32H342.717C341.243 1000.97 339.743 997.168 338.43 993.819L336.207 993.953C337.519 997.168 340.038 1003.25 341.565 1006.6L341.806 1006.65C340.895 1008.79 340.118 1009.25 336.769 1009.76L336.957 1011.77ZM358.706 991.756L358.947 988.113H356.643L356.482 991.756H358.706ZM363.581 1007L363.742 1005.34H358.813V993.873H351.901L351.74 995.4L356.643 995.614V1005.34H351.713V1007H363.581ZM372.337 995.426C373.998 995.426 374.989 996.311 374.989 998.829V1007H377.159V998.105C377.159 994.891 375.605 993.578 373.248 993.578C371.372 993.578 369.952 994.408 368.854 995.319L368.72 993.819L366.711 993.953C366.845 996.98 366.898 1001.27 366.898 1007H369.068C369.068 1002.42 369.015 998.963 368.961 996.578C369.979 995.882 371.078 995.426 372.337 995.426ZM382.646 1011.63C389.879 1011.26 391.674 1008.47 391.674 1003.95C391.674 1002.42 391.674 995.239 391.648 994.194C390.335 993.792 389.103 993.578 387.817 993.578C384.066 993.578 380.824 996.203 380.824 1000.44C380.824 1003.89 382.941 1005.98 385.78 1005.98C387.334 1005.98 388.594 1005.42 389.531 1004.7C389.478 1008.42 388.647 1009.17 382.432 1009.65L382.646 1011.63ZM386.584 1004.24C384.521 1004.24 382.967 1002.82 382.967 999.927C382.967 997.007 384.736 995.426 387.04 995.426C387.87 995.426 388.674 995.587 389.531 995.828C389.504 997.864 389.531 1001.53 389.531 1003.33C388.674 1003.87 387.629 1004.24 386.584 1004.24ZM405.091 987.577C399.305 992.319 396.974 996.257 396.974 1000.14C396.974 1003.95 399.251 1007.8 404.984 1012.52L406.484 1011.15C401.1 1006.89 399.117 1003.46 399.117 1000.06C399.117 996.659 401.073 993.23 406.565 988.943L405.091 987.577ZM416.901 1000.73C416.954 998.4 417.624 991.327 417.731 988.889H414.972C415.025 991.327 415.481 998.4 415.481 1000.73H416.901ZM417.517 1007L417.597 1004.05H414.543L414.49 1007H417.517ZM432.354 991.756L432.595 988.113H430.291L430.13 991.756H432.354ZM437.23 1007L437.39 1005.34H432.461V993.873H425.549L425.388 995.4L430.291 995.614V1005.34H425.361V1007H437.23ZM449.896 993.765C443.199 993.256 440.948 995.4 440.948 997.489C440.948 1000.78 448.289 1001.16 448.289 1003.49C448.289 1004.67 446.655 1005.63 440.922 1005.18L440.841 1007.11C448.209 1007.51 450.539 1005.45 450.539 1003.3C450.539 999.954 443.145 999.365 443.145 997.195C443.145 996.123 444.592 995.212 449.977 995.694L449.896 993.765ZM457.768 1007V1001.64C462.912 1001.27 466.341 999.445 466.341 995.48C466.341 991.408 462.724 989.345 455.544 990.417V1007H457.768ZM464.144 995.909C464.144 998.909 461.867 999.954 457.768 999.659V992.158C462.081 991.595 464.144 993.069 464.144 995.909ZM480.293 1007L480.481 1005.34H476.194V988.3H470.14L469.952 989.854L473.998 990.041V1005.34H469.738V1007H480.293ZM489.022 1005.61C487.388 1005.61 486.316 1004.8 486.316 1003.41C486.316 1001.62 487.897 1000.57 492.692 1001.08C492.692 1002.37 492.719 1003.33 492.746 1004.19C491.728 1004.99 490.335 1005.61 489.022 1005.61ZM493.041 1007.08L495.023 1006.95C494.916 1005.07 494.809 1003.22 494.809 1000.49C494.809 995.426 492.773 993.846 485.191 993.631L484.95 995.507C490.817 995.721 492.478 996.498 492.666 999.525C486.852 999.177 484.173 1001.21 484.173 1003.92C484.173 1006.04 485.807 1007.32 488.191 1007.32C490.254 1007.32 491.781 1006.38 492.853 1005.39C492.907 1005.98 493.014 1006.81 493.041 1007.08ZM498.983 1011.77C503.43 1011.23 504.689 1010 506.457 1005.37C508.172 1001.03 509.565 997.114 510.664 993.873H508.574C507.877 995.721 506.002 1001.64 505.011 1004.32H504.743C503.269 1000.97 501.769 997.168 500.456 993.819L498.233 993.953C499.545 997.168 502.064 1003.25 503.591 1006.6L503.832 1006.65C502.921 1008.79 502.144 1009.25 498.795 1009.76L498.983 1011.77ZM520.732 991.756L520.973 988.113H518.669L518.508 991.756H520.732ZM525.608 1007L525.768 1005.34H520.839V993.873H513.927L513.766 995.4L518.669 995.614V1005.34H513.739V1007H525.608ZM534.363 995.426C536.024 995.426 537.015 996.311 537.015 998.829V1007H539.185V998.105C539.185 994.891 537.631 993.578 535.274 993.578C533.398 993.578 531.979 994.408 530.88 995.319L530.746 993.819L528.737 993.953C528.871 996.98 528.924 1001.27 528.924 1007H531.094C531.094 1002.42 531.041 998.963 530.987 996.578C532.005 995.882 533.104 995.426 534.363 995.426ZM544.672 1011.63C551.906 1011.26 553.701 1008.47 553.701 1003.95C553.701 1002.42 553.701 995.239 553.674 994.194C552.361 993.792 551.129 993.578 549.843 993.578C546.092 993.578 542.85 996.203 542.85 1000.44C542.85 1003.89 544.967 1005.98 547.807 1005.98C549.36 1005.98 550.62 1005.42 551.557 1004.7C551.504 1008.42 550.673 1009.17 544.458 1009.65L544.672 1011.63ZM548.61 1004.24C546.547 1004.24 544.994 1002.82 544.994 999.927C544.994 997.007 546.762 995.426 549.066 995.426C549.896 995.426 550.7 995.587 551.557 995.828C551.531 997.864 551.557 1001.53 551.557 1003.33C550.7 1003.87 549.655 1004.24 548.61 1004.24ZM559.67 1012.52C565.483 1007.75 567.787 1003.81 567.787 999.927C567.787 996.15 565.51 992.292 559.777 987.55L558.303 988.97C563.662 993.203 565.644 996.632 565.644 1000.01C565.644 1003.44 563.688 1006.84 558.196 1011.15L559.67 1012.52Z" fill="black"/>
<path d="M778.228 966.284L780.514 964.891L778.443 959.926L783.515 957.925L782.908 955.389L777.514 955.818L777.192 950.388L774.513 950.21L773.263 955.496L768.084 954.032L767.048 956.497L771.691 959.39L768.762 963.819L770.763 965.605L774.871 962.105L778.228 966.284ZM787.759 971.571V975.25C798.439 975.679 802.262 971.999 802.262 968.499C802.262 963.212 791.938 961.748 791.938 958.425C791.938 956.818 793.724 955.854 800.904 956.354L800.69 952.674C791.474 952.174 787.687 955.675 787.687 958.997C787.687 964.105 798.011 965.391 798.011 968.999C798.011 970.856 795.296 972.142 787.759 971.571ZM813.685 972.035C812.828 972.035 812.149 971.892 811.363 971.607C811.328 966.963 811.256 963.676 811.221 961.14C812.185 960.426 813.292 959.997 814.364 959.997C816.757 959.997 818.508 962.069 818.508 966.177C818.508 970.106 816.4 972.035 813.685 972.035ZM811.363 980.858V975.429C811.685 975.464 811.971 975.464 812.292 975.464C817.865 975.464 822.437 971.714 822.437 965.212C822.437 960.033 819.686 956.747 815.971 956.747C813.9 956.747 812.256 957.747 811.006 958.961L810.828 957.14L807.184 957.354C807.363 960.89 807.398 965.927 807.398 975.107V981.215L811.363 980.858ZM833.218 972.392C831.396 972.392 830.217 971.464 830.217 969.892C830.217 967.927 831.682 966.748 837.183 967.32C837.218 968.785 837.218 969.963 837.29 970.999C836.04 971.857 834.575 972.392 833.218 972.392ZM837.79 975.107L841.433 974.929C841.255 972.464 841.112 969.642 841.112 966.177C841.112 959.247 838.433 957.032 827.717 956.854L827.324 960.212C834.968 960.462 836.933 961.283 837.147 964.712C829.646 964.391 826.288 967.249 826.288 970.821C826.288 973.714 828.467 975.464 831.646 975.464C834.218 975.464 836.111 974.286 837.468 972.964C837.576 973.821 837.754 974.964 837.79 975.107ZM846.392 966.391C846.392 971.892 849.321 976.072 860.43 975.143L860.823 971.857C852.821 972.321 850.321 970.463 850.321 965.891C850.321 962.462 851.678 960.426 860.573 960.712L860.323 956.961C849.678 956.997 846.392 961.426 846.392 966.391ZM880.034 975.429L880.427 972.107C872.568 971.928 869.889 970.749 869.46 967.177L880.927 966.856C881.57 960.676 879.176 956.747 874.176 956.747C869.496 956.747 865.495 960.962 865.495 966.427C865.495 972.214 868.532 975.536 880.034 975.429ZM873.461 959.997C875.926 959.997 877.033 961.748 877.14 964.569C874.926 964.641 871.318 964.748 869.425 964.82C869.603 961.497 871.032 959.997 873.461 959.997ZM896.066 966.284L898.352 964.891L896.28 959.926L901.352 957.925L900.745 955.389L895.351 955.818L895.03 950.388L892.351 950.21L891.1 955.496L885.921 954.032L884.885 956.497L889.529 959.39L886.599 963.819L888.6 965.605L892.708 962.105L896.066 966.284ZM668.952 993.765C662.254 993.256 660.004 995.4 660.004 997.489C660.004 1000.78 667.344 1001.16 667.344 1003.49C667.344 1004.67 665.71 1005.63 659.977 1005.18L659.896 1007.11C667.264 1007.51 669.595 1005.45 669.595 1003.3C669.595 999.954 662.2 999.365 662.2 997.195C662.2 996.123 663.647 995.212 669.032 995.694L668.952 993.765ZM684.19 1007.29L684.405 1005.45C678.055 1005.29 676.1 1004.11 675.885 1001L684.86 1000.78C685.342 996.444 683.521 993.551 679.931 993.551C676.528 993.551 673.742 996.632 673.742 1000.62C673.742 1004.88 675.966 1007.27 684.19 1007.29ZM679.556 995.346C681.752 995.346 682.797 996.927 682.824 999.445C680.976 999.499 677.386 999.606 675.885 999.659C676.046 996.846 677.386 995.346 679.556 995.346ZM699.027 1007.21L699.268 1005.39C694.875 1005.31 693.616 1004.72 693.616 1002.45V995.56H698.974V993.873H693.616V990.041L691.445 990.229V993.873H688.954L688.74 995.56H691.445V1002.79C691.445 1006.04 693.348 1007.29 699.027 1007.21ZM709.899 992.158H714.025V990.39H703.576V992.158H707.675V1005.23H703.576V1007H713.971L714.132 1005.23H709.899V992.158ZM727.87 993.765C721.173 993.256 718.922 995.4 718.922 997.489C718.922 1000.78 726.263 1001.16 726.263 1003.49C726.263 1004.67 724.629 1005.63 718.895 1005.18L718.815 1007.11C726.183 1007.51 728.513 1005.45 728.513 1003.3C728.513 999.954 721.119 999.365 721.119 997.195C721.119 996.123 722.566 995.212 727.951 995.694L727.87 993.765ZM735.742 1007V1001.64C740.885 1001.27 744.315 999.445 744.315 995.48C744.315 991.408 740.698 989.345 733.518 990.417V1007H735.742ZM742.118 995.909C742.118 998.909 739.841 999.954 735.742 999.659V992.158C740.055 991.595 742.118 993.069 742.118 995.909ZM758.267 1007L758.455 1005.34H754.168V988.3H748.114L747.926 989.854L751.971 990.041V1005.34H747.712V1007H758.267ZM766.996 1005.61C765.362 1005.61 764.29 1004.8 764.29 1003.41C764.29 1001.62 765.871 1000.57 770.666 1001.08C770.666 1002.37 770.693 1003.33 770.72 1004.19C769.702 1004.99 768.309 1005.61 766.996 1005.61ZM771.014 1007.08L772.997 1006.95C772.89 1005.07 772.783 1003.22 772.783 1000.49C772.783 995.426 770.747 993.846 763.165 993.631L762.924 995.507C768.791 995.721 770.452 996.498 770.639 999.525C764.826 999.177 762.147 1001.21 762.147 1003.92C762.147 1006.04 763.781 1007.32 766.165 1007.32C768.228 1007.32 769.755 1006.38 770.827 1005.39C770.88 1005.98 770.988 1006.81 771.014 1007.08ZM776.957 1011.77C781.404 1011.23 782.663 1010 784.431 1005.37C786.146 1001.03 787.539 997.114 788.637 993.873H786.548C785.851 995.721 783.976 1001.64 782.985 1004.32H782.717C781.243 1000.97 779.743 997.168 778.43 993.819L776.207 993.953C777.519 997.168 780.038 1003.25 781.565 1006.6L781.806 1006.65C780.895 1008.79 780.118 1009.25 776.769 1009.76L776.957 1011.77ZM798.706 991.756L798.947 988.113H796.643L796.482 991.756H798.706ZM803.581 1007L803.742 1005.34H798.813V993.873H791.901L791.74 995.4L796.643 995.614V1005.34H791.713V1007H803.581ZM812.337 995.426C813.998 995.426 814.989 996.311 814.989 998.829V1007H817.159V998.105C817.159 994.891 815.605 993.578 813.248 993.578C811.372 993.578 809.952 994.408 808.854 995.319L808.72 993.819L806.711 993.953C806.845 996.98 806.898 1001.27 806.898 1007H809.068C809.068 1002.42 809.015 998.963 808.961 996.578C809.979 995.882 811.078 995.426 812.337 995.426ZM822.646 1011.63C829.879 1011.26 831.674 1008.47 831.674 1003.95C831.674 1002.42 831.674 995.239 831.648 994.194C830.335 993.792 829.103 993.578 827.817 993.578C824.066 993.578 820.824 996.203 820.824 1000.44C820.824 1003.89 822.941 1005.98 825.78 1005.98C827.334 1005.98 828.594 1005.42 829.531 1004.7C829.478 1008.42 828.647 1009.17 822.432 1009.65L822.646 1011.63ZM826.584 1004.24C824.521 1004.24 822.967 1002.82 822.967 999.927C822.967 997.007 824.736 995.426 827.04 995.426C827.87 995.426 828.674 995.587 829.531 995.828C829.504 997.864 829.531 1001.53 829.531 1003.33C828.674 1003.87 827.629 1004.24 826.584 1004.24ZM845.091 987.577C839.305 992.319 836.974 996.257 836.974 1000.14C836.974 1003.95 839.251 1007.8 844.984 1012.52L846.484 1011.15C841.1 1006.89 839.117 1003.46 839.117 1000.06C839.117 996.659 841.073 993.23 846.565 988.943L845.091 987.577ZM856.901 1000.73C856.954 998.4 857.624 991.327 857.731 988.889H854.972C855.025 991.327 855.481 998.4 855.481 1000.73H856.901ZM857.517 1007L857.597 1004.05H854.543L854.49 1007H857.517ZM872.354 991.756L872.595 988.113H870.291L870.13 991.756H872.354ZM877.23 1007L877.39 1005.34H872.461V993.873H865.549L865.388 995.4L870.291 995.614V1005.34H865.361V1007H877.23ZM889.896 993.765C883.199 993.256 880.948 995.4 880.948 997.489C880.948 1000.78 888.289 1001.16 888.289 1003.49C888.289 1004.67 886.655 1005.63 880.922 1005.18L880.841 1007.11C888.209 1007.51 890.539 1005.45 890.539 1003.3C890.539 999.954 883.145 999.365 883.145 997.195C883.145 996.123 884.592 995.212 889.977 995.694L889.896 993.765ZM897.768 1007V1001.64C902.912 1001.27 906.341 999.445 906.341 995.48C906.341 991.408 902.724 989.345 895.544 990.417V1007H897.768ZM904.144 995.909C904.144 998.909 901.867 999.954 897.768 999.659V992.158C902.081 991.595 904.144 993.069 904.144 995.909ZM920.293 1007L920.481 1005.34H916.194V988.3H910.14L909.952 989.854L913.998 990.041V1005.34H909.738V1007H920.293ZM929.022 1005.61C927.388 1005.61 926.316 1004.8 926.316 1003.41C926.316 1001.62 927.897 1000.57 932.692 1001.08C932.692 1002.37 932.719 1003.33 932.746 1004.19C931.728 1004.99 930.335 1005.61 929.022 1005.61ZM933.041 1007.08L935.023 1006.95C934.916 1005.07 934.809 1003.22 934.809 1000.49C934.809 995.426 932.773 993.846 925.191 993.631L924.95 995.507C930.817 995.721 932.478 996.498 932.666 999.525C926.852 999.177 924.173 1001.21 924.173 1003.92C924.173 1006.04 925.807 1007.32 928.191 1007.32C930.254 1007.32 931.781 1006.38 932.853 1005.39C932.907 1005.98 933.014 1006.81 933.041 1007.08ZM938.983 1011.77C943.43 1011.23 944.689 1010 946.457 1005.37C948.172 1001.03 949.565 997.114 950.664 993.873H948.574C947.877 995.721 946.002 1001.64 945.011 1004.32H944.743C943.269 1000.97 941.769 997.168 940.456 993.819L938.233 993.953C939.545 997.168 942.064 1003.25 943.591 1006.6L943.832 1006.65C942.921 1008.79 942.144 1009.25 938.795 1009.76L938.983 1011.77ZM960.732 991.756L960.973 988.113H958.669L958.508 991.756H960.732ZM965.608 1007L965.768 1005.34H960.839V993.873H953.927L953.766 995.4L958.669 995.614V1005.34H953.739V1007H965.608ZM974.363 995.426C976.024 995.426 977.015 996.311 977.015 998.829V1007H979.185V998.105C979.185 994.891 977.631 993.578 975.274 993.578C973.398 993.578 971.979 994.408 970.88 995.319L970.746 993.819L968.737 993.953C968.871 996.98 968.924 1001.27 968.924 1007H971.094C971.094 1002.42 971.041 998.963 970.987 996.578C972.005 995.882 973.104 995.426 974.363 995.426ZM984.672 1011.63C991.906 1011.26 993.701 1008.47 993.701 1003.95C993.701 1002.42 993.701 995.239 993.674 994.194C992.361 993.792 991.129 993.578 989.843 993.578C986.092 993.578 982.85 996.203 982.85 1000.44C982.85 1003.89 984.967 1005.98 987.807 1005.98C989.36 1005.98 990.62 1005.42 991.557 1004.7C991.504 1008.42 990.673 1009.17 984.458 1009.65L984.672 1011.63ZM988.61 1004.24C986.547 1004.24 984.994 1002.82 984.994 999.927C984.994 997.007 986.762 995.426 989.066 995.426C989.896 995.426 990.7 995.587 991.557 995.828C991.531 997.864 991.557 1001.53 991.557 1003.33C990.7 1003.87 989.655 1004.24 988.61 1004.24ZM999.67 1012.52C1005.48 1007.75 1007.79 1003.81 1007.79 999.927C1007.79 996.15 1005.51 992.292 999.777 987.55L998.303 988.97C1003.66 993.203 1005.64 996.632 1005.64 1000.01C1005.64 1003.44 1003.69 1006.84 998.196 1011.15L999.67 1012.52Z" fill="black"/>
<path d="M709.421 120.541C710.293 121.413 711.707 121.413 712.579 120.541L726.787 106.333C727.658 105.461 727.658 104.048 726.787 103.176C725.915 102.304 724.501 102.304 723.629 103.176L711 115.805L698.371 103.176C697.499 102.304 696.085 102.304 695.213 103.176C694.342 104.048 694.342 105.461 695.213 106.333L709.421 120.541ZM262.767 677.14V896.186H267.233V677.14H262.767ZM288.814 922.233H488.734V917.767H288.814V922.233ZM514.781 896.186V419.789H510.316V896.186H514.781ZM514.781 419.789V77.8139H510.316V419.789H514.781ZM536.362 56.2326H687.186V51.7674H536.362V56.2326ZM708.767 77.814V118.962H713.233V77.814H708.767ZM687.186 56.2326C699.105 56.2326 708.767 65.8949 708.767 77.814H713.233C713.233 63.4289 701.571 51.7674 687.186 51.7674V56.2326ZM514.781 77.8139C514.781 65.8949 524.443 56.2326 536.362 56.2326V51.7674C521.977 51.7674 510.316 63.4289 510.316 77.8139H514.781ZM488.734 922.233C503.119 922.233 514.781 910.571 514.781 896.186H510.316C510.316 908.105 500.653 917.767 488.734 917.767V922.233ZM262.767 896.186C262.767 910.571 274.429 922.233 288.814 922.233V917.767C276.895 917.767 267.233 908.105 267.233 896.186H262.767Z" fill="#C4002F"/>
<path d="M1155.42 120.541C1156.29 121.413 1157.71 121.413 1158.58 120.541L1172.79 106.333C1173.66 105.461 1173.66 104.048 1172.79 103.176C1171.91 102.304 1170.5 102.304 1169.63 103.176L1157 115.805L1144.37 103.176C1143.5 102.304 1142.09 102.304 1141.21 103.176C1140.34 104.048 1140.34 105.461 1141.21 106.333L1155.42 120.541ZM708.767 824.5V896.186H713.233V824.5H708.767ZM734.814 922.233H934.734V917.767H734.814V922.233ZM960.781 896.186V419.789H956.316V896.186H960.781ZM960.781 419.789V77.8139H956.316V419.789H960.781ZM982.362 56.2326H1133.19V51.7674H982.362V56.2326ZM1154.77 77.8139V118.962H1159.23V77.8139H1154.77ZM1133.19 56.2326C1145.11 56.2326 1154.77 65.8949 1154.77 77.8139H1159.23C1159.23 63.4289 1147.57 51.7674 1133.19 51.7674V56.2326ZM960.781 77.8139C960.781 65.8949 970.443 56.2326 982.362 56.2326V51.7674C967.977 51.7674 956.316 63.4289 956.316 77.8139H960.781ZM934.734 922.233C949.119 922.233 960.781 910.571 960.781 896.186H956.316C956.316 908.105 946.653 917.767 934.734 917.767V922.233ZM708.767 896.186C708.767 910.571 720.429 922.233 734.814 922.233V917.767C722.895 917.767 713.233 908.105 713.233 896.186H708.767Z" fill="#C4002F"/>
<path d="M1601.42 288.579C1602.29 289.451 1603.71 289.451 1604.58 288.579L1618.79 274.371C1619.66 273.499 1619.66 272.085 1618.79 271.213C1617.91 270.342 1616.5 270.342 1615.63 271.213L1603 283.843L1590.37 271.213C1589.5 270.342 1588.09 270.342 1587.21 271.213C1586.34 272.085 1586.34 273.499 1587.21 274.371L1601.42 288.579ZM1154.77 824.5V896.186H1159.23V824.5H1154.77ZM1180.81 922.233H1380.73V917.767H1180.81V922.233ZM1406.78 896.186V419.789H1402.32V896.186H1406.78ZM1406.78 419.789V77.8139H1402.32V419.789H1406.78ZM1428.36 56.2326H1579.19V51.7674H1428.36V56.2326ZM1600.77 77.814V287H1605.23V77.814H1600.77ZM1579.19 56.2326C1591.11 56.2326 1600.77 65.8949 1600.77 77.814H1605.23C1605.23 63.4289 1593.57 51.7674 1579.19 51.7674V56.2326ZM1406.78 77.8139C1406.78 65.8949 1416.44 56.2326 1428.36 56.2326V51.7674C1413.98 51.7674 1402.32 63.4289 1402.32 77.8139H1406.78ZM1380.73 922.233C1395.12 922.233 1406.78 910.571 1406.78 896.186H1402.32C1402.32 908.105 1392.65 917.767 1380.73 917.767V922.233ZM1154.77 896.186C1154.77 910.571 1166.43 922.233 1180.81 922.233V917.767C1168.89 917.767 1159.23 908.105 1159.23 896.186H1154.77Z" fill="#C4002F"/>
<path d="M1836.79 379.391C1838.09 378.084 1838.09 375.963 1836.79 374.655L1815.47 353.344C1814.17 352.036 1812.05 352.036 1810.74 353.344C1809.43 354.651 1809.43 356.772 1810.74 358.08L1829.68 377.023L1810.74 395.967C1809.43 397.275 1809.43 399.395 1810.74 400.703C1812.05 402.011 1814.17 402.011 1815.47 400.703L1836.79 379.391ZM47.6279 380.372H54.2951V373.675H47.6279V380.372ZM67.6293 380.372H80.9636V373.675H67.6293V380.372ZM94.2978 380.372H107.632V373.675H94.2978V380.372ZM120.966 380.372H134.301V373.675H120.966V380.372ZM147.635 380.372H160.969V373.675H147.635V380.372ZM174.303 380.372H187.638V373.675H174.303V380.372ZM200.972 380.372H214.306V373.675H200.972V380.372ZM227.64 380.372H240.975V373.675H227.64V380.372ZM254.309 380.372H267.643V373.675H254.309V380.372ZM280.977 380.372H294.312V373.675H280.977V380.372ZM307.646 380.372H320.98V373.675H307.646V380.372ZM334.315 380.372H347.649V373.675H334.315V380.372ZM360.983 380.372H374.317V373.675H360.983V380.372ZM387.652 380.372H400.986V373.675H387.652V380.372ZM414.32 380.372H427.654V373.675H414.32V380.372ZM440.989 380.372H454.323V373.675H440.989V380.372ZM467.657 380.372H480.991V373.675H467.657V380.372ZM494.326 380.372H507.66V373.675H494.326V380.372ZM520.994 380.372H534.328V373.675H520.994V380.372ZM547.663 380.372H560.997V373.675H547.663V380.372ZM574.331 380.372H587.665V373.675H574.331V380.372ZM601 380.372H614.334V373.675H601V380.372ZM627.668 380.372H641.002V373.675H627.668V380.372ZM654.337 380.372H667.671V373.675H654.337V380.372ZM681.005 380.372H694.339V373.675H681.005V380.372ZM707.673 380.372H721.008V373.675H707.673V380.372ZM734.342 380.372H747.676V373.675H734.342V380.372ZM761.01 380.372H774.345V373.675H761.01V380.372ZM787.679 380.372H801.013V373.675H787.679V380.372ZM814.347 380.372H827.682V373.675H814.347V380.372ZM841.016 380.372H854.35V373.675H841.016V380.372ZM867.684 380.372H881.018V373.675H867.684V380.372ZM894.353 380.372H907.687V373.675H894.353V380.372ZM921.021 380.372H934.355V373.675H921.021V380.372ZM947.69 380.372H961.024V373.675H947.69V380.372ZM974.358 380.372H987.692V373.675H974.358V380.372ZM1001.03 380.372H1014.36V373.675H1001.03V380.372ZM1027.69 380.372H1041.03V373.675H1027.69V380.372ZM1054.36 380.372H1067.7V373.675H1054.36V380.372ZM1081.03 380.372H1094.37V373.675H1081.03V380.372ZM1107.7 380.372H1121.03V373.675H1107.7V380.372ZM1134.37 380.372H1147.7V373.675H1134.37V380.372ZM1161.04 380.372H1174.37V373.675H1161.04V380.372ZM1187.71 380.372H1201.04V373.675H1187.71V380.372ZM1214.37 380.372H1227.71V373.675H1214.37V380.372ZM1241.04 380.372H1254.38V373.675H1241.04V380.372ZM1267.71 380.372H1281.05V373.675H1267.71V380.372ZM1294.38 380.372H1307.71V373.675H1294.38V380.372ZM1321.05 380.372H1334.38V373.675H1321.05V380.372ZM1347.72 380.372H1361.05V373.675H1347.72V380.372ZM1374.38 380.372H1387.72V373.675H1374.38V380.372ZM1401.05 380.372H1414.39V373.675H1401.05V380.372ZM1427.72 380.372H1441.06V373.675H1427.72V380.372ZM1454.39 380.372H1467.72V373.675H1454.39V380.372ZM1481.06 380.372H1494.39V373.675H1481.06V380.372ZM1507.73 380.372H1521.06V373.675H1507.73V380.372ZM1534.4 380.372H1547.73V373.675H1534.4V380.372ZM1561.06 380.372H1574.4V373.675H1561.06V380.372ZM1587.73 380.372H1601.07V373.675H1587.73V380.372ZM1614.4 380.372H1627.74V373.675H1614.4V380.372ZM1641.07 380.372H1654.4V373.675H1641.07V380.372ZM1667.74 380.372H1681.07V373.675H1667.74V380.372ZM1694.41 380.372H1707.74V373.675H1694.41V380.372ZM1721.07 380.372H1734.41V373.675H1721.07V380.372ZM1747.74 380.372H1761.08V373.675H1747.74V380.372ZM1774.41 380.372H1787.75V373.675H1774.41V380.372ZM1801.08 380.372H1814.41V373.675H1801.08V380.372ZM1827.75 380.372H1834.42V373.675H1827.75V380.372Z" fill="black"/>
<path d="M122.047 185.864L410.047 139.628V528.741L122.047 574.977V185.864Z" fill="#DDD2E6" fill-opacity="0.97"/>
<path d="M151.081 351.329L150.735 347.529L148.357 347.905L148.786 351.692L151.081 351.329ZM158.605 366.269L158.5 364.528L153.411 365.333L151.538 353.496L144.403 354.626L144.486 356.228L149.582 355.649L151.171 365.688L146.082 366.493L146.354 368.208L158.605 366.269ZM169.519 350.537C162.522 351.106 160.549 353.686 160.89 355.843C161.429 359.245 169.067 358.433 169.448 360.839C169.641 362.056 168.111 363.319 162.119 363.785L162.351 365.789C170.022 365.001 172.091 362.49 171.741 360.278C171.194 356.821 163.464 357.42 163.11 355.18C162.935 354.074 164.279 352.897 169.917 352.515L169.519 350.537ZM179.806 362.913L178.931 357.382C184.18 356.155 187.422 353.714 186.774 349.621C186.109 345.417 182.038 343.879 174.802 346.158L177.511 363.277L179.806 362.913ZM184.576 350.422C185.067 353.52 182.887 354.97 178.607 355.336L177.382 347.592C181.742 346.307 184.113 347.491 184.576 350.422ZM203.06 359.233L202.982 357.488L198.557 358.188L195.773 340.599L189.523 341.588L189.583 343.223L193.79 342.756L196.289 358.547L191.892 359.243L192.163 360.958L203.06 359.233ZM211.842 356.369C210.155 356.636 208.918 355.982 208.69 354.544C208.397 352.691 209.858 351.354 214.891 351.096C215.102 352.423 215.287 353.415 215.454 354.295C214.535 355.291 213.197 356.155 211.842 356.369ZM216.231 357.234L218.256 356.772C217.839 354.853 217.426 352.963 216.98 350.142C216.153 344.915 213.793 343.616 205.931 344.633L205.989 346.608C212.08 345.871 213.922 346.402 214.61 349.496C208.552 350.086 206.119 352.626 206.561 355.419C206.907 357.604 208.804 358.665 211.265 358.275C213.395 357.938 214.818 356.721 215.762 355.522C215.914 356.122 216.16 356.962 216.231 357.234ZM223.132 361.103C227.635 359.823 228.733 358.345 229.801 353.272C230.862 348.512 231.661 344.246 232.266 340.72L230.109 341.062C229.692 343.084 228.723 349.502 228.137 352.43L227.861 352.474C225.793 349.257 223.622 345.575 221.72 342.333L219.447 342.834C221.327 345.939 224.92 351.805 227.044 355.012L227.301 355.028C226.711 357.39 225.983 357.987 222.61 359.059L223.132 361.103ZM242.313 336.891L241.967 333.09L239.588 333.467L240.018 337.254L242.313 336.891ZM249.837 351.83L249.732 350.089L244.643 350.895L242.77 339.058L235.634 340.187L235.718 341.79L240.814 341.21L242.403 351.249L237.314 352.055L237.585 353.769L249.837 351.83ZM256.984 338.453C258.699 338.181 259.867 338.932 260.278 341.532L261.613 349.967L263.853 349.612L262.4 340.43C261.875 337.112 260.056 336.011 257.622 336.396C255.687 336.702 254.357 337.791 253.371 338.911L252.988 337.384L250.936 337.851C251.569 340.954 252.324 345.37 253.261 351.289L255.501 350.934C254.753 346.205 254.133 342.646 253.688 340.193C254.625 339.308 255.684 338.658 256.984 338.453ZM270.274 353.5C277.68 351.931 279.078 348.762 278.338 344.088C278.089 342.512 276.916 335.1 276.717 334.026C275.297 333.825 273.989 333.805 272.662 334.016C268.79 334.628 265.873 337.868 266.564 342.238C267.129 345.805 269.655 347.617 272.586 347.153C274.191 346.899 275.398 346.112 276.248 345.213C276.801 349.066 276.066 349.976 269.729 351.489L270.274 353.5ZM273.132 345.224C271.002 345.561 269.166 344.349 268.693 341.362C268.216 338.348 269.783 336.427 272.162 336.051C273.019 335.915 273.875 335.95 274.799 336.059C275.104 338.165 275.732 341.949 276.025 343.802C275.228 344.495 274.21 345.053 273.132 345.224ZM289.145 336.283L288.689 333.038L285.398 333.559L285.882 336.799L289.145 336.283ZM290.364 345.417L289.967 342.191L286.676 342.712L287.073 345.937L290.364 345.417ZM324.435 338.295L319.567 339.066L318.014 329.248L323.158 328.434L322.886 326.719L317.742 327.533L317.69 327.201C317.235 324.325 317.812 323.497 323.11 322.403L322.599 320.244C316.429 321.561 314.938 324.32 315.502 327.888L311.824 328.47L311.902 330.215L315.774 329.602L317.327 339.42L313.621 340.007L313.888 341.694L324.508 340.013L324.435 338.295ZM333.485 337.118C331.798 337.385 330.56 336.731 330.333 335.292C330.039 333.44 331.5 332.103 336.534 331.845C336.744 333.172 336.929 334.163 337.097 335.044C336.177 336.04 334.84 336.904 333.485 337.118ZM337.874 337.983L339.898 337.521C339.481 335.602 339.069 333.711 338.622 330.891C337.795 325.664 335.435 324.365 327.573 325.382L327.631 327.357C333.723 326.62 335.564 327.151 336.252 330.245C330.194 330.835 327.761 333.375 328.203 336.168C328.549 338.353 330.446 339.413 332.907 339.024C335.037 338.687 336.46 337.469 337.404 336.271C337.556 336.871 337.802 337.711 337.874 337.983ZM355.112 335.17L355.035 333.424L350.61 334.124L347.826 316.535L341.576 317.525L341.636 319.159L345.843 318.692L348.342 334.483L343.945 335.179L344.216 336.894L355.112 335.17ZM367.188 319.254C360.191 319.823 358.218 322.403 358.559 324.56C359.097 327.962 366.736 327.15 367.117 329.556C367.31 330.773 365.78 332.035 359.787 332.502L360.02 334.506C367.691 333.718 369.76 331.207 369.41 328.995C368.862 325.538 361.133 326.137 360.779 323.897C360.604 322.791 361.948 321.614 367.586 321.232L367.188 319.254ZM385.129 330.731L385.048 328.788C378.467 329.659 376.256 328.762 375.527 325.589L384.757 323.901C384.545 319.342 382.192 316.653 378.486 317.239C374.974 317.795 372.601 321.431 373.253 325.552C373.949 329.949 376.634 332.047 385.129 330.731ZM378.392 319.154C380.66 318.795 381.997 320.256 382.436 322.851C380.536 323.208 376.848 323.905 375.308 324.206C375.014 321.276 376.152 319.508 378.392 319.154Z" fill="black"/>
<path d="M230.005 285.999C230.005 285.999 228.592 298.599 228.498 299.591L228.357 299.614C227.957 298.701 222.633 287.183 222.633 287.183L218.683 287.818L222.197 309.684L225.829 309.101L223.272 294.534L223.413 294.511L227.954 304.309L230.176 303.952L231.383 293.23L231.525 293.208L233.659 307.843L237.397 307.242L233.884 285.376L230.005 285.999ZM248.726 305.965C253.417 305.211 256.679 300.744 255.738 294.889C254.82 289.175 251.271 286.453 246.863 287.162C242.207 287.91 238.939 292.559 239.857 298.273C240.769 303.951 244.388 306.662 248.726 305.965ZM248.922 302.677C246.382 303.085 244.409 301.159 243.723 296.892C243.105 293.047 244.345 290.858 246.708 290.479C249.248 290.071 251.221 291.997 251.901 296.229C252.525 300.109 251.285 302.298 248.922 302.677ZM272.24 301.717L275.845 300.957C274.987 296.97 274.027 291.444 272.758 283.544L268.843 284.173C269.755 289.851 270.521 294.395 271.113 297.629C270.174 298.539 269.084 299.185 267.779 299.394C265.98 299.683 264.693 298.877 264.194 295.773L262.477 285.087L258.602 285.963L260.501 297.778C261.192 302.081 263.415 303.532 266.483 303.039C268.917 302.649 270.499 301.237 271.711 299.776L272.24 301.717ZM286.018 284.38C287.817 284.091 289.139 284.892 289.638 287.995L291.338 298.576L295.252 297.947L293.332 285.991C292.646 281.723 290.382 280.242 287.314 280.735C284.88 281.126 283.263 282.544 282.056 284.04L281.521 282.064L277.923 282.859C278.775 286.81 279.735 292.336 281.004 300.236L284.954 299.602C284.047 293.959 283.24 289.385 282.643 286.116C283.623 285.235 284.678 284.595 286.018 284.38ZM314.054 295.216L313.956 291.903C308.578 292.658 306.818 292.29 306.376 289.539L305.073 281.427L311.704 280.362L311.222 277.364L304.591 278.429L303.775 273.351L299.953 274.327L300.712 279.053L297.467 279.574L297.596 282.628L301.193 282.051L302.593 290.762C303.318 295.276 306.176 296.626 314.054 295.216Z" fill="black"/>
<path d="M561.116 185.864L849.116 139.628V528.741L561.116 574.977V185.864Z" fill="#DDD2E6" fill-opacity="0.97"/>
<path d="M597.753 350.126L597.407 346.325L595.028 346.702L595.458 350.489L597.753 350.126ZM605.277 365.066L605.171 363.325L600.083 364.13L598.21 352.293L591.074 353.423L591.158 355.025L596.254 354.445L597.843 364.485L592.754 365.29L593.025 367.004L605.277 365.066ZM616.191 349.334C609.193 349.903 607.22 352.483 607.562 354.64C608.1 358.042 615.739 357.23 616.12 359.636C616.313 360.853 614.783 362.115 608.79 362.582L609.023 364.586C616.694 363.797 618.763 361.287 618.412 359.075C617.865 355.618 610.136 356.217 609.781 353.977C609.606 352.871 610.951 351.694 616.589 351.312L616.191 349.334ZM626.478 361.71L625.603 356.179C630.851 354.952 634.094 352.511 633.446 348.418C632.781 344.214 628.71 342.675 621.473 344.955L624.183 362.074L626.478 361.71ZM631.248 349.219C631.738 352.317 629.558 353.767 625.279 354.133L624.053 346.389C628.414 345.104 630.784 346.288 631.248 349.219ZM649.731 358.03L649.653 356.285L645.229 356.985L642.445 339.396L636.195 340.385L636.255 342.02L640.462 341.553L642.961 357.344L638.563 358.04L638.835 359.755L649.731 358.03ZM658.514 355.166C656.827 355.433 655.589 354.779 655.362 353.34C655.069 351.487 656.53 350.151 661.563 349.893C661.773 351.22 661.958 352.211 662.126 353.092C661.207 354.088 659.869 354.952 658.514 355.166ZM662.903 356.031L664.928 355.569C664.511 353.65 664.098 351.759 663.652 348.938C662.824 343.712 660.464 342.412 652.603 343.43L652.66 345.405C658.752 344.668 660.593 345.199 661.282 348.293C655.223 348.883 652.791 351.423 653.233 354.216C653.578 356.401 655.475 357.461 657.937 357.072C660.066 356.735 661.489 355.517 662.434 354.319C662.585 354.919 662.832 355.759 662.903 356.031ZM669.803 359.9C674.307 358.62 675.405 357.142 676.473 352.069C677.534 347.308 678.333 343.043 678.937 339.517L676.78 339.859C676.363 341.881 675.395 348.299 674.809 351.227L674.532 351.27C672.464 348.054 670.294 344.372 668.392 341.13L666.118 341.631C667.999 344.735 671.592 350.602 673.715 353.809L673.973 353.825C673.383 356.186 672.655 356.784 669.281 357.856L669.803 359.9ZM688.985 335.688L688.639 331.887L686.26 332.263L686.689 336.051L688.985 335.688ZM696.509 350.627L696.403 348.886L691.315 349.692L689.441 337.855L682.306 338.984L682.39 340.587L687.486 340.007L689.074 350.046L683.986 350.852L684.257 352.566L696.509 350.627ZM703.656 337.25C705.371 336.978 706.538 337.729 706.95 340.329L708.285 348.764L710.525 348.409L709.072 339.227C708.546 335.909 706.728 334.807 704.294 335.193C702.358 335.499 701.028 336.588 700.043 337.708L699.66 336.181L697.607 336.648C698.24 339.751 698.996 344.167 699.933 350.085L702.173 349.731C701.424 345.002 700.804 341.443 700.359 338.99C701.297 338.105 702.356 337.455 703.656 337.25ZM716.946 352.297C724.352 350.728 725.749 347.559 725.01 342.885C724.76 341.309 723.587 333.897 723.389 332.823C721.968 332.622 720.661 332.602 719.334 332.812C715.462 333.425 712.544 336.665 713.236 341.035C713.8 344.602 716.327 346.414 719.258 345.95C720.862 345.696 722.07 344.909 722.92 344.009C723.473 347.862 722.738 348.772 716.401 350.286L716.946 352.297ZM719.803 344.021C717.674 344.358 715.838 343.146 715.365 340.159C714.888 337.145 716.455 335.224 718.834 334.848C719.691 334.712 720.547 334.747 721.471 334.855C721.776 336.962 722.403 340.746 722.697 342.599C721.899 343.292 720.882 343.85 719.803 344.021ZM735.817 335.08L735.36 331.835L732.069 332.356L732.554 335.596L735.817 335.08ZM737.036 344.213L736.639 340.988L733.348 341.509L733.745 344.734L737.036 344.213ZM771.077 339.053L771.028 337.133C766.479 337.768 765.083 337.365 764.711 335.014L763.586 327.907L769.117 327.031L768.842 325.289L763.311 326.164L762.685 322.21L760.475 322.758L761.07 326.519L758.498 326.926L758.553 328.703L761.346 328.261L762.528 335.728C763.058 339.075 765.227 340.064 771.077 339.053ZM785.556 336.535L785.478 334.789L780.887 335.516C780.36 332.368 779.885 329.721 779.485 327.375C780.825 326.171 782.693 325.251 785.423 324.593L784.936 322.232C782.195 323.006 780.296 324.44 779.188 326.033C779.059 325.401 778.726 324.008 778.654 323.736L773.4 324.568L773.487 326.198L776.947 325.849C777.459 328.546 777.99 331.722 778.702 335.862L775.107 336.431L775.378 338.145L785.556 336.535ZM799.636 334.363L801.688 333.897C801.055 330.793 800.3 326.377 799.363 320.459L797.123 320.813C797.876 325.57 798.491 329.101 798.932 331.526C798.027 332.435 796.971 333.112 795.672 333.318C793.985 333.585 792.849 332.857 792.429 330.202L791.081 321.684L788.867 322.205L790.307 331.304C790.836 334.65 792.627 335.756 795.033 335.375C796.969 335.069 798.267 333.956 799.252 332.836L799.636 334.363ZM816.595 331.934L816.514 329.991C809.934 330.862 807.722 329.965 806.993 326.792L816.223 325.104C816.012 320.545 813.658 317.856 809.952 318.443C806.44 318.999 804.067 322.634 804.719 326.755C805.415 331.152 808.1 333.25 816.595 331.934ZM809.859 320.357C812.126 319.998 813.463 321.459 813.902 324.054C812.003 324.412 808.314 325.109 806.774 325.409C806.481 322.479 807.618 320.711 809.859 320.357Z" fill="black"/>
<path d="M634.581 310.175L638.834 308.949L632.167 300.324C633.974 298.514 635.185 296.366 634.743 293.615C634.012 289.065 630.161 286.717 619.56 289.868L623.068 311.699L627.053 311.059L625.841 303.511L629.286 302.885L634.581 310.175ZM624.039 292.296C628.216 291.046 630.434 292.245 630.899 295.137C631.205 297.042 630.502 298.746 629.215 299.966L625.387 300.69L624.039 292.296ZM656.035 306.837L655.896 303.494C648.108 304.565 645.276 303.826 644.286 300.367L655.557 298.23C655.211 292.027 652.225 288.527 647.287 289.32C642.667 290.063 639.386 294.859 640.252 300.255C641.17 305.969 644.695 308.767 656.035 306.837ZM647.097 292.643C649.531 292.252 650.902 293.805 651.455 296.574C649.28 296.996 645.735 297.674 643.877 298.045C643.526 294.736 644.699 293.028 647.097 292.643ZM672.486 291.278L661.2 293.091L661.738 296.441L672.742 294.673L672.486 291.278ZM692.754 300.829L697.007 299.603L690.339 290.978C692.147 289.168 693.357 287.02 692.915 284.269C692.184 279.719 688.334 277.371 677.733 280.521L681.241 302.353L685.226 301.712L684.013 294.165L687.458 293.539L692.754 300.829ZM682.211 282.95C686.388 281.7 688.607 282.899 689.072 285.791C689.378 287.695 688.675 289.4 687.387 290.62L683.56 291.343L682.211 282.95ZM714.207 297.49L714.068 294.148C706.281 295.218 703.449 294.479 702.459 291.021L713.729 288.884C713.384 282.681 710.397 279.181 705.46 279.974C700.84 280.716 697.558 285.513 698.425 290.909C699.343 296.622 702.868 299.421 714.207 297.49ZM705.27 283.297C707.704 282.906 709.075 284.458 709.628 287.228C707.453 287.649 703.908 288.328 702.05 288.698C701.699 285.39 702.872 283.682 705.27 283.297ZM724.895 280.289C726.694 280 728.016 280.8 728.515 283.904L730.215 294.484L734.13 293.855L732.209 281.899C731.523 277.632 729.259 276.15 726.191 276.643C723.757 277.034 722.14 278.452 720.933 279.948L720.399 277.972L716.8 278.767C717.652 282.719 718.612 288.244 719.881 296.145L723.831 295.51C722.925 289.867 722.118 285.293 721.52 282.025C722.5 281.144 723.555 280.504 724.895 280.289ZM745.884 289.145C743.45 289.536 741.416 287.909 740.748 283.747C740.124 279.868 741.676 277.592 744.357 277.162C745.132 277.037 746.007 277.077 746.934 277.218C747.614 281.45 748.199 284.866 748.706 287.57C747.967 288.376 747.048 288.958 745.884 289.145ZM749.764 291.452L753.363 290.657C752.563 286.806 751.625 281.421 750.305 273.203L749.104 265.726L745.246 266.708L746.328 273.444C746.04 273.454 745.793 273.494 745.511 273.539C739.939 274.435 735.984 278.869 737.027 285.358C737.865 290.578 741.074 293.21 744.777 292.615C746.787 292.292 748.257 291.079 749.269 289.723L749.764 291.452ZM772.38 288.144L772.241 284.802C764.453 285.872 761.621 285.133 760.631 281.674L771.902 279.538C771.556 273.334 768.57 269.835 763.632 270.628C759.012 271.37 755.731 276.166 756.598 281.563C757.516 287.276 761.04 290.074 772.38 288.144ZM763.443 273.951C765.876 273.56 767.247 275.112 767.801 277.881C765.625 278.303 762.08 278.981 760.222 279.352C759.872 276.044 761.044 274.336 763.443 273.951ZM790.821 284.747L790.662 281.733L785.337 282.589C784.666 278.862 784.155 275.905 783.659 273.271C785.481 272.002 787.813 270.976 790.817 270.312L789.972 266.179C786.725 267.135 784.453 268.983 783.161 271.072C782.949 270.202 782.42 268.261 782.356 268.09L775.091 269.257L775.221 272.094L779.428 271.708C779.997 274.8 780.622 278.462 781.457 283.212L777.19 283.898L777.666 286.861L790.821 284.747Z" fill="black"/>
<path d="M1000.19 185.864L1288.19 139.628V528.741L1000.19 574.977V185.864Z" fill="#DDD2E6" fill-opacity="0.97"/>
<path d="M1029.22 351.329L1028.88 347.529L1026.5 347.905L1026.93 351.692L1029.22 351.329ZM1036.75 366.269L1036.64 364.528L1031.55 365.333L1029.68 353.496L1022.54 354.626L1022.63 356.228L1027.72 355.649L1029.31 365.688L1024.22 366.493L1024.49 368.208L1036.75 366.269ZM1047.66 350.537C1040.66 351.106 1038.69 353.686 1039.03 355.843C1039.57 359.245 1047.21 358.433 1047.59 360.839C1047.78 362.056 1046.25 363.319 1040.26 363.785L1040.49 365.789C1048.16 365.001 1050.23 362.49 1049.88 360.278C1049.33 356.821 1041.6 357.42 1041.25 355.18C1041.08 354.074 1042.42 352.897 1048.06 352.515L1047.66 350.537ZM1057.95 362.913L1057.07 357.382C1062.32 356.155 1065.56 353.714 1064.91 349.621C1064.25 345.417 1060.18 343.879 1052.94 346.158L1055.65 363.277L1057.95 362.913ZM1062.72 350.422C1063.21 353.52 1061.03 354.97 1056.75 355.336L1055.52 347.592C1059.88 346.307 1062.25 347.491 1062.72 350.422ZM1081.2 359.233L1081.12 357.488L1076.7 358.188L1073.91 340.599L1067.66 341.588L1067.72 343.223L1071.93 342.756L1074.43 358.547L1070.03 359.243L1070.3 360.958L1081.2 359.233ZM1089.98 356.369C1088.3 356.636 1087.06 355.982 1086.83 354.544C1086.54 352.691 1088 351.354 1093.03 351.096C1093.24 352.423 1093.43 353.415 1093.6 354.295C1092.68 355.291 1091.34 356.155 1089.98 356.369ZM1094.37 357.234L1096.4 356.772C1095.98 354.853 1095.57 352.963 1095.12 350.142C1094.29 344.915 1091.93 343.616 1084.07 344.633L1084.13 346.608C1090.22 345.871 1092.06 346.402 1092.75 349.496C1086.69 350.086 1084.26 352.626 1084.7 355.419C1085.05 357.604 1086.94 358.665 1089.41 358.275C1091.54 357.938 1092.96 356.721 1093.9 355.522C1094.05 356.122 1094.3 356.962 1094.37 357.234ZM1101.27 361.103C1105.78 359.823 1106.87 358.345 1107.94 353.272C1109 348.512 1109.8 344.246 1110.41 340.72L1108.25 341.062C1107.83 343.084 1106.86 349.502 1106.28 352.43L1106 352.474C1103.93 349.257 1101.76 345.575 1099.86 342.333L1097.59 342.834C1099.47 345.939 1103.06 351.805 1105.18 355.012L1105.44 355.028C1104.85 357.39 1104.12 357.987 1100.75 359.059L1101.27 361.103ZM1120.45 336.891L1120.11 333.09L1117.73 333.467L1118.16 337.254L1120.45 336.891ZM1127.98 351.83L1127.87 350.089L1122.78 350.895L1120.91 339.058L1113.77 340.187L1113.86 341.79L1118.95 341.21L1120.54 351.249L1115.45 352.055L1115.73 353.769L1127.98 351.83ZM1135.12 338.453C1136.84 338.181 1138.01 338.932 1138.42 341.532L1139.75 349.967L1141.99 349.612L1140.54 340.43C1140.02 337.112 1138.2 336.011 1135.76 336.396C1133.83 336.702 1132.5 337.791 1131.51 338.911L1131.13 337.384L1129.08 337.851C1129.71 340.954 1130.46 345.37 1131.4 351.289L1133.64 350.934C1132.89 346.205 1132.27 342.646 1131.83 340.193C1132.77 339.308 1133.83 338.658 1135.12 338.453ZM1148.41 353.5C1155.82 351.931 1157.22 348.762 1156.48 344.088C1156.23 342.512 1155.06 335.1 1154.86 334.026C1153.44 333.825 1152.13 333.805 1150.8 334.016C1146.93 334.628 1144.01 337.868 1144.7 342.238C1145.27 345.805 1147.8 347.617 1150.73 347.153C1152.33 346.899 1153.54 346.112 1154.39 345.213C1154.94 349.066 1154.21 349.976 1147.87 351.489L1148.41 353.5ZM1151.27 345.224C1149.14 345.561 1147.31 344.349 1146.83 341.362C1146.36 338.348 1147.92 336.427 1150.3 336.051C1151.16 335.915 1152.02 335.95 1152.94 336.059C1153.25 338.165 1153.87 341.949 1154.17 343.802C1153.37 344.495 1152.35 345.053 1151.27 345.224ZM1167.29 336.283L1166.83 333.038L1163.54 333.559L1164.02 336.799L1167.29 336.283ZM1168.5 345.417L1168.11 342.191L1164.82 342.712L1165.21 345.937L1168.5 345.417ZM1202.58 338.295L1197.71 339.066L1196.15 329.248L1201.3 328.434L1201.03 326.719L1195.88 327.533L1195.83 327.201C1195.38 324.325 1195.95 323.497 1201.25 322.403L1200.74 320.244C1194.57 321.561 1193.08 324.32 1193.64 327.888L1189.96 328.47L1190.04 330.215L1193.91 329.602L1195.47 339.42L1191.76 340.007L1192.03 341.694L1202.65 340.013L1202.58 338.295ZM1211.63 337.118C1209.94 337.385 1208.7 336.731 1208.47 335.292C1208.18 333.44 1209.64 332.103 1214.67 331.845C1214.88 333.172 1215.07 334.163 1215.24 335.044C1214.32 336.04 1212.98 336.904 1211.63 337.118ZM1216.01 337.983L1218.04 337.521C1217.62 335.602 1217.21 333.711 1216.76 330.891C1215.94 325.664 1213.58 324.365 1205.71 325.382L1205.77 327.357C1211.86 326.62 1213.7 327.151 1214.39 330.245C1208.33 330.835 1205.9 333.375 1206.34 336.168C1206.69 338.353 1208.59 339.413 1211.05 339.024C1213.18 338.687 1214.6 337.469 1215.55 336.271C1215.7 336.871 1215.94 337.711 1216.01 337.983ZM1233.25 335.17L1233.18 333.424L1228.75 334.124L1225.97 316.535L1219.72 317.525L1219.78 319.159L1223.98 318.692L1226.48 334.483L1222.09 335.179L1222.36 336.894L1233.25 335.17ZM1245.33 319.254C1238.33 319.823 1236.36 322.403 1236.7 324.56C1237.24 327.962 1244.88 327.15 1245.26 329.556C1245.45 330.773 1243.92 332.035 1237.93 332.502L1238.16 334.506C1245.83 333.718 1247.9 331.207 1247.55 328.995C1247 325.538 1239.27 326.137 1238.92 323.897C1238.74 322.791 1240.09 321.614 1245.73 321.232L1245.33 319.254ZM1263.27 330.731L1263.19 328.788C1256.61 329.659 1254.4 328.762 1253.67 325.589L1262.9 323.901C1262.69 319.342 1260.33 316.653 1256.63 317.239C1253.11 317.795 1250.74 321.431 1251.39 325.552C1252.09 329.949 1254.77 332.047 1263.27 330.731ZM1256.53 319.154C1258.8 318.795 1260.14 320.256 1260.58 322.851C1258.68 323.208 1254.99 323.905 1253.45 324.206C1253.15 321.276 1254.29 319.508 1256.53 319.154Z" fill="black"/>
<path d="M1073.65 310.175L1077.9 308.949L1071.24 300.324C1073.04 298.514 1074.26 296.366 1073.81 293.615C1073.08 289.065 1069.23 286.717 1058.63 289.868L1062.14 311.699L1066.12 311.059L1064.91 303.511L1068.36 302.885L1073.65 310.175ZM1063.11 292.296C1067.29 291.046 1069.5 292.245 1069.97 295.137C1070.28 297.042 1069.57 298.746 1068.29 299.966L1064.46 300.69L1063.11 292.296ZM1095.11 306.837L1094.97 303.494C1087.18 304.565 1084.35 303.826 1083.36 300.367L1094.63 298.23C1094.28 292.027 1091.3 288.527 1086.36 289.32C1081.74 290.063 1078.46 294.859 1079.32 300.255C1080.24 305.969 1083.77 308.767 1095.11 306.837ZM1086.17 292.643C1088.6 292.252 1089.97 293.805 1090.53 296.574C1088.35 296.996 1084.81 297.674 1082.95 298.045C1082.6 294.736 1083.77 293.028 1086.17 292.643ZM1111.56 291.278L1100.27 293.091L1100.81 296.441L1111.81 294.673L1111.56 291.278ZM1131.82 300.829L1136.08 299.603L1129.41 290.978C1131.22 289.168 1132.43 287.02 1131.99 284.269C1131.25 279.719 1127.4 277.371 1116.8 280.521L1120.31 302.353L1124.3 301.712L1123.08 294.165L1126.53 293.539L1131.82 300.829ZM1121.28 282.95C1125.46 281.7 1127.68 282.899 1128.14 285.791C1128.45 287.695 1127.74 289.4 1126.46 290.62L1122.63 291.343L1121.28 282.95ZM1153.28 297.49L1153.14 294.148C1145.35 295.218 1142.52 294.479 1141.53 291.021L1152.8 288.884C1152.45 282.681 1149.47 279.181 1144.53 279.974C1139.91 280.716 1136.63 285.513 1137.5 290.909C1138.41 296.622 1141.94 299.421 1153.28 297.49ZM1144.34 283.297C1146.77 282.906 1148.14 284.458 1148.7 287.228C1146.52 287.649 1142.98 288.328 1141.12 288.698C1140.77 285.39 1141.94 283.682 1144.34 283.297ZM1163.97 280.289C1165.76 280 1167.09 280.8 1167.59 283.904L1169.29 294.484L1173.2 293.855L1171.28 281.899C1170.59 277.632 1168.33 276.15 1165.26 276.643C1162.83 277.034 1161.21 278.452 1160 279.948L1159.47 277.972L1155.87 278.767C1156.72 282.719 1157.68 288.244 1158.95 296.145L1162.9 295.51C1162 289.867 1161.19 285.293 1160.59 282.025C1161.57 281.144 1162.63 280.504 1163.97 280.289ZM1184.95 289.145C1182.52 289.536 1180.49 287.909 1179.82 283.747C1179.19 279.868 1180.75 277.592 1183.43 277.162C1184.2 277.037 1185.08 277.077 1186 277.218C1186.68 281.45 1187.27 284.866 1187.78 287.57C1187.04 288.376 1186.12 288.958 1184.95 289.145ZM1188.83 291.452L1192.43 290.657C1191.63 286.806 1190.7 281.421 1189.38 273.203L1188.17 265.726L1184.32 266.708L1185.4 273.444C1185.11 273.454 1184.86 273.494 1184.58 273.539C1179.01 274.435 1175.05 278.869 1176.1 285.358C1176.94 290.578 1180.14 293.21 1183.85 292.615C1185.86 292.292 1187.33 291.079 1188.34 289.723L1188.83 291.452ZM1211.45 288.144L1211.31 284.802C1203.52 285.872 1200.69 285.133 1199.7 281.674L1210.97 279.538C1210.63 273.334 1207.64 269.835 1202.7 270.628C1198.08 271.37 1194.8 276.166 1195.67 281.563C1196.59 287.276 1200.11 290.074 1211.45 288.144ZM1202.51 273.951C1204.95 273.56 1206.32 275.112 1206.87 277.881C1204.7 278.303 1201.15 278.981 1199.29 279.352C1198.94 276.044 1200.11 274.336 1202.51 273.951ZM1229.89 284.747L1229.73 281.733L1224.41 282.589C1223.74 278.862 1223.22 275.905 1222.73 273.271C1224.55 272.002 1226.88 270.976 1229.89 270.312L1229.04 266.179C1225.8 267.135 1223.52 268.983 1222.23 271.072C1222.02 270.202 1221.49 268.261 1221.43 268.09L1214.16 269.257L1214.29 272.094L1218.5 271.708C1219.07 274.8 1219.69 278.462 1220.53 283.212L1216.26 283.898L1216.74 286.861L1229.89 284.747Z" fill="black"/>
<path d="M561 573.889L849 527.653V674.161L561 720.397V573.889Z" fill="#A8F4C6" fill-opacity="0.97"/>
<path d="M635.784 645.118C627.493 646.884 624.728 644.76 623.804 639.011C623.039 634.25 624.142 631.432 633.164 630.163L632.329 626.318C621.5 628.274 618.712 634.113 619.692 640.215C620.757 646.845 624.848 651.362 635.986 648.631L635.784 645.118ZM655.566 645.341L655.408 642.327L649.976 643.2L646.491 621.51L637.639 622.932L637.734 625.775L643.034 625.213L646.026 643.834L640.595 644.707L641.071 647.67L655.566 645.341ZM674.461 642.739L674.322 639.397C666.534 640.467 663.702 639.728 662.712 636.269L673.983 634.133C673.637 627.93 670.651 624.43 665.713 625.223C661.093 625.965 657.812 630.762 658.678 636.158C659.596 641.871 663.121 644.67 674.461 642.739ZM665.523 628.546C667.957 628.155 669.328 629.707 669.881 632.477C667.706 632.898 664.161 633.577 662.303 633.947C661.952 630.639 663.125 628.931 665.523 628.546ZM685.928 637.822C684.13 638.111 682.818 637.381 682.569 635.829C682.257 633.889 683.516 632.493 689.038 632.184C689.306 633.625 689.493 634.789 689.728 635.8C688.63 636.845 687.269 637.606 685.928 637.822ZM690.873 639.777L694.442 639.022C693.875 636.617 693.286 633.854 692.737 630.433C691.637 623.59 688.641 621.829 678.032 623.352L678.177 626.73C685.764 625.764 687.834 626.264 688.59 629.616C681.132 630.488 678.27 633.842 678.837 637.369C679.296 640.226 681.725 641.608 684.864 641.104C687.403 640.696 689.085 639.232 690.216 637.712C690.458 638.541 690.815 639.641 690.873 639.777ZM704.539 622.422C706.338 622.133 707.661 622.934 708.159 626.037L709.859 636.618L713.774 635.989L711.853 624.033C711.168 619.765 708.903 618.284 705.835 618.777C703.402 619.168 701.784 620.585 700.577 622.082L700.043 620.105L696.444 620.901C697.296 624.852 698.256 630.378 699.526 638.278L703.476 637.643C702.569 632 701.762 627.427 701.164 624.158C702.144 623.277 703.199 622.637 704.539 622.422ZM729.544 633.528L733.148 632.768C732.29 628.781 731.33 623.255 730.061 615.355L726.146 615.984C727.058 621.662 727.825 626.206 728.416 629.44C727.477 630.35 726.387 630.996 725.082 631.205C723.284 631.494 721.996 630.688 721.498 627.584L719.781 616.898L715.906 617.774L717.804 629.589C718.495 633.892 720.718 635.343 723.787 634.851C726.22 634.46 727.802 633.048 729.015 631.587L729.544 633.528ZM744.15 628.106C743.304 628.242 742.611 628.208 741.79 628.051C741.018 623.471 740.426 620.238 739.988 617.74C740.827 616.881 741.852 616.282 742.911 616.112C745.274 615.733 747.33 617.501 747.982 621.557C748.605 625.436 746.83 627.675 744.15 628.106ZM743.257 637.185L742.396 631.824C742.719 631.809 743.001 631.763 743.319 631.712C748.82 630.828 752.74 626.4 751.709 619.981C750.887 614.867 747.65 612.059 743.982 612.648C741.936 612.977 740.473 614.225 739.431 615.622L738.966 613.852L735.402 614.642C736.14 618.105 736.974 623.072 738.43 632.136L739.399 638.167L743.257 637.185ZM791.867 623.442L791.657 620.111L786.367 620.961L783.267 601.669L779.544 602.593L779.958 605.168L774.617 606.604L775.147 609.45L780.485 608.447L782.593 621.567L776.668 622.519L777.195 625.799L791.867 623.442Z" fill="black"/>
<path d="M561 712.236L849 666V812.508L561 858.744V712.236Z" fill="#FEE198" fill-opacity="0.98"/>
<path d="M644.775 784.949L634.971 786.524L633.985 780.387L642.202 779.067L641.726 776.104L633.509 777.425L632.545 771.429L642.138 769.888L641.594 766.502L627.945 768.695L631.459 790.561L645.002 788.385L644.775 784.949ZM663.605 782.394L658.032 783.289L656.282 772.391L662.207 771.439L661.725 768.441L655.8 769.393L655.698 768.758C655.194 765.619 655.773 764.947 662.158 763.705L661.299 759.935C653.15 761.679 651.154 765.473 651.879 769.987L651.885 770.022L647.582 770.713L647.711 773.768L652.367 773.02L654.118 783.918L649.674 784.632L650.144 787.559L663.723 785.378L663.605 782.394ZM682.996 779.278L677.423 780.174L675.672 769.276L681.598 768.324L681.116 765.326L675.191 766.278L675.089 765.643C674.584 762.504 675.164 761.832 681.549 760.589L680.69 756.82C672.54 758.563 670.545 762.357 671.27 766.871L671.276 766.907L666.973 767.598L667.102 770.653L671.758 769.905L673.509 780.803L669.065 781.517L669.535 784.444L683.113 782.262L682.996 779.278ZM702.678 779.553L702.539 776.211C694.752 777.281 691.919 776.542 690.93 773.083L702.2 770.947C701.854 764.743 698.868 761.244 693.93 762.037C689.31 762.779 686.029 767.576 686.896 772.972C687.814 778.685 691.339 781.483 702.678 779.553ZM693.741 765.36C696.174 764.969 697.545 766.521 698.099 769.29C695.923 769.712 692.378 770.39 690.52 770.761C690.17 767.453 691.342 765.745 693.741 765.36ZM706.81 769.736C707.683 775.167 711.238 778.829 722.059 776.15L721.926 772.843C714.099 774.571 711.336 773.133 710.61 768.619C710.066 765.233 711.084 763.007 719.911 761.879L719.069 758.215C708.564 759.939 706.022 764.834 706.81 769.736ZM741.402 773.187L741.304 769.874C735.926 770.63 734.166 770.261 733.724 767.51L732.421 759.398L739.052 758.333L738.57 755.335L731.939 756.401L731.123 751.322L727.301 752.298L728.06 757.024L724.815 757.545L724.944 760.6L728.542 760.022L729.941 768.733C730.666 773.247 733.524 774.597 741.402 773.187ZM780.844 766.56L780.3 763.175L770.389 764.767C775.537 759.2 778.477 755.436 777.763 750.992C777.18 747.359 773.741 744.873 763.671 746.599L763.938 750.283C771.326 749.204 773.652 750.169 774.048 752.638C774.57 755.883 771.517 759.629 765.744 765.803L766.63 768.844L780.844 766.56Z" fill="black"/>
<path d="M1001 574.236L1289 528V674.508L1001 720.744V574.236Z" fill="#A8F4C6" fill-opacity="0.97"/>
<path d="M1075.78 645.465C1067.49 647.232 1064.73 645.107 1063.8 639.358C1063.04 634.597 1064.14 631.779 1073.16 630.51L1072.33 626.665C1061.5 628.622 1058.71 634.46 1059.69 640.562C1060.76 647.192 1064.85 651.709 1075.99 648.978L1075.78 645.465ZM1095.57 645.688L1095.41 642.674L1089.98 643.547L1086.49 621.857L1077.64 623.279L1077.73 626.122L1083.03 625.56L1086.03 644.182L1080.59 645.054L1081.07 648.017L1095.57 645.688ZM1114.46 643.086L1114.32 639.744C1106.53 640.814 1103.7 640.075 1102.71 636.617L1113.98 634.48C1113.64 628.277 1110.65 624.777 1105.71 625.57C1101.09 626.313 1097.81 631.109 1098.68 636.505C1099.6 642.218 1103.12 645.017 1114.46 643.086ZM1105.52 628.893C1107.96 628.502 1109.33 630.055 1109.88 632.824C1107.71 633.246 1104.16 633.924 1102.3 634.295C1101.95 630.986 1103.13 629.278 1105.52 628.893ZM1125.93 638.169C1124.13 638.458 1122.82 637.728 1122.57 636.176C1122.26 634.236 1123.52 632.84 1129.04 632.532C1129.31 633.972 1129.49 635.136 1129.73 636.147C1128.63 637.192 1127.27 637.953 1125.93 638.169ZM1130.87 640.124L1134.44 639.37C1133.88 636.964 1133.29 634.201 1132.74 630.78C1131.64 623.938 1128.64 622.176 1118.03 623.7L1118.18 627.077C1125.76 626.111 1127.83 626.611 1128.59 629.963C1121.13 630.835 1118.27 634.189 1118.84 637.716C1119.3 640.573 1121.72 641.956 1124.86 641.451C1127.4 641.043 1129.09 639.579 1130.22 638.059C1130.46 638.888 1130.82 639.988 1130.87 640.124ZM1144.54 622.769C1146.34 622.48 1147.66 623.281 1148.16 626.384L1149.86 636.965L1153.77 636.336L1151.85 624.38C1151.17 620.112 1148.9 618.631 1145.84 619.124C1143.4 619.515 1141.78 620.933 1140.58 622.429L1140.04 620.453L1136.44 621.248C1137.3 625.199 1138.26 630.725 1139.53 638.625L1143.48 637.991C1142.57 632.348 1141.76 627.774 1141.16 624.505C1142.14 623.624 1143.2 622.985 1144.54 622.769ZM1169.54 633.875L1173.15 633.115C1172.29 629.128 1171.33 623.602 1170.06 615.702L1166.15 616.331C1167.06 622.009 1167.82 626.553 1168.42 629.787C1167.48 630.697 1166.39 631.343 1165.08 631.553C1163.28 631.841 1162 631.035 1161.5 627.932L1159.78 617.245L1155.91 618.121L1157.8 629.936C1158.5 634.239 1160.72 635.691 1163.79 635.198C1166.22 634.807 1167.8 633.395 1169.01 631.934L1169.54 633.875ZM1184.15 628.453C1183.3 628.589 1182.61 628.555 1181.79 628.398C1181.02 623.819 1180.43 620.585 1179.99 618.087C1180.83 617.228 1181.85 616.63 1182.91 616.46C1185.27 616.08 1187.33 617.848 1187.98 621.904C1188.61 625.783 1186.83 628.022 1184.15 628.453ZM1183.26 637.532L1182.4 632.172C1182.72 632.156 1183 632.111 1183.32 632.06C1188.82 631.176 1192.74 626.747 1191.71 620.328C1190.89 615.214 1187.65 612.406 1183.98 612.995C1181.94 613.324 1180.47 614.572 1179.43 615.969L1178.97 614.199L1175.4 614.989C1176.14 618.452 1176.97 623.419 1178.43 632.483L1179.4 638.514L1183.26 637.532ZM1231.41 623.863L1230.86 620.477L1220.95 622.069C1226.1 616.503 1229.04 612.738 1228.33 608.294C1227.74 604.662 1224.31 602.175 1214.24 603.901L1214.5 607.585C1221.89 606.507 1224.22 607.472 1224.61 609.94C1225.13 613.185 1222.08 616.932 1216.31 623.105L1217.19 626.147L1231.41 623.863Z" fill="black"/>
<path d="M1442 332.236L1730 286V432.508L1442 478.744V332.236Z" fill="#A8F4C6" fill-opacity="0.97"/>
<path d="M1516.78 403.465C1508.49 405.232 1505.73 403.107 1504.8 397.358C1504.04 392.597 1505.14 389.779 1514.16 388.51L1513.33 384.665C1502.5 386.622 1499.71 392.46 1500.69 398.562C1501.76 405.192 1505.85 409.709 1516.99 406.978L1516.78 403.465ZM1536.57 403.688L1536.41 400.674L1530.98 401.547L1527.49 379.857L1518.64 381.279L1518.73 384.122L1524.03 383.56L1527.03 402.182L1521.59 403.054L1522.07 406.017L1536.57 403.688ZM1555.46 401.086L1555.32 397.744C1547.53 398.814 1544.7 398.075 1543.71 394.617L1554.98 392.48C1554.64 386.277 1551.65 382.777 1546.71 383.57C1542.09 384.313 1538.81 389.109 1539.68 394.505C1540.6 400.218 1544.12 403.017 1555.46 401.086ZM1546.52 386.893C1548.96 386.502 1550.33 388.055 1550.88 390.824C1548.71 391.246 1545.16 391.924 1543.3 392.295C1542.95 388.986 1544.13 387.278 1546.52 386.893ZM1566.93 396.169C1565.13 396.458 1563.82 395.728 1563.57 394.176C1563.26 392.236 1564.52 390.84 1570.04 390.532C1570.31 391.972 1570.49 393.136 1570.73 394.147C1569.63 395.192 1568.27 395.953 1566.93 396.169ZM1571.87 398.124L1575.44 397.37C1574.88 394.964 1574.29 392.201 1573.74 388.78C1572.64 381.938 1569.64 380.176 1559.03 381.7L1559.18 385.077C1566.76 384.111 1568.83 384.611 1569.59 387.963C1562.13 388.835 1559.27 392.189 1559.84 395.716C1560.3 398.573 1562.72 399.956 1565.86 399.451C1568.4 399.043 1570.09 397.579 1571.22 396.059C1571.46 396.888 1571.82 397.988 1571.87 398.124ZM1585.54 380.769C1587.34 380.48 1588.66 381.281 1589.16 384.384L1590.86 394.965L1594.77 394.336L1592.85 382.38C1592.17 378.112 1589.9 376.631 1586.84 377.124C1584.4 377.515 1582.78 378.933 1581.58 380.429L1581.04 378.453L1577.44 379.248C1578.3 383.199 1579.26 388.725 1580.53 396.625L1584.48 395.991C1583.57 390.348 1582.76 385.774 1582.16 382.505C1583.14 381.624 1584.2 380.985 1585.54 380.769ZM1610.54 391.875L1614.15 391.115C1613.29 387.128 1612.33 381.602 1611.06 373.702L1607.15 374.331C1608.06 380.009 1608.82 384.553 1609.42 387.787C1608.48 388.697 1607.39 389.343 1606.08 389.553C1604.28 389.841 1603 389.035 1602.5 385.932L1600.78 375.245L1596.91 376.121L1598.8 387.936C1599.5 392.239 1601.72 393.691 1604.79 393.198C1607.22 392.807 1608.8 391.395 1610.01 389.934L1610.54 391.875ZM1625.15 386.453C1624.3 386.589 1623.61 386.555 1622.79 386.398C1622.02 381.819 1621.43 378.585 1620.99 376.087C1621.83 375.228 1622.85 374.63 1623.91 374.46C1626.27 374.08 1628.33 375.848 1628.98 379.904C1629.61 383.783 1627.83 386.022 1625.15 386.453ZM1624.26 395.532L1623.4 390.172C1623.72 390.156 1624 390.111 1624.32 390.06C1629.82 389.176 1633.74 384.747 1632.71 378.328C1631.89 373.214 1628.65 370.406 1624.98 370.995C1622.94 371.324 1621.47 372.572 1620.43 373.969L1619.97 372.199L1616.4 372.989C1617.14 376.452 1617.97 381.419 1619.43 390.483L1620.4 396.514L1624.26 395.532ZM1658.69 384.537C1668.21 382.502 1671.81 379.064 1671.21 375.29C1670.81 372.822 1668.34 370.975 1662.38 370.811L1668.8 363.484L1667.98 360.144L1655.14 362.206L1655.68 365.592L1664.85 364.119L1658.1 371.825L1658.38 373.589C1664.78 373.321 1667.22 374.592 1667.48 376.179C1667.76 377.907 1665.52 379.315 1657.84 381.02L1658.69 384.537Z" fill="black"/>
<path d="M1001 712.583L1289 666.347V812.856L1001 859.091V712.583Z" fill="#FEE198" fill-opacity="0.98"/>
<path d="M1084.78 785.296L1074.97 786.871L1073.98 780.734L1082.2 779.414L1081.73 776.452L1073.51 777.772L1072.55 771.776L1082.14 770.235L1081.59 766.849L1067.95 769.042L1071.46 790.909L1085 788.733L1084.78 785.296ZM1103.6 782.741L1098.03 783.636L1096.28 772.738L1102.21 771.786L1101.73 768.788L1095.8 769.74L1095.7 769.106C1095.19 765.967 1095.77 765.295 1102.16 764.052L1101.3 760.282C1093.15 762.026 1091.15 765.82 1091.88 770.334L1091.89 770.369L1087.58 771.061L1087.71 774.115L1092.37 773.367L1094.12 784.265L1089.67 784.979L1090.14 787.906L1103.72 785.725L1103.6 782.741ZM1123 779.625L1117.42 780.521L1115.67 769.623L1121.6 768.671L1121.12 765.673L1115.19 766.625L1115.09 765.99C1114.58 762.851 1115.16 762.179 1121.55 760.936L1120.69 757.167C1112.54 758.91 1110.54 762.704 1111.27 767.219L1111.28 767.254L1106.97 767.945L1107.1 771L1111.76 770.252L1113.51 781.15L1109.06 781.864L1109.54 784.791L1123.11 782.609L1123 779.625ZM1142.68 779.9L1142.54 776.558C1134.75 777.628 1131.92 776.889 1130.93 773.43L1142.2 771.294C1141.85 765.091 1138.87 761.591 1133.93 762.384C1129.31 763.126 1126.03 767.923 1126.9 773.319C1127.81 779.032 1131.34 781.831 1142.68 779.9ZM1133.74 765.707C1136.17 765.316 1137.55 766.868 1138.1 769.638C1135.92 770.059 1132.38 770.738 1130.52 771.108C1130.17 767.8 1131.34 766.092 1133.74 765.707ZM1146.81 770.083C1147.68 775.514 1151.24 779.176 1162.06 776.497L1161.93 773.19C1154.1 774.918 1151.34 773.48 1150.61 768.966C1150.07 765.58 1151.08 763.355 1159.91 762.226L1159.07 758.562C1148.56 760.286 1146.02 765.181 1146.81 770.083ZM1181.4 773.534L1181.3 770.221C1175.93 770.977 1174.17 770.608 1173.72 767.857L1172.42 759.746L1179.05 758.68L1178.57 755.682L1171.94 756.748L1171.12 751.669L1167.3 752.645L1168.06 757.371L1164.82 757.892L1164.94 760.947L1168.54 760.369L1169.94 769.08C1170.67 773.595 1173.52 774.944 1181.4 773.534ZM1207.13 769.582C1216.64 767.547 1220.25 764.109 1219.64 760.335C1219.25 757.866 1216.78 756.02 1210.82 755.856L1217.24 748.529L1216.41 745.188L1203.58 747.251L1204.12 750.637L1213.29 749.164L1206.53 756.87L1206.82 758.633C1213.21 758.365 1215.66 759.636 1215.91 761.224C1216.19 762.952 1213.96 764.36 1206.27 766.065L1207.13 769.582Z" fill="black"/>
<path d="M122.047 575.073L410.047 528.837V675.345L122.047 721.581V575.073Z" fill="#FEE198" fill-opacity="0.98"/>
<path d="M205.822 644.786L196.017 646.361L195.031 640.224L203.249 638.904L202.773 635.941L194.556 637.262L193.592 631.266L203.185 629.725L202.641 626.339L188.992 628.532L192.506 650.398L206.049 648.222L205.822 644.786ZM224.652 642.231L219.079 643.126L217.328 632.228L223.254 631.276L222.772 628.278L216.847 629.23L216.745 628.595C216.24 625.456 216.82 624.784 223.205 623.542L222.346 619.772C214.196 621.516 212.201 625.309 212.926 629.824L212.932 629.859L208.629 630.55L208.758 633.605L213.414 632.857L215.165 643.755L210.721 644.469L211.191 647.396L224.769 645.215L224.652 642.231ZM244.043 639.115L238.47 640.011L236.719 629.113L242.644 628.161L242.163 625.163L236.238 626.115L236.136 625.48C235.631 622.341 236.211 621.669 242.596 620.426L241.737 616.657C233.587 618.4 231.592 622.194 232.317 626.708L232.323 626.744L228.02 627.435L228.149 630.489L232.804 629.741L234.555 640.64L230.112 641.353L230.582 644.281L244.16 642.099L244.043 639.115ZM263.725 639.39L263.586 636.048C255.799 637.118 252.966 636.379 251.977 632.92L263.247 630.784C262.901 624.58 259.915 621.08 254.977 621.874C250.357 622.616 247.076 627.412 247.943 632.809C248.861 638.522 252.385 641.32 263.725 639.39ZM254.788 625.197C257.221 624.806 258.592 626.358 259.146 629.127C256.97 629.549 253.425 630.227 251.567 630.598C251.217 627.29 252.389 625.582 254.788 625.197ZM267.857 629.573C268.73 635.004 272.285 638.666 283.106 635.987L282.972 632.68C275.146 634.407 272.382 632.97 271.657 628.456C271.113 625.07 272.13 622.844 280.958 621.716L280.116 618.052C269.611 619.776 267.069 624.67 267.857 629.573ZM302.449 633.024L302.351 629.711C296.973 630.467 295.213 630.098 294.771 627.347L293.468 619.235L300.098 618.17L299.617 615.172L292.986 616.237L292.17 611.159L288.347 612.135L289.107 616.861L285.862 617.382L285.991 620.437L289.588 619.859L290.988 628.57C291.713 633.084 294.571 634.434 302.449 633.024ZM342.349 626.324L342.139 622.993L336.849 623.843L333.75 604.551L330.027 605.474L330.441 608.049L325.1 609.486L325.629 612.331L330.967 611.329L333.075 624.449L327.15 625.401L327.677 628.681L342.349 626.324Z" fill="black"/>
</svg>
