<svg width="1920" height="986" viewBox="0 0 1920 986" fill="none" xmlns="http://www.w3.org/2000/svg">
<path d="M0 0H1920V986H0V0Z" fill="#F2F2F2"/>
<path d="M648.526 724.075L650.812 722.682L648.741 717.717L653.813 715.716L653.206 713.18L647.812 713.609L647.49 708.179L644.811 708L643.561 713.287L638.381 711.823L637.346 714.287L641.989 717.181L639.06 721.61L641.061 723.396L645.168 719.896L648.526 724.075ZM658.057 729.362V733.041C668.737 733.469 672.559 729.79 672.559 726.29C672.559 721.003 662.236 719.538 662.236 716.216C662.236 714.609 664.022 713.644 671.202 714.144L670.988 710.465C661.772 709.965 657.985 713.466 657.985 716.788C657.985 721.896 668.309 723.182 668.309 726.79C668.309 728.647 665.594 729.933 658.057 729.362ZM683.983 729.826C683.126 729.826 682.447 729.683 681.661 729.397C681.626 724.754 681.554 721.467 681.518 718.931C682.483 718.217 683.59 717.788 684.662 717.788C687.055 717.788 688.805 719.86 688.805 723.968C688.805 727.897 686.698 729.826 683.983 729.826ZM681.661 738.649V733.219C681.983 733.255 682.268 733.255 682.59 733.255C688.162 733.255 692.735 729.504 692.735 723.003C692.735 717.824 689.984 714.537 686.269 714.537C684.197 714.537 682.554 715.538 681.304 716.752L681.125 714.93L677.482 715.145C677.661 718.681 677.696 723.718 677.696 732.898V739.006L681.661 738.649ZM703.515 730.183C701.694 730.183 700.515 729.254 700.515 727.683C700.515 725.718 701.979 724.539 707.48 725.111C707.516 726.575 707.516 727.754 707.588 728.79C706.337 729.647 704.873 730.183 703.515 730.183ZM708.088 732.898L711.731 732.719C711.553 730.255 711.41 727.433 711.41 723.968C711.41 717.038 708.731 714.823 698.014 714.645L697.622 718.002C705.266 718.252 707.23 719.074 707.445 722.503C699.943 722.182 696.586 725.039 696.586 728.611C696.586 731.505 698.765 733.255 701.944 733.255C704.516 733.255 706.409 732.076 707.766 730.755C707.873 731.612 708.052 732.755 708.088 732.898ZM716.69 724.182C716.69 729.683 719.619 733.862 730.728 732.934L731.121 729.647C723.119 730.112 720.619 728.254 720.619 723.682C720.619 720.253 721.976 718.217 730.871 718.502L730.621 714.752C719.976 714.787 716.69 719.217 716.69 724.182ZM750.332 733.219L750.725 729.897C742.866 729.719 740.187 728.54 739.758 724.968L751.225 724.646C751.868 718.467 749.474 714.537 744.473 714.537C739.794 714.537 735.793 718.752 735.793 724.218C735.793 730.005 738.83 733.327 750.332 733.219ZM743.759 717.788C746.224 717.788 747.331 719.538 747.438 722.36C745.224 722.432 741.616 722.539 739.723 722.61C739.901 719.288 741.33 717.788 743.759 717.788ZM766.363 724.075L768.65 722.682L766.578 717.717L771.65 715.716L771.043 713.18L765.649 713.609L765.327 708.179L762.648 708L761.398 713.287L756.219 711.823L755.183 714.287L759.826 717.181L756.897 721.61L758.898 723.396L763.006 719.896L766.363 724.075ZM590.803 751.556C584.106 751.047 581.855 753.19 581.855 755.28C581.855 758.575 589.196 758.95 589.196 761.281C589.196 762.46 587.562 763.424 581.828 762.969L581.748 764.898C589.116 765.3 591.446 763.237 591.446 761.094C591.446 757.745 584.052 757.155 584.052 754.985C584.052 753.914 585.499 753.003 590.884 753.485L590.803 751.556ZM606.042 765.085L606.256 763.237C599.907 763.076 597.951 761.897 597.737 758.79L606.712 758.575C607.194 754.235 605.372 751.342 601.782 751.342C598.38 751.342 595.594 754.423 595.594 758.415C595.594 762.674 597.817 765.059 606.042 765.085ZM601.407 753.137C603.604 753.137 604.649 754.717 604.676 757.236C602.827 757.289 599.237 757.397 597.737 757.45C597.898 754.637 599.237 753.137 601.407 753.137ZM620.879 765.005L621.12 763.183C616.726 763.103 615.467 762.514 615.467 760.236V753.351H620.825V751.663H615.467V747.832L613.297 748.02V751.663H610.806L610.591 753.351H613.297V760.585C613.297 763.826 615.199 765.085 620.879 765.005ZM631.751 749.949H635.876V748.181H625.428V749.949H629.527V763.023H625.428V764.791H635.823L635.984 763.023H631.751V749.949ZM649.722 751.556C643.024 751.047 640.774 753.19 640.774 755.28C640.774 758.575 648.115 758.95 648.115 761.281C648.115 762.46 646.48 763.424 640.747 762.969L640.667 764.898C648.034 765.3 650.365 763.237 650.365 761.094C650.365 757.745 642.971 757.155 642.971 754.985C642.971 753.914 644.417 753.003 649.802 753.485L649.722 751.556ZM657.593 764.791V759.433C662.737 759.058 666.166 757.236 666.166 753.271C666.166 749.199 662.549 747.136 655.37 748.207V764.791H657.593ZM663.969 753.699C663.969 756.7 661.692 757.745 657.593 757.45V749.949C661.906 749.386 663.969 750.86 663.969 753.699ZM680.119 764.791L680.306 763.13H676.02V746.091H669.965L669.778 747.645L673.823 747.832V763.13H669.563V764.791H680.119ZM688.847 763.398C687.213 763.398 686.142 762.594 686.142 761.201C686.142 759.406 687.722 758.361 692.518 758.87C692.518 760.156 692.545 761.12 692.571 761.978C691.553 762.781 690.16 763.398 688.847 763.398ZM692.866 764.871L694.849 764.737C694.741 762.862 694.634 761.013 694.634 758.281C694.634 753.217 692.598 751.637 685.016 751.422L684.775 753.298C690.642 753.512 692.303 754.289 692.491 757.316C686.677 756.968 683.998 759.004 683.998 761.71C683.998 763.826 685.633 765.112 688.017 765.112C690.08 765.112 691.607 764.175 692.679 763.183C692.732 763.773 692.839 764.603 692.866 764.871ZM698.808 769.56C703.256 769.024 704.515 767.791 706.283 763.157C707.998 758.816 709.391 754.905 710.489 751.663H708.399C707.703 753.512 705.828 759.433 704.836 762.112H704.568C703.095 758.763 701.595 754.959 700.282 751.61L698.058 751.744C699.371 754.959 701.889 761.04 703.416 764.389L703.657 764.442C702.747 766.586 701.97 767.041 698.621 767.55L698.808 769.56ZM720.557 749.547L720.798 745.903H718.494L718.334 749.547H720.557ZM725.433 764.791L725.594 763.13H720.664V751.663H713.752L713.592 753.19L718.494 753.405V763.13H713.565V764.791H725.433ZM734.188 753.217C735.849 753.217 736.841 754.101 736.841 756.62V764.791H739.011V755.896C739.011 752.681 737.457 751.369 735.099 751.369C733.224 751.369 731.804 752.199 730.706 753.11L730.572 751.61L728.562 751.744C728.696 754.771 728.75 759.058 728.75 764.791H730.92C730.92 760.21 730.866 756.754 730.813 754.369C731.831 753.673 732.929 753.217 734.188 753.217ZM744.498 769.426C751.731 769.05 753.526 766.264 753.526 761.737C753.526 760.21 753.526 753.03 753.499 751.985C752.187 751.583 750.954 751.369 749.668 751.369C745.918 751.369 742.676 753.994 742.676 758.227C742.676 761.683 744.792 763.773 747.632 763.773C749.186 763.773 750.445 763.21 751.383 762.487C751.329 766.211 750.499 766.961 744.283 767.443L744.498 769.426ZM748.436 762.031C746.373 762.031 744.819 760.611 744.819 757.718C744.819 754.798 746.587 753.217 748.891 753.217C749.722 753.217 750.526 753.378 751.383 753.619C751.356 755.655 751.383 759.325 751.383 761.12C750.526 761.656 749.481 762.031 748.436 762.031ZM766.943 745.368C761.156 750.109 758.825 754.048 758.825 757.932C758.825 761.737 761.103 765.594 766.836 770.31L768.336 768.943C762.951 764.684 760.969 761.254 760.969 757.852C760.969 754.45 762.924 751.02 768.416 746.734L766.943 745.368ZM778.752 758.522C778.806 756.191 779.476 749.118 779.583 746.68H776.824C776.877 749.118 777.333 756.191 777.333 758.522H778.752ZM779.369 764.791L779.449 761.844H776.395L776.341 764.791H779.369ZM818.414 770.31C824.227 765.541 826.531 761.603 826.531 757.718C826.531 753.941 824.254 750.083 818.521 745.341L817.047 746.761C822.406 750.994 824.388 754.423 824.388 757.798C824.388 761.228 822.432 764.63 816.94 768.943L818.414 770.31Z" fill="black"/>
<path d="M1087.6 724.075L1089.88 722.682L1087.81 717.717L1092.88 715.716L1092.28 713.18L1086.88 713.609L1086.56 708.179L1083.88 708L1082.63 713.287L1077.45 711.823L1076.42 714.287L1081.06 717.181L1078.13 721.61L1080.13 723.396L1084.24 719.896L1087.6 724.075ZM1097.13 729.362V733.041C1107.81 733.469 1111.63 729.79 1111.63 726.29C1111.63 721.003 1101.31 719.538 1101.31 716.216C1101.31 714.609 1103.09 713.644 1110.27 714.144L1110.06 710.465C1100.84 709.965 1097.06 713.466 1097.06 716.788C1097.06 721.896 1107.38 723.182 1107.38 726.79C1107.38 728.647 1104.67 729.933 1097.13 729.362ZM1123.05 729.826C1122.2 729.826 1121.52 729.683 1120.73 729.397C1120.7 724.754 1120.63 721.467 1120.59 718.931C1121.55 718.217 1122.66 717.788 1123.73 717.788C1126.13 717.788 1127.88 719.86 1127.88 723.968C1127.88 727.897 1125.77 729.826 1123.05 729.826ZM1120.73 738.649V733.219C1121.05 733.255 1121.34 733.255 1121.66 733.255C1127.23 733.255 1131.81 729.504 1131.81 723.003C1131.81 717.824 1129.06 714.537 1125.34 714.537C1123.27 714.537 1121.63 715.538 1120.38 716.752L1120.2 714.93L1116.55 715.145C1116.73 718.681 1116.77 723.718 1116.77 732.898V739.006L1120.73 738.649ZM1142.59 730.183C1140.76 730.183 1139.59 729.254 1139.59 727.683C1139.59 725.718 1141.05 724.539 1146.55 725.111C1146.59 726.575 1146.59 727.754 1146.66 728.79C1145.41 729.647 1143.94 730.183 1142.59 730.183ZM1147.16 732.898L1150.8 732.719C1150.62 730.255 1150.48 727.433 1150.48 723.968C1150.48 717.038 1147.8 714.823 1137.09 714.645L1136.69 718.002C1144.34 718.252 1146.3 719.074 1146.52 722.503C1139.01 722.182 1135.66 725.039 1135.66 728.611C1135.66 731.505 1137.84 733.255 1141.02 733.255C1143.59 733.255 1145.48 732.076 1146.84 730.755C1146.94 731.612 1147.12 732.755 1147.16 732.898ZM1155.76 724.182C1155.76 729.683 1158.69 733.862 1169.8 732.934L1170.19 729.647C1162.19 730.112 1159.69 728.254 1159.69 723.682C1159.69 720.253 1161.05 718.217 1169.94 718.502L1169.69 714.752C1159.05 714.787 1155.76 719.217 1155.76 724.182ZM1189.4 733.219L1189.8 729.897C1181.94 729.719 1179.26 728.54 1178.83 724.968L1190.3 724.646C1190.94 718.467 1188.55 714.537 1183.54 714.537C1178.87 714.537 1174.86 718.752 1174.86 724.218C1174.86 730.005 1177.9 733.327 1189.4 733.219ZM1182.83 717.788C1185.3 717.788 1186.4 719.538 1186.51 722.36C1184.29 722.432 1180.69 722.539 1178.79 722.61C1178.97 719.288 1180.4 717.788 1182.83 717.788ZM1205.43 724.075L1207.72 722.682L1205.65 717.717L1210.72 715.716L1210.11 713.18L1204.72 713.609L1204.4 708.179L1201.72 708L1200.47 713.287L1195.29 711.823L1194.25 714.287L1198.9 717.181L1195.97 721.61L1197.97 723.396L1202.08 719.896L1205.43 724.075ZM1029.87 751.556C1023.18 751.047 1020.93 753.19 1020.93 755.28C1020.93 758.575 1028.27 758.95 1028.27 761.281C1028.27 762.46 1026.63 763.424 1020.9 762.969L1020.82 764.898C1028.19 765.3 1030.52 763.237 1030.52 761.094C1030.52 757.745 1023.12 757.155 1023.12 754.985C1023.12 753.914 1024.57 753.003 1029.96 753.485L1029.87 751.556ZM1045.11 765.085L1045.33 763.237C1038.98 763.076 1037.02 761.897 1036.81 758.79L1045.78 758.575C1046.27 754.235 1044.44 751.342 1040.85 751.342C1037.45 751.342 1034.66 754.423 1034.66 758.415C1034.66 762.674 1036.89 765.059 1045.11 765.085ZM1040.48 753.137C1042.68 753.137 1043.72 754.717 1043.75 757.236C1041.9 757.289 1038.31 757.397 1036.81 757.45C1036.97 754.637 1038.31 753.137 1040.48 753.137ZM1059.95 765.005L1060.19 763.183C1055.8 763.103 1054.54 762.514 1054.54 760.236V753.351H1059.9V751.663H1054.54V747.832L1052.37 748.02V751.663H1049.88L1049.66 753.351H1052.37V760.585C1052.37 763.826 1054.27 765.085 1059.95 765.005ZM1070.82 749.949H1074.95V748.181H1064.5V749.949H1068.6V763.023H1064.5V764.791H1074.89L1075.05 763.023H1070.82V749.949ZM1088.79 751.556C1082.1 751.047 1079.85 753.19 1079.85 755.28C1079.85 758.575 1087.19 758.95 1087.19 761.281C1087.19 762.46 1085.55 763.424 1079.82 762.969L1079.74 764.898C1087.11 765.3 1089.44 763.237 1089.44 761.094C1089.44 757.745 1082.04 757.155 1082.04 754.985C1082.04 753.914 1083.49 753.003 1088.87 753.485L1088.79 751.556ZM1096.66 764.791V759.433C1101.81 759.058 1105.24 757.236 1105.24 753.271C1105.24 749.199 1101.62 747.136 1094.44 748.207V764.791H1096.66ZM1103.04 753.699C1103.04 756.7 1100.76 757.745 1096.66 757.45V749.949C1100.98 749.386 1103.04 750.86 1103.04 753.699ZM1119.19 764.791L1119.38 763.13H1115.09V746.091H1109.04L1108.85 747.645L1112.89 747.832V763.13H1108.63V764.791H1119.19ZM1127.92 763.398C1126.28 763.398 1125.21 762.594 1125.21 761.201C1125.21 759.406 1126.79 758.361 1131.59 758.87C1131.59 760.156 1131.62 761.12 1131.64 761.978C1130.62 762.781 1129.23 763.398 1127.92 763.398ZM1131.94 764.871L1133.92 764.737C1133.81 762.862 1133.71 761.013 1133.71 758.281C1133.71 753.217 1131.67 751.637 1124.09 751.422L1123.85 753.298C1129.71 753.512 1131.37 754.289 1131.56 757.316C1125.75 756.968 1123.07 759.004 1123.07 761.71C1123.07 763.826 1124.7 765.112 1127.09 765.112C1129.15 765.112 1130.68 764.175 1131.75 763.183C1131.8 763.773 1131.91 764.603 1131.94 764.871ZM1137.88 769.56C1142.33 769.024 1143.59 767.791 1145.35 763.157C1147.07 758.816 1148.46 754.905 1149.56 751.663H1147.47C1146.77 753.512 1144.9 759.433 1143.91 762.112H1143.64C1142.17 758.763 1140.67 754.959 1139.35 751.61L1137.13 751.744C1138.44 754.959 1140.96 761.04 1142.49 764.389L1142.73 764.442C1141.82 766.586 1141.04 767.041 1137.69 767.55L1137.88 769.56ZM1159.63 749.547L1159.87 745.903H1157.57L1157.4 749.547H1159.63ZM1164.5 764.791L1164.67 763.13H1159.74V751.663H1152.82L1152.66 753.19L1157.57 753.405V763.13H1152.64V764.791H1164.5ZM1173.26 753.217C1174.92 753.217 1175.91 754.101 1175.91 756.62V764.791H1178.08V755.896C1178.08 752.681 1176.53 751.369 1174.17 751.369C1172.3 751.369 1170.88 752.199 1169.78 753.11L1169.64 751.61L1167.63 751.744C1167.77 754.771 1167.82 759.058 1167.82 764.791H1169.99C1169.99 760.21 1169.94 756.754 1169.88 754.369C1170.9 753.673 1172 753.217 1173.26 753.217ZM1183.57 769.426C1190.8 769.05 1192.6 766.264 1192.6 761.737C1192.6 760.21 1192.6 753.03 1192.57 751.985C1191.26 751.583 1190.03 751.369 1188.74 751.369C1184.99 751.369 1181.75 753.994 1181.75 758.227C1181.75 761.683 1183.86 763.773 1186.7 763.773C1188.26 763.773 1189.52 763.21 1190.45 762.487C1190.4 766.211 1189.57 766.961 1183.35 767.443L1183.57 769.426ZM1187.51 762.031C1185.44 762.031 1183.89 760.611 1183.89 757.718C1183.89 754.798 1185.66 753.217 1187.96 753.217C1188.79 753.217 1189.6 753.378 1190.45 753.619C1190.43 755.655 1190.45 759.325 1190.45 761.12C1189.6 761.656 1188.55 762.031 1187.51 762.031ZM1206.01 745.368C1200.23 750.109 1197.9 754.048 1197.9 757.932C1197.9 761.737 1200.17 765.594 1205.91 770.31L1207.41 768.943C1202.02 764.684 1200.04 761.254 1200.04 757.852C1200.04 754.45 1202 751.02 1207.49 746.734L1206.01 745.368ZM1217.82 758.522C1217.88 756.191 1218.55 749.118 1218.65 746.68H1215.89C1215.95 749.118 1216.4 756.191 1216.4 758.522H1217.82ZM1218.44 764.791L1218.52 761.844H1215.47L1215.41 764.791H1218.44ZM1257.49 770.31C1263.3 765.541 1265.6 761.603 1265.6 757.718C1265.6 753.941 1263.33 750.083 1257.59 745.341L1256.12 746.761C1261.48 750.994 1263.46 754.423 1263.46 757.798C1263.46 761.228 1261.5 764.63 1256.01 768.943L1257.49 770.31Z" fill="black"/>
<path d="M1526.67 724.075L1528.95 722.682L1526.88 717.717L1531.95 715.716L1531.35 713.18L1525.95 713.609L1525.63 708.179L1522.95 708L1521.7 713.287L1516.52 711.823L1515.49 714.287L1520.13 717.181L1517.2 721.61L1519.2 723.396L1523.31 719.896L1526.67 724.075ZM1536.2 729.362V733.041C1546.88 733.469 1550.7 729.79 1550.7 726.29C1550.7 721.003 1540.38 719.538 1540.38 716.216C1540.38 714.609 1542.16 713.644 1549.34 714.144L1549.13 710.465C1539.91 709.965 1536.13 713.466 1536.13 716.788C1536.13 721.896 1546.45 723.182 1546.45 726.79C1546.45 728.647 1543.73 729.933 1536.2 729.362ZM1562.12 729.826C1561.27 729.826 1560.59 729.683 1559.8 729.397C1559.77 724.754 1559.69 721.467 1559.66 718.931C1560.62 718.217 1561.73 717.788 1562.8 717.788C1565.2 717.788 1566.95 719.86 1566.95 723.968C1566.95 727.897 1564.84 729.826 1562.12 729.826ZM1559.8 738.649V733.219C1560.12 733.255 1560.41 733.255 1560.73 733.255C1566.3 733.255 1570.88 729.504 1570.88 723.003C1570.88 717.824 1568.12 714.537 1564.41 714.537C1562.34 714.537 1560.69 715.538 1559.44 716.752L1559.27 714.93L1555.62 715.145C1555.8 718.681 1555.84 723.718 1555.84 732.898V739.006L1559.8 738.649ZM1581.66 730.183C1579.83 730.183 1578.66 729.254 1578.66 727.683C1578.66 725.718 1580.12 724.539 1585.62 725.111C1585.66 726.575 1585.66 727.754 1585.73 728.79C1584.48 729.647 1583.01 730.183 1581.66 730.183ZM1586.23 732.898L1589.87 732.719C1589.69 730.255 1589.55 727.433 1589.55 723.968C1589.55 717.038 1586.87 714.823 1576.16 714.645L1575.76 718.002C1583.41 718.252 1585.37 719.074 1585.59 722.503C1578.08 722.182 1574.73 725.039 1574.73 728.611C1574.73 731.505 1576.91 733.255 1580.08 733.255C1582.66 733.255 1584.55 732.076 1585.91 730.755C1586.01 731.612 1586.19 732.755 1586.23 732.898ZM1594.83 724.182C1594.83 729.683 1597.76 733.862 1608.87 732.934L1609.26 729.647C1601.26 730.112 1598.76 728.254 1598.76 723.682C1598.76 720.253 1600.12 718.217 1609.01 718.502L1608.76 714.752C1598.12 714.787 1594.83 719.217 1594.83 724.182ZM1628.47 733.219L1628.87 729.897C1621.01 729.719 1618.33 728.54 1617.9 724.968L1629.37 724.646C1630.01 718.467 1627.61 714.537 1622.61 714.537C1617.93 714.537 1613.93 718.752 1613.93 724.218C1613.93 730.005 1616.97 733.327 1628.47 733.219ZM1621.9 717.788C1624.36 717.788 1625.47 719.538 1625.58 722.36C1623.36 722.432 1619.76 722.539 1617.86 722.61C1618.04 719.288 1619.47 717.788 1621.9 717.788ZM1644.5 724.075L1646.79 722.682L1644.72 717.717L1649.79 715.716L1649.18 713.18L1643.79 713.609L1643.47 708.179L1640.79 708L1639.54 713.287L1634.36 711.823L1633.32 714.287L1637.97 717.181L1635.04 721.61L1637.04 723.396L1641.15 719.896L1644.5 724.075ZM1468.94 751.556C1462.25 751.047 1460 753.19 1460 755.28C1460 758.575 1467.34 758.95 1467.34 761.281C1467.34 762.46 1465.7 763.424 1459.97 762.969L1459.89 764.898C1467.26 765.3 1469.59 763.237 1469.59 761.094C1469.59 757.745 1462.19 757.155 1462.19 754.985C1462.19 753.914 1463.64 753.003 1469.02 753.485L1468.94 751.556ZM1484.18 765.085L1484.4 763.237C1478.05 763.076 1476.09 761.897 1475.88 758.79L1484.85 758.575C1485.33 754.235 1483.51 751.342 1479.92 751.342C1476.52 751.342 1473.73 754.423 1473.73 758.415C1473.73 762.674 1475.96 765.059 1484.18 765.085ZM1479.55 753.137C1481.74 753.137 1482.79 754.717 1482.82 757.236C1480.97 757.289 1477.38 757.397 1475.88 757.45C1476.04 754.637 1477.38 753.137 1479.55 753.137ZM1499.02 765.005L1499.26 763.183C1494.87 763.103 1493.61 762.514 1493.61 760.236V753.351H1498.97V751.663H1493.61V747.832L1491.44 748.02V751.663H1488.95L1488.73 753.351H1491.44V760.585C1491.44 763.826 1493.34 765.085 1499.02 765.005ZM1509.89 749.949H1514.02V748.181H1503.57V749.949H1507.67V763.023H1503.57V764.791H1513.96L1514.12 763.023H1509.89V749.949ZM1527.86 751.556C1521.16 751.047 1518.91 753.19 1518.91 755.28C1518.91 758.575 1526.26 758.95 1526.26 761.281C1526.26 762.46 1524.62 763.424 1518.89 762.969L1518.81 764.898C1526.17 765.3 1528.51 763.237 1528.51 761.094C1528.51 757.745 1521.11 757.155 1521.11 754.985C1521.11 753.914 1522.56 753.003 1527.94 753.485L1527.86 751.556ZM1535.73 764.791V759.433C1540.88 759.058 1544.31 757.236 1544.31 753.271C1544.31 749.199 1540.69 747.136 1533.51 748.207V764.791H1535.73ZM1542.11 753.699C1542.11 756.7 1539.83 757.745 1535.73 757.45V749.949C1540.05 749.386 1542.11 750.86 1542.11 753.699ZM1558.26 764.791L1558.45 763.13H1554.16V746.091H1548.11L1547.92 747.645L1551.96 747.832V763.13H1547.7V764.791H1558.26ZM1566.99 763.398C1565.35 763.398 1564.28 762.594 1564.28 761.201C1564.28 759.406 1565.86 758.361 1570.66 758.87C1570.66 760.156 1570.69 761.12 1570.71 761.978C1569.69 762.781 1568.3 763.398 1566.99 763.398ZM1571.01 764.871L1572.99 764.737C1572.88 762.862 1572.77 761.013 1572.77 758.281C1572.77 753.217 1570.74 751.637 1563.16 751.422L1562.92 753.298C1568.78 753.512 1570.44 754.289 1570.63 757.316C1564.82 756.968 1562.14 759.004 1562.14 761.71C1562.14 763.826 1563.77 765.112 1566.16 765.112C1568.22 765.112 1569.75 764.175 1570.82 763.183C1570.87 763.773 1570.98 764.603 1571.01 764.871ZM1576.95 769.56C1581.4 769.024 1582.66 767.791 1584.42 763.157C1586.14 758.816 1587.53 754.905 1588.63 751.663H1586.54C1585.84 753.512 1583.97 759.433 1582.98 762.112H1582.71C1581.24 758.763 1579.74 754.959 1578.42 751.61L1576.2 751.744C1577.51 754.959 1580.03 761.04 1581.56 764.389L1581.8 764.442C1580.89 766.586 1580.11 767.041 1576.76 767.55L1576.95 769.56ZM1598.7 749.547L1598.94 745.903H1596.63L1596.47 749.547H1598.7ZM1603.57 764.791L1603.73 763.13H1598.8V751.663H1591.89L1591.73 753.19L1596.63 753.405V763.13H1591.71V764.791H1603.57ZM1612.33 753.217C1613.99 753.217 1614.98 754.101 1614.98 756.62V764.791H1617.15V755.896C1617.15 752.681 1615.6 751.369 1613.24 751.369C1611.36 751.369 1609.94 752.199 1608.85 753.11L1608.71 751.61L1606.7 751.744C1606.84 754.771 1606.89 759.058 1606.89 764.791H1609.06C1609.06 760.21 1609.01 756.754 1608.95 754.369C1609.97 753.673 1611.07 753.217 1612.33 753.217ZM1622.64 769.426C1629.87 769.05 1631.67 766.264 1631.67 761.737C1631.67 760.21 1631.67 753.03 1631.64 751.985C1630.33 751.583 1629.09 751.369 1627.81 751.369C1624.06 751.369 1620.82 753.994 1620.82 758.227C1620.82 761.683 1622.93 763.773 1625.77 763.773C1627.33 763.773 1628.59 763.21 1629.52 762.487C1629.47 766.211 1628.64 766.961 1622.42 767.443L1622.64 769.426ZM1626.58 762.031C1624.51 762.031 1622.96 760.611 1622.96 757.718C1622.96 754.798 1624.73 753.217 1627.03 753.217C1627.86 753.217 1628.67 753.378 1629.52 753.619C1629.5 755.655 1629.52 759.325 1629.52 761.12C1628.67 761.656 1627.62 762.031 1626.58 762.031ZM1645.08 745.368C1639.3 750.109 1636.97 754.048 1636.97 757.932C1636.97 761.737 1639.24 765.594 1644.98 770.31L1646.48 768.943C1641.09 764.684 1639.11 761.254 1639.11 757.852C1639.11 754.45 1641.06 751.02 1646.56 746.734L1645.08 745.368ZM1656.89 758.522C1656.95 756.191 1657.62 749.118 1657.72 746.68H1654.96C1655.02 749.118 1655.47 756.191 1655.47 758.522H1656.89ZM1657.51 764.791L1657.59 761.844H1654.54L1654.48 764.791H1657.51ZM1696.55 770.31C1702.37 765.541 1704.67 761.603 1704.67 757.718C1704.67 753.941 1702.39 750.083 1696.66 745.341L1695.19 746.761C1700.55 750.994 1702.53 754.423 1702.53 757.798C1702.53 761.228 1700.57 764.63 1695.08 768.943L1696.55 770.31Z" fill="black"/>
<path d="M707.067 642.886C706.195 642.015 704.781 642.015 703.91 642.886L689.702 657.094C688.83 657.966 688.83 659.38 689.702 660.252C690.574 661.124 691.987 661.124 692.859 660.252L705.488 647.622L718.118 660.252C718.989 661.124 720.403 661.124 721.275 660.252C722.147 659.38 722.147 657.966 721.275 657.094L707.067 642.886ZM707.721 684.651V644.465H703.256V684.651H707.721Z" fill="#C4002F"/>
<path d="M1146.14 642.886C1145.27 642.015 1143.85 642.015 1142.98 642.886L1128.77 657.094C1127.9 657.966 1127.9 659.38 1128.77 660.252C1129.64 661.124 1131.06 661.124 1131.93 660.252L1144.56 647.622L1157.19 660.252C1158.06 661.124 1159.47 661.124 1160.35 660.252C1161.22 659.38 1161.22 657.966 1160.35 657.094L1146.14 642.886ZM1146.79 684.651V644.465H1142.33V684.651H1146.79Z" fill="#C4002F"/>
<path d="M1585.21 642.886C1584.33 642.015 1582.92 642.015 1582.05 642.886L1567.84 657.094C1566.97 657.966 1566.97 659.38 1567.84 660.252C1568.71 661.124 1570.13 661.124 1571 660.252L1583.63 647.622L1596.26 660.252C1597.13 661.124 1598.54 661.124 1599.41 660.252C1600.29 659.38 1600.29 657.966 1599.41 657.094L1585.21 642.886ZM1585.86 684.651V644.465H1581.4V684.651H1585.86Z" fill="#C4002F"/>
<path d="M265 606V661.186C265 674.338 275.662 685 288.814 685H1872" stroke="#C4002F" stroke-width="4.46512"/>
<path d="M1874.37 287.391C1875.68 286.083 1875.68 283.963 1874.37 282.655L1853.06 261.343C1851.75 260.036 1849.63 260.036 1848.32 261.343C1847.01 262.651 1847.01 264.772 1848.32 266.079L1867.26 285.023L1848.32 303.967C1847.01 305.275 1847.01 307.395 1848.32 308.703C1849.63 310.011 1851.75 310.011 1853.06 308.703L1874.37 287.391ZM47.6279 288.372H54.3352V281.674H47.6279V288.372ZM67.7497 288.372H81.1642V281.674H67.7497V288.372ZM94.5787 288.372H107.993V281.674H94.5787V288.372ZM121.408 288.372H134.822V281.674H121.408V288.372ZM148.237 288.372H161.651V281.674H148.237V288.372ZM175.066 288.372H188.48V281.674H175.066V288.372ZM201.895 288.372H215.309V281.674H201.895V288.372ZM228.724 288.372H242.138V281.674H228.724V288.372ZM255.553 288.372H268.967V281.674H255.553V288.372ZM282.382 288.372H295.796V281.674H282.382V288.372ZM309.211 288.372H322.625V281.674H309.211V288.372ZM336.04 288.372H349.454V281.674H336.04V288.372ZM362.869 288.372H376.283V281.674H362.869V288.372ZM389.698 288.372H403.112V281.674H389.698V288.372ZM416.527 288.372H429.941V281.674H416.527V288.372ZM443.356 288.372H456.77V281.674H443.356V288.372ZM470.185 288.372H483.599V281.674H470.185V288.372ZM497.014 288.372H510.428V281.674H497.014V288.372ZM523.843 288.372H537.257V281.674H523.843V288.372ZM550.672 288.372H564.086V281.674H550.672V288.372ZM577.501 288.372H590.915V281.674H577.501V288.372ZM604.33 288.372H617.744V281.674H604.33V288.372ZM631.159 288.372H644.573V281.674H631.159V288.372ZM657.987 288.372H671.402V281.674H657.987V288.372ZM684.816 288.372H698.231V281.674H684.816V288.372ZM711.645 288.372H725.06V281.674H711.645V288.372ZM738.474 288.372H751.889V281.674H738.474V288.372ZM765.303 288.372H778.718V281.674H765.303V288.372ZM792.132 288.372H805.547V281.674H792.132V288.372ZM818.961 288.372H832.376V281.674H818.961V288.372ZM845.79 288.372H859.205V281.674H845.79V288.372ZM872.619 288.372H886.034V281.674H872.619V288.372ZM899.448 288.372H912.863V281.674H899.448V288.372ZM926.277 288.372H939.692V281.674H926.277V288.372ZM953.106 288.372H966.521V281.674H953.106V288.372ZM979.935 288.372H993.35V281.674H979.935V288.372ZM1006.76 288.372H1020.18V281.674H1006.76V288.372ZM1033.59 288.372H1047.01V281.674H1033.59V288.372ZM1060.42 288.372H1073.84V281.674H1060.42V288.372ZM1087.25 288.372H1100.67V281.674H1087.25V288.372ZM1114.08 288.372H1127.49V281.674H1114.08V288.372ZM1140.91 288.372H1154.32V281.674H1140.91V288.372ZM1167.74 288.372H1181.15V281.674H1167.74V288.372ZM1194.57 288.372H1207.98V281.674H1194.57V288.372ZM1221.4 288.372H1234.81V281.674H1221.4V288.372ZM1248.23 288.372H1261.64V281.674H1248.23V288.372ZM1275.05 288.372H1288.47V281.674H1275.05V288.372ZM1301.88 288.372H1315.3V281.674H1301.88V288.372ZM1328.71 288.372H1342.13V281.674H1328.71V288.372ZM1355.54 288.372H1368.96V281.674H1355.54V288.372ZM1382.37 288.372H1395.79V281.674H1382.37V288.372ZM1409.2 288.372H1422.62V281.674H1409.2V288.372ZM1436.03 288.372H1449.44V281.674H1436.03V288.372ZM1462.86 288.372H1476.27V281.674H1462.86V288.372ZM1489.69 288.372H1503.1V281.674H1489.69V288.372ZM1516.52 288.372H1529.93V281.674H1516.52V288.372ZM1543.35 288.372H1556.76V281.674H1543.35V288.372ZM1570.18 288.372H1583.59V281.674H1570.18V288.372ZM1597 288.372H1610.42V281.674H1597V288.372ZM1623.83 288.372H1637.25V281.674H1623.83V288.372ZM1650.66 288.372H1664.08V281.674H1650.66V288.372ZM1677.49 288.372H1690.91V281.674H1677.49V288.372ZM1704.32 288.372H1717.74V281.674H1704.32V288.372ZM1731.15 288.372H1744.56V281.674H1731.15V288.372ZM1757.98 288.372H1771.39V281.674H1757.98V288.372ZM1784.81 288.372H1798.22V281.674H1784.81V288.372ZM1811.64 288.372H1825.05V281.674H1811.64V288.372ZM1838.47 288.372H1851.88V281.674H1838.47V288.372ZM1865.3 288.372H1872V281.674H1865.3V288.372Z" fill="black"/>
<path d="M122.047 93.8637L410.047 47.6279V436.741L122.047 482.977V93.8637Z" fill="#DDD2E6" fill-opacity="0.97"/>
<path d="M122.047 483.073L410.047 436.837V583.345L122.047 629.581V483.073Z" fill="#FEE198" fill-opacity="0.98"/>
<path d="M205.822 552.786L196.017 554.361L195.031 548.224L203.249 546.904L202.773 543.941L194.556 545.262L193.592 539.266L203.185 537.725L202.641 534.339L188.992 536.532L192.506 558.398L206.049 556.222L205.822 552.786ZM224.652 550.231L219.079 551.126L217.328 540.228L223.254 539.276L222.772 536.278L216.847 537.23L216.745 536.595C216.24 533.456 216.82 532.784 223.205 531.542L222.346 527.772C214.196 529.516 212.201 533.309 212.926 537.824L212.932 537.859L208.629 538.55L208.758 541.605L213.414 540.857L215.165 551.755L210.721 552.469L211.191 555.396L224.769 553.215L224.652 550.231ZM244.043 547.115L238.47 548.011L236.719 537.113L242.644 536.161L242.163 533.163L236.238 534.115L236.136 533.48C235.631 530.341 236.211 529.669 242.596 528.426L241.737 524.657C233.587 526.4 231.592 530.194 232.317 534.708L232.323 534.744L228.02 535.435L228.149 538.489L232.804 537.741L234.555 548.64L230.112 549.353L230.582 552.281L244.16 550.099L244.043 547.115ZM263.725 547.39L263.586 544.048C255.799 545.118 252.966 544.379 251.977 540.92L263.247 538.784C262.901 532.58 259.915 529.08 254.977 529.874C250.357 530.616 247.076 535.412 247.943 540.809C248.861 546.522 252.385 549.32 263.725 547.39ZM254.788 533.197C257.221 532.806 258.592 534.358 259.146 537.127C256.97 537.549 253.425 538.227 251.567 538.598C251.217 535.29 252.389 533.582 254.788 533.197ZM267.857 537.573C268.73 543.004 272.285 546.666 283.106 543.987L282.972 540.68C275.146 542.407 272.382 540.97 271.657 536.456C271.113 533.07 272.13 530.844 280.958 529.716L280.116 526.052C269.611 527.776 267.069 532.67 267.857 537.573ZM302.449 541.024L302.351 537.711C296.973 538.467 295.213 538.098 294.771 535.347L293.468 527.235L300.098 526.17L299.617 523.172L292.986 524.237L292.17 519.159L288.347 520.135L289.107 524.861L285.862 525.382L285.991 528.437L289.588 527.859L290.988 536.57C291.713 541.084 294.571 542.434 302.449 541.024ZM342.349 534.324L342.139 530.993L336.849 531.843L333.75 512.551L330.027 513.474L330.441 516.049L325.1 517.486L325.629 520.331L330.967 519.329L333.075 532.449L327.15 533.401L327.677 536.681L342.349 534.324Z" fill="black"/>
<path d="M151.081 259.329L150.735 255.529L148.357 255.905L148.786 259.692L151.081 259.329ZM158.605 274.269L158.5 272.528L153.411 273.333L151.538 261.496L144.403 262.626L144.486 264.228L149.582 263.649L151.171 273.688L146.082 274.493L146.354 276.208L158.605 274.269ZM169.519 258.537C162.522 259.106 160.549 261.686 160.89 263.843C161.429 267.245 169.067 266.433 169.448 268.839C169.641 270.056 168.111 271.319 162.119 271.785L162.351 273.789C170.022 273.001 172.091 270.49 171.741 268.278C171.194 264.821 163.464 265.42 163.11 263.18C162.935 262.074 164.279 260.897 169.917 260.515L169.519 258.537ZM179.806 270.913L178.931 265.382C184.18 264.155 187.422 261.714 186.774 257.621C186.109 253.417 182.038 251.879 174.802 254.158L177.511 271.277L179.806 270.913ZM184.576 258.422C185.067 261.52 182.887 262.97 178.607 263.336L177.382 255.592C181.742 254.307 184.113 255.491 184.576 258.422ZM203.06 267.233L202.982 265.488L198.557 266.188L195.773 248.599L189.523 249.588L189.583 251.223L193.79 250.756L196.289 266.547L191.892 267.243L192.163 268.958L203.06 267.233ZM211.842 264.369C210.155 264.636 208.918 263.982 208.69 262.544C208.397 260.691 209.858 259.354 214.891 259.096C215.102 260.423 215.287 261.415 215.454 262.295C214.535 263.291 213.197 264.155 211.842 264.369ZM216.231 265.234L218.256 264.772C217.839 262.853 217.426 260.963 216.98 258.142C216.153 252.915 213.793 251.616 205.931 252.633L205.989 254.608C212.08 253.871 213.922 254.402 214.61 257.496C208.552 258.086 206.119 260.626 206.561 263.419C206.907 265.604 208.804 266.665 211.265 266.275C213.395 265.938 214.818 264.721 215.762 263.522C215.914 264.122 216.16 264.962 216.231 265.234ZM223.132 269.103C227.635 267.823 228.733 266.345 229.801 261.272C230.862 256.512 231.661 252.246 232.266 248.72L230.109 249.062C229.692 251.084 228.723 257.502 228.137 260.43L227.861 260.474C225.793 257.257 223.622 253.575 221.72 250.333L219.447 250.834C221.327 253.939 224.92 259.805 227.044 263.012L227.301 263.028C226.711 265.39 225.983 265.987 222.61 267.059L223.132 269.103ZM242.313 244.891L241.967 241.09L239.588 241.467L240.018 245.254L242.313 244.891ZM249.837 259.83L249.732 258.089L244.643 258.895L242.77 247.058L235.634 248.187L235.718 249.79L240.814 249.21L242.403 259.249L237.314 260.055L237.585 261.769L249.837 259.83ZM256.984 246.453C258.699 246.181 259.867 246.932 260.278 249.532L261.613 257.967L263.853 257.612L262.4 248.43C261.875 245.112 260.056 244.011 257.622 244.396C255.687 244.702 254.357 245.791 253.371 246.911L252.988 245.384L250.936 245.851C251.569 248.954 252.324 253.37 253.261 259.289L255.501 258.934C254.753 254.205 254.133 250.646 253.688 248.193C254.625 247.308 255.684 246.658 256.984 246.453ZM270.274 261.5C277.68 259.931 279.078 256.762 278.338 252.088C278.089 250.512 276.916 243.1 276.717 242.026C275.297 241.825 273.989 241.805 272.662 242.016C268.79 242.628 265.873 245.868 266.564 250.238C267.129 253.805 269.655 255.617 272.586 255.153C274.191 254.899 275.398 254.112 276.248 253.213C276.801 257.066 276.066 257.976 269.729 259.489L270.274 261.5ZM273.132 253.224C271.002 253.561 269.166 252.349 268.693 249.362C268.216 246.348 269.783 244.427 272.162 244.051C273.019 243.915 273.875 243.95 274.799 244.059C275.104 246.165 275.732 249.949 276.025 251.802C275.228 252.495 274.21 253.053 273.132 253.224ZM289.145 244.283L288.689 241.038L285.398 241.559L285.882 244.799L289.145 244.283ZM290.364 253.417L289.967 250.191L286.676 250.712L287.073 253.937L290.364 253.417ZM324.435 246.295L319.567 247.066L318.014 237.248L323.158 236.434L322.886 234.719L317.742 235.533L317.69 235.201C317.235 232.325 317.812 231.497 323.11 230.403L322.599 228.244C316.429 229.561 314.938 232.32 315.502 235.888L311.824 236.47L311.902 238.215L315.774 237.602L317.327 247.42L313.621 248.007L313.888 249.694L324.508 248.013L324.435 246.295ZM333.485 245.118C331.798 245.385 330.56 244.731 330.333 243.292C330.039 241.44 331.5 240.103 336.534 239.845C336.744 241.172 336.929 242.163 337.097 243.044C336.177 244.04 334.84 244.904 333.485 245.118ZM337.874 245.983L339.898 245.521C339.481 243.602 339.069 241.711 338.622 238.891C337.795 233.664 335.435 232.365 327.573 233.382L327.631 235.357C333.723 234.62 335.564 235.151 336.252 238.245C330.194 238.835 327.761 241.375 328.203 244.168C328.549 246.353 330.446 247.413 332.907 247.024C335.037 246.687 336.46 245.469 337.404 244.271C337.556 244.871 337.802 245.711 337.874 245.983ZM355.112 243.17L355.035 241.424L350.61 242.124L347.826 224.535L341.576 225.525L341.636 227.159L345.843 226.692L348.342 242.483L343.945 243.179L344.216 244.894L355.112 243.17ZM367.188 227.254C360.191 227.823 358.218 230.403 358.559 232.56C359.097 235.962 366.736 235.15 367.117 237.556C367.31 238.773 365.78 240.035 359.787 240.502L360.02 242.506C367.691 241.718 369.76 239.207 369.41 236.995C368.862 233.538 361.133 234.137 360.779 231.897C360.604 230.791 361.948 229.614 367.586 229.232L367.188 227.254ZM385.129 238.731L385.048 236.788C378.467 237.659 376.256 236.762 375.527 233.589L384.757 231.901C384.545 227.342 382.192 224.653 378.486 225.239C374.974 225.795 372.601 229.431 373.253 233.552C373.949 237.949 376.634 240.047 385.129 238.731ZM378.392 227.154C380.66 226.795 381.997 228.256 382.436 230.851C380.536 231.208 376.848 231.905 375.308 232.206C375.014 229.276 376.152 227.508 378.392 227.154Z" fill="black"/>
<path d="M230.005 193.999C230.005 193.999 228.592 206.599 228.498 207.591L228.357 207.614C227.957 206.701 222.633 195.183 222.633 195.183L218.683 195.818L222.197 217.684L225.829 217.101L223.272 202.533L223.413 202.511L227.954 212.309L230.176 211.952L231.383 201.23L231.525 201.208L233.659 215.843L237.397 215.242L233.884 193.376L230.005 193.999ZM248.726 213.965C253.417 213.211 256.679 208.743 255.738 202.889C254.82 197.175 251.271 194.453 246.863 195.162C242.207 195.909 238.939 200.559 239.857 206.273C240.769 211.951 244.388 214.662 248.726 213.965ZM248.922 210.677C246.382 211.085 244.409 209.159 243.723 204.892C243.105 201.047 244.345 198.858 246.708 198.479C249.248 198.071 251.221 199.997 251.901 204.229C252.525 208.108 251.285 210.298 248.922 210.677ZM272.24 209.716L275.845 208.956C274.987 204.97 274.027 199.444 272.758 191.544L268.843 192.173C269.755 197.851 270.521 202.395 271.113 205.628C270.174 206.539 269.084 207.185 267.779 207.394C265.98 207.683 264.693 206.877 264.194 203.773L262.477 193.087L258.602 193.963L260.501 205.778C261.192 210.081 263.415 211.532 266.483 211.039C268.917 210.648 270.499 209.236 271.711 207.775L272.24 209.716ZM286.018 192.38C287.817 192.091 289.139 192.892 289.638 195.995L291.338 206.576L295.252 205.947L293.332 193.991C292.646 189.723 290.382 188.242 287.314 188.735C284.88 189.126 283.263 190.543 282.056 192.04L281.521 190.063L277.923 190.859C278.775 194.81 279.735 200.336 281.004 208.236L284.954 207.601C284.047 201.958 283.24 197.385 282.643 194.116C283.623 193.235 284.678 192.595 286.018 192.38ZM314.054 203.216L313.956 199.903C308.578 200.658 306.818 200.29 306.376 197.539L305.073 189.427L311.704 188.362L311.222 185.364L304.591 186.429L303.775 181.351L299.953 182.327L300.712 187.053L297.467 187.574L297.596 190.628L301.193 190.05L302.593 198.762C303.318 203.276 306.176 204.626 314.054 203.216Z" fill="black"/>
<path d="M561.116 93.8637L849.116 47.6279V436.741L561.116 482.977V93.8637Z" fill="#DDD2E6" fill-opacity="0.97"/>
<path d="M629.609 267.731C630.446 273.023 633.994 276.476 644.361 274.112L644.299 271.662C635.893 273.391 633.09 271.447 632.37 266.896C631.789 263.227 633.133 260.519 642.065 259.141L641.423 256.458C631.401 258.261 628.855 262.968 629.609 267.731ZM656.9 272.489C661.346 271.786 664.458 267.459 663.554 261.744C662.677 256.205 659.129 253.439 654.825 254.12C650.379 254.824 647.243 259.226 648.13 264.836C649.013 270.41 652.631 273.165 656.9 272.489ZM656.985 270.053C654.056 270.516 651.654 268.365 650.94 263.849C650.27 259.615 651.877 256.973 654.699 256.527C657.663 256.058 660.071 258.244 660.78 262.725C661.455 266.994 659.843 269.6 656.985 270.053ZM680.818 268.27L683.436 267.675C682.629 263.716 681.665 258.082 680.47 250.532L677.612 250.984C678.573 257.052 679.358 261.557 679.92 264.651C678.765 265.81 677.419 266.674 675.761 266.937C673.609 267.277 672.16 266.349 671.624 262.962L669.904 252.095L667.08 252.759L668.917 264.367C669.592 268.636 671.877 270.047 674.946 269.561C677.416 269.17 679.072 267.751 680.329 266.322L680.818 268.27ZM694.159 250.463C696.346 250.117 697.836 251.074 698.361 254.391L700.064 265.152L702.922 264.699L701.068 252.986C700.398 248.752 698.078 247.347 694.973 247.838C692.503 248.229 690.806 249.619 689.55 251.048L689.061 249.1L686.442 249.695C687.25 253.654 688.214 259.288 689.409 266.838L692.266 266.386C691.312 260.353 690.521 255.812 689.953 252.683C691.149 251.554 692.5 250.725 694.159 250.463ZM721.976 261.973L721.914 259.524C716.111 260.334 714.33 259.82 713.855 256.821L712.42 247.754L719.477 246.637L719.125 244.414L712.069 245.531L711.27 240.485L708.451 241.185L709.211 245.983L705.93 246.502L705.999 248.77L709.563 248.206L711.07 257.732C711.746 262.001 714.513 263.263 721.976 261.973ZM735.188 247.694L734.606 243.555L730.407 244.22L731.025 248.353L735.188 247.694ZM736.743 259.347L736.237 255.232L732.038 255.896L732.545 260.011L736.743 259.347ZM781.043 252.336L780.905 249.862L775.507 250.717L772.307 230.5L769.559 231.188L769.956 233.693L764.452 235.251L764.817 237.328L770.347 236.163L772.72 251.158L766.686 252.113L767.072 254.547L781.043 252.336Z" fill="black"/>
<path d="M634.581 218.175L638.834 216.949L632.167 208.324C633.974 206.514 635.185 204.366 634.743 201.615C634.012 197.065 630.161 194.717 619.56 197.868L623.068 219.699L627.053 219.059L625.841 211.511L629.286 210.885L634.581 218.175ZM624.039 200.296C628.216 199.046 630.434 200.245 630.899 203.137C631.205 205.042 630.502 206.746 629.215 207.966L625.387 208.69L624.039 200.296ZM656.035 214.837L655.896 211.494C648.108 212.565 645.276 211.826 644.286 208.367L655.557 206.23C655.211 200.027 652.225 196.527 647.287 197.32C642.667 198.063 639.386 202.859 640.252 208.255C641.17 213.969 644.695 216.767 656.035 214.837ZM647.097 200.643C649.531 200.252 650.902 201.805 651.455 204.574C649.28 204.996 645.735 205.674 643.877 206.045C643.526 202.736 644.699 201.028 647.097 200.643ZM672.486 199.278L661.2 201.091L661.738 204.441L672.742 202.673L672.486 199.278ZM692.754 208.829L697.007 207.603L690.339 198.978C692.147 197.168 693.357 195.02 692.915 192.269C692.184 187.719 688.334 185.371 677.733 188.521L681.241 210.353L685.226 209.712L684.013 202.165L687.458 201.539L692.754 208.829ZM682.211 190.95C686.388 189.7 688.607 190.899 689.072 193.791C689.378 195.695 688.675 197.4 687.387 198.62L683.56 199.343L682.211 190.95ZM714.207 205.49L714.068 202.148C706.281 203.218 703.449 202.479 702.459 199.021L713.729 196.884C713.384 190.681 710.397 187.181 705.46 187.974C700.84 188.716 697.558 193.513 698.425 198.909C699.343 204.622 702.868 207.421 714.207 205.49ZM705.27 191.297C707.704 190.906 709.075 192.458 709.628 195.228C707.453 195.649 703.908 196.328 702.05 196.698C701.699 193.39 702.872 191.682 705.27 191.297ZM724.895 188.289C726.694 188 728.016 188.8 728.515 191.904L730.215 202.484L734.13 201.855L732.209 189.899C731.523 185.632 729.259 184.15 726.191 184.643C723.757 185.034 722.14 186.452 720.933 187.948L720.399 185.972L716.8 186.767C717.652 190.719 718.612 196.244 719.881 204.145L723.831 203.51C722.925 197.867 722.118 193.293 721.52 190.025C722.5 189.144 723.555 188.504 724.895 188.289ZM745.884 197.145C743.45 197.536 741.416 195.909 740.748 191.747C740.124 187.868 741.676 185.592 744.357 185.162C745.132 185.037 746.007 185.077 746.934 185.218C747.614 189.45 748.199 192.866 748.706 195.57C747.967 196.376 747.048 196.958 745.884 197.145ZM749.764 199.452L753.363 198.657C752.563 194.806 751.625 189.421 750.305 181.203L749.104 173.726L745.246 174.708L746.328 181.444C746.04 181.454 745.793 181.494 745.511 181.539C739.939 182.435 735.984 186.869 737.027 193.358C737.865 198.578 741.074 201.21 744.777 200.615C746.787 200.292 748.257 199.079 749.269 197.723L749.764 199.452ZM772.38 196.144L772.241 192.802C764.453 193.872 761.621 193.133 760.631 189.674L771.902 187.538C771.556 181.334 768.57 177.835 763.632 178.628C759.012 179.37 755.731 184.166 756.598 189.563C757.516 195.276 761.04 198.074 772.38 196.144ZM763.443 181.951C765.876 181.56 767.247 183.112 767.801 185.881C765.625 186.303 762.08 186.981 760.222 187.352C759.872 184.044 761.044 182.336 763.443 181.951ZM790.821 192.747L790.662 189.733L785.337 190.589C784.666 186.862 784.155 183.905 783.659 181.271C785.481 180.002 787.813 178.976 790.817 178.312L789.972 174.179C786.725 175.135 784.453 176.983 783.161 179.072C782.949 178.202 782.42 176.261 782.356 176.09L775.091 177.257L775.221 180.094L779.428 179.708C779.997 182.8 780.622 186.462 781.457 191.212L777.19 191.898L777.666 194.861L790.821 192.747Z" fill="black"/>
<path d="M561.116 93.8637L849.116 47.6279V436.741L561.116 482.977V93.8637Z" fill="#DDD2E6" fill-opacity="0.97"/>
<path d="M597.753 258.126L597.407 254.325L595.028 254.702L595.458 258.489L597.753 258.126ZM605.277 273.065L605.171 271.325L600.083 272.13L598.21 260.293L591.074 261.422L591.158 263.025L596.254 262.445L597.843 272.484L592.754 273.29L593.025 275.004L605.277 273.065ZM616.191 257.334C609.193 257.903 607.22 260.483 607.562 262.64C608.1 266.042 615.739 265.23 616.12 267.636C616.313 268.853 614.783 270.115 608.79 270.582L609.023 272.586C616.694 271.797 618.763 269.287 618.412 267.075C617.865 263.618 610.136 264.217 609.781 261.977C609.606 260.871 610.951 259.694 616.589 259.312L616.191 257.334ZM626.478 269.71L625.603 264.179C630.851 262.951 634.094 260.511 633.446 256.418C632.781 252.214 628.71 250.675 621.473 252.954L624.183 270.073L626.478 269.71ZM631.248 257.219C631.738 260.316 629.558 261.767 625.279 262.132L624.053 254.389C628.414 253.103 630.784 254.287 631.248 257.219ZM649.731 266.03L649.653 264.285L645.229 264.985L642.445 247.396L636.195 248.385L636.255 250.02L640.462 249.553L642.961 265.344L638.563 266.04L638.835 267.755L649.731 266.03ZM658.514 263.166C656.827 263.433 655.589 262.778 655.362 261.34C655.069 259.487 656.53 258.151 661.563 257.893C661.773 259.22 661.958 260.211 662.126 261.092C661.207 262.088 659.869 262.952 658.514 263.166ZM662.903 264.031L664.928 263.568C664.511 261.65 664.098 259.759 663.652 256.938C662.824 251.711 660.464 250.412 652.603 251.43L652.66 253.405C658.752 252.668 660.593 253.198 661.282 256.293C655.223 256.883 652.791 259.423 653.233 262.216C653.578 264.401 655.475 265.461 657.937 265.072C660.066 264.735 661.489 263.517 662.434 262.319C662.585 262.919 662.832 263.758 662.903 264.031ZM669.803 267.9C674.307 266.62 675.405 265.142 676.473 260.069C677.534 255.308 678.333 251.043 678.937 247.517L676.78 247.859C676.363 249.881 675.395 256.299 674.809 259.226L674.532 259.27C672.464 256.054 670.294 252.372 668.392 249.129L666.118 249.631C667.999 252.735 671.592 258.602 673.715 261.809L673.973 261.825C673.383 264.186 672.655 264.783 669.281 265.856L669.803 267.9ZM688.985 243.688L688.639 239.887L686.26 240.263L686.689 244.051L688.985 243.688ZM696.509 258.627L696.403 256.886L691.315 257.692L689.441 245.855L682.306 246.984L682.39 248.587L687.486 248.007L689.074 258.046L683.986 258.851L684.257 260.566L696.509 258.627ZM703.656 245.249C705.371 244.978 706.538 245.729 706.95 248.328L708.285 256.763L710.525 256.409L709.072 247.227C708.546 243.909 706.728 242.807 704.294 243.192C702.358 243.499 701.028 244.588 700.043 245.708L699.66 244.181L697.607 244.648C698.24 247.751 698.996 252.167 699.933 258.085L702.173 257.731C701.424 253.002 700.804 249.443 700.359 246.99C701.297 246.105 702.356 245.455 703.656 245.249ZM716.946 260.297C724.352 258.728 725.749 255.559 725.01 250.885C724.76 249.308 723.587 241.897 723.389 240.822C721.968 240.622 720.661 240.602 719.334 240.812C715.462 241.425 712.544 244.665 713.236 249.034C713.8 252.602 716.327 254.413 719.258 253.95C720.862 253.696 722.07 252.909 722.92 252.009C723.473 255.862 722.738 256.772 716.401 258.285L716.946 260.297ZM719.803 252.021C717.674 252.358 715.838 251.146 715.365 248.159C714.888 245.144 716.455 243.224 718.834 242.847C719.691 242.712 720.547 242.746 721.471 242.855C721.776 244.961 722.403 248.746 722.697 250.599C721.899 251.292 720.882 251.85 719.803 252.021ZM735.817 243.08L735.36 239.835L732.069 240.356L732.554 243.596L735.817 243.08ZM737.036 252.213L736.639 248.988L733.348 249.509L733.745 252.734L737.036 252.213ZM771.077 247.053L771.028 245.133C766.479 245.768 765.083 245.365 764.711 243.014L763.586 235.907L769.117 235.031L768.842 233.289L763.311 234.164L762.685 230.21L760.475 230.758L761.07 234.519L758.498 234.926L758.553 236.703L761.346 236.261L762.528 243.728C763.058 247.075 765.227 248.064 771.077 247.053ZM785.556 244.535L785.478 242.789L780.887 243.516C780.36 240.367 779.885 237.721 779.485 235.375C780.825 234.171 782.693 233.251 785.423 232.592L784.936 230.232C782.195 231.005 780.296 232.44 779.188 234.033C779.059 233.401 778.726 232.008 778.654 231.736L773.4 232.568L773.487 234.198L776.947 233.849C777.459 236.546 777.99 239.722 778.702 243.862L775.107 244.431L775.378 246.145L785.556 244.535ZM799.636 242.363L801.688 241.896C801.055 238.793 800.3 234.377 799.363 228.459L797.123 228.813C797.876 233.57 798.491 237.101 798.932 239.526C798.027 240.435 796.971 241.112 795.672 241.318C793.985 241.585 792.849 240.857 792.429 238.202L791.081 229.684L788.867 230.205L790.307 239.304C790.836 242.65 792.627 243.756 795.033 243.375C796.969 243.068 798.267 241.956 799.252 240.836L799.636 242.363ZM816.595 239.934L816.514 237.991C809.934 238.862 807.722 237.965 806.993 234.792L816.223 233.104C816.012 228.545 813.658 225.856 809.952 226.443C806.44 226.998 804.067 230.634 804.719 234.755C805.415 239.152 808.1 241.25 816.595 239.934ZM809.859 228.357C812.126 227.998 813.463 229.459 813.902 232.054C812.003 232.411 808.314 233.109 806.774 233.409C806.481 230.479 807.618 228.711 809.859 228.357Z" fill="black"/>
<path d="M634.581 218.175L638.834 216.949L632.167 208.324C633.974 206.514 635.185 204.366 634.743 201.615C634.012 197.065 630.161 194.717 619.56 197.868L623.068 219.699L627.053 219.059L625.841 211.511L629.286 210.885L634.581 218.175ZM624.039 200.296C628.216 199.046 630.434 200.245 630.899 203.137C631.205 205.042 630.502 206.746 629.215 207.966L625.387 208.69L624.039 200.296ZM656.035 214.837L655.896 211.494C648.108 212.565 645.276 211.826 644.286 208.367L655.557 206.23C655.211 200.027 652.225 196.527 647.287 197.32C642.667 198.063 639.386 202.859 640.252 208.255C641.17 213.969 644.695 216.767 656.035 214.837ZM647.097 200.643C649.531 200.252 650.902 201.805 651.455 204.574C649.28 204.996 645.735 205.674 643.877 206.045C643.526 202.736 644.699 201.028 647.097 200.643ZM672.486 199.278L661.2 201.091L661.738 204.441L672.742 202.673L672.486 199.278ZM692.754 208.829L697.007 207.603L690.339 198.978C692.147 197.168 693.357 195.02 692.915 192.269C692.184 187.719 688.334 185.371 677.733 188.521L681.241 210.353L685.226 209.712L684.013 202.165L687.458 201.539L692.754 208.829ZM682.211 190.95C686.388 189.7 688.607 190.899 689.072 193.791C689.378 195.695 688.675 197.4 687.387 198.62L683.56 199.343L682.211 190.95ZM714.207 205.49L714.068 202.148C706.281 203.218 703.449 202.479 702.459 199.021L713.729 196.884C713.384 190.681 710.397 187.181 705.46 187.974C700.84 188.716 697.558 193.513 698.425 198.909C699.343 204.622 702.868 207.421 714.207 205.49ZM705.27 191.297C707.704 190.906 709.075 192.458 709.628 195.228C707.453 195.649 703.908 196.328 702.05 196.698C701.699 193.39 702.872 191.682 705.27 191.297ZM724.895 188.289C726.694 188 728.016 188.8 728.515 191.904L730.215 202.484L734.13 201.855L732.209 189.899C731.523 185.632 729.259 184.15 726.191 184.643C723.757 185.034 722.14 186.452 720.933 187.948L720.399 185.972L716.8 186.767C717.652 190.719 718.612 196.244 719.881 204.145L723.831 203.51C722.925 197.867 722.118 193.293 721.52 190.025C722.5 189.144 723.555 188.504 724.895 188.289ZM745.884 197.145C743.45 197.536 741.416 195.909 740.748 191.747C740.124 187.868 741.676 185.592 744.357 185.162C745.132 185.037 746.007 185.077 746.934 185.218C747.614 189.45 748.199 192.866 748.706 195.57C747.967 196.376 747.048 196.958 745.884 197.145ZM749.764 199.452L753.363 198.657C752.563 194.806 751.625 189.421 750.305 181.203L749.104 173.726L745.246 174.708L746.328 181.444C746.04 181.454 745.793 181.494 745.511 181.539C739.939 182.435 735.984 186.869 737.027 193.358C737.865 198.578 741.074 201.21 744.777 200.615C746.787 200.292 748.257 199.079 749.269 197.723L749.764 199.452ZM772.38 196.144L772.241 192.802C764.453 193.872 761.621 193.133 760.631 189.674L771.902 187.538C771.556 181.334 768.57 177.835 763.632 178.628C759.012 179.37 755.731 184.166 756.598 189.563C757.516 195.276 761.04 198.074 772.38 196.144ZM763.443 181.951C765.876 181.56 767.247 183.112 767.801 185.881C765.625 186.303 762.08 186.981 760.222 187.352C759.872 184.044 761.044 182.336 763.443 181.951ZM790.821 192.747L790.662 189.733L785.337 190.589C784.666 186.862 784.155 183.905 783.659 181.271C785.481 180.002 787.813 178.976 790.817 178.312L789.972 174.179C786.725 175.135 784.453 176.983 783.161 179.072C782.949 178.202 782.42 176.261 782.356 176.09L775.091 177.257L775.221 180.094L779.428 179.708C779.997 182.8 780.622 186.462 781.457 191.212L777.19 191.898L777.666 194.861L790.821 192.747Z" fill="black"/>
<path d="M1000.19 93.8637L1288.19 47.6279V436.741L1000.19 482.977V93.8637Z" fill="#DDD2E6" fill-opacity="0.97"/>
<path d="M1029.22 259.329L1028.88 255.528L1026.5 255.905L1026.93 259.692L1029.22 259.329ZM1036.75 274.269L1036.64 272.528L1031.55 273.333L1029.68 261.496L1022.54 262.626L1022.63 264.228L1027.72 263.648L1029.31 273.688L1024.22 274.493L1024.49 276.208L1036.75 274.269ZM1047.66 258.537C1040.66 259.106 1038.69 261.686 1039.03 263.843C1039.57 267.245 1047.21 266.433 1047.59 268.839C1047.78 270.056 1046.25 271.318 1040.26 271.785L1040.49 273.789C1048.16 273 1050.23 270.49 1049.88 268.278C1049.33 264.821 1041.6 265.42 1041.25 263.18C1041.08 262.074 1042.42 260.897 1048.06 260.515L1047.66 258.537ZM1057.95 270.913L1057.07 265.382C1062.32 264.155 1065.56 261.714 1064.91 257.621C1064.25 253.417 1060.18 251.878 1052.94 254.158L1055.65 271.277L1057.95 270.913ZM1062.72 258.422C1063.21 261.52 1061.03 262.97 1056.75 263.336L1055.52 255.592C1059.88 254.307 1062.25 255.491 1062.72 258.422ZM1081.2 267.233L1081.12 265.488L1076.7 266.188L1073.91 248.599L1067.66 249.588L1067.72 251.223L1071.93 250.756L1074.43 266.547L1070.03 267.243L1070.3 268.958L1081.2 267.233ZM1089.98 264.369C1088.3 264.636 1087.06 263.982 1086.83 262.543C1086.54 260.691 1088 259.354 1093.03 259.096C1093.24 260.423 1093.43 261.414 1093.6 262.295C1092.68 263.291 1091.34 264.155 1089.98 264.369ZM1094.37 265.234L1096.4 264.772C1095.98 262.853 1095.57 260.962 1095.12 258.142C1094.29 252.915 1091.93 251.616 1084.07 252.633L1084.13 254.608C1090.22 253.871 1092.06 254.402 1092.75 257.496C1086.69 258.086 1084.26 260.626 1084.7 263.419C1085.05 265.604 1086.94 266.664 1089.41 266.275C1091.54 265.938 1092.96 264.72 1093.9 263.522C1094.05 264.122 1094.3 264.962 1094.37 265.234ZM1101.27 269.103C1105.78 267.823 1106.87 266.345 1107.94 261.272C1109 256.511 1109.8 252.246 1110.41 248.72L1108.25 249.062C1107.83 251.084 1106.86 257.502 1106.28 260.43L1106 260.473C1103.93 257.257 1101.76 253.575 1099.86 250.333L1097.59 250.834C1099.47 253.938 1103.06 259.805 1105.18 263.012L1105.44 263.028C1104.85 265.39 1104.12 265.987 1100.75 267.059L1101.27 269.103ZM1120.45 244.891L1120.11 241.09L1117.73 241.467L1118.16 245.254L1120.45 244.891ZM1127.98 259.83L1127.87 258.089L1122.78 258.895L1120.91 247.058L1113.77 248.187L1113.86 249.79L1118.95 249.21L1120.54 259.249L1115.45 260.055L1115.73 261.769L1127.98 259.83ZM1135.12 246.453C1136.84 246.181 1138.01 246.932 1138.42 249.532L1139.75 257.967L1141.99 257.612L1140.54 248.43C1140.02 245.112 1138.2 244.01 1135.76 244.396C1133.83 244.702 1132.5 245.791 1131.51 246.911L1131.13 245.384L1129.08 245.851C1129.71 248.954 1130.46 253.37 1131.4 259.288L1133.64 258.934C1132.89 254.205 1132.27 250.646 1131.83 248.193C1132.77 247.308 1133.83 246.658 1135.12 246.453ZM1148.41 261.5C1155.82 259.931 1157.22 256.762 1156.48 252.088C1156.23 250.512 1155.06 243.1 1154.86 242.026C1153.44 241.825 1152.13 241.805 1150.8 242.015C1146.93 242.628 1144.01 245.868 1144.7 250.238C1145.27 253.805 1147.8 255.617 1150.73 255.153C1152.33 254.899 1153.54 254.112 1154.39 253.212C1154.94 257.065 1154.21 257.975 1147.87 259.489L1148.41 261.5ZM1151.27 253.224C1149.14 253.561 1147.31 252.349 1146.83 249.362C1146.36 246.348 1147.92 244.427 1150.3 244.051C1151.16 243.915 1152.02 243.95 1152.94 244.058C1153.25 246.165 1153.87 249.949 1154.17 251.802C1153.37 252.495 1152.35 253.053 1151.27 253.224ZM1167.29 244.283L1166.83 241.038L1163.54 241.559L1164.02 244.799L1167.29 244.283ZM1168.5 253.416L1168.11 250.191L1164.82 250.712L1165.21 253.937L1168.5 253.416ZM1202.58 246.295L1197.71 247.065L1196.15 237.248L1201.3 236.434L1201.03 234.719L1195.88 235.533L1195.83 235.201C1195.38 232.325 1195.95 231.496 1201.25 230.403L1200.74 228.244C1194.57 229.561 1193.08 232.32 1193.64 235.888L1189.96 236.47L1190.04 238.215L1193.91 237.602L1195.47 247.42L1191.76 248.006L1192.03 249.693L1202.65 248.013L1202.58 246.295ZM1211.63 245.118C1209.94 245.385 1208.7 244.73 1208.47 243.292C1208.18 241.439 1209.64 240.103 1214.67 239.845C1214.88 241.172 1215.07 242.163 1215.24 243.044C1214.32 244.04 1212.98 244.904 1211.63 245.118ZM1216.01 245.983L1218.04 245.52C1217.62 243.602 1217.21 241.711 1216.76 238.89C1215.94 233.663 1213.58 232.364 1205.71 233.382L1205.77 235.357C1211.86 234.62 1213.7 235.15 1214.39 238.245C1208.33 238.835 1205.9 241.375 1206.34 244.168C1206.69 246.353 1208.59 247.413 1211.05 247.024C1213.18 246.687 1214.6 245.469 1215.55 244.271C1215.7 244.871 1215.94 245.71 1216.01 245.983ZM1233.25 243.169L1233.18 241.424L1228.75 242.124L1225.97 224.535L1219.72 225.524L1219.78 227.159L1223.98 226.692L1226.48 242.483L1222.09 243.179L1222.36 244.894L1233.25 243.169ZM1245.33 227.254C1238.33 227.823 1236.36 230.403 1236.7 232.56C1237.24 235.962 1244.88 235.15 1245.26 237.556C1245.45 238.773 1243.92 240.035 1237.93 240.502L1238.16 242.506C1245.83 241.717 1247.9 239.207 1247.55 236.995C1247 233.538 1239.27 234.137 1238.92 231.897C1238.74 230.791 1240.09 229.614 1245.73 229.232L1245.33 227.254ZM1263.27 238.731L1263.19 236.788C1256.61 237.659 1254.4 236.762 1253.67 233.589L1262.9 231.901C1262.69 227.342 1260.33 224.653 1256.63 225.239C1253.11 225.795 1250.74 229.431 1251.39 233.552C1252.09 237.949 1254.77 240.047 1263.27 238.731ZM1256.53 227.154C1258.8 226.795 1260.14 228.256 1260.58 230.851C1258.68 231.208 1254.99 231.905 1253.45 232.206C1253.15 229.276 1254.29 227.508 1256.53 227.154Z" fill="black"/>
<path d="M1073.65 218.175L1077.9 216.949L1071.24 208.324C1073.04 206.514 1074.26 204.366 1073.81 201.615C1073.08 197.065 1069.23 194.717 1058.63 197.868L1062.14 219.699L1066.12 219.059L1064.91 211.511L1068.36 210.885L1073.65 218.175ZM1063.11 200.296C1067.29 199.046 1069.5 200.245 1069.97 203.137C1070.28 205.042 1069.57 206.746 1068.29 207.966L1064.46 208.69L1063.11 200.296ZM1095.11 214.837L1094.97 211.494C1087.18 212.565 1084.35 211.826 1083.36 208.367L1094.63 206.23C1094.28 200.027 1091.3 196.527 1086.36 197.32C1081.74 198.063 1078.46 202.859 1079.32 208.255C1080.24 213.969 1083.77 216.767 1095.11 214.837ZM1086.17 200.643C1088.6 200.252 1089.97 201.805 1090.53 204.574C1088.35 204.996 1084.81 205.674 1082.95 206.045C1082.6 202.736 1083.77 201.028 1086.17 200.643ZM1111.56 199.278L1100.27 201.091L1100.81 204.441L1111.81 202.673L1111.56 199.278ZM1131.82 208.829L1136.08 207.603L1129.41 198.978C1131.22 197.168 1132.43 195.02 1131.99 192.269C1131.25 187.719 1127.4 185.371 1116.8 188.521L1120.31 210.353L1124.3 209.712L1123.08 202.165L1126.53 201.539L1131.82 208.829ZM1121.28 190.95C1125.46 189.7 1127.68 190.899 1128.14 193.791C1128.45 195.695 1127.74 197.4 1126.46 198.62L1122.63 199.343L1121.28 190.95ZM1153.28 205.49L1153.14 202.148C1145.35 203.218 1142.52 202.479 1141.53 199.021L1152.8 196.884C1152.45 190.681 1149.47 187.181 1144.53 187.974C1139.91 188.716 1136.63 193.513 1137.5 198.909C1138.41 204.622 1141.94 207.421 1153.28 205.49ZM1144.34 191.297C1146.77 190.906 1148.14 192.458 1148.7 195.228C1146.52 195.649 1142.98 196.328 1141.12 196.698C1140.77 193.39 1141.94 191.682 1144.34 191.297ZM1163.97 188.289C1165.76 188 1167.09 188.8 1167.59 191.904L1169.29 202.484L1173.2 201.855L1171.28 189.899C1170.59 185.632 1168.33 184.15 1165.26 184.643C1162.83 185.034 1161.21 186.452 1160 187.948L1159.47 185.972L1155.87 186.767C1156.72 190.719 1157.68 196.244 1158.95 204.145L1162.9 203.51C1162 197.867 1161.19 193.293 1160.59 190.025C1161.57 189.144 1162.63 188.504 1163.97 188.289ZM1184.95 197.145C1182.52 197.536 1180.49 195.909 1179.82 191.747C1179.19 187.868 1180.75 185.592 1183.43 185.162C1184.2 185.037 1185.08 185.077 1186 185.218C1186.68 189.45 1187.27 192.866 1187.78 195.57C1187.04 196.376 1186.12 196.958 1184.95 197.145ZM1188.83 199.452L1192.43 198.657C1191.63 194.806 1190.7 189.421 1189.38 181.203L1188.17 173.726L1184.32 174.708L1185.4 181.444C1185.11 181.454 1184.86 181.494 1184.58 181.539C1179.01 182.435 1175.05 186.869 1176.1 193.358C1176.94 198.578 1180.14 201.21 1183.85 200.615C1185.86 200.292 1187.33 199.079 1188.34 197.723L1188.83 199.452ZM1211.45 196.144L1211.31 192.802C1203.52 193.872 1200.69 193.133 1199.7 189.674L1210.97 187.538C1210.63 181.334 1207.64 177.835 1202.7 178.628C1198.08 179.37 1194.8 184.166 1195.67 189.563C1196.59 195.276 1200.11 198.074 1211.45 196.144ZM1202.51 181.951C1204.95 181.56 1206.32 183.112 1206.87 185.881C1204.7 186.303 1201.15 186.981 1199.29 187.352C1198.94 184.044 1200.11 182.336 1202.51 181.951ZM1229.89 192.747L1229.73 189.733L1224.41 190.589C1223.74 186.862 1223.22 183.905 1222.73 181.271C1224.55 180.002 1226.88 178.976 1229.89 178.312L1229.04 174.179C1225.8 175.135 1223.52 176.983 1222.23 179.072C1222.02 178.202 1221.49 176.261 1221.43 176.09L1214.16 177.257L1214.29 180.094L1218.5 179.708C1219.07 182.8 1219.69 186.462 1220.53 191.212L1216.26 191.898L1216.74 194.861L1229.89 192.747Z" fill="black"/>
<path d="M1439.26 93.8637L1727.26 47.6279V436.741L1439.26 482.977V93.8637Z" fill="#DDD2E6" fill-opacity="0.97"/>
<path d="M1475.89 258.126L1475.55 254.325L1473.17 254.702L1473.6 258.489L1475.89 258.126ZM1483.42 273.066L1483.31 271.325L1478.22 272.13L1476.35 260.293L1469.21 261.423L1469.3 263.025L1474.39 262.445L1475.98 272.485L1470.89 273.29L1471.17 275.004L1483.42 273.066ZM1494.33 257.334C1487.33 257.903 1485.36 260.483 1485.7 262.64C1486.24 266.042 1493.88 265.23 1494.26 267.636C1494.45 268.853 1492.92 270.115 1486.93 270.582L1487.16 272.586C1494.83 271.797 1496.9 269.287 1496.55 267.075C1496.01 263.618 1488.28 264.217 1487.92 261.977C1487.75 260.871 1489.09 259.694 1494.73 259.312L1494.33 257.334ZM1504.62 269.71L1503.74 264.179C1508.99 262.952 1512.23 260.511 1511.59 256.418C1510.92 252.214 1506.85 250.675 1499.61 252.955L1502.32 270.074L1504.62 269.71ZM1509.39 257.219C1509.88 260.317 1507.7 261.767 1503.42 262.133L1502.19 254.389C1506.55 253.104 1508.92 254.288 1509.39 257.219ZM1527.87 266.03L1527.79 264.285L1523.37 264.985L1520.59 247.396L1514.34 248.385L1514.4 250.02L1518.6 249.553L1521.1 265.344L1516.7 266.04L1516.98 267.755L1527.87 266.03ZM1536.65 263.166C1534.97 263.433 1533.73 262.779 1533.5 261.34C1533.21 259.487 1534.67 258.151 1539.7 257.893C1539.91 259.22 1540.1 260.211 1540.27 261.092C1539.35 262.088 1538.01 262.952 1536.65 263.166ZM1541.04 264.031L1543.07 263.569C1542.65 261.65 1542.24 259.759 1541.79 256.938C1540.97 251.712 1538.61 250.412 1530.74 251.43L1530.8 253.405C1536.89 252.668 1538.73 253.199 1539.42 256.293C1533.36 256.883 1530.93 259.423 1531.37 262.216C1531.72 264.401 1533.62 265.461 1536.08 265.072C1538.21 264.735 1539.63 263.517 1540.57 262.319C1540.73 262.919 1540.97 263.759 1541.04 264.031ZM1547.94 267.9C1552.45 266.62 1553.55 265.142 1554.61 260.069C1555.67 255.308 1556.47 251.043 1557.08 247.517L1554.92 247.859C1554.5 249.881 1553.54 256.299 1552.95 259.227L1552.67 259.27C1550.6 256.054 1548.43 252.372 1546.53 249.13L1544.26 249.631C1546.14 252.735 1549.73 258.602 1551.86 261.809L1552.11 261.825C1551.52 264.186 1550.8 264.784 1547.42 265.856L1547.94 267.9ZM1567.13 243.688L1566.78 239.887L1564.4 240.263L1564.83 244.051L1567.13 243.688ZM1574.65 258.627L1574.54 256.886L1569.46 257.692L1567.58 245.855L1560.45 246.984L1560.53 248.587L1565.63 248.007L1567.22 258.046L1562.13 258.852L1562.4 260.566L1574.65 258.627ZM1581.8 245.25C1583.51 244.978 1584.68 245.729 1585.09 248.329L1586.43 256.764L1588.67 256.409L1587.21 247.227C1586.69 243.909 1584.87 242.807 1582.43 243.193C1580.5 243.499 1579.17 244.588 1578.18 245.708L1577.8 244.181L1575.75 244.648C1576.38 247.751 1577.14 252.167 1578.07 258.085L1580.31 257.731C1579.56 253.002 1578.94 249.443 1578.5 246.99C1579.44 246.105 1580.5 245.455 1581.8 245.25ZM1595.09 260.297C1602.49 258.728 1603.89 255.559 1603.15 250.885C1602.9 249.309 1601.73 241.897 1601.53 240.823C1600.11 240.622 1598.8 240.602 1597.47 240.812C1593.6 241.425 1590.68 244.665 1591.38 249.035C1591.94 252.602 1594.47 254.414 1597.4 253.95C1599 253.696 1600.21 252.909 1601.06 252.009C1601.61 255.862 1600.88 256.772 1594.54 258.286L1595.09 260.297ZM1597.94 252.021C1595.81 252.358 1593.98 251.146 1593.51 248.159C1593.03 245.145 1594.6 243.224 1596.97 242.848C1597.83 242.712 1598.69 242.747 1599.61 242.855C1599.92 244.962 1600.54 248.746 1600.84 250.599C1600.04 251.292 1599.02 251.85 1597.94 252.021ZM1613.96 243.08L1613.5 239.835L1610.21 240.356L1610.69 243.596L1613.96 243.08ZM1615.18 252.213L1614.78 248.988L1611.49 249.509L1611.89 252.734L1615.18 252.213ZM1649.22 247.053L1649.17 245.133C1644.62 245.768 1643.22 245.365 1642.85 243.014L1641.73 235.907L1647.26 235.031L1646.98 233.289L1641.45 234.164L1640.83 230.21L1638.62 230.758L1639.21 234.519L1636.64 234.926L1636.69 236.703L1639.49 236.261L1640.67 243.728C1641.2 247.075 1643.37 248.064 1649.22 247.053ZM1663.7 244.535L1663.62 242.789L1659.03 243.516C1658.5 240.368 1658.03 237.721 1657.63 235.375C1658.97 234.171 1660.83 233.251 1663.56 232.593L1663.08 230.232C1660.34 231.006 1658.44 232.44 1657.33 234.033C1657.2 233.401 1656.87 232.008 1656.79 231.736L1651.54 232.568L1651.63 234.198L1655.09 233.849C1655.6 236.546 1656.13 239.722 1656.84 243.862L1653.25 244.431L1653.52 246.145L1663.7 244.535ZM1677.78 242.363L1679.83 241.897C1679.2 238.793 1678.44 234.377 1677.5 228.459L1675.26 228.813C1676.02 233.57 1676.63 237.101 1677.07 239.526C1676.17 240.435 1675.11 241.112 1673.81 241.318C1672.13 241.585 1670.99 240.857 1670.57 238.202L1669.22 229.684L1667.01 230.205L1668.45 239.304C1668.98 242.65 1670.77 243.756 1673.17 243.375C1675.11 243.069 1676.41 241.956 1677.39 240.836L1677.78 242.363ZM1694.74 239.934L1694.65 237.991C1688.07 238.862 1685.86 237.965 1685.13 234.792L1694.36 233.104C1694.15 228.545 1691.8 225.856 1688.09 226.443C1684.58 226.999 1682.21 230.634 1682.86 234.755C1683.56 239.152 1686.24 241.25 1694.74 239.934ZM1688 228.357C1690.27 227.998 1691.6 229.459 1692.04 232.054C1690.14 232.412 1686.45 233.109 1684.92 233.409C1684.62 230.479 1685.76 228.711 1688 228.357Z" fill="black"/>
<path d="M800 807L797.338 805.617L797.338 805.617L800 807ZM809.366 743.43L785.43 748.634L790.634 772.57L814.57 767.366L809.366 743.43ZM766 834C767.246 836.729 767.246 836.729 767.247 836.729C767.247 836.728 767.248 836.728 767.249 836.728C767.25 836.727 767.252 836.726 767.254 836.725C767.259 836.723 767.265 836.72 767.273 836.717C767.288 836.71 767.309 836.7 767.337 836.687C767.392 836.662 767.472 836.624 767.574 836.576C767.779 836.48 768.076 836.338 768.454 836.154C769.21 835.786 770.291 835.246 771.61 834.552C774.245 833.166 777.844 831.157 781.7 828.661C789.274 823.759 798.368 816.652 802.662 808.383L797.338 805.617C793.818 812.395 785.912 818.788 778.44 823.624C774.772 825.998 771.336 827.917 768.817 829.242C767.559 829.904 766.533 830.416 765.827 830.76C765.473 830.932 765.2 831.062 765.018 831.148C764.927 831.191 764.858 831.223 764.814 831.243C764.792 831.254 764.775 831.261 764.765 831.266C764.76 831.268 764.757 831.27 764.755 831.27C764.754 831.271 764.754 831.271 764.754 831.271C764.753 831.271 764.754 831.271 764.754 831.271C764.754 831.271 764.754 831.271 766 834ZM802.662 808.383C807.685 798.712 805.013 788.814 802.832 780.611C800.508 771.873 798.871 765.305 802.524 759.622L797.476 756.378C792.129 764.695 794.902 774.136 797.033 782.153C799.307 790.704 801.135 798.306 797.338 805.617L802.662 808.383Z" fill="#A7D0E7"/>
<path d="M1239 807L1236.34 805.617L1236.34 805.617L1239 807ZM1248.37 743.43L1224.43 748.634L1229.63 772.57L1253.57 767.366L1248.37 743.43ZM1205 834C1206.25 836.729 1206.25 836.729 1206.25 836.729C1206.25 836.728 1206.25 836.728 1206.25 836.728C1206.25 836.727 1206.25 836.726 1206.25 836.725C1206.26 836.723 1206.26 836.72 1206.27 836.717C1206.29 836.71 1206.31 836.7 1206.34 836.687C1206.39 836.662 1206.47 836.624 1206.57 836.576C1206.78 836.48 1207.08 836.338 1207.45 836.154C1208.21 835.786 1209.29 835.246 1210.61 834.552C1213.24 833.166 1216.84 831.157 1220.7 828.661C1228.27 823.759 1237.37 816.652 1241.66 808.383L1236.34 805.617C1232.82 812.395 1224.91 818.788 1217.44 823.624C1213.77 825.998 1210.34 827.917 1207.82 829.242C1206.56 829.904 1205.53 830.416 1204.83 830.76C1204.47 830.932 1204.2 831.062 1204.02 831.148C1203.93 831.191 1203.86 831.223 1203.81 831.243C1203.79 831.254 1203.78 831.261 1203.77 831.266C1203.76 831.268 1203.76 831.27 1203.76 831.27C1203.75 831.271 1203.75 831.271 1203.75 831.271C1203.75 831.271 1203.75 831.271 1203.75 831.271C1203.75 831.271 1203.75 831.271 1205 834ZM1241.66 808.383C1246.68 798.712 1244.01 788.814 1241.83 780.611C1239.51 771.873 1237.87 765.305 1241.52 759.622L1236.48 756.378C1231.13 764.695 1233.9 774.136 1236.03 782.153C1238.31 790.704 1240.13 798.306 1236.34 805.617L1241.66 808.383Z" fill="#A7D0E7"/>
<path d="M1678 807L1675.34 805.617L1675.34 805.617L1678 807ZM1687.37 743.43L1663.43 748.634L1668.63 772.57L1692.57 767.366L1687.37 743.43ZM1644 834C1645.25 836.729 1645.25 836.729 1645.25 836.729C1645.25 836.728 1645.25 836.728 1645.25 836.728C1645.25 836.727 1645.25 836.726 1645.25 836.725C1645.26 836.723 1645.26 836.72 1645.27 836.717C1645.29 836.71 1645.31 836.7 1645.34 836.687C1645.39 836.662 1645.47 836.624 1645.57 836.576C1645.78 836.48 1646.08 836.338 1646.45 836.154C1647.21 835.786 1648.29 835.246 1649.61 834.552C1652.24 833.166 1655.84 831.157 1659.7 828.661C1667.27 823.759 1676.37 816.652 1680.66 808.383L1675.34 805.617C1671.82 812.395 1663.91 818.788 1656.44 823.624C1652.77 825.998 1649.34 827.917 1646.82 829.242C1645.56 829.904 1644.53 830.416 1643.83 830.76C1643.47 830.932 1643.2 831.062 1643.02 831.148C1642.93 831.191 1642.86 831.223 1642.81 831.243C1642.79 831.254 1642.78 831.261 1642.77 831.266C1642.76 831.268 1642.76 831.27 1642.76 831.27C1642.75 831.271 1642.75 831.271 1642.75 831.271C1642.75 831.271 1642.75 831.271 1642.75 831.271C1642.75 831.271 1642.75 831.271 1644 834ZM1680.66 808.383C1685.68 798.712 1683.01 788.814 1680.83 780.611C1678.51 771.873 1676.87 765.305 1680.52 759.622L1675.48 756.378C1670.13 764.695 1672.9 774.136 1675.03 782.153C1677.31 790.704 1679.13 798.306 1675.34 805.617L1680.66 808.383Z" fill="#A7D0E7"/>
<path d="M1512.72 218.175L1516.97 216.949L1510.31 208.324C1512.11 206.514 1513.32 204.366 1512.88 201.615C1512.15 197.065 1508.3 194.717 1497.7 197.868L1501.21 219.699L1505.19 219.059L1503.98 211.511L1507.43 210.885L1512.72 218.175ZM1502.18 200.296C1506.36 199.046 1508.57 200.245 1509.04 203.137C1509.34 205.041 1508.64 206.746 1507.35 207.966L1503.53 208.69L1502.18 200.296ZM1534.17 214.836L1534.04 211.494C1526.25 212.564 1523.42 211.825 1522.43 208.367L1533.7 206.23C1533.35 200.027 1530.36 196.527 1525.43 197.32C1520.81 198.062 1517.53 202.859 1518.39 208.255C1519.31 213.968 1522.83 216.767 1534.17 214.836ZM1525.24 200.643C1527.67 200.252 1529.04 201.804 1529.6 204.574C1527.42 204.996 1523.87 205.674 1522.02 206.045C1521.67 202.736 1522.84 201.028 1525.24 200.643ZM1550.63 199.277L1539.34 201.091L1539.88 204.441L1550.88 202.673L1550.63 199.277ZM1570.89 208.828L1575.15 207.602L1568.48 198.978C1570.29 197.168 1571.5 195.02 1571.05 192.269C1570.32 187.719 1566.47 185.371 1555.87 188.521L1559.38 210.353L1563.37 209.712L1562.15 202.165L1565.6 201.539L1570.89 208.828ZM1560.35 190.949C1564.53 189.699 1566.75 190.899 1567.21 193.791C1567.52 195.695 1566.81 197.4 1565.53 198.62L1561.7 199.343L1560.35 190.949ZM1592.35 205.49L1592.21 202.148C1584.42 203.218 1581.59 202.479 1580.6 199.02L1591.87 196.884C1591.52 190.68 1588.54 187.181 1583.6 187.974C1578.98 188.716 1575.7 193.513 1576.56 198.909C1577.48 204.622 1581.01 207.42 1592.35 205.49ZM1583.41 191.297C1585.84 190.906 1587.21 192.458 1587.77 195.227C1585.59 195.649 1582.05 196.327 1580.19 196.698C1579.84 193.39 1581.01 191.682 1583.41 191.297ZM1603.03 188.288C1604.83 187.999 1606.16 188.8 1606.65 191.903L1608.35 202.484L1612.27 201.855L1610.35 189.899C1609.66 185.632 1607.4 184.15 1604.33 184.643C1601.9 185.034 1600.28 186.452 1599.07 187.948L1598.54 185.972L1594.94 186.767C1595.79 190.718 1596.75 196.244 1598.02 204.144L1601.97 203.51C1601.06 197.867 1600.26 193.293 1599.66 190.024C1600.64 189.143 1601.69 188.504 1603.03 188.288ZM1624.02 197.145C1621.59 197.536 1619.56 195.909 1618.89 191.747C1618.26 187.868 1619.82 185.592 1622.5 185.162C1623.27 185.037 1624.15 185.077 1625.07 185.218C1625.75 189.45 1626.34 192.865 1626.85 195.57C1626.11 196.376 1625.19 196.958 1624.02 197.145ZM1627.9 199.452L1631.5 198.657C1630.7 194.805 1629.77 189.421 1628.44 181.203L1627.24 173.726L1623.39 174.708L1624.47 181.444C1624.18 181.454 1623.93 181.494 1623.65 181.539C1618.08 182.434 1614.12 186.869 1615.17 193.358C1616 198.578 1619.21 201.21 1622.92 200.615C1624.93 200.292 1626.4 199.079 1627.41 197.722L1627.9 199.452ZM1650.52 196.144L1650.38 192.801C1642.59 193.872 1639.76 193.133 1638.77 189.674L1650.04 187.538C1649.7 181.334 1646.71 177.834 1641.77 178.628C1637.15 179.37 1633.87 184.166 1634.74 189.562C1635.66 195.276 1639.18 198.074 1650.52 196.144ZM1641.58 181.95C1644.02 181.559 1645.39 183.112 1645.94 185.881C1643.76 186.303 1640.22 186.981 1638.36 187.352C1638.01 184.044 1639.18 182.336 1641.58 181.95ZM1668.96 192.747L1668.8 189.733L1663.48 190.589C1662.81 186.862 1662.29 183.905 1661.8 181.271C1663.62 180.001 1665.95 178.976 1668.96 178.312L1668.11 174.179C1664.86 175.134 1662.59 176.983 1661.3 179.072C1661.09 178.201 1660.56 176.26 1660.5 176.09L1653.23 177.257L1653.36 180.094L1657.57 179.708C1658.14 182.8 1658.76 186.462 1659.6 191.212L1655.33 191.898L1655.81 194.86L1668.96 192.747Z" fill="black"/>
<rect x="48" y="819" width="1824" height="119" rx="24" fill="#A7D0E7"/>
<path d="M781.533 887.642C773.067 888.071 770.674 885.535 770.674 879.712C770.674 874.89 772.21 872.282 781.319 872.461L781.104 868.532C770.102 868.746 766.423 874.068 766.423 880.248C766.423 886.964 769.745 892.072 781.176 891.143L781.533 887.642ZM793.135 891.536C797.886 891.536 801.816 887.642 801.816 881.713C801.816 875.926 798.744 872.675 794.279 872.675C789.563 872.675 785.598 876.747 785.598 882.534C785.598 888.285 788.742 891.536 793.135 891.536ZM793.85 888.321C791.278 888.321 789.635 886.106 789.635 881.784C789.635 877.89 791.207 875.926 793.6 875.926C796.172 875.926 797.815 878.14 797.815 882.427C797.815 886.356 796.243 888.321 793.85 888.321ZM810.775 876.14C811.668 876.14 812.061 876.676 812.061 878.176V891H814.883V876.962C815.418 876.426 815.99 876.14 816.633 876.14C817.562 876.14 817.99 876.676 817.99 878.212V891H821.67V876.819C821.67 874.175 820.669 872.747 818.633 872.747C817.062 872.747 815.811 873.604 814.847 874.676C814.49 873.461 813.668 872.747 812.275 872.747C810.81 872.747 809.56 873.604 808.596 874.676L808.453 873.14L805.059 873.354C805.202 877.39 805.202 882.999 805.202 891H808.881C808.881 885.142 808.846 880.391 808.774 877.069C809.417 876.462 810.096 876.14 810.775 876.14ZM832.307 888.035C831.45 888.035 830.771 887.892 829.986 887.607C829.95 882.963 829.878 879.676 829.843 877.14C830.807 876.426 831.914 875.997 832.986 875.997C835.379 875.997 837.13 878.069 837.13 882.177C837.13 886.106 835.022 888.035 832.307 888.035ZM829.986 896.858V891.429C830.307 891.464 830.593 891.464 830.914 891.464C836.487 891.464 841.059 887.714 841.059 881.212C841.059 876.033 838.308 872.747 834.594 872.747C832.522 872.747 830.879 873.747 829.628 874.961L829.45 873.14L825.806 873.354C825.985 876.89 826.02 881.927 826.02 891.107V897.215L829.986 896.858ZM852.054 891.536C856.805 891.536 860.734 887.642 860.734 881.713C860.734 875.926 857.662 872.675 853.197 872.675C848.482 872.675 844.517 876.747 844.517 882.534C844.517 888.285 847.66 891.536 852.054 891.536ZM852.768 888.321C850.197 888.321 848.553 886.106 848.553 881.784C848.553 877.89 850.125 875.926 852.518 875.926C855.09 875.926 856.734 878.14 856.734 882.427C856.734 886.356 855.162 888.321 852.768 888.321ZM872.658 876.14C874.48 876.14 875.659 877.14 875.659 880.284V891H879.624V878.891C879.624 874.568 877.623 872.747 874.516 872.747C872.051 872.747 870.229 873.89 868.8 875.176L868.586 873.14L864.907 873.354C865.121 877.39 865.192 882.999 865.192 891H869.193C869.193 885.285 869.122 880.641 869.05 877.319C870.158 876.604 871.301 876.14 872.658 876.14ZM898.656 891.429L899.049 888.107C891.19 887.928 888.511 886.749 888.083 883.177L899.549 882.856C900.192 876.676 897.799 872.747 892.798 872.747C888.118 872.747 884.117 876.962 884.117 882.427C884.117 888.214 887.154 891.536 898.656 891.429ZM892.083 875.997C894.548 875.997 895.655 877.748 895.763 880.569C893.548 880.641 889.94 880.748 888.047 880.82C888.225 877.497 889.654 875.997 892.083 875.997ZM911.937 876.14C913.759 876.14 914.938 877.14 914.938 880.284V891H918.903V878.891C918.903 874.568 916.902 872.747 913.795 872.747C911.33 872.747 909.508 873.89 908.079 875.176L907.865 873.14L904.186 873.354C904.4 877.39 904.471 882.999 904.471 891H908.472C908.472 885.285 908.401 880.641 908.329 877.319C909.437 876.604 910.58 876.14 911.937 876.14ZM937.899 891.286L938.328 887.999C932.898 887.892 931.219 887.249 931.219 884.463V876.247H937.935V873.211H931.219V868.067L927.29 868.424V873.211H924.004L923.647 876.247H927.29V885.07C927.29 889.643 929.898 891.429 937.899 891.286ZM972.535 872.032H977.643V868.853H963.319V872.032H968.427V887.821H963.319V891H977.536L977.821 887.821H972.535V872.032ZM990.495 876.14C992.317 876.14 993.496 877.14 993.496 880.284V891H997.461V878.891C997.461 874.568 995.46 872.747 992.353 872.747C989.888 872.747 988.066 873.89 986.637 875.176L986.423 873.14L982.744 873.354C982.958 877.39 983.03 882.999 983.03 891H987.03C987.03 885.285 986.959 880.641 986.887 877.319C987.995 876.604 989.138 876.14 990.495 876.14ZM1015.74 873.032C1006.42 872.389 1003.13 875.319 1003.13 878.391C1003.13 882.856 1012.64 883.499 1012.64 886.035C1012.64 887.428 1010.46 888.249 1003.38 887.785L1003.24 891.179C1013.49 891.643 1016.78 888.892 1016.78 885.82C1016.78 881.355 1007.24 880.319 1007.24 877.926C1007.24 876.676 1009.28 875.89 1015.89 876.462L1015.74 873.032ZM1036.1 891.286L1036.53 887.999C1031.1 887.892 1029.42 887.249 1029.42 884.463V876.247H1036.13V873.211H1029.42V868.067L1025.49 868.424V873.211H1022.2L1021.84 876.247H1025.49V885.07C1025.49 889.643 1028.1 891.429 1036.1 891.286ZM1048.24 888.392C1046.41 888.392 1045.23 887.464 1045.23 885.892C1045.23 883.927 1046.7 882.748 1052.2 883.32C1052.24 884.785 1052.24 885.963 1052.31 886.999C1051.06 887.857 1049.59 888.392 1048.24 888.392ZM1052.81 891.107L1056.45 890.929C1056.27 888.464 1056.13 885.642 1056.13 882.177C1056.13 875.247 1053.45 873.032 1042.73 872.854L1042.34 876.212C1049.99 876.462 1051.95 877.283 1052.16 880.712C1044.66 880.391 1041.31 883.249 1041.31 886.821C1041.31 889.714 1043.48 891.464 1046.66 891.464C1049.24 891.464 1051.13 890.286 1052.49 888.964C1052.59 889.821 1052.77 890.964 1052.81 891.107ZM1069.05 876.14C1070.88 876.14 1072.05 877.14 1072.05 880.284V891H1076.02V878.891C1076.02 874.568 1074.02 872.747 1070.91 872.747C1068.45 872.747 1066.62 873.89 1065.2 875.176L1064.98 873.14L1061.3 873.354C1061.52 877.39 1061.59 882.999 1061.59 891H1065.59C1065.59 885.285 1065.52 880.641 1065.45 877.319C1066.55 876.604 1067.7 876.14 1069.05 876.14ZM1081.05 882.391C1081.05 887.892 1083.98 892.072 1095.09 891.143L1095.48 887.857C1087.48 888.321 1084.98 886.463 1084.98 881.891C1084.98 878.462 1086.34 876.426 1095.23 876.712L1094.98 872.961C1084.33 872.997 1081.05 877.426 1081.05 882.391ZM1114.69 891.429L1115.08 888.107C1107.23 887.928 1104.55 886.749 1104.12 883.177L1115.58 882.856C1116.23 876.676 1113.83 872.747 1108.83 872.747C1104.15 872.747 1100.15 876.962 1100.15 882.427C1100.15 888.214 1103.19 891.536 1114.69 891.429ZM1108.12 875.997C1110.58 875.997 1111.69 877.748 1111.8 880.569C1109.58 880.641 1105.97 880.748 1104.08 880.82C1104.26 877.497 1105.69 875.997 1108.12 875.997Z" fill="black"/>
</svg>
