<svg width="1920" height="949" viewBox="0 0 1920 949" fill="none" xmlns="http://www.w3.org/2000/svg">
<rect width="1920" height="949" fill="#F2F2F2"/>
<path d="M609.449 724.284L611.735 722.891L609.664 717.926L614.736 715.925L614.129 713.389L608.735 713.818L608.413 708.388L605.734 708.21L604.484 713.496L599.305 712.032L598.269 714.497L602.912 717.39L599.983 721.819L601.984 723.605L606.091 720.105L609.449 724.284ZM623.373 718.14C624.266 718.14 624.659 718.676 624.659 720.176V733H627.481V718.962C628.017 718.426 628.589 718.14 629.232 718.14C630.16 718.14 630.589 718.676 630.589 720.212V733H634.268V718.819C634.268 716.175 633.268 714.747 631.232 714.747C629.66 714.747 628.41 715.604 627.446 716.676C627.088 715.461 626.267 714.747 624.874 714.747C623.409 714.747 622.159 715.604 621.194 716.676L621.052 715.14L617.658 715.354C617.801 719.39 617.801 724.999 617.801 733H621.48C621.48 727.142 621.445 722.391 621.373 719.069C622.016 718.462 622.695 718.14 623.373 718.14ZM645.013 733.536C649.764 733.536 653.694 729.642 653.694 723.713C653.694 717.926 650.622 714.675 646.156 714.675C641.441 714.675 637.476 718.747 637.476 724.534C637.476 730.285 640.62 733.536 645.013 733.536ZM645.728 730.321C643.156 730.321 641.513 728.106 641.513 723.784C641.513 719.89 643.084 717.926 645.478 717.926C648.05 717.926 649.693 720.14 649.693 724.427C649.693 728.356 648.121 730.321 645.728 730.321ZM668.904 733.071L672.583 732.893C672.369 728.821 672.297 723.212 672.297 715.211H668.332C668.332 720.962 668.368 725.57 668.439 728.856C667.368 729.607 666.189 730.071 664.867 730.071C663.045 730.071 661.902 729.071 661.902 725.927V715.104L657.937 715.354V727.32C657.937 731.678 659.902 733.464 663.01 733.464C665.474 733.464 667.261 732.321 668.689 731.071L668.904 733.071ZM690.865 715.032C681.542 714.389 678.256 717.319 678.256 720.391C678.256 724.856 687.757 725.499 687.757 728.035C687.757 729.428 685.578 730.249 678.506 729.785L678.363 733.179C688.615 733.643 691.901 730.892 691.901 727.82C691.901 723.355 682.363 722.319 682.363 719.926C682.363 718.676 684.4 717.89 691.008 718.462L690.865 715.032ZM711.255 733.429L711.648 730.107C703.789 729.928 701.11 728.749 700.681 725.177L712.148 724.856C712.791 718.676 710.397 714.747 705.397 714.747C700.717 714.747 696.716 718.962 696.716 724.427C696.716 730.214 699.753 733.536 711.255 733.429ZM704.682 717.997C707.147 717.997 708.254 719.748 708.361 722.569C706.147 722.641 702.539 722.748 700.646 722.82C700.824 719.497 702.253 717.997 704.682 717.997ZM727.894 710.853C727.894 710.853 724.5 723.07 724.25 724.034H724.107C723.857 723.07 720.428 710.853 720.428 710.853H716.427V733H720.107L719.892 718.212H720.035L722.964 728.606H725.215L728.108 718.212H728.251L728.037 733H731.823V710.853H727.894ZM743.211 733.536C747.962 733.536 751.891 729.642 751.891 723.713C751.891 717.926 748.819 714.675 744.354 714.675C739.639 714.675 735.674 718.747 735.674 724.534C735.674 730.285 738.817 733.536 743.211 733.536ZM743.925 730.321C741.354 730.321 739.71 728.106 739.71 723.784C739.71 719.89 741.282 717.926 743.675 717.926C746.247 717.926 747.89 720.14 747.89 724.427C747.89 728.356 746.319 730.321 743.925 730.321ZM763.636 729.142H763.386C761.707 724.463 760.207 719.676 758.814 715.068L754.813 715.354C756.671 721.212 758.778 727.249 760.993 733.143H765.815C768.066 727.249 770.281 721.141 772.102 715.211H768.102C766.744 719.783 765.28 724.498 763.636 729.142ZM789.813 733.429L790.206 730.107C782.347 729.928 779.668 728.749 779.239 725.177L790.706 724.856C791.349 718.676 788.956 714.747 783.955 714.747C779.275 714.747 775.274 718.962 775.274 724.427C775.274 730.214 778.311 733.536 789.813 733.429ZM783.24 717.997C785.705 717.997 786.812 719.748 786.919 722.569C784.705 722.641 781.097 722.748 779.204 722.82C779.382 719.497 780.811 717.997 783.24 717.997ZM805.845 724.284L808.131 722.891L806.059 717.926L811.131 715.925L810.524 713.389L805.13 713.818L804.809 708.388L802.13 708.21L800.879 713.496L795.7 712.032L794.664 714.497L799.308 717.39L796.379 721.819L798.379 723.605L802.487 720.105L805.845 724.284Z" fill="black"/>
<path d="M707.067 642.886C706.195 642.015 704.781 642.015 703.91 642.886L689.702 657.094C688.83 657.966 688.83 659.38 689.702 660.252C690.574 661.124 691.987 661.124 692.859 660.252L705.488 647.622L718.118 660.252C718.989 661.124 720.403 661.124 721.275 660.252C722.147 659.38 722.147 657.966 721.275 657.094L707.067 642.886ZM707.721 684.651V644.465H703.256V684.651H707.721Z" fill="#C4002F"/>
<path d="M1146.14 642.886C1145.27 642.015 1143.85 642.015 1142.98 642.886L1128.77 657.094C1127.9 657.966 1127.9 659.38 1128.77 660.252C1129.64 661.124 1131.06 661.124 1131.93 660.252L1144.56 647.622L1157.19 660.252C1158.06 661.124 1159.47 661.124 1160.35 660.252C1161.22 659.38 1161.22 657.966 1160.35 657.094L1146.14 642.886ZM1146.79 684.651V644.465H1142.33V684.651H1146.79Z" fill="#C4002F"/>
<path d="M1585.21 642.886C1584.33 642.015 1582.92 642.015 1582.05 642.886L1567.84 657.094C1566.97 657.966 1566.97 659.38 1567.84 660.252C1568.71 661.124 1570.13 661.124 1571 660.252L1583.63 647.622L1596.26 660.252C1597.13 661.124 1598.54 661.124 1599.41 660.252C1600.29 659.38 1600.29 657.966 1599.41 657.094L1585.21 642.886ZM1585.86 684.651V644.465H1581.39V684.651H1585.86Z" fill="#C4002F"/>
<path d="M264.931 605.768V660.837C264.931 673.989 275.593 684.651 288.745 684.651H1872.37" stroke="#C4002F" stroke-width="4.46512"/>
<path d="M1836.79 287.391C1838.09 286.084 1838.09 283.963 1836.79 282.655L1815.47 261.344C1814.17 260.036 1812.05 260.036 1810.74 261.344C1809.43 262.651 1809.43 264.772 1810.74 266.08L1829.68 285.023L1810.74 303.967C1809.43 305.275 1809.43 307.395 1810.74 308.703C1812.05 310.011 1814.17 310.011 1815.47 308.703L1836.79 287.391ZM47.6279 288.372H54.2951V281.675H47.6279V288.372ZM67.6293 288.372H80.9636V281.675H67.6293V288.372ZM94.2978 288.372H107.632V281.675H94.2978V288.372ZM120.966 288.372H134.301V281.675H120.966V288.372ZM147.635 288.372H160.969V281.675H147.635V288.372ZM174.303 288.372H187.638V281.675H174.303V288.372ZM200.972 288.372H214.306V281.675H200.972V288.372ZM227.64 288.372H240.975V281.675H227.64V288.372ZM254.309 288.372H267.643V281.675H254.309V288.372ZM280.977 288.372H294.312V281.675H280.977V288.372ZM307.646 288.372H320.98V281.675H307.646V288.372ZM334.315 288.372H347.649V281.675H334.315V288.372ZM360.983 288.372H374.317V281.675H360.983V288.372ZM387.652 288.372H400.986V281.675H387.652V288.372ZM414.32 288.372H427.654V281.675H414.32V288.372ZM440.989 288.372H454.323V281.675H440.989V288.372ZM467.657 288.372H480.991V281.675H467.657V288.372ZM494.326 288.372H507.66V281.675H494.326V288.372ZM520.994 288.372H534.328V281.675H520.994V288.372ZM547.663 288.372H560.997V281.675H547.663V288.372ZM574.331 288.372H587.665V281.675H574.331V288.372ZM601 288.372H614.334V281.675H601V288.372ZM627.668 288.372H641.002V281.675H627.668V288.372ZM654.337 288.372H667.671V281.675H654.337V288.372ZM681.005 288.372H694.339V281.675H681.005V288.372ZM707.673 288.372H721.008V281.675H707.673V288.372ZM734.342 288.372H747.676V281.675H734.342V288.372ZM761.01 288.372H774.345V281.675H761.01V288.372ZM787.679 288.372H801.013V281.675H787.679V288.372ZM814.347 288.372H827.682V281.675H814.347V288.372ZM841.016 288.372H854.35V281.675H841.016V288.372ZM867.684 288.372H881.018V281.675H867.684V288.372ZM894.353 288.372H907.687V281.675H894.353V288.372ZM921.021 288.372H934.355V281.675H921.021V288.372ZM947.69 288.372H961.024V281.675H947.69V288.372ZM974.358 288.372H987.692V281.675H974.358V288.372ZM1001.03 288.372H1014.36V281.675H1001.03V288.372ZM1027.69 288.372H1041.03V281.675H1027.69V288.372ZM1054.36 288.372H1067.7V281.675H1054.36V288.372ZM1081.03 288.372H1094.37V281.675H1081.03V288.372ZM1107.7 288.372H1121.03V281.675H1107.7V288.372ZM1134.37 288.372H1147.7V281.675H1134.37V288.372ZM1161.04 288.372H1174.37V281.675H1161.04V288.372ZM1187.71 288.372H1201.04V281.675H1187.71V288.372ZM1214.37 288.372H1227.71V281.675H1214.37V288.372ZM1241.04 288.372H1254.38V281.675H1241.04V288.372ZM1267.71 288.372H1281.05V281.675H1267.71V288.372ZM1294.38 288.372H1307.71V281.675H1294.38V288.372ZM1321.05 288.372H1334.38V281.675H1321.05V288.372ZM1347.72 288.372H1361.05V281.675H1347.72V288.372ZM1374.38 288.372H1387.72V281.675H1374.38V288.372ZM1401.05 288.372H1414.39V281.675H1401.05V288.372ZM1427.72 288.372H1441.06V281.675H1427.72V288.372ZM1454.39 288.372H1467.72V281.675H1454.39V288.372ZM1481.06 288.372H1494.39V281.675H1481.06V288.372ZM1507.73 288.372H1521.06V281.675H1507.73V288.372ZM1534.4 288.372H1547.73V281.675H1534.4V288.372ZM1561.06 288.372H1574.4V281.675H1561.06V288.372ZM1587.73 288.372H1601.07V281.675H1587.73V288.372ZM1614.4 288.372H1627.74V281.675H1614.4V288.372ZM1641.07 288.372H1654.4V281.675H1641.07V288.372ZM1667.74 288.372H1681.07V281.675H1667.74V288.372ZM1694.41 288.372H1707.74V281.675H1694.41V288.372ZM1721.07 288.372H1734.41V281.675H1721.07V288.372ZM1747.74 288.372H1761.08V281.675H1747.74V288.372ZM1774.41 288.372H1787.75V281.675H1774.41V288.372ZM1801.08 288.372H1814.41V281.675H1801.08V288.372ZM1827.75 288.372H1834.42V281.675H1827.75V288.372Z" fill="black"/>
<path d="M122.047 93.8637L410.047 47.6279V436.741L122.047 482.977V93.8637Z" fill="#DDD2E6" fill-opacity="0.97"/>
<path d="M122.047 483.073L410.047 436.837V583.345L122.047 629.581V483.073Z" fill="#FEE198" fill-opacity="0.98"/>
<path d="M205.822 552.786L196.017 554.361L195.031 548.224L203.249 546.904L202.773 543.941L194.556 545.262L193.592 539.266L203.185 537.725L202.641 534.339L188.992 536.532L192.506 558.398L206.049 556.222L205.822 552.786ZM224.652 550.231L219.079 551.126L217.328 540.228L223.254 539.276L222.772 536.278L216.847 537.23L216.745 536.595C216.24 533.456 216.82 532.784 223.205 531.542L222.346 527.772C214.196 529.516 212.201 533.309 212.926 537.824L212.932 537.859L208.629 538.55L208.758 541.605L213.414 540.857L215.165 551.755L210.721 552.469L211.191 555.396L224.769 553.215L224.652 550.231ZM244.043 547.115L238.47 548.011L236.719 537.113L242.644 536.161L242.163 533.163L236.238 534.115L236.136 533.48C235.631 530.341 236.211 529.669 242.596 528.426L241.737 524.657C233.587 526.4 231.592 530.194 232.317 534.708L232.323 534.744L228.02 535.435L228.149 538.489L232.804 537.741L234.555 548.64L230.112 549.353L230.582 552.281L244.16 550.099L244.043 547.115ZM263.725 547.39L263.586 544.048C255.799 545.118 252.966 544.379 251.977 540.92L263.247 538.784C262.901 532.58 259.915 529.08 254.977 529.874C250.357 530.616 247.076 535.412 247.943 540.809C248.861 546.522 252.385 549.32 263.725 547.39ZM254.788 533.197C257.221 532.806 258.592 534.358 259.146 537.127C256.97 537.549 253.425 538.227 251.567 538.598C251.217 535.29 252.389 533.582 254.788 533.197ZM267.857 537.573C268.73 543.004 272.285 546.666 283.106 543.987L282.972 540.68C275.146 542.407 272.382 540.97 271.657 536.456C271.113 533.07 272.13 530.844 280.958 529.716L280.116 526.052C269.611 527.776 267.069 532.67 267.857 537.573ZM302.449 541.024L302.351 537.711C296.973 538.467 295.213 538.098 294.771 535.347L293.468 527.235L300.098 526.17L299.617 523.172L292.986 524.237L292.17 519.159L288.347 520.135L289.107 524.861L285.862 525.382L285.991 528.437L289.588 527.859L290.988 536.57C291.713 541.084 294.571 542.434 302.449 541.024ZM342.349 534.324L342.139 530.993L336.849 531.843L333.75 512.551L330.027 513.474L330.441 516.049L325.1 517.486L325.629 520.331L330.967 519.329L333.075 532.449L327.15 533.401L327.677 536.681L342.349 534.324Z" fill="black"/>
<path d="M242.984 268.075L246.131 267.396L238.53 259.81L243.483 250.202L240.413 250.688L236.55 258.496L230.276 252.22L227.164 252.893L234.836 260.467L229.848 270.081L232.882 269.601L236.787 261.822L242.984 268.075ZM257.817 253.756L257.234 249.617L253.036 250.282L253.654 254.415L257.817 253.756ZM259.372 265.409L258.865 261.294L254.667 261.958L255.173 266.073L259.372 265.409ZM296.048 260.038C300.952 259.262 303.32 254.114 302.208 247.093C301.114 240.177 297.85 236.463 292.946 237.239C288.042 238.015 285.703 243.122 286.82 250.179C287.909 257.059 291.179 260.809 296.048 260.038ZM289.494 249.249C288.612 243.675 289.792 240.161 293.108 239.636C295.613 239.24 297.489 241.04 298.631 244.368L289.827 250.896C289.708 250.373 289.583 249.814 289.494 249.249ZM295.92 257.635C293.451 258.026 291.586 256.296 290.42 253.045L299.224 246.516C299.337 247.004 299.416 247.498 299.499 248.028C300.382 253.602 299.272 257.105 295.92 257.635ZM238.516 318.682C244.261 317.049 245.662 315.164 247.025 308.692C248.379 302.619 249.398 297.177 250.169 292.679L247.417 293.115C246.885 295.694 245.649 303.882 244.902 307.617L244.549 307.673C241.911 303.57 239.142 298.873 236.715 294.736L233.815 295.376C236.214 299.336 240.798 306.82 243.507 310.912L243.835 310.932C243.083 313.945 242.154 314.707 237.85 316.075L238.516 318.682ZM264.539 296.228L263.956 292.089L259.757 292.753L260.375 296.887L264.539 296.228ZM266.093 307.88L265.587 303.765L261.388 304.429L261.895 308.545L266.093 307.88ZM302.769 302.51C307.673 301.734 310.041 296.585 308.93 289.564C307.836 282.649 304.571 278.934 299.667 279.71C294.763 280.486 292.425 285.594 293.542 292.65C294.631 299.53 297.9 303.28 302.769 302.51ZM296.216 291.721C295.333 286.146 296.513 282.632 299.83 282.107C302.335 281.711 304.211 283.512 305.352 286.839L296.549 293.368C296.429 292.844 296.305 292.285 296.216 291.721ZM302.642 300.107C300.172 300.498 298.307 298.768 297.142 295.516L305.945 288.987C306.059 289.476 306.137 289.97 306.221 290.499C307.103 296.074 305.994 299.576 302.642 300.107Z" fill="black"/>
<path d="M224.297 217.673L228.55 216.447L221.882 207.822C223.69 206.012 224.9 203.864 224.458 201.113C223.727 196.563 219.877 194.215 209.276 197.365L212.784 219.197L216.769 218.556L215.556 211.009L219.001 210.383L224.297 217.673ZM213.755 199.794C217.931 198.544 220.15 199.743 220.615 202.635C220.921 204.539 220.218 206.244 218.93 207.464L215.103 208.187L213.755 199.794ZM245.75 214.334L245.611 210.992C237.824 212.062 234.992 211.323 234.002 207.864L245.272 205.728C244.927 199.525 241.94 196.025 237.003 196.818C232.383 197.56 229.101 202.357 229.968 207.753C230.886 213.466 234.411 216.265 245.75 214.334ZM236.813 200.141C239.247 199.75 240.618 201.302 241.171 204.072C238.996 204.493 235.451 205.172 233.593 205.542C233.242 202.234 234.415 200.526 236.813 200.141ZM256.438 197.132C258.237 196.844 259.559 197.644 260.058 200.748L261.758 211.328L265.673 210.699L263.752 198.743C263.066 194.476 260.802 192.994 257.734 193.487C255.3 193.878 253.683 195.296 252.476 196.792L251.942 194.816L248.343 195.611C249.195 199.563 250.155 205.088 251.424 212.989L255.374 212.354C254.468 206.711 253.661 202.137 253.063 198.869C254.043 197.988 255.098 197.348 256.438 197.132ZM277.427 205.989C274.993 206.38 272.959 204.753 272.291 200.591C271.667 196.712 273.219 194.436 275.9 194.006C276.676 193.881 277.55 193.921 278.477 194.062C279.157 198.294 279.742 201.71 280.249 204.414C279.51 205.22 278.591 205.802 277.427 205.989ZM281.307 208.296L284.906 207.501C284.106 203.65 283.168 198.265 281.848 190.047L280.647 182.57L276.789 183.552L277.871 190.288C277.583 190.298 277.336 190.338 277.054 190.383C271.482 191.279 267.527 195.713 268.57 202.202C269.408 207.422 272.617 210.054 276.32 209.459C278.331 209.136 279.8 207.923 280.812 206.567L281.307 208.296ZM303.923 204.988L303.784 201.646C295.997 202.716 293.164 201.977 292.175 198.518L303.445 196.382C303.099 190.178 300.113 186.678 295.175 187.472C290.555 188.214 287.274 193.01 288.141 198.407C289.059 204.12 292.584 206.918 303.923 204.988ZM294.986 190.795C297.419 190.404 298.79 191.956 299.344 194.725C297.168 195.147 293.623 195.825 291.765 196.196C291.415 192.888 292.587 191.18 294.986 190.795ZM322.364 201.591L322.206 198.577L316.88 199.433C316.209 195.706 315.698 192.749 315.202 190.115C317.024 188.846 319.356 187.82 322.36 187.156L321.515 183.023C318.268 183.979 315.996 185.827 314.704 187.916C314.492 187.046 313.963 185.105 313.899 184.934L306.634 186.101L306.764 188.938L310.971 188.552C311.54 191.644 312.165 195.306 313 200.056L308.733 200.742L309.209 203.705L322.364 201.591Z" fill="black"/>
<path d="M561.116 93.8637L849.116 47.6279V436.741L561.116 482.977V93.8637Z" fill="#DDD2E6" fill-opacity="0.97"/>
<path d="M629.609 267.731C630.446 273.023 633.994 276.476 644.361 274.112L644.299 271.662C635.893 273.39 633.09 271.447 632.37 266.896C631.789 263.227 633.133 260.518 642.065 259.141L641.423 256.458C631.401 258.261 628.855 262.968 629.609 267.731ZM656.9 272.489C661.346 271.785 664.458 267.459 663.554 261.744C662.677 256.204 659.129 253.439 654.825 254.12C650.379 254.823 647.243 259.226 648.13 264.836C649.013 270.41 652.631 273.165 656.9 272.489ZM656.985 270.053C654.056 270.516 651.654 268.365 650.94 263.848C650.27 259.615 651.877 256.973 654.699 256.527C657.663 256.058 660.071 258.244 660.78 262.725C661.455 266.994 659.843 269.6 656.985 270.053ZM680.818 268.27L683.436 267.675C682.629 263.716 681.665 258.082 680.47 250.531L677.612 250.984C678.573 257.052 679.358 261.557 679.92 264.651C678.765 265.81 677.419 266.674 675.761 266.936C673.609 267.277 672.16 266.349 671.624 262.962L669.904 252.095L667.08 252.759L668.917 264.367C669.592 268.636 671.877 270.046 674.946 269.561C677.416 269.17 679.072 267.75 680.329 266.322L680.818 268.27ZM694.159 250.463C696.346 250.116 697.836 251.074 698.361 254.391L700.064 265.152L702.922 264.699L701.068 252.986C700.398 248.752 698.078 247.347 694.973 247.838C692.503 248.229 690.806 249.619 689.55 251.047L689.061 249.1L686.442 249.695C687.25 253.654 688.214 259.288 689.409 266.838L692.266 266.386C691.312 260.352 690.521 255.812 689.953 252.683C691.149 251.554 692.5 250.725 694.159 250.463ZM721.976 261.973L721.914 259.524C716.111 260.334 714.33 259.82 713.855 256.821L712.42 247.753L719.477 246.637L719.125 244.414L712.069 245.531L711.27 240.485L708.451 241.185L709.211 245.983L705.93 246.502L705.999 248.77L709.563 248.206L711.07 257.732C711.746 262.001 714.513 263.263 721.976 261.973ZM735.188 247.694L734.606 243.555L730.407 244.22L731.025 248.353L735.188 247.694ZM736.743 259.347L736.237 255.232L732.038 255.896L732.545 260.011L736.743 259.347ZM781.043 252.336L780.905 249.862L775.507 250.717L772.307 230.5L769.559 231.188L769.956 233.693L764.452 235.251L764.817 237.327L770.347 236.163L772.72 251.158L766.686 252.113L767.072 254.547L781.043 252.336Z" fill="black"/>
<path d="M634.581 218.175L638.834 216.949L632.167 208.324C633.974 206.514 635.185 204.366 634.743 201.615C634.012 197.065 630.161 194.717 619.56 197.868L623.068 219.699L627.053 219.059L625.841 211.511L629.286 210.885L634.581 218.175ZM624.039 200.296C628.216 199.046 630.434 200.245 630.899 203.137C631.205 205.042 630.502 206.746 629.215 207.966L625.387 208.69L624.039 200.296ZM656.035 214.837L655.896 211.494C648.108 212.565 645.276 211.826 644.286 208.367L655.557 206.23C655.211 200.027 652.225 196.527 647.287 197.32C642.667 198.063 639.386 202.859 640.252 208.255C641.17 213.969 644.695 216.767 656.035 214.837ZM647.097 200.643C649.531 200.252 650.902 201.805 651.455 204.574C649.28 204.996 645.735 205.674 643.877 206.045C643.526 202.736 644.699 201.028 647.097 200.643ZM672.486 199.278L661.2 201.091L661.738 204.441L672.742 202.673L672.486 199.278ZM692.754 208.829L697.007 207.603L690.339 198.978C692.147 197.168 693.357 195.02 692.915 192.269C692.184 187.719 688.334 185.371 677.733 188.521L681.241 210.353L685.226 209.712L684.013 202.165L687.458 201.539L692.754 208.829ZM682.211 190.95C686.388 189.7 688.607 190.899 689.072 193.791C689.378 195.695 688.675 197.4 687.387 198.62L683.56 199.343L682.211 190.95ZM714.207 205.49L714.068 202.148C706.281 203.218 703.449 202.479 702.459 199.021L713.729 196.884C713.384 190.681 710.397 187.181 705.46 187.974C700.84 188.716 697.558 193.513 698.425 198.909C699.343 204.622 702.868 207.421 714.207 205.49ZM705.27 191.297C707.704 190.906 709.075 192.458 709.628 195.228C707.453 195.649 703.908 196.328 702.05 196.698C701.699 193.39 702.872 191.682 705.27 191.297ZM724.895 188.289C726.694 188 728.016 188.8 728.515 191.904L730.215 202.484L734.13 201.855L732.209 189.899C731.523 185.632 729.259 184.15 726.191 184.643C723.757 185.034 722.14 186.452 720.933 187.948L720.399 185.972L716.8 186.767C717.652 190.719 718.612 196.244 719.881 204.145L723.831 203.51C722.925 197.867 722.118 193.293 721.52 190.025C722.5 189.144 723.555 188.504 724.895 188.289ZM745.884 197.145C743.45 197.536 741.416 195.909 740.748 191.747C740.124 187.868 741.676 185.592 744.357 185.162C745.132 185.037 746.007 185.077 746.934 185.218C747.614 189.45 748.199 192.866 748.706 195.57C747.967 196.376 747.048 196.958 745.884 197.145ZM749.764 199.452L753.363 198.657C752.563 194.806 751.625 189.421 750.305 181.203L749.104 173.726L745.246 174.708L746.328 181.444C746.04 181.454 745.793 181.494 745.511 181.539C739.939 182.435 735.984 186.869 737.027 193.358C737.865 198.578 741.074 201.21 744.777 200.615C746.787 200.292 748.257 199.079 749.269 197.723L749.764 199.452ZM772.38 196.144L772.241 192.802C764.453 193.872 761.621 193.133 760.631 189.674L771.902 187.538C771.556 181.334 768.57 177.835 763.632 178.628C759.012 179.37 755.731 184.166 756.598 189.563C757.516 195.276 761.04 198.074 772.38 196.144ZM763.443 181.951C765.876 181.56 767.247 183.112 767.801 185.881C765.625 186.303 762.08 186.981 760.222 187.352C759.872 184.044 761.044 182.336 763.443 181.951ZM790.821 192.747L790.662 189.733L785.337 190.589C784.666 186.862 784.155 183.905 783.659 181.271C785.481 180.002 787.813 178.976 790.817 178.312L789.972 174.179C786.725 175.135 784.453 176.983 783.161 179.072C782.949 178.202 782.42 176.261 782.356 176.09L775.091 177.257L775.221 180.094L779.428 179.708C779.997 182.8 780.622 186.462 781.457 191.212L777.19 191.898L777.666 194.861L790.821 192.747Z" fill="black"/>
<path d="M561.116 93.8637L849.116 47.6279V436.741L561.116 482.977V93.8637Z" fill="#DDD2E6" fill-opacity="0.97"/>
<path d="M674.968 267.78L678.115 267.102L670.514 259.516L675.467 249.908L672.397 250.394L668.533 258.202L662.26 251.926L659.148 252.599L666.82 260.173L661.832 269.787L664.866 269.307L668.77 261.528L674.968 267.78ZM689.801 253.462L689.218 249.323L685.02 249.987L685.638 254.121L689.801 253.462ZM691.356 265.115L690.849 261L686.651 261.664L687.157 265.779L691.356 265.115ZM735.656 258.104L735.518 255.63L730.12 256.484L726.92 236.268L724.172 236.956L724.568 239.461L719.065 241.019L719.429 243.095L724.959 241.931L727.332 256.925L721.299 257.88L721.684 260.315L735.656 258.104ZM754.878 255.062L754.481 252.557L743.579 254.282C749.239 247.998 752.385 243.883 751.676 239.402C751.101 235.768 747.826 233.357 737.964 235.026L738.141 237.747C746.085 236.526 748.53 237.803 748.96 240.519C749.529 244.118 746.307 248.208 740.185 255L740.836 257.284L754.878 255.062ZM670.5 318.388C676.245 316.755 677.646 314.87 679.009 308.398C680.362 302.325 681.382 296.883 682.153 292.385L679.401 292.821C678.869 295.4 677.633 303.588 676.886 307.323L676.533 307.379C673.895 303.276 671.126 298.579 668.699 294.442L665.799 295.082C668.198 299.042 672.782 306.526 675.491 310.618L675.819 310.638C675.066 313.651 674.138 314.412 669.834 315.781L670.5 318.388ZM696.523 295.934L695.94 291.794L691.741 292.459L692.359 296.592L696.523 295.934ZM698.077 307.586L697.571 303.471L693.372 304.135L693.879 308.25L698.077 307.586ZM733.444 302.17C734.622 295.22 736.601 288.072 739.336 281.129L738.951 278.695L724.838 280.928L725.034 283.537L736.43 281.734L736.558 281.858C733.725 288.635 731.672 295.543 730.465 302.316L733.444 302.17Z" fill="black"/>
<path d="M634.581 218.175L638.834 216.949L632.167 208.324C633.974 206.514 635.185 204.366 634.743 201.615C634.012 197.065 630.161 194.717 619.56 197.868L623.068 219.699L627.053 219.059L625.841 211.511L629.286 210.885L634.581 218.175ZM624.039 200.296C628.216 199.046 630.434 200.245 630.899 203.137C631.205 205.042 630.502 206.746 629.215 207.966L625.387 208.69L624.039 200.296ZM656.035 214.837L655.896 211.494C648.108 212.565 645.276 211.826 644.286 208.367L655.557 206.23C655.211 200.027 652.225 196.527 647.287 197.32C642.667 198.063 639.386 202.859 640.252 208.255C641.17 213.969 644.695 216.767 656.035 214.837ZM647.097 200.643C649.531 200.252 650.902 201.805 651.455 204.574C649.28 204.996 645.735 205.674 643.877 206.045C643.526 202.736 644.699 201.028 647.097 200.643ZM672.486 199.278L661.2 201.091L661.738 204.441L672.742 202.673L672.486 199.278ZM692.754 208.829L697.007 207.603L690.339 198.978C692.147 197.168 693.357 195.02 692.915 192.269C692.184 187.719 688.334 185.371 677.733 188.521L681.241 210.353L685.226 209.712L684.013 202.165L687.458 201.539L692.754 208.829ZM682.211 190.95C686.388 189.7 688.607 190.899 689.072 193.791C689.378 195.695 688.675 197.4 687.387 198.62L683.56 199.343L682.211 190.95ZM714.207 205.49L714.068 202.148C706.281 203.218 703.449 202.479 702.459 199.021L713.729 196.884C713.384 190.681 710.397 187.181 705.46 187.974C700.84 188.716 697.558 193.513 698.425 198.909C699.343 204.622 702.868 207.421 714.207 205.49ZM705.27 191.297C707.704 190.906 709.075 192.458 709.628 195.228C707.453 195.649 703.908 196.328 702.05 196.698C701.699 193.39 702.872 191.682 705.27 191.297ZM724.895 188.289C726.694 188 728.016 188.8 728.515 191.904L730.215 202.484L734.13 201.855L732.209 189.899C731.523 185.632 729.259 184.15 726.191 184.643C723.757 185.034 722.14 186.452 720.933 187.948L720.399 185.972L716.8 186.767C717.652 190.719 718.612 196.244 719.881 204.145L723.831 203.51C722.925 197.867 722.118 193.293 721.52 190.025C722.5 189.144 723.555 188.504 724.895 188.289ZM745.884 197.145C743.45 197.536 741.416 195.909 740.748 191.747C740.124 187.868 741.676 185.592 744.357 185.162C745.132 185.037 746.007 185.077 746.934 185.218C747.614 189.45 748.199 192.866 748.706 195.57C747.967 196.376 747.048 196.958 745.884 197.145ZM749.764 199.452L753.363 198.657C752.563 194.806 751.625 189.421 750.305 181.203L749.104 173.726L745.246 174.708L746.328 181.444C746.04 181.454 745.793 181.494 745.511 181.539C739.939 182.435 735.984 186.869 737.027 193.358C737.865 198.578 741.074 201.21 744.777 200.615C746.787 200.292 748.257 199.079 749.269 197.723L749.764 199.452ZM772.38 196.144L772.241 192.802C764.453 193.872 761.621 193.133 760.631 189.674L771.902 187.538C771.556 181.334 768.57 177.835 763.632 178.628C759.012 179.37 755.731 184.166 756.598 189.563C757.516 195.276 761.04 198.074 772.38 196.144ZM763.443 181.951C765.876 181.56 767.247 183.112 767.801 185.881C765.625 186.303 762.08 186.981 760.222 187.352C759.872 184.044 761.044 182.336 763.443 181.951ZM790.821 192.747L790.662 189.733L785.337 190.589C784.666 186.862 784.155 183.905 783.659 181.271C785.481 180.002 787.813 178.976 790.817 178.312L789.972 174.179C786.725 175.135 784.453 176.983 783.161 179.072C782.949 178.202 782.42 176.261 782.356 176.09L775.091 177.257L775.221 180.094L779.428 179.708C779.997 182.8 780.622 186.462 781.457 191.212L777.19 191.898L777.666 194.861L790.821 192.747Z" fill="black"/>
<path d="M1000.19 93.8637L1288.19 47.6279V436.741L1000.19 482.977V93.8637Z" fill="#DDD2E6" fill-opacity="0.97"/>
<path d="M1118.15 269.235L1121.3 268.556L1113.7 260.971L1118.65 251.363L1115.58 251.849L1111.72 259.657L1105.44 253.381L1102.33 254.054L1110 261.628L1105.02 271.242L1108.05 270.762L1111.96 262.983L1118.15 269.235ZM1132.99 254.917L1132.4 250.778L1128.2 251.442L1128.82 255.576L1132.99 254.917ZM1134.54 266.569L1134.03 262.454L1129.84 263.119L1130.34 267.234L1134.54 266.569ZM1178.66 259.586L1178.27 257.081L1167.37 258.807C1173.03 252.522 1176.17 248.408 1175.46 243.927C1174.89 240.293 1171.61 237.882 1161.75 239.551L1161.93 242.272C1169.87 241.051 1172.32 242.327 1172.75 245.044C1173.32 248.643 1170.09 252.733 1163.97 259.525L1164.62 261.809L1178.66 259.586ZM1196.56 249.304C1196.11 246.482 1193.33 244.427 1185.37 244.855L1184.8 238.76L1193.73 237.348L1193.58 234.804L1182 236.635L1182.96 247.225C1190.81 246.597 1193.58 247.859 1193.9 249.87C1194.31 252.481 1191.77 254.474 1183.92 256.477L1184.51 259.095C1193.61 256.932 1197.18 253.256 1196.56 249.304ZM1113.68 319.843C1119.43 318.21 1120.83 316.325 1122.19 309.852C1123.55 303.779 1124.57 298.338 1125.34 293.84L1122.59 294.275C1122.05 296.855 1120.82 305.043 1120.07 308.778L1119.72 308.834C1117.08 304.731 1114.31 300.033 1111.88 295.897L1108.98 296.537C1111.38 300.497 1115.97 307.981 1118.68 312.073L1119 312.093C1118.25 315.106 1117.32 315.867 1113.02 317.236L1113.68 319.843ZM1139.71 297.388L1139.12 293.249L1134.93 293.914L1135.54 298.047L1139.71 297.388ZM1141.26 309.041L1140.76 304.926L1136.56 305.59L1137.06 309.705L1141.26 309.041ZM1185.56 302.03L1185.42 299.556L1180.03 300.411L1176.83 280.194L1174.08 280.882L1174.47 283.387L1168.97 284.945L1169.34 287.021L1174.87 285.857L1177.24 300.852L1171.21 301.807L1171.59 304.241L1185.56 302.03ZM1204.96 298.96L1204.82 296.486L1199.42 297.341L1196.22 277.124L1193.48 277.812L1193.87 280.317L1188.37 281.875L1188.73 283.952L1194.26 282.787L1196.64 297.782L1190.6 298.737L1190.99 301.171L1204.96 298.96Z" fill="black"/>
<path d="M1073.65 218.175L1077.9 216.949L1071.24 208.324C1073.04 206.514 1074.26 204.366 1073.81 201.615C1073.08 197.065 1069.23 194.717 1058.63 197.868L1062.14 219.699L1066.12 219.059L1064.91 211.511L1068.36 210.885L1073.65 218.175ZM1063.11 200.296C1067.29 199.046 1069.5 200.245 1069.97 203.137C1070.28 205.042 1069.57 206.746 1068.29 207.966L1064.46 208.69L1063.11 200.296ZM1095.11 214.837L1094.97 211.494C1087.18 212.565 1084.35 211.826 1083.36 208.367L1094.63 206.23C1094.28 200.027 1091.3 196.527 1086.36 197.32C1081.74 198.063 1078.46 202.859 1079.32 208.255C1080.24 213.969 1083.77 216.767 1095.11 214.837ZM1086.17 200.643C1088.6 200.252 1089.97 201.805 1090.53 204.574C1088.35 204.996 1084.81 205.674 1082.95 206.045C1082.6 202.736 1083.77 201.028 1086.17 200.643ZM1111.56 199.278L1100.27 201.091L1100.81 204.441L1111.81 202.673L1111.56 199.278ZM1131.82 208.829L1136.08 207.603L1129.41 198.978C1131.22 197.168 1132.43 195.02 1131.99 192.269C1131.25 187.719 1127.4 185.371 1116.8 188.521L1120.31 210.353L1124.3 209.712L1123.08 202.165L1126.53 201.539L1131.82 208.829ZM1121.28 190.95C1125.46 189.7 1127.68 190.899 1128.14 193.791C1128.45 195.695 1127.74 197.4 1126.46 198.62L1122.63 199.343L1121.28 190.95ZM1153.28 205.49L1153.14 202.148C1145.35 203.218 1142.52 202.479 1141.53 199.021L1152.8 196.884C1152.45 190.681 1149.47 187.181 1144.53 187.974C1139.91 188.716 1136.63 193.513 1137.5 198.909C1138.41 204.622 1141.94 207.421 1153.28 205.49ZM1144.34 191.297C1146.77 190.906 1148.14 192.458 1148.7 195.228C1146.52 195.649 1142.98 196.328 1141.12 196.698C1140.77 193.39 1141.94 191.682 1144.34 191.297ZM1163.97 188.289C1165.76 188 1167.09 188.8 1167.59 191.904L1169.29 202.484L1173.2 201.855L1171.28 189.899C1170.59 185.632 1168.33 184.15 1165.26 184.643C1162.83 185.034 1161.21 186.452 1160 187.948L1159.47 185.972L1155.87 186.767C1156.72 190.719 1157.68 196.244 1158.95 204.145L1162.9 203.51C1162 197.867 1161.19 193.293 1160.59 190.025C1161.57 189.144 1162.63 188.504 1163.97 188.289ZM1184.95 197.145C1182.52 197.536 1180.49 195.909 1179.82 191.747C1179.19 187.868 1180.75 185.592 1183.43 185.162C1184.2 185.037 1185.08 185.077 1186 185.218C1186.68 189.45 1187.27 192.866 1187.78 195.57C1187.04 196.376 1186.12 196.958 1184.95 197.145ZM1188.83 199.452L1192.43 198.657C1191.63 194.806 1190.7 189.421 1189.38 181.203L1188.17 173.726L1184.32 174.708L1185.4 181.444C1185.11 181.454 1184.86 181.494 1184.58 181.539C1179.01 182.435 1175.05 186.869 1176.1 193.358C1176.94 198.578 1180.14 201.21 1183.85 200.615C1185.86 200.292 1187.33 199.079 1188.34 197.723L1188.83 199.452ZM1211.45 196.144L1211.31 192.802C1203.52 193.872 1200.69 193.133 1199.7 189.674L1210.97 187.538C1210.63 181.334 1207.64 177.835 1202.7 178.628C1198.08 179.37 1194.8 184.166 1195.67 189.563C1196.59 195.276 1200.11 198.074 1211.45 196.144ZM1202.51 181.951C1204.95 181.56 1206.32 183.112 1206.87 185.881C1204.7 186.303 1201.15 186.981 1199.29 187.352C1198.94 184.044 1200.11 182.336 1202.51 181.951ZM1229.89 192.747L1229.73 189.733L1224.41 190.589C1223.74 186.862 1223.22 183.905 1222.73 181.271C1224.55 180.002 1226.88 178.976 1229.89 178.312L1229.04 174.179C1225.8 175.135 1223.52 176.983 1222.23 179.072C1222.02 178.202 1221.49 176.261 1221.43 176.09L1214.16 177.257L1214.29 180.094L1218.5 179.708C1219.07 182.8 1219.69 186.462 1220.53 191.212L1216.26 191.898L1216.74 194.861L1229.89 192.747Z" fill="black"/>
<path d="M1439.26 93.8637L1727.26 47.6279V436.741L1439.26 482.977V93.8637Z" fill="#DDD2E6" fill-opacity="0.97"/>
<path d="M1557.22 266.235L1560.37 265.556L1552.77 257.971L1557.72 248.363L1554.65 248.849L1550.79 256.657L1544.51 250.381L1541.4 251.054L1549.07 258.628L1544.08 268.242L1547.12 267.762L1551.02 259.983L1557.22 266.235ZM1572.05 251.917L1571.47 247.778L1567.27 248.442L1567.89 252.576L1572.05 251.917ZM1573.61 263.569L1573.1 259.454L1568.9 260.119L1569.41 264.234L1573.61 263.569ZM1617.79 251.947L1617.68 249.398L1615 249.822L1613.74 241.848L1611.1 242.59L1612.32 250.246L1604.8 251.436C1604.62 249.402 1605.36 239.413 1605.62 236.044L1602.52 236.318C1601.93 243.102 1602.17 250.116 1602.94 254.298L1612.71 252.751L1613.43 257.268L1616.11 256.843L1615.39 252.327L1617.79 251.947ZM1623.58 256.095C1633.03 254.129 1636.48 250.798 1635.9 247.129C1635.5 244.588 1632.92 242.682 1626.33 242.64L1633.39 234.218L1632.82 231.776L1620.12 233.786L1620.52 236.291L1630.47 234.716L1623.16 243.395L1623.38 244.771C1630.31 244.469 1632.88 245.871 1633.18 247.776C1633.52 249.928 1631 251.775 1622.98 253.477L1623.58 256.095ZM1552.75 316.843C1558.5 315.21 1559.9 313.325 1561.26 306.852C1562.61 300.779 1563.63 295.338 1564.4 290.84L1561.65 291.275C1561.12 293.855 1559.88 302.043 1559.14 305.778L1558.79 305.834C1556.15 301.731 1553.38 297.033 1550.95 292.897L1548.05 293.537C1550.45 297.497 1555.03 304.981 1557.74 309.073L1558.07 309.093C1557.32 312.106 1556.39 312.867 1552.09 314.236L1552.75 316.843ZM1578.77 294.388L1578.19 290.249L1573.99 290.914L1574.61 295.047L1578.77 294.388ZM1580.33 306.041L1579.82 301.926L1575.62 302.59L1576.13 306.705L1580.33 306.041ZM1624.63 299.03L1624.49 296.556L1619.09 297.411L1615.89 277.194L1613.15 277.882L1613.54 280.387L1608.04 281.945L1608.4 284.021L1613.93 282.857L1616.31 297.852L1610.27 298.807L1610.66 301.241L1624.63 299.03ZM1636.26 297.623C1640.88 296.891 1643.47 293.806 1642.95 290.525C1642.51 287.737 1639.78 286.47 1636.9 285.442C1639.61 283.568 1641.09 281.524 1640.67 278.843C1640.18 275.738 1637.04 274.209 1633.34 274.795C1628.75 275.521 1626.7 278.775 1627.14 281.563C1627.54 284.103 1629.88 285.432 1632.51 286.463C1629.78 288.45 1628.2 290.797 1628.62 293.444C1629.13 296.654 1632.31 298.248 1636.26 297.623ZM1629.83 280.774C1629.58 279.187 1630.72 277.487 1633.44 277.057C1636.09 276.638 1637.76 277.856 1638.07 279.796C1638.36 281.631 1637.25 283.325 1635.21 284.806C1632.53 283.891 1630.17 282.891 1629.83 280.774ZM1636.3 295.339C1633.41 295.797 1631.61 294.525 1631.27 292.373C1630.98 290.503 1632.02 288.673 1634.2 287.135C1637.12 288.193 1639.88 289.202 1640.22 291.354C1640.52 293.224 1639.02 294.909 1636.3 295.339Z" fill="black"/>
<path d="M1512.72 218.175L1516.97 216.949L1510.31 208.324C1512.11 206.514 1513.32 204.366 1512.88 201.615C1512.15 197.065 1508.3 194.717 1497.7 197.868L1501.21 219.699L1505.19 219.059L1503.98 211.511L1507.42 210.885L1512.72 218.175ZM1502.18 200.296C1506.35 199.046 1508.57 200.245 1509.04 203.137C1509.34 205.041 1508.64 206.746 1507.35 207.966L1503.53 208.69L1502.18 200.296ZM1534.17 214.836L1534.03 211.494C1526.25 212.564 1523.41 211.825 1522.42 208.367L1533.7 206.23C1533.35 200.027 1530.36 196.527 1525.43 197.32C1520.81 198.062 1517.52 202.859 1518.39 208.255C1519.31 213.968 1522.83 216.767 1534.17 214.836ZM1525.24 200.643C1527.67 200.252 1529.04 201.804 1529.59 204.574C1527.42 204.996 1523.87 205.674 1522.02 206.045C1521.67 202.736 1522.84 201.028 1525.24 200.643ZM1550.62 199.277L1539.34 201.091L1539.88 204.441L1550.88 202.673L1550.62 199.277ZM1570.89 208.828L1575.15 207.602L1568.48 198.978C1570.29 197.168 1571.5 195.02 1571.05 192.269C1570.32 187.719 1566.47 185.371 1555.87 188.521L1559.38 210.353L1563.36 209.712L1562.15 202.165L1565.6 201.539L1570.89 208.828ZM1560.35 190.949C1564.53 189.699 1566.75 190.899 1567.21 193.791C1567.52 195.695 1566.81 197.4 1565.53 198.62L1561.7 199.343L1560.35 190.949ZM1592.35 205.49L1592.21 202.148C1584.42 203.218 1581.59 202.479 1580.6 199.02L1591.87 196.884C1591.52 190.68 1588.54 187.181 1583.6 187.974C1578.98 188.716 1575.7 193.513 1576.56 198.909C1577.48 204.622 1581.01 207.42 1592.35 205.49ZM1583.41 191.297C1585.84 190.906 1587.21 192.458 1587.77 195.227C1585.59 195.649 1582.05 196.327 1580.19 196.698C1579.84 193.39 1581.01 191.682 1583.41 191.297ZM1603.03 188.288C1604.83 187.999 1606.16 188.8 1606.65 191.903L1608.35 202.484L1612.27 201.855L1610.35 189.899C1609.66 185.632 1607.4 184.15 1604.33 184.643C1601.9 185.034 1600.28 186.452 1599.07 187.948L1598.54 185.972L1594.94 186.767C1595.79 190.718 1596.75 196.244 1598.02 204.144L1601.97 203.51C1601.06 197.867 1600.26 193.293 1599.66 190.024C1600.64 189.143 1601.69 188.504 1603.03 188.288ZM1624.02 197.145C1621.59 197.536 1619.55 195.909 1618.89 191.747C1618.26 187.868 1619.81 185.592 1622.5 185.162C1623.27 185.037 1624.15 185.077 1625.07 185.218C1625.75 189.45 1626.34 192.865 1626.84 195.57C1626.11 196.376 1625.19 196.958 1624.02 197.145ZM1627.9 199.452L1631.5 198.657C1630.7 194.805 1629.76 189.421 1628.44 181.203L1627.24 173.726L1623.38 174.708L1624.47 181.444C1624.18 181.454 1623.93 181.494 1623.65 181.539C1618.08 182.434 1614.12 186.869 1615.17 193.358C1616 198.578 1619.21 201.21 1622.92 200.615C1624.93 200.292 1626.4 199.079 1627.41 197.722L1627.9 199.452ZM1650.52 196.144L1650.38 192.801C1642.59 193.872 1639.76 193.133 1638.77 189.674L1650.04 187.538C1649.69 181.334 1646.71 177.834 1641.77 178.628C1637.15 179.37 1633.87 184.166 1634.74 189.562C1635.65 195.276 1639.18 198.074 1650.52 196.144ZM1641.58 181.95C1644.01 181.559 1645.39 183.112 1645.94 185.881C1643.76 186.303 1640.22 186.981 1638.36 187.352C1638.01 184.044 1639.18 182.336 1641.58 181.95ZM1668.96 192.747L1668.8 189.733L1663.48 190.589C1662.8 186.862 1662.29 183.905 1661.8 181.271C1663.62 180.001 1665.95 178.976 1668.96 178.312L1668.11 174.179C1664.86 175.134 1662.59 176.983 1661.3 179.072C1661.09 178.201 1660.56 176.26 1660.49 176.09L1653.23 177.257L1653.36 180.094L1657.57 179.708C1658.14 182.8 1658.76 186.462 1659.6 191.212L1655.33 191.898L1655.8 194.86L1668.96 192.747Z" fill="black"/>
<path d="M583.708 777.765C577.01 777.256 574.759 779.4 574.759 781.489C574.759 784.785 582.1 785.16 582.1 787.49C582.1 788.669 580.466 789.634 574.733 789.178L574.652 791.107C582.02 791.509 584.351 789.446 584.351 787.303C584.351 783.954 576.956 783.365 576.956 781.195C576.956 780.123 578.403 779.212 583.788 779.694L583.708 777.765ZM598.946 791.295L599.161 789.446C592.811 789.285 590.855 788.107 590.641 784.999L599.616 784.785C600.098 780.444 598.276 777.551 594.686 777.551C591.284 777.551 588.498 780.632 588.498 784.624C588.498 788.884 590.721 791.268 598.946 791.295ZM594.311 779.346C596.508 779.346 597.553 780.927 597.58 783.445C595.731 783.499 592.141 783.606 590.641 783.659C590.802 780.846 592.141 779.346 594.311 779.346ZM613.783 791.214L614.024 789.393C609.63 789.312 608.371 788.723 608.371 786.446V779.56H613.729V777.873H608.371V774.041L606.201 774.229V777.873H603.71L603.495 779.56H606.201V786.794C606.201 790.036 608.103 791.295 613.783 791.214ZM626.637 774.39C626.637 774.39 624.012 784.034 623.637 785.428H623.53C623.155 784.034 620.475 774.39 620.475 774.39H617.957V791H619.993L619.886 778.114H619.993L622.779 788.107H624.28L627.012 778.114H627.12L627.012 791H629.129V774.39H626.637ZM637.991 791.375C641.367 791.375 644.18 788.535 644.18 784.195C644.18 779.989 641.876 777.524 638.608 777.524C635.232 777.524 632.392 780.418 632.392 784.677C632.392 788.91 634.75 791.375 637.991 791.375ZM638.34 789.58C636.116 789.58 634.589 787.705 634.589 784.276C634.589 781.061 636.089 779.292 638.232 779.292C640.483 779.292 642.01 781.195 642.01 784.597C642.01 787.839 640.51 789.58 638.34 789.58ZM656.204 791.054L658.213 790.92C658.079 787.892 658.026 783.606 658.026 777.873H655.856C655.856 782.481 655.909 785.91 655.963 788.267C654.971 788.991 653.873 789.473 652.614 789.473C650.98 789.473 650.015 788.616 650.015 786.044V777.792L647.845 777.953V786.767C647.845 790.009 649.372 791.321 651.703 791.321C653.578 791.321 654.971 790.464 656.07 789.553L656.204 791.054ZM672.085 777.765C665.388 777.256 663.137 779.4 663.137 781.489C663.137 784.785 670.478 785.16 670.478 787.49C670.478 788.669 668.844 789.634 663.111 789.178L663.03 791.107C670.398 791.509 672.728 789.446 672.728 787.303C672.728 783.954 665.334 783.365 665.334 781.195C665.334 780.123 666.781 779.212 672.166 779.694L672.085 777.765ZM687.324 791.295L687.538 789.446C681.189 789.285 679.233 788.107 679.019 784.999L687.994 784.785C688.476 780.444 686.654 777.551 683.064 777.551C679.662 777.551 676.876 780.632 676.876 784.624C676.876 788.884 679.099 791.268 687.324 791.295ZM682.689 779.346C684.886 779.346 685.931 780.927 685.958 783.445C684.109 783.499 680.519 783.606 679.019 783.659C679.18 780.846 680.519 779.346 682.689 779.346ZM694.686 791V785.642C699.83 785.267 703.259 783.445 703.259 779.48C703.259 775.408 699.643 773.345 692.463 774.417V791H694.686ZM701.062 779.909C701.062 782.909 698.785 783.954 694.686 783.659V776.158C699 775.595 701.062 777.069 701.062 779.909ZM711.64 791.375C715.015 791.375 717.828 788.535 717.828 784.195C717.828 779.989 715.524 777.524 712.256 777.524C708.88 777.524 706.04 780.418 706.04 784.677C706.04 788.91 708.398 791.375 711.64 791.375ZM711.988 789.58C709.764 789.58 708.237 787.705 708.237 784.276C708.237 781.061 709.737 779.292 711.881 779.292C714.131 779.292 715.658 781.195 715.658 784.597C715.658 787.839 714.158 789.58 711.988 789.58ZM731.004 777.765C724.306 777.256 722.056 779.4 722.056 781.489C722.056 784.785 729.397 785.16 729.397 787.49C729.397 788.669 727.762 789.634 722.029 789.178L721.949 791.107C729.316 791.509 731.647 789.446 731.647 787.303C731.647 783.954 724.253 783.365 724.253 781.195C724.253 780.123 725.699 779.212 731.084 779.694L731.004 777.765ZM742.921 775.756L743.162 772.113H740.858L740.697 775.756H742.921ZM747.797 791L747.957 789.339H743.028V777.873H736.116L735.955 779.4L740.858 779.614V789.339H735.928V791H747.797ZM761.08 791.214L761.321 789.393C756.927 789.312 755.668 788.723 755.668 786.446V779.56H761.026V777.873H755.668V774.041L753.498 774.229V777.873H751.006L750.792 779.56H753.498V786.794C753.498 790.036 755.4 791.295 761.08 791.214ZM772.38 775.756L772.621 772.113H770.317L770.156 775.756H772.38ZM777.256 791L777.417 789.339H772.487V777.873H765.575L765.414 779.4L770.317 779.614V789.339H765.388V791H777.256ZM785.288 791.375C788.663 791.375 791.476 788.535 791.476 784.195C791.476 779.989 789.172 777.524 785.904 777.524C782.528 777.524 779.689 780.418 779.689 784.677C779.689 788.91 782.046 791.375 785.288 791.375ZM785.636 789.58C783.412 789.58 781.885 787.705 781.885 784.276C781.885 781.061 783.386 779.292 785.529 779.292C787.779 779.292 789.306 781.195 789.306 784.597C789.306 787.839 787.806 789.58 785.636 789.58ZM800.741 779.426C802.402 779.426 803.393 780.311 803.393 782.829V791H805.563V782.105C805.563 778.891 804.009 777.578 801.652 777.578C799.776 777.578 798.356 778.408 797.258 779.319L797.124 777.819L795.115 777.953C795.249 780.98 795.302 785.267 795.302 791H797.472C797.472 786.419 797.419 782.963 797.365 780.578C798.383 779.882 799.482 779.426 800.741 779.426ZM818.766 771.577C812.979 776.319 810.648 780.257 810.648 784.142C810.648 787.946 812.925 791.804 818.659 796.519L820.159 795.153C814.774 790.893 812.791 787.464 812.791 784.061C812.791 780.659 814.747 777.23 820.239 772.943L818.766 771.577ZM834.594 796.599L835.344 794.831C830.656 793.411 828.619 792.366 828.619 790.946C828.619 789.393 830.977 788.267 830.977 786.58C830.977 785.535 830.147 784.463 827.896 783.9C830.173 783.284 831.031 782.186 831.031 781.195C831.031 779.694 828.459 778.382 828.459 776.988C828.459 775.783 830.548 774.711 835.398 773.345L834.701 771.55C828.539 773.506 826.369 775.354 826.369 777.203C826.396 779.212 829.075 780.364 829.075 781.57C829.075 782.373 828.11 782.99 824.762 783.284L824.708 784.865C827.628 785.052 828.914 785.883 828.914 786.901C828.914 788.16 826.449 789.312 826.449 791.429C826.449 793.411 828.539 794.644 834.594 796.599ZM612.577 823.054L614.989 822.92L610.247 816.409L615.042 809.873H612.711L608.934 815.204L605.022 809.819L602.638 809.953L607.434 816.463L602.611 823H604.915L608.72 817.695L612.577 823.054ZM625.244 814.186L625.298 811.051H622.11L622.083 814.186H625.244ZM625.03 823L625.137 819.892H621.949L621.842 823H625.03ZM658.669 823L658.856 821.151H654.757V805.8L652.641 805.988V807.89L648.381 808.399L648.408 809.98L652.641 809.765V821.151H648.059V823H658.669ZM673.264 823V821.098H664.986C669.915 817.106 672.728 814.427 672.728 811.025C672.728 808.265 670.585 806.095 663.084 806.175L662.896 808.212C668.924 808.238 670.585 809.471 670.585 811.534C670.585 814.266 667.719 816.919 662.387 821.232L662.602 823H673.264ZM680.171 827.608L681.296 827.956C683.627 825.786 684.752 822.759 683.734 819.732L680.734 819.892C682.127 822.839 681.939 825.518 680.171 827.608ZM603.335 859.769C607.782 859.233 609.041 858.001 610.809 853.366C612.524 849.026 613.917 845.114 615.015 841.873H612.926C612.229 843.721 610.354 849.642 609.363 852.321H609.095C607.621 848.972 606.121 845.168 604.808 841.819L602.585 841.953C603.897 845.168 606.416 851.249 607.943 854.598L608.184 854.652C607.273 856.795 606.496 857.25 603.147 857.759L603.335 859.769ZM625.244 846.186L625.298 843.051H622.11L622.083 846.186H625.244ZM625.03 855L625.137 851.892H621.949L621.842 855H625.03ZM651.864 855.134C653.552 850.124 655.856 845.061 658.695 840.238V838.39H647.979L647.818 840.345H656.472L656.552 840.453C653.659 845.141 651.328 850.017 649.64 854.893L651.864 855.134ZM574.492 892.572C580.653 890.617 582.797 888.741 582.797 886.92C582.797 884.884 580.091 883.732 580.091 882.526C580.091 881.749 581.082 881.106 584.404 880.811L584.484 879.257C581.537 879.07 580.252 878.239 580.252 877.221C580.252 875.962 582.743 874.783 582.743 872.694C582.743 870.711 580.653 869.479 574.599 867.523L573.849 869.291C578.537 870.711 580.573 871.729 580.573 873.176C580.573 874.73 578.189 875.855 578.189 877.543C578.189 878.588 579.046 879.659 581.27 880.195C579.019 880.838 578.162 881.937 578.162 882.901C578.162 884.428 580.707 885.741 580.707 887.107C580.707 888.313 578.617 889.411 573.795 890.751L574.492 892.572ZM590.373 892.519C596.187 887.75 598.491 883.812 598.491 879.927C598.491 876.15 596.214 872.292 590.48 867.55L589.007 868.97C594.365 873.203 596.348 876.632 596.348 880.008C596.348 883.437 594.392 886.839 588.9 891.153L590.373 892.519Z" fill="black"/>
<path d="M1049.45 724.284L1051.74 722.891L1049.66 717.926L1054.74 715.925L1054.13 713.389L1048.73 713.818L1048.41 708.388L1045.73 708.21L1044.48 713.496L1039.3 712.032L1038.27 714.497L1042.91 717.39L1039.98 721.819L1041.98 723.605L1046.09 720.105L1049.45 724.284ZM1063.37 718.14C1064.27 718.14 1064.66 718.676 1064.66 720.176V733H1067.48V718.962C1068.02 718.426 1068.59 718.14 1069.23 718.14C1070.16 718.14 1070.59 718.676 1070.59 720.212V733H1074.27V718.819C1074.27 716.175 1073.27 714.747 1071.23 714.747C1069.66 714.747 1068.41 715.604 1067.45 716.676C1067.09 715.461 1066.27 714.747 1064.87 714.747C1063.41 714.747 1062.16 715.604 1061.19 716.676L1061.05 715.14L1057.66 715.354C1057.8 719.39 1057.8 724.999 1057.8 733H1061.48C1061.48 727.142 1061.44 722.391 1061.37 719.069C1062.02 718.462 1062.69 718.14 1063.37 718.14ZM1085.01 733.536C1089.76 733.536 1093.69 729.642 1093.69 723.713C1093.69 717.926 1090.62 714.675 1086.16 714.675C1081.44 714.675 1077.48 718.747 1077.48 724.534C1077.48 730.285 1080.62 733.536 1085.01 733.536ZM1085.73 730.321C1083.16 730.321 1081.51 728.106 1081.51 723.784C1081.51 719.89 1083.08 717.926 1085.48 717.926C1088.05 717.926 1089.69 720.14 1089.69 724.427C1089.69 728.356 1088.12 730.321 1085.73 730.321ZM1108.9 733.071L1112.58 732.893C1112.37 728.821 1112.3 723.212 1112.3 715.211H1108.33C1108.33 720.962 1108.37 725.57 1108.44 728.856C1107.37 729.607 1106.19 730.071 1104.87 730.071C1103.05 730.071 1101.9 729.071 1101.9 725.927V715.104L1097.94 715.354V727.32C1097.94 731.678 1099.9 733.464 1103.01 733.464C1105.47 733.464 1107.26 732.321 1108.69 731.071L1108.9 733.071ZM1130.87 715.032C1121.54 714.389 1118.26 717.319 1118.26 720.391C1118.26 724.856 1127.76 725.499 1127.76 728.035C1127.76 729.428 1125.58 730.249 1118.51 729.785L1118.36 733.179C1128.61 733.643 1131.9 730.892 1131.9 727.82C1131.9 723.355 1122.36 722.319 1122.36 719.926C1122.36 718.676 1124.4 717.89 1131.01 718.462L1130.87 715.032ZM1151.25 733.429L1151.65 730.107C1143.79 729.928 1141.11 728.749 1140.68 725.177L1152.15 724.856C1152.79 718.676 1150.4 714.747 1145.4 714.747C1140.72 714.747 1136.72 718.962 1136.72 724.427C1136.72 730.214 1139.75 733.536 1151.25 733.429ZM1144.68 717.997C1147.15 717.997 1148.25 719.748 1148.36 722.569C1146.15 722.641 1142.54 722.748 1140.65 722.82C1140.82 719.497 1142.25 717.997 1144.68 717.997ZM1167.89 710.853C1167.89 710.853 1164.5 723.07 1164.25 724.034H1164.11C1163.86 723.07 1160.43 710.853 1160.43 710.853H1156.43V733H1160.11L1159.89 718.212H1160.04L1162.96 728.606H1165.21L1168.11 718.212H1168.25L1168.04 733H1171.82V710.853H1167.89ZM1183.21 733.536C1187.96 733.536 1191.89 729.642 1191.89 723.713C1191.89 717.926 1188.82 714.675 1184.35 714.675C1179.64 714.675 1175.67 718.747 1175.67 724.534C1175.67 730.285 1178.82 733.536 1183.21 733.536ZM1183.93 730.321C1181.35 730.321 1179.71 728.106 1179.71 723.784C1179.71 719.89 1181.28 717.926 1183.68 717.926C1186.25 717.926 1187.89 720.14 1187.89 724.427C1187.89 728.356 1186.32 730.321 1183.93 730.321ZM1203.64 729.142H1203.39C1201.71 724.463 1200.21 719.676 1198.81 715.068L1194.81 715.354C1196.67 721.212 1198.78 727.249 1200.99 733.143H1205.82C1208.07 727.249 1210.28 721.141 1212.1 715.211H1208.1C1206.74 719.783 1205.28 724.498 1203.64 729.142ZM1229.81 733.429L1230.21 730.107C1222.35 729.928 1219.67 728.749 1219.24 725.177L1230.71 724.856C1231.35 718.676 1228.96 714.747 1223.95 714.747C1219.28 714.747 1215.27 718.962 1215.27 724.427C1215.27 730.214 1218.31 733.536 1229.81 733.429ZM1223.24 717.997C1225.7 717.997 1226.81 719.748 1226.92 722.569C1224.7 722.641 1221.1 722.748 1219.2 722.82C1219.38 719.497 1220.81 717.997 1223.24 717.997ZM1245.84 724.284L1248.13 722.891L1246.06 717.926L1251.13 715.925L1250.52 713.389L1245.13 713.818L1244.81 708.388L1242.13 708.21L1240.88 713.496L1235.7 712.032L1234.66 714.497L1239.31 717.39L1236.38 721.819L1238.38 723.605L1242.49 720.105L1245.84 724.284Z" fill="black"/>
<path d="M1023.71 777.765C1017.01 777.256 1014.76 779.4 1014.76 781.489C1014.76 784.785 1022.1 785.16 1022.1 787.49C1022.1 788.669 1020.47 789.634 1014.73 789.178L1014.65 791.107C1022.02 791.509 1024.35 789.446 1024.35 787.303C1024.35 783.954 1016.96 783.365 1016.96 781.195C1016.96 780.123 1018.4 779.212 1023.79 779.694L1023.71 777.765ZM1038.95 791.295L1039.16 789.446C1032.81 789.285 1030.86 788.107 1030.64 784.999L1039.62 784.785C1040.1 780.444 1038.28 777.551 1034.69 777.551C1031.28 777.551 1028.5 780.632 1028.5 784.624C1028.5 788.884 1030.72 791.268 1038.95 791.295ZM1034.31 779.346C1036.51 779.346 1037.55 780.927 1037.58 783.445C1035.73 783.499 1032.14 783.606 1030.64 783.659C1030.8 780.846 1032.14 779.346 1034.31 779.346ZM1053.78 791.214L1054.02 789.393C1049.63 789.312 1048.37 788.723 1048.37 786.446V779.56H1053.73V777.873H1048.37V774.041L1046.2 774.229V777.873H1043.71L1043.5 779.56H1046.2V786.794C1046.2 790.036 1048.1 791.295 1053.78 791.214ZM1066.64 774.39C1066.64 774.39 1064.01 784.034 1063.64 785.428H1063.53C1063.15 784.034 1060.48 774.39 1060.48 774.39H1057.96V791H1059.99L1059.89 778.114H1059.99L1062.78 788.107H1064.28L1067.01 778.114H1067.12L1067.01 791H1069.13V774.39H1066.64ZM1077.99 791.375C1081.37 791.375 1084.18 788.535 1084.18 784.195C1084.18 779.989 1081.88 777.524 1078.61 777.524C1075.23 777.524 1072.39 780.418 1072.39 784.677C1072.39 788.91 1074.75 791.375 1077.99 791.375ZM1078.34 789.58C1076.12 789.58 1074.59 787.705 1074.59 784.276C1074.59 781.061 1076.09 779.292 1078.23 779.292C1080.48 779.292 1082.01 781.195 1082.01 784.597C1082.01 787.839 1080.51 789.58 1078.34 789.58ZM1096.2 791.054L1098.21 790.92C1098.08 787.892 1098.03 783.606 1098.03 777.873H1095.86C1095.86 782.481 1095.91 785.91 1095.96 788.267C1094.97 788.991 1093.87 789.473 1092.61 789.473C1090.98 789.473 1090.02 788.616 1090.02 786.044V777.792L1087.85 777.953V786.767C1087.85 790.009 1089.37 791.321 1091.7 791.321C1093.58 791.321 1094.97 790.464 1096.07 789.553L1096.2 791.054ZM1112.09 777.765C1105.39 777.256 1103.14 779.4 1103.14 781.489C1103.14 784.785 1110.48 785.16 1110.48 787.49C1110.48 788.669 1108.84 789.634 1103.11 789.178L1103.03 791.107C1110.4 791.509 1112.73 789.446 1112.73 787.303C1112.73 783.954 1105.33 783.365 1105.33 781.195C1105.33 780.123 1106.78 779.212 1112.17 779.694L1112.09 777.765ZM1127.32 791.295L1127.54 789.446C1121.19 789.285 1119.23 788.107 1119.02 784.999L1127.99 784.785C1128.48 780.444 1126.65 777.551 1123.06 777.551C1119.66 777.551 1116.88 780.632 1116.88 784.624C1116.88 788.884 1119.1 791.268 1127.32 791.295ZM1122.69 779.346C1124.89 779.346 1125.93 780.927 1125.96 783.445C1124.11 783.499 1120.52 783.606 1119.02 783.659C1119.18 780.846 1120.52 779.346 1122.69 779.346ZM1134.69 791V785.642C1139.83 785.267 1143.26 783.445 1143.26 779.48C1143.26 775.408 1139.64 773.345 1132.46 774.417V791H1134.69ZM1141.06 779.909C1141.06 782.909 1138.79 783.954 1134.69 783.659V776.158C1139 775.595 1141.06 777.069 1141.06 779.909ZM1151.64 791.375C1155.02 791.375 1157.83 788.535 1157.83 784.195C1157.83 779.989 1155.52 777.524 1152.26 777.524C1148.88 777.524 1146.04 780.418 1146.04 784.677C1146.04 788.91 1148.4 791.375 1151.64 791.375ZM1151.99 789.58C1149.76 789.58 1148.24 787.705 1148.24 784.276C1148.24 781.061 1149.74 779.292 1151.88 779.292C1154.13 779.292 1155.66 781.195 1155.66 784.597C1155.66 787.839 1154.16 789.58 1151.99 789.58ZM1171 777.765C1164.31 777.256 1162.06 779.4 1162.06 781.489C1162.06 784.785 1169.4 785.16 1169.4 787.49C1169.4 788.669 1167.76 789.634 1162.03 789.178L1161.95 791.107C1169.32 791.509 1171.65 789.446 1171.65 787.303C1171.65 783.954 1164.25 783.365 1164.25 781.195C1164.25 780.123 1165.7 779.212 1171.08 779.694L1171 777.765ZM1182.92 775.756L1183.16 772.113H1180.86L1180.7 775.756H1182.92ZM1187.8 791L1187.96 789.339H1183.03V777.873H1176.12L1175.96 779.4L1180.86 779.614V789.339H1175.93V791H1187.8ZM1201.08 791.214L1201.32 789.393C1196.93 789.312 1195.67 788.723 1195.67 786.446V779.56H1201.03V777.873H1195.67V774.041L1193.5 774.229V777.873H1191.01L1190.79 779.56H1193.5V786.794C1193.5 790.036 1195.4 791.295 1201.08 791.214ZM1212.38 775.756L1212.62 772.113H1210.32L1210.16 775.756H1212.38ZM1217.26 791L1217.42 789.339H1212.49V777.873H1205.58L1205.41 779.4L1210.32 779.614V789.339H1205.39V791H1217.26ZM1225.29 791.375C1228.66 791.375 1231.48 788.535 1231.48 784.195C1231.48 779.989 1229.17 777.524 1225.9 777.524C1222.53 777.524 1219.69 780.418 1219.69 784.677C1219.69 788.91 1222.05 791.375 1225.29 791.375ZM1225.64 789.58C1223.41 789.58 1221.89 787.705 1221.89 784.276C1221.89 781.061 1223.39 779.292 1225.53 779.292C1227.78 779.292 1229.31 781.195 1229.31 784.597C1229.31 787.839 1227.81 789.58 1225.64 789.58ZM1240.74 779.426C1242.4 779.426 1243.39 780.311 1243.39 782.829V791H1245.56V782.105C1245.56 778.891 1244.01 777.578 1241.65 777.578C1239.78 777.578 1238.36 778.408 1237.26 779.319L1237.12 777.819L1235.11 777.953C1235.25 780.98 1235.3 785.267 1235.3 791H1237.47C1237.47 786.419 1237.42 782.963 1237.37 780.578C1238.38 779.882 1239.48 779.426 1240.74 779.426ZM1258.77 771.577C1252.98 776.319 1250.65 780.257 1250.65 784.142C1250.65 787.946 1252.93 791.804 1258.66 796.519L1260.16 795.153C1254.77 790.893 1252.79 787.464 1252.79 784.061C1252.79 780.659 1254.75 777.23 1260.24 772.943L1258.77 771.577ZM1274.59 796.599L1275.34 794.831C1270.66 793.411 1268.62 792.366 1268.62 790.946C1268.62 789.393 1270.98 788.267 1270.98 786.58C1270.98 785.535 1270.15 784.463 1267.9 783.9C1270.17 783.284 1271.03 782.186 1271.03 781.195C1271.03 779.694 1268.46 778.382 1268.46 776.988C1268.46 775.783 1270.55 774.711 1275.4 773.345L1274.7 771.55C1268.54 773.506 1266.37 775.354 1266.37 777.203C1266.4 779.212 1269.07 780.364 1269.07 781.57C1269.07 782.373 1268.11 782.99 1264.76 783.284L1264.71 784.865C1267.63 785.052 1268.91 785.883 1268.91 786.901C1268.91 788.16 1266.45 789.312 1266.45 791.429C1266.45 793.411 1268.54 794.644 1274.59 796.599ZM1052.58 823.054L1054.99 822.92L1050.25 816.409L1055.04 809.873H1052.71L1048.93 815.204L1045.02 809.819L1042.64 809.953L1047.43 816.463L1042.61 823H1044.92L1048.72 817.695L1052.58 823.054ZM1065.24 814.186L1065.3 811.051H1062.11L1062.08 814.186H1065.24ZM1065.03 823L1065.14 819.892H1061.95L1061.84 823H1065.03ZM1098.53 823V821.098H1090.26C1095.19 817.106 1098 814.427 1098 811.025C1098 808.265 1095.86 806.095 1088.35 806.175L1088.17 808.212C1094.19 808.238 1095.86 809.471 1095.86 811.534C1095.86 814.266 1092.99 816.919 1087.66 821.232L1087.87 823H1098.53ZM1113 817.481C1113 815.338 1111.17 813.489 1105.23 812.873L1105.52 808.292H1112.3L1112.49 806.39H1103.7L1103.16 814.347C1109.06 814.802 1110.96 816.061 1110.96 817.588C1110.96 819.571 1108.84 820.75 1102.79 821.312L1102.92 823.321C1109.92 822.786 1113 820.482 1113 817.481ZM1120.17 827.608L1121.3 827.956C1123.63 825.786 1124.75 822.759 1123.73 819.732L1120.73 819.892C1122.13 822.839 1121.94 825.518 1120.17 827.608ZM1043.33 859.769C1047.78 859.233 1049.04 858.001 1050.81 853.366C1052.52 849.026 1053.92 845.114 1055.02 841.873H1052.93C1052.23 843.721 1050.35 849.642 1049.36 852.321H1049.09C1047.62 848.972 1046.12 845.168 1044.81 841.819L1042.58 841.953C1043.9 845.168 1046.42 851.249 1047.94 854.598L1048.18 854.652C1047.27 856.795 1046.5 857.25 1043.15 857.759L1043.33 859.769ZM1065.24 846.186L1065.3 843.051H1062.11L1062.08 846.186H1065.24ZM1065.03 855L1065.14 851.892H1061.95L1061.84 855H1065.03ZM1098.67 855L1098.86 853.151H1094.76V837.8L1092.64 837.988V839.89L1088.38 840.399L1088.41 841.98L1092.64 841.765V853.151H1088.06V855H1098.67ZM1113.4 855L1113.59 853.151H1109.49V837.8L1107.37 837.988V839.89L1103.11 840.399L1103.14 841.98L1107.37 841.765V853.151H1102.79V855H1113.4ZM1014.49 892.572C1020.65 890.617 1022.8 888.741 1022.8 886.92C1022.8 884.884 1020.09 883.732 1020.09 882.526C1020.09 881.749 1021.08 881.106 1024.4 880.811L1024.48 879.257C1021.54 879.07 1020.25 878.239 1020.25 877.221C1020.25 875.962 1022.74 874.783 1022.74 872.694C1022.74 870.711 1020.65 869.479 1014.6 867.523L1013.85 869.291C1018.54 870.711 1020.57 871.729 1020.57 873.176C1020.57 874.73 1018.19 875.855 1018.19 877.543C1018.19 878.588 1019.05 879.659 1021.27 880.195C1019.02 880.838 1018.16 881.937 1018.16 882.901C1018.16 884.428 1020.71 885.741 1020.71 887.107C1020.71 888.313 1018.62 889.411 1013.79 890.751L1014.49 892.572ZM1030.37 892.519C1036.19 887.75 1038.49 883.812 1038.49 879.927C1038.49 876.15 1036.21 872.292 1030.48 867.55L1029.01 868.97C1034.36 873.203 1036.35 876.632 1036.35 880.008C1036.35 883.437 1034.39 886.839 1028.9 891.153L1030.37 892.519Z" fill="black"/>
<path d="M1489.45 724.284L1491.74 722.891L1489.66 717.926L1494.74 715.925L1494.13 713.389L1488.73 713.818L1488.41 708.388L1485.73 708.21L1484.48 713.496L1479.3 712.032L1478.27 714.497L1482.91 717.39L1479.98 721.819L1481.98 723.605L1486.09 720.105L1489.45 724.284ZM1503.37 718.14C1504.27 718.14 1504.66 718.676 1504.66 720.176V733H1507.48V718.962C1508.02 718.426 1508.59 718.14 1509.23 718.14C1510.16 718.14 1510.59 718.676 1510.59 720.212V733H1514.27V718.819C1514.27 716.175 1513.27 714.747 1511.23 714.747C1509.66 714.747 1508.41 715.604 1507.45 716.676C1507.09 715.461 1506.27 714.747 1504.87 714.747C1503.41 714.747 1502.16 715.604 1501.19 716.676L1501.05 715.14L1497.66 715.354C1497.8 719.39 1497.8 724.999 1497.8 733H1501.48C1501.48 727.142 1501.44 722.391 1501.37 719.069C1502.02 718.462 1502.69 718.14 1503.37 718.14ZM1525.01 733.536C1529.76 733.536 1533.69 729.642 1533.69 723.713C1533.69 717.926 1530.62 714.675 1526.16 714.675C1521.44 714.675 1517.48 718.747 1517.48 724.534C1517.48 730.285 1520.62 733.536 1525.01 733.536ZM1525.73 730.321C1523.16 730.321 1521.51 728.106 1521.51 723.784C1521.51 719.89 1523.08 717.926 1525.48 717.926C1528.05 717.926 1529.69 720.14 1529.69 724.427C1529.69 728.356 1528.12 730.321 1525.73 730.321ZM1548.9 733.071L1552.58 732.893C1552.37 728.821 1552.3 723.212 1552.3 715.211H1548.33C1548.33 720.962 1548.37 725.57 1548.44 728.856C1547.37 729.607 1546.19 730.071 1544.87 730.071C1543.05 730.071 1541.9 729.071 1541.9 725.927V715.104L1537.94 715.354V727.32C1537.94 731.678 1539.9 733.464 1543.01 733.464C1545.47 733.464 1547.26 732.321 1548.69 731.071L1548.9 733.071ZM1570.87 715.032C1561.54 714.389 1558.26 717.319 1558.26 720.391C1558.26 724.856 1567.76 725.499 1567.76 728.035C1567.76 729.428 1565.58 730.249 1558.51 729.785L1558.36 733.179C1568.61 733.643 1571.9 730.892 1571.9 727.82C1571.9 723.355 1562.36 722.319 1562.36 719.926C1562.36 718.676 1564.4 717.89 1571.01 718.462L1570.87 715.032ZM1591.25 733.429L1591.65 730.107C1583.79 729.928 1581.11 728.749 1580.68 725.177L1592.15 724.856C1592.79 718.676 1590.4 714.747 1585.4 714.747C1580.72 714.747 1576.72 718.962 1576.72 724.427C1576.72 730.214 1579.75 733.536 1591.25 733.429ZM1584.68 717.997C1587.15 717.997 1588.25 719.748 1588.36 722.569C1586.15 722.641 1582.54 722.748 1580.65 722.82C1580.82 719.497 1582.25 717.997 1584.68 717.997ZM1607.89 710.853C1607.89 710.853 1604.5 723.07 1604.25 724.034H1604.11C1603.86 723.07 1600.43 710.853 1600.43 710.853H1596.43V733H1600.11L1599.89 718.212H1600.04L1602.96 728.606H1605.21L1608.11 718.212H1608.25L1608.04 733H1611.82V710.853H1607.89ZM1623.21 733.536C1627.96 733.536 1631.89 729.642 1631.89 723.713C1631.89 717.926 1628.82 714.675 1624.35 714.675C1619.64 714.675 1615.67 718.747 1615.67 724.534C1615.67 730.285 1618.82 733.536 1623.21 733.536ZM1623.93 730.321C1621.35 730.321 1619.71 728.106 1619.71 723.784C1619.71 719.89 1621.28 717.926 1623.68 717.926C1626.25 717.926 1627.89 720.14 1627.89 724.427C1627.89 728.356 1626.32 730.321 1623.93 730.321ZM1643.64 729.142H1643.39C1641.71 724.463 1640.21 719.676 1638.81 715.068L1634.81 715.354C1636.67 721.212 1638.78 727.249 1640.99 733.143H1645.82C1648.07 727.249 1650.28 721.141 1652.1 715.211H1648.1C1646.74 719.783 1645.28 724.498 1643.64 729.142ZM1669.81 733.429L1670.21 730.107C1662.35 729.928 1659.67 728.749 1659.24 725.177L1670.71 724.856C1671.35 718.676 1668.96 714.747 1663.95 714.747C1659.28 714.747 1655.27 718.962 1655.27 724.427C1655.27 730.214 1658.31 733.536 1669.81 733.429ZM1663.24 717.997C1665.7 717.997 1666.81 719.748 1666.92 722.569C1664.7 722.641 1661.1 722.748 1659.2 722.82C1659.38 719.497 1660.81 717.997 1663.24 717.997ZM1685.84 724.284L1688.13 722.891L1686.06 717.926L1691.13 715.925L1690.52 713.389L1685.13 713.818L1684.81 708.388L1682.13 708.21L1680.88 713.496L1675.7 712.032L1674.66 714.497L1679.31 717.39L1676.38 721.819L1678.38 723.605L1682.49 720.105L1685.84 724.284Z" fill="black"/>
<path d="M1463.71 777.765C1457.01 777.256 1454.76 779.4 1454.76 781.489C1454.76 784.785 1462.1 785.16 1462.1 787.49C1462.1 788.669 1460.47 789.634 1454.73 789.178L1454.65 791.107C1462.02 791.509 1464.35 789.446 1464.35 787.303C1464.35 783.954 1456.96 783.365 1456.96 781.195C1456.96 780.123 1458.4 779.212 1463.79 779.694L1463.71 777.765ZM1478.95 791.295L1479.16 789.446C1472.81 789.285 1470.86 788.107 1470.64 784.999L1479.62 784.785C1480.1 780.444 1478.28 777.551 1474.69 777.551C1471.28 777.551 1468.5 780.632 1468.5 784.624C1468.5 788.884 1470.72 791.268 1478.95 791.295ZM1474.31 779.346C1476.51 779.346 1477.55 780.927 1477.58 783.445C1475.73 783.499 1472.14 783.606 1470.64 783.659C1470.8 780.846 1472.14 779.346 1474.31 779.346ZM1493.78 791.214L1494.02 789.393C1489.63 789.312 1488.37 788.723 1488.37 786.446V779.56H1493.73V777.873H1488.37V774.041L1486.2 774.229V777.873H1483.71L1483.5 779.56H1486.2V786.794C1486.2 790.036 1488.1 791.295 1493.78 791.214ZM1506.64 774.39C1506.64 774.39 1504.01 784.034 1503.64 785.428H1503.53C1503.15 784.034 1500.48 774.39 1500.48 774.39H1497.96V791H1499.99L1499.89 778.114H1499.99L1502.78 788.107H1504.28L1507.01 778.114H1507.12L1507.01 791H1509.13V774.39H1506.64ZM1517.99 791.375C1521.37 791.375 1524.18 788.535 1524.18 784.195C1524.18 779.989 1521.88 777.524 1518.61 777.524C1515.23 777.524 1512.39 780.418 1512.39 784.677C1512.39 788.91 1514.75 791.375 1517.99 791.375ZM1518.34 789.58C1516.12 789.58 1514.59 787.705 1514.59 784.276C1514.59 781.061 1516.09 779.292 1518.23 779.292C1520.48 779.292 1522.01 781.195 1522.01 784.597C1522.01 787.839 1520.51 789.58 1518.34 789.58ZM1536.2 791.054L1538.21 790.92C1538.08 787.892 1538.03 783.606 1538.03 777.873H1535.86C1535.86 782.481 1535.91 785.91 1535.96 788.267C1534.97 788.991 1533.87 789.473 1532.61 789.473C1530.98 789.473 1530.02 788.616 1530.02 786.044V777.792L1527.85 777.953V786.767C1527.85 790.009 1529.37 791.321 1531.7 791.321C1533.58 791.321 1534.97 790.464 1536.07 789.553L1536.2 791.054ZM1552.09 777.765C1545.39 777.256 1543.14 779.4 1543.14 781.489C1543.14 784.785 1550.48 785.16 1550.48 787.49C1550.48 788.669 1548.84 789.634 1543.11 789.178L1543.03 791.107C1550.4 791.509 1552.73 789.446 1552.73 787.303C1552.73 783.954 1545.33 783.365 1545.33 781.195C1545.33 780.123 1546.78 779.212 1552.17 779.694L1552.09 777.765ZM1567.32 791.295L1567.54 789.446C1561.19 789.285 1559.23 788.107 1559.02 784.999L1567.99 784.785C1568.48 780.444 1566.65 777.551 1563.06 777.551C1559.66 777.551 1556.88 780.632 1556.88 784.624C1556.88 788.884 1559.1 791.268 1567.32 791.295ZM1562.69 779.346C1564.89 779.346 1565.93 780.927 1565.96 783.445C1564.11 783.499 1560.52 783.606 1559.02 783.659C1559.18 780.846 1560.52 779.346 1562.69 779.346ZM1574.69 791V785.642C1579.83 785.267 1583.26 783.445 1583.26 779.48C1583.26 775.408 1579.64 773.345 1572.46 774.417V791H1574.69ZM1581.06 779.909C1581.06 782.909 1578.79 783.954 1574.69 783.659V776.158C1579 775.595 1581.06 777.069 1581.06 779.909ZM1591.64 791.375C1595.02 791.375 1597.83 788.535 1597.83 784.195C1597.83 779.989 1595.52 777.524 1592.26 777.524C1588.88 777.524 1586.04 780.418 1586.04 784.677C1586.04 788.91 1588.4 791.375 1591.64 791.375ZM1591.99 789.58C1589.76 789.58 1588.24 787.705 1588.24 784.276C1588.24 781.061 1589.74 779.292 1591.88 779.292C1594.13 779.292 1595.66 781.195 1595.66 784.597C1595.66 787.839 1594.16 789.58 1591.99 789.58ZM1611 777.765C1604.31 777.256 1602.06 779.4 1602.06 781.489C1602.06 784.785 1609.4 785.16 1609.4 787.49C1609.4 788.669 1607.76 789.634 1602.03 789.178L1601.95 791.107C1609.32 791.509 1611.65 789.446 1611.65 787.303C1611.65 783.954 1604.25 783.365 1604.25 781.195C1604.25 780.123 1605.7 779.212 1611.08 779.694L1611 777.765ZM1622.92 775.756L1623.16 772.113H1620.86L1620.7 775.756H1622.92ZM1627.8 791L1627.96 789.339H1623.03V777.873H1616.12L1615.96 779.4L1620.86 779.614V789.339H1615.93V791H1627.8ZM1641.08 791.214L1641.32 789.393C1636.93 789.312 1635.67 788.723 1635.67 786.446V779.56H1641.03V777.873H1635.67V774.041L1633.5 774.229V777.873H1631.01L1630.79 779.56H1633.5V786.794C1633.5 790.036 1635.4 791.295 1641.08 791.214ZM1652.38 775.756L1652.62 772.113H1650.32L1650.16 775.756H1652.38ZM1657.26 791L1657.42 789.339H1652.49V777.873H1645.58L1645.41 779.4L1650.32 779.614V789.339H1645.39V791H1657.26ZM1665.29 791.375C1668.66 791.375 1671.48 788.535 1671.48 784.195C1671.48 779.989 1669.17 777.524 1665.9 777.524C1662.53 777.524 1659.69 780.418 1659.69 784.677C1659.69 788.91 1662.05 791.375 1665.29 791.375ZM1665.64 789.58C1663.41 789.58 1661.89 787.705 1661.89 784.276C1661.89 781.061 1663.39 779.292 1665.53 779.292C1667.78 779.292 1669.31 781.195 1669.31 784.597C1669.31 787.839 1667.81 789.58 1665.64 789.58ZM1680.74 779.426C1682.4 779.426 1683.39 780.311 1683.39 782.829V791H1685.56V782.105C1685.56 778.891 1684.01 777.578 1681.65 777.578C1679.78 777.578 1678.36 778.408 1677.26 779.319L1677.12 777.819L1675.11 777.953C1675.25 780.98 1675.3 785.267 1675.3 791H1677.47C1677.47 786.419 1677.42 782.963 1677.37 780.578C1678.38 779.882 1679.48 779.426 1680.74 779.426ZM1698.77 771.577C1692.98 776.319 1690.65 780.257 1690.65 784.142C1690.65 787.946 1692.93 791.804 1698.66 796.519L1700.16 795.153C1694.77 790.893 1692.79 787.464 1692.79 784.061C1692.79 780.659 1694.75 777.23 1700.24 772.943L1698.77 771.577ZM1714.59 796.599L1715.34 794.831C1710.66 793.411 1708.62 792.366 1708.62 790.946C1708.62 789.393 1710.98 788.267 1710.98 786.58C1710.98 785.535 1710.15 784.463 1707.9 783.9C1710.17 783.284 1711.03 782.186 1711.03 781.195C1711.03 779.694 1708.46 778.382 1708.46 776.988C1708.46 775.783 1710.55 774.711 1715.4 773.345L1714.7 771.55C1708.54 773.506 1706.37 775.354 1706.37 777.203C1706.4 779.212 1709.07 780.364 1709.07 781.57C1709.07 782.373 1708.11 782.99 1704.76 783.284L1704.71 784.865C1707.63 785.052 1708.91 785.883 1708.91 786.901C1708.91 788.16 1706.45 789.312 1706.45 791.429C1706.45 793.411 1708.54 794.644 1714.59 796.599ZM1492.58 823.054L1494.99 822.92L1490.25 816.409L1495.04 809.873H1492.71L1488.93 815.204L1485.02 809.819L1482.64 809.953L1487.43 816.463L1482.61 823H1484.92L1488.72 817.695L1492.58 823.054ZM1505.24 814.186L1505.3 811.051H1502.11L1502.08 814.186H1505.24ZM1505.03 823L1505.14 819.892H1501.95L1501.84 823H1505.03ZM1539.12 819.571L1539.34 817.669H1537.3V811.614L1535.27 811.855V817.669H1529.56C1529.67 816.142 1531.38 808.828 1531.97 806.363L1529.64 806.202C1528.41 811.159 1527.76 816.383 1527.85 819.571H1535.27V823H1537.3V819.571H1539.12ZM1542.92 823.321C1550.16 822.973 1553.1 820.91 1553.1 818.124C1553.1 816.195 1551.42 814.481 1546.54 813.677L1552.76 808.265L1552.62 806.39H1542.98V808.292H1550.53L1544.1 813.864V814.909C1549.27 815.499 1551.01 816.838 1551.01 818.285C1551.01 819.919 1548.92 820.991 1542.79 821.312L1542.92 823.321ZM1560.17 827.608L1561.3 827.956C1563.63 825.786 1564.75 822.759 1563.73 819.732L1560.73 819.892C1562.13 822.839 1561.94 825.518 1560.17 827.608ZM1483.33 859.769C1487.78 859.233 1489.04 858.001 1490.81 853.366C1492.52 849.026 1493.92 845.114 1495.02 841.873H1492.93C1492.23 843.721 1490.35 849.642 1489.36 852.321H1489.09C1487.62 848.972 1486.12 845.168 1484.81 841.819L1482.58 841.953C1483.9 845.168 1486.42 851.249 1487.94 854.598L1488.18 854.652C1487.27 856.795 1486.5 857.25 1483.15 857.759L1483.33 859.769ZM1505.24 846.186L1505.3 843.051H1502.11L1502.08 846.186H1505.24ZM1505.03 855L1505.14 851.892H1501.95L1501.84 855H1505.03ZM1538.67 855L1538.86 853.151H1534.76V837.8L1532.64 837.988V839.89L1528.38 840.399L1528.41 841.98L1532.64 841.765V853.151H1528.06V855H1538.67ZM1547.45 855.321C1550.96 855.321 1553.24 853.339 1553.24 850.847C1553.24 848.731 1551.36 847.472 1549.35 846.373C1551.58 845.302 1552.92 843.962 1552.92 841.926C1552.92 839.569 1550.77 838.068 1547.96 838.068C1544.48 838.068 1542.57 840.238 1542.57 842.355C1542.57 844.284 1544.16 845.543 1545.98 846.615C1543.73 847.767 1542.28 849.32 1542.28 851.33C1542.28 853.768 1544.45 855.321 1547.45 855.321ZM1544.66 842.087C1544.66 840.881 1545.71 839.756 1547.77 839.756C1549.78 839.756 1550.88 840.855 1550.88 842.328C1550.88 843.721 1549.86 844.846 1548.17 845.704C1546.3 844.712 1544.66 843.694 1544.66 842.087ZM1547.75 853.634C1545.55 853.634 1544.37 852.482 1544.37 850.847C1544.37 849.428 1545.36 848.195 1547.16 847.311C1549.19 848.436 1551.12 849.508 1551.12 851.142C1551.12 852.562 1549.81 853.634 1547.75 853.634ZM1454.49 892.572C1460.65 890.617 1462.8 888.741 1462.8 886.92C1462.8 884.884 1460.09 883.732 1460.09 882.526C1460.09 881.749 1461.08 881.106 1464.4 880.811L1464.48 879.257C1461.54 879.07 1460.25 878.239 1460.25 877.221C1460.25 875.962 1462.74 874.783 1462.74 872.694C1462.74 870.711 1460.65 869.479 1454.6 867.523L1453.85 869.291C1458.54 870.711 1460.57 871.729 1460.57 873.176C1460.57 874.73 1458.19 875.855 1458.19 877.543C1458.19 878.588 1459.05 879.659 1461.27 880.195C1459.02 880.838 1458.16 881.937 1458.16 882.901C1458.16 884.428 1460.71 885.741 1460.71 887.107C1460.71 888.313 1458.62 889.411 1453.79 890.751L1454.49 892.572ZM1470.37 892.519C1476.19 887.75 1478.49 883.812 1478.49 879.927C1478.49 876.15 1476.21 872.292 1470.48 867.55L1469.01 868.97C1474.36 873.203 1476.35 876.632 1476.35 880.008C1476.35 883.437 1474.39 886.839 1468.9 891.153L1470.37 892.519Z" fill="black"/>
</svg>
