<svg width="1919" height="841" viewBox="0 0 1919 841" fill="none" xmlns="http://www.w3.org/2000/svg">
<rect width="1918.47" height="840.185" fill="#F2F2F2"/>
<path d="M1871.6 355.018C1872.93 353.685 1872.93 351.524 1871.6 350.192L1849.88 328.476C1848.55 327.144 1846.39 327.144 1845.06 328.476C1843.72 329.809 1843.72 331.969 1845.06 333.302L1864.36 352.605L1845.06 371.908C1843.72 373.24 1843.72 375.401 1845.06 376.733C1846.39 378.066 1848.55 378.066 1849.88 376.733L1871.6 355.018ZM48.5308 356.017H55.3242V349.192H48.5308V356.017ZM68.9112 356.017H82.4982V349.192H68.9112V356.017ZM96.0851 356.017H109.672V349.192H96.0851V356.017ZM123.259 356.017H136.846V349.192H123.259V356.017ZM150.433 356.017H164.02V349.192H150.433V356.017ZM177.607 356.017H191.194V349.192H177.607V356.017ZM204.781 356.017H218.368V349.192H204.781V356.017ZM231.955 356.017H245.542V349.192H231.955V356.017ZM259.129 356.017H272.716V349.192H259.129V356.017ZM286.303 356.017H299.89V349.192H286.303V356.017ZM313.477 356.017H327.064V349.192H313.477V356.017ZM340.651 356.017H354.238V349.192H340.651V356.017ZM367.825 356.017H381.412V349.192H367.825V356.017ZM394.999 356.017H408.586V349.192H394.999V356.017ZM422.173 356.017H435.759V349.192H422.173V356.017ZM449.346 356.017H462.933V349.192H449.346V356.017ZM476.52 356.017H490.107V349.192H476.52V356.017ZM503.694 356.017H517.281V349.192H503.694V356.017ZM530.868 356.017H544.455V349.192H530.868V356.017ZM558.042 356.017H571.629V349.192H558.042V356.017ZM585.216 356.017H598.803V349.192H585.216V356.017ZM612.39 356.017H625.977V349.192H612.39V356.017ZM639.564 356.017H653.151V349.192H639.564V356.017ZM666.738 356.017H680.325V349.192H666.738V356.017ZM693.912 356.017H707.499V349.192H693.912V356.017ZM721.086 356.017H734.673V349.192H721.086V356.017ZM748.26 356.017H761.847V349.192H748.26V356.017ZM775.434 356.017H789.021V349.192H775.434V356.017ZM802.608 356.017H816.195V349.192H802.608V356.017ZM829.782 356.017H843.369V349.192H829.782V356.017ZM856.956 356.017H870.543V349.192H856.956V356.017ZM884.13 356.017H897.717V349.192H884.13V356.017ZM911.304 356.017H924.891V349.192H911.304V356.017ZM938.478 356.017H952.065V349.192H938.478V356.017ZM965.651 356.017H979.238V349.192H965.651V356.017ZM992.825 356.017H1006.41V349.192H992.825V356.017ZM1020 356.017H1033.59V349.192H1020V356.017ZM1047.17 356.017H1060.76V349.192H1047.17V356.017ZM1074.35 356.017H1087.93V349.192H1074.35V356.017ZM1101.52 356.017H1115.11V349.192H1101.52V356.017ZM1128.69 356.017H1142.28V349.192H1128.69V356.017ZM1155.87 356.017H1169.46V349.192H1155.87V356.017ZM1183.04 356.017H1196.63V349.192H1183.04V356.017ZM1210.22 356.017H1223.8V349.192H1210.22V356.017ZM1237.39 356.017H1250.98V349.192H1237.39V356.017ZM1264.56 356.017H1278.15V349.192H1264.56V356.017ZM1291.74 356.017H1305.32V349.192H1291.74V356.017ZM1318.91 356.017H1332.5V349.192H1318.91V356.017ZM1346.09 356.017H1359.67V349.192H1346.09V356.017ZM1373.26 356.017H1386.85V349.192H1373.26V356.017ZM1400.43 356.017H1414.02V349.192H1400.43V356.017ZM1427.61 356.017H1441.19V349.192H1427.61V356.017ZM1454.78 356.017H1468.37V349.192H1454.78V356.017ZM1481.95 356.017H1495.54V349.192H1481.95V356.017ZM1509.13 356.017H1522.72V349.192H1509.13V356.017ZM1536.3 356.017H1549.89V349.192H1536.3V356.017ZM1563.48 356.017H1577.06V349.192H1563.48V356.017ZM1590.65 356.017H1604.24V349.192H1590.65V356.017ZM1617.82 356.017H1631.41V349.192H1617.82V356.017ZM1645 356.017H1658.58V349.192H1645V356.017ZM1672.17 356.017H1685.76V349.192H1672.17V356.017ZM1699.35 356.017H1712.93V349.192H1699.35V356.017ZM1726.52 356.017H1740.11V349.192H1726.52V356.017ZM1753.69 356.017H1767.28V349.192H1753.69V356.017ZM1780.87 356.017H1794.45V349.192H1780.87V356.017ZM1808.04 356.017H1821.63V349.192H1808.04V356.017ZM1835.21 356.017H1848.8V349.192H1835.21V356.017ZM1862.39 356.017H1869.18V349.192H1862.39V356.017Z" fill="black"/>
<path d="M124.36 95.6428L417.818 48.5308V445.018L124.36 492.13V95.6428Z" fill="#DDD2E6" fill-opacity="0.97"/>
<path d="M124.36 492.228L417.818 445.116V594.401L124.36 641.513V492.228Z" fill="#FEE198" fill-opacity="0.98"/>
<path d="M211.833 563.283L201.842 564.889L200.838 558.635L209.211 557.29L208.726 554.271L200.353 555.617L199.371 549.507L209.146 547.937L208.592 544.487L194.684 546.721L198.264 569.002L212.064 566.785L211.833 563.283ZM231.019 560.68L225.341 561.592L223.557 550.488L229.595 549.518L229.104 546.463L223.066 547.433L222.962 546.786C222.449 543.588 223.039 542.903 229.545 541.637L228.67 537.796C220.366 539.572 218.333 543.438 219.072 548.038L219.077 548.074L214.693 548.778L214.824 551.891L219.568 551.129L221.352 562.233L216.824 562.961L217.303 565.943L231.139 563.721L231.019 560.68ZM250.778 557.506L245.1 558.418L243.315 547.313L249.353 546.343L248.862 543.289L242.825 544.259L242.721 543.612C242.207 540.413 242.797 539.729 249.303 538.462L248.428 534.621C240.124 536.398 238.091 540.264 238.83 544.864L238.836 544.9L234.451 545.604L234.583 548.716L239.326 547.954L241.111 559.059L236.583 559.786L237.062 562.769L250.897 560.546L250.778 557.506ZM270.833 557.786L270.691 554.38C262.756 555.47 259.87 554.718 258.862 551.193L270.346 549.016C269.994 542.695 266.951 539.129 261.92 539.937C257.212 540.694 253.868 545.581 254.752 551.079C255.687 556.901 259.279 559.753 270.833 557.786ZM261.726 543.323C264.206 542.925 265.603 544.507 266.167 547.328C263.95 547.758 260.338 548.449 258.445 548.827C258.088 545.456 259.283 543.716 261.726 543.323ZM275.043 547.782C275.932 553.317 279.555 557.048 290.581 554.318L290.445 550.948C282.47 552.709 279.655 551.244 278.915 546.644C278.361 543.194 279.398 540.926 288.392 539.776L287.534 536.043C276.831 537.8 274.241 542.787 275.043 547.782ZM310.291 551.299L310.191 547.923C304.711 548.693 302.918 548.317 302.468 545.514L301.14 537.249L307.896 536.163L307.405 533.109L300.649 534.194L299.817 529.019L295.922 530.014L296.696 534.829L293.39 535.36L293.521 538.473L297.187 537.884L298.613 546.76C299.352 551.36 302.264 552.736 310.291 551.299ZM350.947 544.472L350.734 541.078L345.343 541.944L342.185 522.286L338.391 523.227L338.813 525.851L333.371 527.315L333.911 530.214L339.35 529.193L341.498 542.561L335.46 543.531L335.997 546.874L350.947 544.472Z" fill="black"/>
<path d="M229.167 291.063L233.501 289.814L226.706 281.026C228.548 279.181 229.782 276.992 229.331 274.189C228.587 269.553 224.663 267.161 213.862 270.371L217.436 292.616L221.496 291.964L220.261 284.273L223.771 283.635L229.167 291.063ZM218.425 272.845C222.681 271.571 224.941 272.793 225.415 275.74C225.727 277.681 225.01 279.418 223.699 280.661L219.799 281.398L218.425 272.845ZM251.027 287.661L250.885 284.256C242.95 285.346 240.065 284.593 239.056 281.069L250.54 278.892C250.188 272.571 247.145 269.005 242.114 269.813C237.406 270.57 234.062 275.457 234.946 280.955C235.881 286.777 239.473 289.628 251.027 287.661ZM241.92 273.199C244.4 272.801 245.797 274.383 246.361 277.204C244.144 277.634 240.532 278.325 238.639 278.703C238.282 275.332 239.477 273.592 241.92 273.199ZM261.917 270.134C263.75 269.839 265.098 270.655 265.606 273.817L267.338 284.598L271.327 283.958L269.37 271.775C268.671 267.427 266.364 265.917 263.238 266.419C260.758 266.818 259.11 268.262 257.88 269.787L257.336 267.773L253.669 268.583C254.537 272.61 255.515 278.24 256.808 286.29L260.833 285.643C259.91 279.894 259.087 275.233 258.478 271.903C259.477 271.005 260.552 270.353 261.917 270.134ZM283.304 279.158C280.824 279.556 278.752 277.899 278.07 273.658C277.435 269.705 279.016 267.386 281.748 266.948C282.538 266.821 283.43 266.862 284.374 267.005C285.067 271.317 285.663 274.797 286.18 277.553C285.427 278.374 284.49 278.967 283.304 279.158ZM287.257 281.509L290.924 280.698C290.11 276.774 289.154 271.287 287.809 262.914L286.585 255.295L282.654 256.296L283.756 263.16C283.463 263.17 283.212 263.21 282.924 263.256C277.246 264.169 273.216 268.687 274.279 275.299C275.133 280.618 278.403 283.3 282.176 282.694C284.225 282.365 285.722 281.129 286.753 279.746L287.257 281.509ZM310.302 278.138L310.16 274.732C302.225 275.823 299.34 275.07 298.331 271.546L309.815 269.369C309.463 263.048 306.42 259.481 301.389 260.29C296.681 261.046 293.337 265.933 294.221 271.432C295.156 277.254 298.748 280.105 310.302 278.138ZM301.195 263.676C303.675 263.277 305.072 264.859 305.636 267.681C303.419 268.111 299.807 268.802 297.914 269.18C297.557 265.809 298.752 264.068 301.195 263.676ZM329.093 274.677L328.931 271.606L323.505 272.478C322.821 268.68 322.3 265.667 321.795 262.983C323.652 261.69 326.027 260.644 329.089 259.968L328.228 255.757C324.919 256.731 322.604 258.614 321.287 260.742C321.071 259.856 320.532 257.878 320.467 257.704L313.064 258.893L313.197 261.784L317.484 261.39C318.064 264.541 318.7 268.273 319.552 273.113L315.203 273.812L315.688 276.83L329.093 274.677Z" fill="black"/>
<path d="M571.751 95.6428L865.209 48.5308V445.018L571.751 492.13V95.6428Z" fill="#DDD2E6" fill-opacity="0.97"/>
<path d="M571.751 492.228L865.209 445.116V594.401L571.751 641.513V492.228Z" fill="#A8F4C6" fill-opacity="0.97"/>
<path d="M648.328 565.108C639.88 566.908 637.062 564.743 636.121 558.885C635.342 554.034 636.465 551.162 645.658 549.869L644.808 545.951C633.774 547.945 630.932 553.894 631.931 560.111C633.017 566.867 637.184 571.47 648.534 568.688L648.328 565.108ZM668.485 565.335L668.324 562.264L662.789 563.153L659.238 541.052L650.218 542.501L650.315 545.398L655.716 544.825L658.764 563.8L653.23 564.689L653.715 567.708L668.485 565.335ZM687.738 562.684L687.596 559.278C679.661 560.369 676.775 559.616 675.767 556.091L687.25 553.915C686.898 547.594 683.856 544.027 678.824 544.836C674.117 545.592 670.773 550.479 671.656 555.978C672.592 561.799 676.183 564.651 687.738 562.684ZM678.631 548.221C681.111 547.823 682.508 549.405 683.072 552.227C680.855 552.656 677.243 553.347 675.35 553.725C674.992 550.354 676.187 548.614 678.631 548.221ZM699.423 557.673C697.59 557.967 696.254 557.224 696 555.642C695.682 553.666 696.965 552.243 702.592 551.929C702.864 553.397 703.055 554.583 703.294 555.613C702.175 556.678 700.788 557.454 699.423 557.673ZM704.461 559.665L708.098 558.897C707.52 556.446 706.92 553.63 706.36 550.144C705.24 543.172 702.187 541.377 691.377 542.93L691.524 546.371C699.255 545.387 701.364 545.896 702.134 549.311C694.536 550.2 691.619 553.618 692.197 557.212C692.664 560.123 695.14 561.531 698.338 561.018C700.925 560.602 702.64 559.11 703.791 557.561C704.038 558.406 704.402 559.527 704.461 559.665ZM718.386 541.982C720.219 541.687 721.567 542.503 722.075 545.665L723.807 556.446L727.796 555.805L725.839 543.623C725.14 539.274 722.833 537.765 719.707 538.267C717.227 538.666 715.579 540.11 714.349 541.635L713.805 539.621L710.138 540.431C711.006 544.458 711.984 550.088 713.278 558.138L717.302 557.491C716.379 551.742 715.556 547.081 714.947 543.751C715.946 542.853 717.021 542.201 718.386 541.982ZM743.864 553.298L747.537 552.523C746.663 548.461 745.685 542.83 744.392 534.781L740.403 535.421C741.332 541.207 742.113 545.837 742.716 549.132C741.759 550.06 740.648 550.718 739.319 550.931C737.486 551.226 736.174 550.404 735.666 547.242L733.917 536.353L729.968 537.245L731.902 549.284C732.607 553.669 734.872 555.148 737.998 554.646C740.478 554.247 742.09 552.809 743.326 551.32L743.864 553.298ZM758.748 547.773C757.885 547.911 757.179 547.877 756.343 547.717C755.556 543.051 754.953 539.756 754.507 537.21C755.362 536.336 756.407 535.726 757.485 535.552C759.893 535.166 761.988 536.967 762.652 541.1C763.287 545.053 761.479 547.334 758.748 547.773ZM757.838 557.025L756.96 551.562C757.29 551.546 757.577 551.5 757.9 551.448C763.507 550.547 767.5 546.035 766.45 539.494C765.612 534.283 762.314 531.422 758.577 532.022C756.492 532.357 755.001 533.629 753.939 535.053L753.465 533.249L749.834 534.054C750.585 537.582 751.436 542.644 752.919 551.88L753.907 558.025L757.838 557.025ZM807.369 543.021L807.155 539.627L801.764 540.493L798.606 520.835L794.813 521.777L795.234 524.4L789.792 525.864L790.332 528.764L795.771 527.742L797.919 541.111L791.882 542.081L792.419 545.423L807.369 543.021Z" fill="black"/>
<path d="M571.751 641.611L865.209 594.499V743.784L571.751 790.896V641.611Z" fill="#FEE29A"/>
<path d="M659.224 712.667L649.234 714.272L648.229 708.019L656.603 706.673L656.118 703.655L647.744 705L646.763 698.891L656.538 697.32L655.983 693.87L642.076 696.105L645.655 718.386L659.455 716.169L659.224 712.667ZM678.411 710.063L672.733 710.976L670.949 699.871L676.986 698.901L676.495 695.846L670.458 696.816L670.354 696.17C669.84 692.971 670.431 692.286 676.936 691.02L676.061 687.179C667.757 688.956 665.724 692.821 666.463 697.421L666.469 697.457L662.085 698.162L662.216 701.274L666.96 700.512L668.744 711.616L664.216 712.344L664.695 715.327L678.531 713.104L678.411 710.063ZM698.169 706.889L692.491 707.801L690.707 696.697L696.745 695.727L696.254 692.672L690.216 693.642L690.112 692.995C689.599 689.797 690.189 689.112 696.695 687.846L695.82 684.005C687.516 685.781 685.482 689.647 686.222 694.247L686.227 694.283L681.843 694.987L681.974 698.1L686.718 697.337L688.502 708.442L683.974 709.17L684.453 712.152L698.289 709.929L698.169 706.889ZM718.225 707.169L718.083 703.763C710.148 704.854 707.262 704.101 706.253 700.576L717.737 698.4C717.385 692.079 714.342 688.512 709.311 689.321C704.603 690.077 701.26 694.964 702.143 700.463C703.079 706.284 706.67 709.136 718.225 707.169ZM709.118 692.706C711.598 692.308 712.994 693.89 713.558 696.712C711.342 697.141 707.73 697.832 705.836 698.21C705.479 694.839 706.674 693.099 709.118 692.706ZM722.435 697.166C723.324 702.7 726.946 706.431 737.973 703.701L737.837 700.331C729.862 702.092 727.046 700.627 726.307 696.027C725.753 692.577 726.789 690.31 735.784 689.159L734.926 685.426C724.223 687.183 721.632 692.17 722.435 697.166ZM757.682 700.682L757.582 697.306C752.103 698.076 750.31 697.701 749.859 694.898L748.531 686.632L755.287 685.547L754.797 682.492L748.04 683.577L747.209 678.403L743.314 679.397L744.087 684.213L740.781 684.744L740.913 687.856L744.578 687.267L746.004 696.144C746.743 700.744 749.655 702.119 757.682 700.682ZM797.871 693.93L797.317 690.48L787.219 692.102C792.464 686.431 795.46 682.594 794.733 678.066C794.138 674.365 790.635 671.831 780.374 673.59L780.645 677.344C788.173 676.245 790.543 677.228 790.947 679.744C791.478 683.05 788.368 686.867 782.485 693.158L783.389 696.257L797.871 693.93Z" fill="black"/>
<path d="M645.994 295.564L650.328 294.315L643.534 285.527C645.376 283.683 646.609 281.494 646.159 278.691C645.414 274.055 641.491 271.662 630.689 274.872L634.263 297.117L638.324 296.465L637.088 288.774L640.598 288.137L645.994 295.564ZM635.252 277.346C639.508 276.073 641.769 277.295 642.242 280.242C642.554 282.182 641.838 283.919 640.526 285.162L636.626 285.899L635.252 277.346ZM667.854 292.163L667.713 288.757C659.778 289.848 656.892 289.095 655.883 285.57L667.367 283.394C667.015 277.072 663.972 273.506 658.941 274.315C654.233 275.071 650.89 279.958 651.773 285.457C652.708 291.278 656.3 294.13 667.854 292.163ZM658.748 277.7C661.227 277.302 662.624 278.884 663.188 281.706C660.972 282.135 657.359 282.826 655.466 283.204C655.109 279.833 656.304 278.093 658.748 277.7ZM684.617 276.309L673.117 278.156L673.666 281.571L684.878 279.769L684.617 276.309ZM705.269 286.041L709.603 284.792L702.809 276.003C704.651 274.159 705.884 271.97 705.434 269.167C704.689 264.531 700.766 262.139 689.964 265.349L693.538 287.594L697.599 286.941L696.363 279.251L699.873 278.613L705.269 286.041ZM694.527 267.823C698.783 266.549 701.044 267.771 701.517 270.718C701.829 272.659 701.113 274.396 699.801 275.639L695.901 276.376L694.527 267.823ZM727.129 282.639L726.988 279.234C719.053 280.324 716.167 279.571 715.158 276.047L726.642 273.87C726.29 267.549 723.247 263.983 718.216 264.791C713.508 265.548 710.165 270.435 711.048 275.933C711.983 281.755 715.575 284.606 727.129 282.639ZM718.023 268.177C720.502 267.779 721.899 269.36 722.463 272.182C720.247 272.612 716.634 273.303 714.741 273.681C714.384 270.31 715.579 268.57 718.023 268.177ZM738.02 265.112C739.853 264.817 741.2 265.633 741.708 268.795L743.44 279.576L747.429 278.935L745.472 266.753C744.773 262.404 742.467 260.895 739.34 261.397C736.86 261.796 735.212 263.24 733.983 264.765L733.438 262.751L729.771 263.561C730.639 267.588 731.618 273.218 732.911 281.268L736.936 280.621C736.012 274.871 735.19 270.211 734.581 266.881C735.579 265.983 736.654 265.331 738.02 265.112ZM759.406 274.136C756.927 274.534 754.854 272.876 754.173 268.636C753.538 264.683 755.119 262.364 757.85 261.926C758.641 261.798 759.532 261.84 760.477 261.983C761.17 266.295 761.766 269.775 762.282 272.531C761.529 273.352 760.592 273.945 759.406 274.136ZM763.36 276.487L767.027 275.676C766.212 271.752 765.257 266.265 763.911 257.892L762.687 250.273L758.756 251.274L759.859 258.137C759.566 258.148 759.314 258.188 759.027 258.234C753.348 259.147 749.319 263.665 750.381 270.277C751.236 275.596 754.505 278.278 758.279 277.672C760.327 277.343 761.824 276.107 762.856 274.724L763.36 276.487ZM786.405 273.116L786.263 269.71C778.328 270.801 775.442 270.048 774.433 266.524L785.917 264.347C785.565 258.026 782.522 254.459 777.491 255.268C772.783 256.024 769.44 260.911 770.323 266.41C771.259 272.232 774.85 275.083 786.405 273.116ZM777.298 258.653C779.777 258.255 781.174 259.837 781.738 262.659C779.522 263.089 775.91 263.78 774.016 264.157C773.659 260.786 774.854 259.046 777.298 258.653ZM805.195 269.655L805.034 266.584L799.607 267.456C798.923 263.658 798.402 260.645 797.897 257.961C799.754 256.668 802.13 255.622 805.191 254.946L804.33 250.734C801.022 251.708 798.707 253.592 797.39 255.72C797.174 254.833 796.635 252.856 796.57 252.682L789.167 253.871L789.3 256.762L793.586 256.368C794.166 259.519 794.803 263.251 795.654 268.091L791.306 268.789L791.791 271.808L805.195 269.655Z" fill="black"/>
<path d="M1019.14 95.6426L1312.6 48.5305V445.018L1019.14 492.13V95.6426Z" fill="#DDD2E6" fill-opacity="0.97"/>
<path d="M1019 492.112L1312.46 445V594.285L1019 641.397V492.112Z" fill="#FEE29A"/>
<path d="M1106.47 563.167L1096.48 564.773L1095.48 558.52L1103.85 557.174L1103.37 554.155L1094.99 555.501L1094.01 549.391L1103.79 547.821L1103.23 544.371L1089.32 546.606L1092.9 568.886L1106.7 566.669L1106.47 563.167ZM1125.66 560.564L1119.98 561.476L1118.2 550.372L1124.23 549.402L1123.74 546.347L1117.71 547.317L1117.6 546.67C1117.09 543.472 1117.68 542.787 1124.18 541.521L1123.31 537.68C1115.01 539.456 1112.97 543.322 1113.71 547.922L1113.72 547.958L1109.33 548.662L1109.46 551.775L1114.21 551.013L1115.99 562.117L1111.46 562.845L1111.94 565.827L1125.78 563.605L1125.66 560.564ZM1145.42 557.39L1139.74 558.302L1137.96 547.197L1143.99 546.227L1143.5 543.173L1137.46 544.143L1137.36 543.496C1136.85 540.297 1137.44 539.613 1143.94 538.346L1143.07 534.505C1134.76 536.282 1132.73 540.148 1133.47 544.748L1133.48 544.784L1129.09 545.488L1129.22 548.6L1133.97 547.838L1135.75 558.943L1131.22 559.67L1131.7 562.653L1145.54 560.43L1145.42 557.39ZM1165.47 557.67L1165.33 554.264C1157.4 555.354 1154.51 554.602 1153.5 551.077L1164.99 548.9C1164.63 542.579 1161.59 539.013 1156.56 539.821C1151.85 540.578 1148.51 545.465 1149.39 550.963C1150.33 556.785 1153.92 559.637 1165.47 557.67ZM1156.37 543.207C1158.85 542.809 1160.24 544.391 1160.81 547.212C1158.59 547.642 1154.98 548.333 1153.08 548.711C1152.73 545.34 1153.92 543.6 1156.37 543.207ZM1169.68 547.666C1170.57 553.201 1174.19 556.932 1185.22 554.202L1185.08 550.832C1177.11 552.593 1174.29 551.128 1173.56 546.528C1173 543.078 1174.04 540.81 1183.03 539.66L1182.17 535.927C1171.47 537.684 1168.88 542.671 1169.68 547.666ZM1204.93 551.183L1204.83 547.807C1199.35 548.577 1197.56 548.201 1197.11 545.398L1195.78 537.133L1202.54 536.047L1202.04 532.993L1195.29 534.078L1194.46 528.903L1190.56 529.898L1191.34 534.713L1188.03 535.245L1188.16 538.357L1191.83 537.768L1193.25 546.644C1193.99 551.244 1196.9 552.62 1204.93 551.183ZM1231.14 547.155C1240.84 545.082 1244.51 541.579 1243.9 537.734C1243.49 535.218 1240.98 533.336 1234.91 533.169L1241.45 525.704L1240.61 522.3L1227.52 524.402L1228.08 527.852L1237.42 526.35L1230.54 534.203L1230.83 536C1237.34 535.727 1239.84 537.022 1240.1 538.639C1240.38 540.4 1238.1 541.835 1230.27 543.572L1231.14 547.155Z" fill="black"/>
<path d="M1093.39 295.564L1097.72 294.315L1090.93 285.527C1092.77 283.682 1094 281.494 1093.55 278.69C1092.81 274.055 1088.88 271.662 1078.08 274.872L1081.65 297.117L1085.72 296.465L1084.48 288.774L1087.99 288.136L1093.39 295.564ZM1082.64 277.346C1086.9 276.073 1089.16 277.294 1089.63 280.241C1089.95 282.182 1089.23 283.919 1087.92 285.162L1084.02 285.899L1082.64 277.346ZM1115.25 292.162L1115.1 288.757C1107.17 289.847 1104.28 289.095 1103.27 285.57L1114.76 283.393C1114.41 277.072 1111.36 273.506 1106.33 274.314C1101.62 275.071 1098.28 279.958 1099.16 285.456C1100.1 291.278 1103.69 294.129 1115.25 292.162ZM1106.14 277.7C1108.62 277.302 1110.02 278.884 1110.58 281.705C1108.36 282.135 1104.75 282.826 1102.86 283.204C1102.5 279.833 1103.7 278.093 1106.14 277.7ZM1132.01 276.309L1120.51 278.156L1121.06 281.57L1132.27 279.769L1132.01 276.309ZM1152.66 286.041L1156.99 284.791L1150.2 276.003C1152.04 274.159 1153.28 271.97 1152.83 269.167C1152.08 264.531 1148.16 262.139 1137.36 265.349L1140.93 287.594L1144.99 286.941L1143.75 279.251L1147.27 278.613L1152.66 286.041ZM1141.92 267.823C1146.17 266.549 1148.44 267.771 1148.91 270.718C1149.22 272.659 1148.5 274.396 1147.19 275.639L1143.29 276.376L1141.92 267.823ZM1174.52 282.639L1174.38 279.233C1166.44 280.324 1163.56 279.571 1162.55 276.047L1174.03 273.87C1173.68 267.549 1170.64 263.983 1165.61 264.791C1160.9 265.547 1157.56 270.435 1158.44 275.933C1159.38 281.755 1162.97 284.606 1174.52 282.639ZM1165.41 268.177C1167.89 267.778 1169.29 269.36 1169.85 272.182C1167.64 272.612 1164.03 273.303 1162.13 273.681C1161.78 270.31 1162.97 268.569 1165.41 268.177ZM1185.41 265.111C1187.24 264.817 1188.59 265.633 1189.1 268.795L1190.83 279.576L1194.82 278.935L1192.86 266.753C1192.17 262.404 1189.86 260.895 1186.73 261.397C1184.25 261.795 1182.6 263.24 1181.37 264.765L1180.83 262.751L1177.16 263.561C1178.03 267.587 1179.01 273.218 1180.3 281.268L1184.33 280.621C1183.4 274.871 1182.58 270.211 1181.97 266.88C1182.97 265.983 1184.05 265.331 1185.41 265.111ZM1206.8 274.136C1204.32 274.534 1202.25 272.876 1201.56 268.636C1200.93 264.683 1202.51 262.364 1205.24 261.925C1206.03 261.798 1206.92 261.839 1207.87 261.983C1208.56 266.295 1209.16 269.775 1209.67 272.531C1208.92 273.352 1207.98 273.945 1206.8 274.136ZM1210.75 276.486L1214.42 275.676C1213.6 271.752 1212.65 266.265 1211.3 257.892L1210.08 250.273L1206.15 251.273L1207.25 258.137C1206.96 258.148 1206.71 258.188 1206.42 258.234C1200.74 259.146 1196.71 263.665 1197.77 270.277C1198.63 275.596 1201.9 278.278 1205.67 277.671C1207.72 277.342 1209.22 276.106 1210.25 274.724L1210.75 276.486ZM1233.8 273.116L1233.65 269.71C1225.72 270.801 1222.83 270.048 1221.83 266.523L1233.31 264.346C1232.96 258.025 1229.91 254.459 1224.88 255.268C1220.17 256.024 1216.83 260.911 1217.71 266.409C1218.65 272.231 1222.24 275.083 1233.8 273.116ZM1224.69 258.653C1227.17 258.255 1228.57 259.837 1229.13 262.658C1226.91 263.088 1223.3 263.779 1221.41 264.157C1221.05 260.786 1222.25 259.046 1224.69 258.653ZM1252.59 269.654L1252.43 266.584L1247 267.455C1246.31 263.658 1245.79 260.645 1245.29 257.961C1247.15 256.667 1249.52 255.622 1252.58 254.946L1251.72 250.734C1248.41 251.708 1246.1 253.592 1244.78 255.72C1244.57 254.833 1244.03 252.855 1243.96 252.681L1236.56 253.871L1236.69 256.762L1240.98 256.368C1241.56 259.519 1242.19 263.251 1243.05 268.091L1238.7 268.789L1239.18 271.808L1252.59 269.654Z" fill="black"/>
<path d="M1466.53 301.139L1759.99 254.027V403.312L1466.53 450.424V301.139Z" fill="#A8F4C6" fill-opacity="0.97"/>
<path d="M1543.11 374.019C1534.66 375.818 1531.84 373.654 1530.9 367.796C1530.12 362.944 1531.25 360.073 1540.44 358.78L1539.59 354.862C1528.55 356.856 1525.71 362.805 1526.71 369.022C1527.8 375.778 1531.96 380.38 1543.31 377.598L1543.11 374.019ZM1563.27 374.245L1563.1 371.175L1557.57 372.064L1554.02 349.963L1545 351.412L1545.1 354.309L1550.5 353.736L1553.54 372.71L1548.01 373.6L1548.5 376.618L1563.27 374.245ZM1582.52 371.594L1582.38 368.189C1574.44 369.279 1571.56 368.526 1570.55 365.002L1582.03 362.825C1581.68 356.504 1578.64 352.938 1573.6 353.746C1568.9 354.503 1565.55 359.39 1566.44 364.888C1567.37 370.71 1570.96 373.561 1582.52 371.594ZM1573.41 357.132C1575.89 356.734 1577.29 358.316 1577.85 361.137C1575.64 361.567 1572.02 362.258 1570.13 362.636C1569.77 359.265 1570.97 357.525 1573.41 357.132ZM1594.2 366.584C1592.37 366.878 1591.03 366.134 1590.78 364.553C1590.46 362.576 1591.75 361.154 1597.37 360.84C1597.64 362.307 1597.84 363.493 1598.07 364.524C1596.96 365.588 1595.57 366.364 1594.2 366.584ZM1599.24 368.576L1602.88 367.807C1602.3 365.356 1601.7 362.54 1601.14 359.055C1600.02 352.083 1596.97 350.288 1586.16 351.84L1586.3 355.282C1594.04 354.298 1596.14 354.807 1596.91 358.222C1589.32 359.111 1586.4 362.529 1586.98 366.123C1587.44 369.033 1589.92 370.442 1593.12 369.928C1595.71 369.513 1597.42 368.021 1598.57 366.472C1598.82 367.317 1599.18 368.438 1599.24 368.576ZM1613.17 350.892C1615 350.598 1616.35 351.413 1616.86 354.576L1618.59 365.357L1622.58 364.716L1620.62 352.533C1619.92 348.185 1617.61 346.676 1614.49 347.178C1612.01 347.576 1610.36 349.021 1609.13 350.545L1608.58 348.532L1604.92 349.342C1605.79 353.368 1606.76 358.999 1608.06 367.049L1612.08 366.402C1611.16 360.652 1610.34 355.992 1609.73 352.661C1610.73 351.764 1611.8 351.112 1613.17 350.892ZM1638.64 362.208L1642.32 361.434C1641.44 357.372 1640.47 351.741 1639.17 343.691L1635.18 344.332C1636.11 350.118 1636.89 354.748 1637.5 358.043C1636.54 358.971 1635.43 359.628 1634.1 359.842C1632.27 360.136 1630.95 359.315 1630.45 356.152L1628.7 345.264L1624.75 346.156L1626.68 358.195C1627.39 362.579 1629.65 364.059 1632.78 363.556C1635.26 363.158 1636.87 361.719 1638.11 360.23L1638.64 362.208ZM1653.53 356.684C1652.67 356.822 1651.96 356.788 1651.12 356.628C1650.34 351.962 1649.73 348.667 1649.29 346.121C1650.14 345.246 1651.19 344.636 1652.27 344.463C1654.67 344.076 1656.77 345.878 1657.43 350.01C1658.07 353.963 1656.26 356.245 1653.53 356.684ZM1652.62 365.935L1651.74 360.473C1652.07 360.457 1652.36 360.411 1652.68 360.359C1658.29 359.458 1662.28 354.946 1661.23 348.405C1660.39 343.194 1657.09 340.332 1653.36 340.933C1651.27 341.268 1649.78 342.54 1648.72 343.964L1648.25 342.16L1644.61 342.964C1645.37 346.493 1646.22 351.554 1647.7 360.79L1648.69 366.936L1652.62 365.935ZM1687.71 354.731C1697.4 352.658 1701.08 349.155 1700.46 345.31C1700.05 342.794 1697.54 340.912 1691.47 340.745L1698.01 333.28L1697.17 329.876L1684.09 331.978L1684.64 335.427L1693.98 333.926L1687.1 341.779L1687.39 343.576C1693.91 343.303 1696.4 344.598 1696.66 346.215C1696.94 347.976 1694.67 349.411 1686.83 351.148L1687.71 354.731Z" fill="black"/>
<path d="M1630.5 590.5L1629.68 588.377L1630.5 590.5ZM1323.74 520.564C1322.94 521.539 1323.09 522.972 1324.06 523.765L1339.95 536.686C1340.92 537.479 1342.35 537.332 1343.15 536.357C1343.94 535.383 1343.79 533.95 1342.82 533.157L1328.7 521.671L1340.19 507.555C1340.98 506.58 1340.83 505.147 1339.86 504.354C1338.88 503.561 1337.45 503.709 1336.66 504.683L1323.74 520.564ZM1645.49 410.993C1643.72 412.422 1643.72 412.422 1643.72 412.423C1643.72 412.423 1643.72 412.424 1643.72 412.426C1643.72 412.429 1643.73 412.434 1643.73 412.441C1643.75 412.456 1643.76 412.478 1643.79 412.508C1643.84 412.569 1643.91 412.661 1644.01 412.783C1644.2 413.028 1644.49 413.395 1644.86 413.878C1645.6 414.844 1646.68 416.273 1648.01 418.112C1650.67 421.79 1654.34 427.104 1658.37 433.627C1666.44 446.691 1675.89 464.531 1681.56 483.765C1687.24 503.018 1689.06 523.437 1682.18 541.826C1675.33 560.125 1659.71 576.808 1629.68 588.377L1631.32 592.623C1662.29 580.692 1679.04 563.187 1686.44 543.421C1693.81 523.748 1691.75 502.227 1685.93 482.478C1680.1 462.71 1670.42 444.486 1662.24 431.236C1658.14 424.603 1654.41 419.197 1651.69 415.445C1650.33 413.569 1649.23 412.105 1648.46 411.107C1648.08 410.608 1647.78 410.226 1647.58 409.966C1647.48 409.837 1647.4 409.738 1647.34 409.67C1647.32 409.637 1647.3 409.611 1647.28 409.593C1647.27 409.584 1647.27 409.577 1647.27 409.572C1647.26 409.57 1647.26 409.568 1647.26 409.567C1647.26 409.565 1647.26 409.564 1645.49 410.993ZM1629.68 588.377C1599.48 600.011 1575.04 600.606 1553.01 595.295C1530.87 589.96 1511.03 578.646 1489.99 566.15C1447.95 541.186 1401.72 511.881 1325.27 519.737L1325.73 524.263C1400.56 516.574 1445.63 545.099 1487.66 570.062C1508.66 582.529 1529.05 594.201 1551.94 599.718C1574.93 605.258 1600.31 604.569 1631.32 592.623L1629.68 588.377Z" fill="black"/>
<path d="M385.55 529.575C384.872 530.633 385.179 532.04 386.237 532.718L403.474 543.767C404.531 544.445 405.938 544.137 406.617 543.08C407.295 542.022 406.987 540.615 405.929 539.937L390.608 530.116L400.429 514.794C401.107 513.737 400.799 512.329 399.742 511.651C398.684 510.973 397.277 511.281 396.599 512.339L385.55 529.575ZM585.936 567.21C571.466 568.492 559.545 565.213 547.827 559.87C541.945 557.189 536.132 553.996 530.053 550.59C523.994 547.195 517.668 543.587 510.86 540.147C483.423 526.284 448.2 515.189 386.979 528.581L387.951 533.025C448.056 519.877 482.216 530.772 508.808 544.208C515.507 547.593 521.728 551.141 527.829 554.559C533.908 557.965 539.867 561.242 545.94 564.01C558.132 569.568 570.855 573.114 586.338 571.742L585.936 567.21Z" fill="black"/>
</svg>
